<svg id="Layer_1" viewBox="0 0 607.3 537"><style>.st0{fill:url(#SVGID_1_)}.st1{fill:url(#SVGID_2_)}.st2{fill:#231f20}</style><linearGradient id="SVGID_1_" gradientUnits="userSpaceOnUse" x1="299.537" y1="245.058" x2="301.607" y2="499.66" gradientTransform="matrix(1 0 0 -1 0 536.956)"><stop offset="0" stop-color="#3b2314"/><stop offset="1" stop-color="#72be45"/></linearGradient><path class="st0" d="M483.2 129.1c-.4-4.2-1-8.3-1.7-12.4-4.2.1-8.4.3-12.5.6-27.4 2.4-52.9 11.4-75 25.3-3.5-49.4-24.5-97.5-62.1-134.2-3-2.9-6.1-5.7-9.2-8.5-3.2 2.7-6.2 5.5-9.3 8.4-5.2 5-10.2 10.4-15 16-8.1 9.6-15.1 19.8-21.1 30.4-14.6-12.5-31.1-23.1-49.4-31.3-3.8-1.7-7.6-3.3-11.6-4.8-2 3.6-4 7.3-5.8 11-3.2 6.5-6.1 13.2-8.6 20.2-4.5 12.3-7.7 24.6-9.7 37.1-18.6-7.1-38.4-11.7-59.1-13.3-4.1-.3-8.3-.5-12.5-.6-.7 4.1-1.3 8.2-1.7 12.4-.8 7.2-1.2 14.5-1.2 21.9 0 109.3 84.9 199.1 192.3 207.1 2.3.2 4.7.2 7 .3v.2c.9 0 1.7-.1 2.6-.1.7 0 1.5.1 2.2.1h.6v-.3h.1c.2.1.5.2.7.3.1-.1.1-.2.2-.3 2-.1 4-.1 6-.3C416 306.8 484 234.1 484 145.7c0-5.6-.3-11.1-.8-16.6zM308 32.4c4.7-5.5 9.6-10.7 14.7-15.6 37.7 36.3 57.8 84.8 59.4 134.1.2 5.3.1 10.7-.1 16.1-1.9 39.7-16 79.1-42.6 112.3 8.4-24.8 11.8-50.2 10.8-75.1-.3-6.5-.9-13-1.8-19.5-6.4-46-28.1-89-61.7-121.4 6-10.7 13-21.1 21.3-30.9zM202.5 105c17.8 8.6 34.1 19.9 48.4 33.3-4.9 52.7 10.3 106.6 44.6 149.4-63.1-38.5-99-109.8-93-182.7zm134.6 125.9c-1.4 15.1-4.6 30.3-9.7 45.2-.4 1.2-.8 2.3-1.2 3.5-.2.6-.5 1.2-.7 1.8v-.6c0-14.3-1.5-28.2-4.2-41.7-8.4-40.9-28.7-77.4-57.3-105.7 2.5-20 8.1-39.8 16.9-58.5 33.5 33.6 53.8 78.7 56.7 126.1.5 10 .4 19.9-.5 29.9zM262.5 150c31.3 34.6 50.5 80.5 50.5 130.8 0 2.7-.1 5.4-.2 8-35.1-38.7-52.2-88.9-50.3-138.8zm-48.9-95.8c2.5-6.8 5.3-13.4 8.5-19.7 18.3 8.1 34.8 18.9 49.2 31.5-9 18.3-15.1 37.6-18.4 57.3-14.7-12.6-31.1-23.2-48.9-31.3 1.9-12.6 5.1-25.3 9.6-37.8zm-83.4 53.3c0-7.2.4-14.4 1.2-21.4 20.8 1.4 40.6 6.2 59.1 13.6-8.2 80 31.1 158.7 101 200-91.6-16.1-161.3-96.1-161.3-192.2zm206.5 193.6c3.2-3.4 6.4-6.8 9.5-10.4 32.6-38.9 48.5-86.3 48.4-133.5 22-15.3 48-25.1 76.2-27.5.5 5.3.8 10.6.8 16 0 79.1-58.8 144.6-134.9 155.4z"/><linearGradient id="SVGID_2_" gradientUnits="userSpaceOnUse" x1="416.254" y1="244.127" x2="418.324" y2="498.708" gradientTransform="matrix(1 0 0 -1 0 536.956)"><stop offset="0" stop-color="#3b2314"/><stop offset="1" stop-color="#72be45"/></linearGradient><path class="st1" d="M417.9 105.3c6.6 0 12-5.4 12-12s-5.4-12-12-12-12 5.4-12 12c0 6.7 5.4 12 12 12z"/><path class="st2" d="M270.5 466.2v4.5h-47.4v-4.5h47.4z"/><g><path d="M21.6 511.4c.6-.1 1.2-.2 2-.3.8-.1 1.4-.3 1.9-.5s.8-.6.9-1.2c.1-.5.2-1.1.2-1.5 0-1.5-.5-2.8-1.5-3.8s-2.6-1.5-4.9-1.5c-1 0-2 .1-2.8.3-.9.2-1.6.5-2.3.9-.6.4-1.2 1-1.6 1.8-.4.7-.7 1.7-.8 2.8h-3c.1-1.5.4-2.8 1-3.9s1.4-2 2.3-2.6 2-1.2 3.3-1.5c1.2-.3 2.6-.5 3.9-.5 1.3 0 2.5.1 3.7.4s2.1.7 3 1.3c.8.6 1.5 1.4 2 2.5.5 1 .7 2.3.7 3.8v14c0 1.2.2 1.9.6 2.2s1.2.2 2.5-.2v2.3c-.2.1-.6.2-1 .3-.4.1-.9.2-1.3.2-.5 0-.9 0-1.3-.1-.5-.1-.9-.2-1.2-.5-.3-.2-.5-.5-.7-.9-.2-.3-.3-.7-.4-1.1-.1-.4-.1-.9-.1-1.3-1.3 1.4-2.7 2.5-4.3 3.2-1.6.7-3.4 1.1-5.3 1.1-1.1 0-2.2-.1-3.3-.4-1-.3-2-.8-2.8-1.4-.8-.6-1.4-1.4-1.9-2.3-.5-.9-.7-2-.7-3.3 0-4.4 3-7 9-7.8l4.2-.5zm5 1.5c-1.3.5-2.5.9-3.8 1-1.3.2-2.6.3-3.9.4-2.3.2-4.1.7-5.3 1.5-1.3.9-1.9 2.2-1.9 3.9 0 .8.2 1.5.5 2.1.3.6.7 1.1 1.2 1.4.5.4 1.1.7 1.8.8.7.2 1.4.3 2.1.3 1.2 0 2.4-.1 3.5-.4 1.1-.3 2.1-.8 3-1.4.9-.6 1.6-1.4 2.1-2.3.5-.9.8-2.1.8-3.4l-.1-3.9zM94 500.7h3v23.2c0 1.7-.2 3.4-.5 4.9-.3 1.6-1 3-1.9 4.1s-2.1 2.1-3.7 2.9c-1.6.7-3.6 1.1-6 1.1-1.9 0-3.5-.2-4.9-.7s-2.5-1.1-3.3-1.8c-.9-.7-1.5-1.5-2-2.4-.4-.9-.7-1.7-.7-2.5h3.2c.2 1 .6 1.7 1.1 2.4.5.6 1.1 1.1 1.8 1.4.7.3 1.4.6 2.3.7.8.1 1.7.2 2.6.2 2 0 3.6-.3 4.9-1 1.2-.7 2.2-1.6 2.8-2.7s1-2.4 1.2-3.8c.2-1.4.3-2.9.2-4.4-1 1.6-2.3 2.8-3.9 3.6-1.7.8-3.4 1.2-5.2 1.2-2 0-3.7-.4-5.1-1.1-1.4-.7-2.6-1.7-3.6-3-.9-1.2-1.6-2.7-2.1-4.3-.5-1.7-.7-3.4-.7-5.2 0-1.9.2-3.7.6-5.3.4-1.7 1.1-3.1 2.1-4.3s2.1-2.2 3.6-2.9c1.5-.7 3.2-1 5.3-1 .8 0 1.7.1 2.5.3.9.2 1.7.6 2.5 1s1.6 1 2.2 1.6c.7.7 1.2 1.4 1.7 2.2v-4.4zm0 13c0-1.6-.2-3-.6-4.3-.4-1.3-.9-2.5-1.7-3.5-.7-1-1.6-1.7-2.7-2.3-1.1-.6-2.3-.8-3.7-.8-1.3 0-2.4.2-3.5.7-1.1.4-2 1.1-2.8 2s-1.4 1.9-1.9 3.2c-.4 1.2-.7 2.7-.7 4.3-.1 1.6.1 3.1.4 4.5.3 1.4.9 2.6 1.6 3.7.7 1.1 1.7 1.9 2.8 2.5 1.1.6 2.5.9 4 .9 1.4 0 2.6-.3 3.7-.9 1.1-.6 2-1.4 2.7-2.3.7-1 1.3-2.1 1.7-3.4.5-1.5.7-2.9.7-4.3zM144.4 526.4h-3v-25.7h3v4.8h.1c.8-2.1 1.9-3.5 3.2-4.3s3-1.2 5.2-1.2v3.2c-1.7 0-3.1.2-4.2.8-1.1.6-2 1.3-2.6 2.3-.6 1-1.1 2.1-1.3 3.4-.2 1.3-.4 2.7-.4 4.1v12.6zM194.8 495.1v-4.4h3.3v4.4h-3.3zm.2 31.3v-25.7h3v25.7h-3zM242.1 526.4v-35.8h3v22.3l12.6-12.2h4.1l-9.6 9.3 10.8 16.4h-3.3l-9.6-14.4-4.9 4.6v9.7l-3.1.1zM321.4 500.7h3v25.7h-3v-3.6c-.4.5-.8.9-1.3 1.4-.5.5-1.1 1-1.7 1.4-.6.4-1.4.8-2.3 1-.9.3-1.9.4-3 .4-1.7 0-3.2-.2-4.3-.7s-2.1-1.2-2.8-2c-.7-.9-1.2-1.9-1.5-3-.3-1.1-.5-2.4-.5-3.8v-16.9h3v16.9c0 2.2.5 3.9 1.5 5.1 1 1.2 2.7 1.8 5.1 1.8 1.2 0 2.3-.2 3.3-.7 1-.5 1.8-1.2 2.5-2 .7-.9 1.2-1.9 1.5-3.1.4-1.2.5-2.5.5-3.9v-14zM368.8 526.4v-35.8h3v35.8h-3zM425.1 526.5c-.4.1-.8.2-1.4.3-.6.2-1.3.2-2 .2-1.5 0-2.6-.4-3.4-1.1s-1.2-2.1-1.2-4v-18.8h-3.6v-2.5h3.6v-7.2h3v7.2h4.8v2.5h-4.8V522.3c0 .5.1.8.3 1.1.2.3.4.5.8.6.3.1.8.2 1.5.2.4 0 .8 0 1.2-.1.4-.1.8-.1 1.2-.2v2.6zM484.1 500.7h3v25.7h-3v-3.6c-.4.5-.8.9-1.3 1.4-.5.5-1.1 1-1.7 1.4-.6.4-1.4.8-2.3 1s-1.9.4-3 .4c-1.7 0-3.2-.2-4.3-.7s-2.1-1.2-2.8-2c-.7-.9-1.2-1.9-1.5-3-.3-1.1-.5-2.4-.5-3.8v-16.9h3v16.9c0 2.2.5 3.9 1.5 5.1 1 1.2 2.7 1.8 5.1 1.8 1.2 0 2.3-.2 3.3-.7 1-.5 1.8-1.2 2.5-2 .7-.9 1.2-1.9 1.5-3.1.4-1.2.5-2.5.5-3.9v-14zM534.2 526.4h-3v-25.7h3v4.8h.1c.8-2.1 1.9-3.5 3.2-4.3 1.3-.8 3-1.2 5.2-1.2v3.2c-1.7 0-3.1.2-4.2.8-1.1.6-2 1.3-2.6 2.3-.6 1-1.1 2.1-1.3 3.4-.2 1.3-.4 2.7-.4 4.1v12.6zM596.2 511.4c.6-.1 1.2-.2 2-.3.8-.1 1.4-.3 1.9-.5s.8-.6.9-1.2c.1-.5.2-1.1.2-1.5 0-1.5-.5-2.8-1.5-3.8s-2.6-1.5-4.9-1.5c-1 0-2 .1-2.8.3-.9.2-1.6.5-2.3.9-.6.4-1.2 1-1.6 1.8-.4.7-.7 1.7-.8 2.8h-3c.1-1.5.4-2.8 1-3.9s1.4-2 2.3-2.6c.9-.7 2-1.2 3.3-1.5 1.2-.3 2.6-.5 4-.5 1.3 0 2.5.1 3.7.4s2.1.7 3 1.3c.8.6 1.5 1.4 2 2.5.5 1 .7 2.3.7 3.8v14c0 1.2.2 1.9.6 2.2s1.2.2 2.5-.2v2.3c-.2.1-.6.2-1 .3-.4.1-.9.2-1.3.2-.5 0-.9 0-1.3-.1-.5-.1-.9-.2-1.2-.5s-.5-.5-.7-.9c-.2-.3-.3-.7-.4-1.1-.1-.4-.1-.9-.1-1.3-1.3 1.4-2.7 2.5-4.3 3.2-1.6.7-3.4 1.1-5.3 1.1-1.1 0-2.2-.1-3.3-.4-1-.3-2-.8-2.8-1.4-.8-.6-1.4-1.4-1.9-2.3-.5-.9-.7-2-.7-3.3 0-4.4 3-7 9-7.8l4.1-.5zm5 1.5c-1.3.5-2.5.9-3.8 1-1.3.2-2.6.3-3.9.4-2.3.2-4.1.7-5.3 1.5-1.3.9-1.9 2.2-1.9 3.9 0 .8.2 1.5.5 2.1.3.6.7 1.1 1.2 1.4.5.4 1.1.7 1.8.8.7.2 1.4.3 2.1.3 1.2 0 2.4-.1 3.5-.4 1.1-.3 2.1-.8 3-1.4.9-.6 1.6-1.4 2.1-2.3.5-.9.8-2.1.8-3.4l-.1-3.9z"/></g><g><path class="st2" d="M223.1 355.7h4.5v115h-4.5v-115zM318.8 353c33.5 0 51.7 28.9 51.7 60.2 0 31.5-18.1 60.2-51.9 60.2-33.5 0-51.7-28.6-51.7-60.2.1-31.3 18.2-60.2 51.9-60.2zm0 115.9c30.6 0 47.2-26.6 47.2-55.7 0-28.6-16.6-55.7-47.2-55.7-31.1 0-47.4 27.1-47.4 55.7 0 29 16.4 55.7 47.4 55.7zM51.9 353c33.5 0 51.7 28.9 51.7 60.2 0 31.5-18.1 60.2-51.9 60.2C18.1 473.3 0 444.7 0 413.2 0 381.9 18.1 353 51.9 353zm0 115.9c30.6 0 47.2-26.6 47.2-55.7 0-28.6-16.6-55.7-47.2-55.7-31.1 0-47.4 27.1-47.4 55.7 0 29 16.3 55.7 47.4 55.7z"/><path d="M181.8 447.6c13.8-8.6 23-22.7 23-41.7 0-26.1-17.2-42.9-39.6-49.1-4.7-1.3-9.5-2.2-14.5-2.6h-35.6v116.5h4.5v-17.3c7.8 2.8 16.3 4.2 25 4.2 11.7 0 23-2.5 32.6-7.3 8.5 4.8 15.3 11.6 19.2 20.4h4.9c-3.8-9.9-10.7-17.6-19.5-23.1zm-9.7 0c-8.3 3.6-17.7 5.5-27.4 5.5-8.7 0-17.3-1.5-25-4.5v-43-46.9h29.8c.6 0 1.1 0 1.7.1 26.4 2.3 49.2 18.6 49.2 46.9 0 18.4-9.4 31.6-23.1 39.4-1.7.9-3.4 1.7-5.2 2.5z"/><path class="st2" d="M465.6 355.7h4.9l-43.4 115h-5.6l-47.4-115h5.4L424 466.2h.4l41.2-110.5zM488 470.6h-4.5V356.5h4.5v114.1zM601.8 431.5c-2.5 25.7-21 41.8-47 41.8-32.7 0-51-26.4-51-57.7 0-33.3 16.8-62.6 53.7-62.6 21.5 0 40.5 13.2 43.4 37.6h-4.5c-3.6-22.4-19.9-33.1-38.9-33.1-36.7 0-49.2 31.1-49.2 58.2 0 28.2 16.1 53.2 46.5 53.2 22.6 0 40.7-14.3 42.5-37.4h4.5zM581.7 312.1l-32.6 32.2h-3.4l29.5-32.2h6.5z"/></g></svg>