<svg viewBox="0 0 600 159.8"><path fill="#35C0CB" d="M592.9 92.9l-.6-.9-.7-.9c-.4-.5-2.4-2.9-5.1-5.4-3-4.5-6.8-7-13.3-8.9-8.9-2.7-12-3.2-14.6-3.2-2.7 0-5.6.6-9.5 1.8-7.2 2.4-11.3 4.4-14.2 6.7-1.1.9-2 1.9-3 2.9-4.8-4.8-12-9-16.4-10-2.3-.5-6-1-16.9-1-1.3 0-2.5.2-3.7.4-1.4-.2-3-.1-4.3.1h-.1c-3-.3-3.6-.2-7.1.3-5.9.2-10.2 2.4-13 5.5-2.1-1.4-4.7-2.5-8-3.5-8.9-2.7-12-3.2-14.6-3.2-2.7 0-5.6.6-9.5 1.8-7.2 2.4-11.3 4.4-14.2 6.7-1.1.9-2.1 1.9-3 2.9l-1.7 1.7c-3.6-3.8-8.8-8.2-14.6-9.9-8.9-2.7-12-3.2-14.6-3.2-2.7 0-5.6.6-9.5 1.8-7.2 2.4-11.3 4.4-14.2 6.7-1.1.9-2.1 1.9-3 2.9l-2.2 2.1c-1.1-1-2.6-2.3-4.5-4l-.2-.2-.7-.7-.6-.6c-6.2-6-12.7-7.3-19.1-7.6.1-.9 0-1.5 0-1.8 0-9.3-7.4-16.5-16.8-16.5h-8.3c-3.7 0-6.5.4-8.9 1.3-6.6 2.4-10.9 8.8-10.9 16.2 0 .5 0 1.3.1 2.2 0 .7.1 1.4.1 2-4.8-2.1-10.2-3.2-16.3-3.2-6.1 0-11.4.8-15.9 2.4-5.5-2.1-11.7-2.4-16.5-2.4-1.6 0-3.2.2-4.8.6-1.2-.3-2.3-.4-3.5-.4h-7.6c-3.8 0-6.8.8-9.2 1.9-2.7-1-5-1.1-5.6-1.1h-.5c-1.5-.2-2.8-.3-4-.3h-4.8l-6.2.2c-2.9-.6-6.4-.9-10.7-.9-10.4 0-20 4.5-27.2 11.7-1.1-1-2.4-2.2-4.2-3.7l-.2-.2-.7-.7-.6-.6c-6.2-6-12.7-7.3-19.1-7.6v-.5c0-4.8-2.3-10.1-5.9-13.5-3-2.8-6.8-4.3-10.8-4.3H114c-.2-4.8-.4-9.9-.4-14.5 3.6-3.9 5.3-8.8 5.2-13.6 1.1-9.9-3-15.5-6.6-18.5-3-3.6-6.6-5.1-9.5-5.9-1-.3-9.6-2.8-16.2-.6C84.9 2.1 83 3 81.1 4h-.4C66.5.3 63 0 60.6 0c-3.2 0-6.9.6-11.9 2.1-2.7.8-5 1.5-7 2.2h-2.5c-4.1-2-9.1-4-12.4-4-2.8 0-5.2.7-7 1.3-4.4 1.5-7 2.8-9.2 4.5-.9.7-1.6 1.5-2.2 2.1L7.3 9.3C4.8 11.6 3.1 14 2 16.8c-1.3 3.5-2 7.2-2 11 0 5 1.3 9.8 3.6 13.9-.7 3.7-1.1 7.3-1.1 11 0 12.1 3.7 22.9 10.7 31.9-.8.8-1.5 1.6-2 2.4-1.3 1.9-2.9 4.9-3.2 11.2l-.2 4.6 3.5 5.8 3.1 2.7c2.6 2.3 5.7 3.5 10 4.9.9 11.4 3 29.4 8.2 35.2 4.8 5.3 18.7 10.7 27.3 3.3 1.2-1 2.2-2 3-3 1.1 1.5 2.3 2.9 3.6 4 3.1 2.7 6.5 4.1 10.2 4.2h.5c4.9 0 8.6-2.5 10.8-4 2.8-1.9 4.5-4.1 5.6-5.9 3 2.7 7 4.3 11.8 4.3h8.3c1.6 0 4.1 0 6.8-.7 5.9 1.3 8.6 1.4 10.2 1.4 5.5 0 17-4.7 17.1-4.8l.3-.1c3.6-1.6 6.9-3.8 9.8-6.5 9.5 8.9 25.6 12.6 33 12.6 2.2 0 4.4-.3 6.6-.9 1.4.4 2.9.6 4.5.6h4.9c1 0 2.7-.1 5.1-.3h.8c2.2 0 4.3-.5 6.2-1.3 2.1.6 4.5 1 7.2 1 1.7 0 3.2-.1 4.8-.2h3.1l8-1.3 1.3-.5c.4-.2.9-.4 1.3-.6 2.5 1.4 5.4 2.2 8.5 2.2h8.8l7.3-.8 1-.3c1.2-.3 2.4-.8 3.5-1.4 3 1.9 6.8 3.1 11.6 3.1 1.2 0 2.9-.1 4.7-.2 1.2-.1 2-.1 2.8-.1 2.7 0 5.2-.5 7.4-1.3 2.2 1 4.7 1.5 7.4 1.5h8.3c1.6 0 4.1 0 6.8-.7 5.9 1.3 8.6 1.4 10.2 1.4 5.5 0 17-4.7 17.1-4.8l.3-.1c4.1-1.8 7.8-4.4 10.9-7.6.8.9 1.7 1.7 2.6 2.5 3.3 2.9 6.4 4.9 9.5 6.2 1.3.5 4.7 1.9 18.7 3.3l1.9.2 3.3-.5 7.1-2.4c7.5-2.3 11.2-4.3 15.1-8.7l2 2c3.3 2.9 6.4 4.9 9.5 6.2 1.3.5 4.7 1.9 18.7 3.3l1.9.2 3.3-.5 7.1-2.4c3.5-1.1 6.2-2.1 8.5-3.4 3 3.3 7.4 5.4 12.3 5.4l8.9-.1c2.2 0 7.1 0 11.7-2.7 2.7 1.8 6 2.8 9.2 2.8h7.6l2.7.2h.9c5.2 0 9.8-2.1 12.9-5.5 1.7 1.2 3.4 2.1 5.1 2.8 1.3.5 4.7 1.9 18.7 3.3l1.9.2 3.3-.5 7.1-2.4c9.7-3 13.1-5.4 18.8-13.5 5.6-7.9 8.5-16.1 8.5-24.4-.1-7-2.4-14.1-7.2-22.3zM480.8 91c-.2-.2-.4-.5-.6-.7h.6c-.1.1-.1.3-.1.4.1.2.1.3.1.3zM68.9 105.7l-.2.3.2-.3zm-.2.3l.8.5c-.3-.2-.6-.3-.8-.5z"/><path fill="#FFF" d="M133.2 103c-.6-.1-2.3-.3-5.1-.6h-.1c-2.4 0-4.9 1.1-6.9 3.1-2.4 2.4-4 5.7-4 8.6 0 3.1 1.3 6.4 3.7 9.1 2.3 2.6 5.1 4.1 7.6 4.2 2 0 4.9-.9 8.6-2.7 4.1-2 4.7-7.5 4.7-10.6 0-4.7-3.4-10.2-8.5-11.1zm2.1 18.2c-3.3 1.6-5.5 2.3-6.9 2.3-2.8 0-7.4-4.4-7.4-9.4 0-3.4 3.2-7.8 6.9-7.8 2.4.3 4.1.5 4.8.6 2.7.4 5.2 3.9 5.2 7.2-.1 2.7-.5 6.1-2.6 7.1zM214.5 94c0-2.4-.1-5.2-2.4-5.2h-.1l-1.7.1h-.2c-.6-.3-1.5-.4-2.6-.4h-4.9l-5.8.2v.8l-.2-.1c-1.9-1-5.5-1.6-10.8-1.6h-.1c-6.3 0-12.8 2.8-17.8 7.7-5.3 5.3-8.2 12.3-8.2 19.7 0 6.9 1.8 12.7 5.5 17.3 5.3 6.6 19.4 10.6 25.3 10.6 2.3 0 4.7-.8 6.8-2.3l.6-.3c.2.6.5 1.2 1.1 1.6.7.5 1.5.7 2.5.7h4.9c.4 0 2.2-.1 4.8-.3h1.1c1.3 0 2.2-1 2.4-1.9v-.7l.1-.4.1-3.9c0-1.2-.1-3.1-.2-6.1l.8-20.6v-.2c-.5-6.6-.9-11.5-1-14.7zm-3.5 35.4v.1c.1 2.5.2 4.8.2 6.1l-.1 3c-2.9.3-4.3.3-4.6.3h-4.8v-3.1l-1-.1c-1.4-.2-3.4.5-5.4 1.9-1.8 1.1-3.3 1.7-4.8 1.7-5.1 0-17.8-3.6-22.3-9.1-3.2-3.9-4.7-8.7-4.7-14.9 0-6.5 2.5-12.5 7.1-17 4.2-4.2 9.7-6.6 15.1-6.6h.1c4.7 0 7.7.4 9 1.1 1.6.9 2.8 1.5 3.2 1.7l.2.1h.8l1.1-.4.8-.9v-.9l2-.1h4.7c.6 0 1 0 1.1.1.7.3 1.1.3 1.3.3h.6l.1 1.4c.1 3.5.6 8.4 1.2 14.8l-.9 20.5zM275.2 88h-.2c-6.5 0-11.4 1.1-14.7 3.4-1.1.7-1.4.8-1.4.8-.3 0-.3 0-.4-.1l-.1-.1c-2.3-2.6-7.6-4-15.7-4-1.2 0-2.6.3-3.9.9-.8.4-1.5.7-2 .9-.1-.4-.3-.7-.6-.9-.5-.5-1.1-.8-1.8-.8h-7.6c-2.3 0-4 .5-5.1 1.5-.6.5-1 1.2-1 1.8l.5 5.6-.5 2.4c-.2.9-.3 2-.3 3.1v6c-.2 8.2-.2 13.6-.3 16.7v4l-.1 9.1c0 1.2.1 2.3 1.2 3.1.8.6 2.1.9 4.3.9h.2c1.4 0 2.9-.1 4.2-.2h2.7l5.5-.9.2-.1c.8-.3 1.3-.9 1.5-1.7v-.1l-.3-3.6-.1-8-.3-9.2.4-5.3c.2-3.3.3-3.9.3-3.9 0-.1.1-.2.5-.6 1.3-1.3 2.8-1.9 5-1.9 3.7 0 3.8 0 4.2 9.3v.9l.6 5.4-.2 9.4.2 4.4c-.3 1.8-.5 2.6-.5 2.6v.4c0 1.6 1.4 2.7 3.2 2.7h8.8l4.7-.5h.2c1.3-.3 2.1-1.2 2.1-2.3V138l-.1-.2V136.9c.2-2.4.4-4.5.4-5.7l-.2-9.8c.3-7 .4-10.2.5-11.4.5-.3 1.3-.9 2.5-1.6l.1-.1c1-.8 1.7-1.2 2.1-1.5.6.1 1.2.3 2.1.8 2.2 1.3 3 2.3 3.3 2.9-.4.7-.5 1.6-.5 2l.2 13.9c-.2 6.9-.2 10.4-.2 11.5 0 1.2.2 2.7 1.4 3.8 1 .8 2.4 1.2 4.7 1.2.7 0 2 0 3.8-.2 1.6-.1 2.8-.1 3.5-.1 4.3-.1 5.9-2.4 5.9-4.5v-12.9l.1-5.2c.1-3 .1-4.9.1-5.5 0-8.5-1.9-15.1-5.9-19.6-3.6-4.6-9.5-6.9-17.2-6.9zm19.4 31.9l-.1 5.1v12.9c0 .2 0 .6-2 .7-.7 0-2.1 0-3.7.1-2.1.2-3.2.2-3.5.2-1.6 0-2.1-.1-2.2-.1 0-.1-.1-.3-.1-.9 0-1 .1-4.7.2-11.5l-.2-13.8c.4-.4.6-1 .6-1.6 0-2.4-1.8-4.7-5.4-6.7-1.5-.9-3-1.3-4.3-1.3-.7 0-1.5.4-3.9 2.2-3.1 1.7-3.9 2.5-4.1 3.3-.2.6-.4 2.2-.7 12.9l.2 9.9c0 .7-.1 2.3-.3 5.4-.1.4-.1.8-.1 1.1v.2l-3.2.4h-7.7l.3-1.6-.2-4.7.2-9.6-.6-5.6-.1-1.3c-.4-8.8-.6-12.4-8.1-12.4-3 0-5.7 1-7.8 3-.7.7-1.3 1.6-1.5 2.5v.1c0 .2-.1 1-.3 4.4l-.4 5.4v.1l.3 9.3.1 8.1.2 1.8h-.4l-3.1.5h-2.6c-1.3.1-2.6.2-4 .2h-1.9v-.1l.1-8.2v-5c0-3 .1-8.4.3-16.6v-6c0-.9.1-1.7.2-2.4l.6-2.9-.4-5.1c.5-.2 1.2-.3 2.1-.3h6.3l-.1.9.9 1.4.4.1c.8.3 1.6 0 6.1-2 .8-.4 1.5-.6 2.3-.6 9.5 0 12.1 1.9 12.8 2.7.8 1 2.1 1.5 3.4 1.5.9 0 2-.5 3.5-1.5 2.7-1.8 6.9-2.7 12.7-2.7 6.7 0 11.5 1.8 14.7 5.5s4.9 9.4 4.8 17c-.2.7-.2 2.5-.3 5.6zm60.6-19.3c-.9-1-3.2-3.1-7.1-6.6-.3-.3-.8-.7-1.4-1.3l-.7-.7c-3.7-3.6-7.2-4-15.5-4-1.9 0-3.6.3-4.8.8-.9.3-1.7.6-2.3.8v-4.7c0-1.9-.1-4.2-.3-6.8-.1-1.2-.2-2.2-.2-3.1v-.7c.1-.8.1-1.2.1-1.4 0-1.9-1.5-3.2-3.5-3.3h-8.3c-2 0-3.4.2-4.3.5-1.4.5-2.2 1.9-2.2 3.7v1.3c.1 1.9.1 3.3.1 4.3 0 1.1-.1 3.4-.5 7.8-.4 4-.6 7-.6 9.1 0 1.4.1 4.4.5 10.3.1 1.8.2 3.5.2 5 0 1.4-.2 3.5-.4 6-.4 3.1-.6 6.1-.6 8.9 0 2.6 0 4.9.1 6.6l.1 5.2c0 4 1.9 4.3 3.8 4.4h8.4c2.9 0 4.1-.2 4.8-1l.1-.1c.2-.2.3-.5.4-.9 1.2.7 2.7 1.2 4.1 1.5 3.7.8 6.2 1.2 7.7 1.2 1.6 0 9.1-2.5 12.1-3.7 7-3.1 14.6-11.4 14.6-25.3 0-3.3-.5-6.4-1.6-9.1-.9-1.9-1.8-3.5-2.8-4.7zm-11.9 35.6c-3.2 1.4-9.7 3.4-10.5 3.5-1.1 0-3.4-.4-6.9-1.2-1.2-.3-2.2-.6-3.2-1.2l-.7-.3c-1.1-.6-1.7-.9-2.1-1.1l-.6-.3-2.1 1.4v1.8H307.4v-.5l-.1-5.2c0-2-.1-4.2-.1-6.6 0-2.7.2-5.5.6-8.4.3-2.7.5-4.8.5-6.4 0-1.1 0-2.9-.2-5.2-.3-5.1-.5-8.5-.5-10 0-2 .2-4.8.6-8.8.3-3.5.5-6.3.5-8.1 0-1.1 0-2.6-.1-4.6v-1.2c.4-.1 1.3-.2 2.7-.2h7.9v1.5c0 .7 0 1.8.2 3.4.2 2.4.3 4.5.3 6.4v7.8c.2.8.7 1.1 1 1.3 1.1.6 2.5 0 5.6-1.2l.9-.3c1-.4 2.1-.5 3.5-.5 8.5 0 10.3.4 12.9 3l.7.7c.6.6 1.1 1 1.5 1.4 4.3 3.8 6.4 5.8 6.7 6.1.7.8 1.3 2 1.9 3.6.9 2.5 1.4 5 1.4 7.7-.3 12-6.6 19.1-12.5 21.7z"/><path fill="#FFF" d="M195.4 105.8c-1.5-1.3-2.5-1.9-3.4-2.2-1.6-.6-3.2-.9-4.5-.9h-.1c-3.9 0-7 1.2-9.2 3.6-1.9 2.1-2.9 5.1-2.9 8.5 0 5.8 1.9 9.1 6.6 11.2 1.8 1 3.7 1.6 5.3 1.6h.1c5.9 0 8.6-1.8 11.1-7.2.9-1.9 1.4-4 1.4-6.1.1-4-2.2-6.6-4.4-8.5zm-.4 12.9c-1.9 4.2-3.2 5-7.8 5-1.1 0-2.2-.4-3.6-1.2-3.1-1.4-4.5-2.8-4.5-7.7 0-2.6.7-4.6 1.9-5.9 1.4-1.5 3.5-2.3 6.3-2.3h.1c.8 0 1.9.2 3.3.7.3.1.9.5 2.1 1.4 2.1 1.8 3.2 3.2 3.2 5.6 0 1.6-.3 3-1 4.4zm140.6-15c-.6-.1-2.3-.3-5.1-.6h-.1c-2.5 0-4.9 1.1-6.9 3.1-2.4 2.4-4 5.7-4 8.6 0 3.1 1.3 6.4 3.7 9.1 2.3 2.6 5.1 4.1 7.6 4.2 2 0 4.9-.9 8.6-2.7 4.1-2 4.7-7.5 4.7-10.6 0-4.7-3.4-10.2-8.5-11.1zm2.1 18.2c-3.3 1.6-5.5 2.3-6.9 2.3-2.8 0-7.4-4.4-7.4-9.4 0-3.4 3.2-7.8 6.9-7.8 2.4.3 4.1.5 4.8.6 2.7.4 5.2 3.9 5.2 7.2-.1 2.7-.5 6.1-2.6 7.1zm55.3-18.2l-2.7.2c-2.3.1-3.9.4-4.9.8h-.1l-.3.2c-4.6 2.8-7 6.6-7.1 10.8 0 7.3 6.5 12.3 12.4 12.4h.1c7.7 0 12.4-4.5 12.4-12 0-5.7-5-12-9.8-12.4zm-2.6 20.5c-2 0-4.2-.9-5.8-2.3-1.8-1.6-2.8-3.8-2.8-6.1 0-2.9 1.8-5.4 5.2-7.5.3-.1 1.2-.3 3.5-.4l2.4-.2c2.6.4 6 4.6 6 8.5 0 5.3-2.8 8-8.5 8z"/><path fill="#FFF" d="M412.9 100.6c-.1-.1-1.8-2.2-4-4.2-.5-.5-1-1-1.4-1.5-.2-.2-.3-.4-.4-.6-.9-1.5-1.8-2.4-6.2-3.7-8.7-2.6-10.3-2.7-10.8-2.7-1.2 0-2.8.3-5.2 1.1-5.3 1.8-8.7 3.3-10.2 4.5-.4.3-.9.9-1.6 1.6l-3.5 3.4c-2 1.8-3.3 3.5-3.9 5-1.5 4-2.3 8.2-2.4 12.5 0 8.6 3 15.7 9 21 2.1 1.9 4 3.1 5.7 3.8 2.8 1.2 13.8 2.3 15 2.4h.2l6.7-2.1c7.1-2.2 8-2.8 12.1-8.5 4-5.5 6-11.2 6.1-16.7 0-4.1-1.7-9.2-5.2-15.1v-.2zm-3.8 29.7c-3.7 5-3.8 5.1-10.2 7.1l-5.8 1.9c-7.2-.8-12.2-1.6-13.6-2.1-1.2-.5-2.7-1.5-4.5-3.1-5.2-4.6-7.7-10.5-7.7-18.1 0-4 .7-7.6 2.1-11.2.3-.9 1.2-2 2.9-3.4l2.8-2.6.3-.3c.9-1 1.6-1.8 1.9-2 1.2-1 4.3-2.3 9.1-3.9 2.1-.7 3.3-.9 3.9-.9.7 0 3.7.6 9.7 2.5.4.1.8.2 1.1.3 1.6.5 1.8.5 3.5 2.7.5.7 1.1 1.5 1.9 2.1.8.7 2.6 2.5 3.2 3.2l.2.3c3.1 5.3 4.7 9.7 4.7 13.1-.2 4.8-2 9.5-5.5 14.4zm41.5-26.4l-2.7.2c-2.3.1-3.9.4-4.9.8h-.1l-.3.2c-4.6 2.8-7 6.6-7.1 10.8 0 7.3 6.5 12.3 12.4 12.4h.1c7.7 0 12.4-4.5 12.4-12 0-5.7-5-12-9.8-12.4zm-2.6 20.5s-.1 0 0 0c-2 0-4.2-.9-5.8-2.3-1.8-1.6-2.8-3.8-2.8-6.1 0-2.9 1.8-5.4 5.2-7.5.3-.1 1.2-.3 3.5-.4l2.4-.2c2.6.4 6 4.6 6 8.5 0 5.3-2.8 8-8.5 8z"/><path fill="#FFF" d="M470.5 100.8c-.1-.1-1.8-2.2-4-4.2-.5-.5-1-1-1.4-1.5-.2-.2-.3-.4-.4-.6-.9-1.5-1.8-2.4-6.2-3.7-8.7-2.6-10.3-2.7-10.8-2.7-1.2 0-2.8.3-5.2 1.1-5.3 1.8-8.7 3.3-10.2 4.5-.4.3-.9.9-1.6 1.6l-3.5 3.4c-2 1.8-3.3 3.5-3.9 5-1.5 4-2.3 8.2-2.4 12.5 0 8.6 3 15.7 9 21 2.1 1.9 4 3.1 5.7 3.8 2.8 1.2 13.8 2.3 15 2.4h.2l6.7-2.1c7.1-2.2 8-2.8 12.1-8.5 4-5.5 6-11.2 6.1-16.7 0-4.1-1.7-9.2-5.2-15.1v-.2zm-3.8 29.7c-3.7 5-3.8 5.1-10.2 7.1l-5.8 1.9c-7.2-.8-12.2-1.6-13.6-2.1-1.2-.5-2.7-1.5-4.5-3.1-5.2-4.6-7.7-10.5-7.7-18.1 0-4 .7-7.6 2.1-11.2.3-.9 1.2-2 2.8-3.4l2.8-2.6.3-.3c.9-1 1.6-1.8 1.9-2 1.2-1 4.3-2.3 9.1-3.9 2.1-.7 3.3-.9 3.9-.9.7 0 3.7.6 9.7 2.5.4.1.8.2 1.1.3 1.6.5 1.8.5 3.5 2.7.5.7 1.1 1.5 1.9 2.1.8.7 2.6 2.5 3.2 3.2l.2.3c3.1 5.3 4.7 9.7 4.7 13.1-.2 4.8-1.9 9.5-5.4 14.4zm60.2-13.8c0-.7.2-1.8.4-3.3.3-1.7.4-2.7.4-3.2 0-3.7-1.3-8-3.9-12.7-1.3-2.5-8.3-7.3-11.2-8-2.1-.5-6.8-.7-14-.8-.5 0-1.5.1-3.5 1.3-.4-.6-1-.9-1.8-.9-.5 0-1.1.2-1.3.3h-.1c-.7 0-1.6-.1-2.7-.2-.5-.1-1-.1-1.3-.1-.5 0-1.4.1-3.5.4-4 0-4.8 1.5-4.8 2.7 0 .4 0 .7.1 1.2v1.8c-.1 1-.2 2.8-.2 5.4-.1 4.7-.2 7.2-.2 7.7l.3 9.7-.4 12.4c-.1 1.1-.1 1.7-.1 1.9v5.4c-.1.8-.1 1.3-.1 1.5 0 2.1 1.4 3.6 3.4 3.6h3l2.4-.1h3.6c3.2 0 4.8-.4 5.8-1.4 1.1-1.1 1-2.6 1-4.3v-1.3c0-2-.1-4.5-.2-8.3-.1-2.4-.1-4.1-.1-5.2 0-5.8.4-9.8 1.2-11.8.5-1.3 2.4-2.5 4.1-2.5 1.1 0 1.9.3 2.8 1 2.2 1.9 3.3 5.3 3.3 10.7 0 1.7-.1 3.3-.4 5l-.6 4.1.6 10.7c0 .9.5 1.8 1.3 2.7l.1.1c.6.5 1.4.8 2.1.8h7.9l3.2.2h.1c2.2 0 3.8-1.3 3.8-3.1 0-.3 0-.8-.1-1.2v-.7c0-.5.1-1.4.2-2.6.2-1.8.3-3.6.3-5.4 0-1.8-.1-3.6-.3-5.6-.4-3.8-.6-6.7-.6-7.9zm-43.5-24.6c0 .1 0 .1 0 0h-.2c0 .1.1.1.2 0zm40.2 42.8c-.2 1.4-.3 2.4-.3 3.1 0 .3 0 .7.1 1.1v.1l-2.9-.2h-7.8l-.6-10.3.6-3.7c.3-1.7.4-3.6.4-5.5 0-6.5-1.5-11.1-4.6-13.6-1.5-1.3-3.3-1.9-5.3-2-3.2 0-6.6 2.2-7.7 5-1 2.4-1.5 6.7-1.5 13.2 0 1.1 0 3 .1 5.4.1 2.8.2 5.7.2 8.1 0 1 0 2.7-.2 3.2h-6.5l-2.4.1h-2.3c0-.2 0-.6.1-1.1v-5.6c0-.2 0-.8.1-1.7l.4-12.5v-.1l-.3-9.4v-.1c0-.7.2-3.2.2-7.9 0-2.5.1-4.1.2-5.1.1-.6.1-1.1.1-1.5v-.6c.3 0 .6-.1 1 0h.1l1.5-.2c.9-.1 1.6-.2 1.8-.2h.8c1.5.2 2.5.2 3.1.2h.2l.5 3 1.6-1c2.3-1.6 4-2.6 4.5-2.6 8.6 0 11.9.4 13.2.7 2.1.5 7.9 4.7 8.6 6 2.3 4.3 3.5 7.9 3.5 10.9 0 .3-.2 1.2-.3 2.4v.3c-.3 1.9-.4 3-.4 3.8 0 1.4.2 4.2.6 8.2.2 1.7.3 3.5.3 5.1-.4 1.7-.5 3.4-.7 5zm57.8-33.4c-.2-.4-.7-1.4-4.1-4.5-.5-.5-1-1-1.4-1.5-.2-.2-.3-.4-.4-.6-.9-1.5-1.8-2.4-6.2-3.7-8.8-2.7-10.3-2.7-10.8-2.7-1.2 0-2.8.3-5.2 1.1-5.3 1.8-8.7 3.3-10.2 4.5-.4.3-.9.9-1.7 1.6l-3.5 3.4c-2 1.8-3.3 3.5-3.9 5-1.5 4-2.3 8.2-2.4 12.5 0 8.6 3 15.7 9 21 2.1 1.9 4 3.1 5.7 3.8 2.8 1.2 13.8 2.3 15 2.4h.2l6.7-2.1c7.1-2.2 8-2.8 12.1-8.5 4-5.5 6-11.2 6.1-16.7.2-4.1-4.5-13.9-5-15zm-4 29.4c-3.7 5-3.8 5.1-10.2 7.1l-5.8 1.9c-7.2-.8-12.2-1.6-13.6-2.1-1.2-.5-2.7-1.5-4.5-3.1-5.2-4.6-7.7-10.5-7.7-18.1 0-4 .7-7.6 2.1-11.2.3-.8 1.3-2 2.9-3.4l2.8-2.6.3-.3c.9-1 1.6-1.7 1.8-2 1.2-1 4.3-2.3 9.1-3.9 2.1-.7 3.3-.9 3.9-.9.7 0 3.7.6 9.7 2.5.4.1.8.2 1.1.3 1.6.5 1.8.5 3.5 2.7.5.7 1.1 1.5 1.9 2.1.8.7 2.6 2.5 3.2 3.2l.2.3c3.1 5.3 4.7 9.7 4.7 13.1-.1 4.8-1.8 9.5-5.4 14.4z"/><path fill="#FFF" d="M561.3 104.3l-2.7.2c-2.3.1-3.9.4-4.9.8h-.1l-.3.2c-4.6 2.8-7 6.6-7.1 10.8 0 3.4 1.4 6.6 4.1 9 2.3 2.1 5.4 3.3 8.3 3.4h.1c7.7 0 12.4-4.5 12.4-12 0-5.7-5-12.1-9.8-12.4zm-2.6 20.4c-4.1 0-8.6-3.5-8.6-8.5 0-2.9 1.8-5.4 5.2-7.5.3-.1 1.2-.3 3.5-.4l2.4-.2c2.6.4 6 4.6 6 8.5 0 5.5-2.8 8.1-8.5 8.1zM152.8 99.9c-.9-1-3.2-3.1-7.1-6.6-.4-.3-.8-.7-1.4-1.3l-.7-.6c-3.7-3.6-7.2-4-15.5-4h-.1c-1.9 0-3.5.3-4.8.8-.9.3-1.7.6-2.3.8v-4.7c0-1.9-.1-4.2-.3-6.8-.1-1.2-.2-2.2-.2-3.1v-.7c.1-.8.1-1.2.1-1.4 0-.9-.4-1.8-1.1-2.4-.6-.6-1.5-.9-2.4-.9h-8.3c-1 0-1.8 0-2.5.1 2.6-5.2 3.9-10.4 3.9-15.6 0-4.2-1.3-9-3.8-14.3.1-.2.3-.4.4-.5 2.3-3.2 3.5-6.5 3.5-9.8 0-2.4-1.7-6.4-2.8-8.6l-.1-.1c-.3-.6-.8-1.3-2.6-3l-.3-.3-.1-.1c-1-1.5-2.2-2.3-4.7-3.1-4.3-1.3-5.4-1.4-6.1-1.4-.9 0-2 .2-3.5.7-3.5 1.2-4.9 2-5.7 2.5-1.4-.5-3-1-5-1.6-13.5-3.6-17.2-4-18.7-4-2.2 0-5.1.5-9.2 1.7-6.1 1.8-10.7 3.3-13.9 4.7-1-1.4-2.2-2.2-4.5-2.9-4.2-1.3-5.3-1.4-6-1.4-.9 0-2 .2-3.5.7-3.8 1.3-5.1 2.1-5.9 2.7-.4.3-.7.6-1.1 1.1L15 17.9c-1.3 1.2-2.2 2.4-2.7 3.6-.9 2.3-1.3 4.7-1.3 7.1 0 4.5 1.5 8.5 4.4 11.6-1.3 4.4-2 8.9-2 13.4 0 13.3 5.5 24.7 16.1 32.9.6.5 1.2.9 1.7 1.3-3.3.9-6.2 2.2-8.4 3.8-1.4.9-2.3 1.8-2.8 2.6-.3.4-1.1 1.6-1.4 5.6v1.2l.9 1.5 1.8 1.6c2.3 2.1 3.4 2.4 7.3 2.9 2 .2 3.9.3 5.8.2v.1c0 4 .5 7.8 1.5 11.4.2 3 .9 6.1 1.5 8.7.2 1.1.4 2.1.6 2.9.1.7.2 1.4.3 2.3.2 1.9.5 4.2 1.2 6.8l.1.3c0 .1.5 1.4 1.2 2.8.1.2.2.4.2.6l.1.2c.3 1.2.9 2.5 2.8 3.9 2.4 1.7 3.5 2.1 4.8 2.1 1.5 0 2.6-.8 3.5-1.6 1.7-1.4 2.7-2.7 3.2-3.8.1-.2.3-.7.5-1.3l.7-1.9.6-1.5c3.5.6 7 1.1 7.8 1.1h.3l1.7-.1 1-.4c.2.6.4 1.1.6 1.7l.8 2c.2.6.4 1 .5 1.3.5 1.2 1.6 2.4 3.2 3.9.8.7 1.9 1.5 3.4 1.6h.2c1.2 0 2.3-.5 4.6-2.1 2-1.3 2.5-2.7 2.9-3.8l.1-.2.3-.6c.7-1.3 1.2-2.7 1.2-2.8l.1-.3c.7-2.6 1-4.9 1.3-6.7.1-.8.2-1.6.3-2.3.1-.8.5-2 .8-3.2.6-2 1.2-4.3 1.5-6.4 2.2-4.8 3.3-9.7 3.3-14.5 0-2.4-.4-5-1.2-7.9.5-.2 1.1-.4 1.5-.6 2.7-1.2 5.4-2.8 7.9-4.8V96c0 1.4.1 4.4.5 10.3.1 1.8.2 3.5.2 5 0 1.4-.2 3.5-.4 6-.4 3.1-.6 6.1-.6 8.9 0 2.6 0 4.9.1 6.6l.1 5.2c0 4 1.9 4.4 3.8 4.4h8.4c2.9 0 4.1-.2 4.8-1l.1-.1c.2-.2.3-.5.4-.9 1.2.7 2.7 1.2 4.1 1.5 3.7.8 6.2 1.2 7.7 1.2 1.6 0 9.1-2.5 12.1-3.7 7-3.1 14.6-11.4 14.6-25.3 0-3.3-.5-6.4-1.6-9.1-.9-2.3-1.8-3.9-2.8-5.1zm-11.9 35.6c-3.2 1.4-9.7 3.4-10.5 3.5-1.1 0-3.4-.4-6.9-1.2-1.2-.3-2.2-.6-3.2-1.2l-.8-.4c-1-.5-1.6-.8-1.9-1l-.6-.3-2.1 1.4v1.8H105.1v-.5l-.1-5.2c0-1.9-.1-4.1-.1-6.6 0-2.7.2-5.5.6-8.5.3-2.7.5-4.9.5-6.4 0-1.1 0-2.9-.2-5.2-.3-5.1-.5-8.5-.5-10 0-2 .2-4.8.6-8.8.3-3.5.5-6.3.5-8.1 0-1.1 0-2.6-.1-4.6V73c.4-.1 1.3-.2 2.7-.2h7.9v1.5c0 .7 0 1.8.2 3.4.2 2.5.3 4.6.3 6.4v7.8c.2.8.7 1.1 1 1.3 1.1.6 2.6 0 5.6-1.2l.9-.3c1-.4 2.1-.5 3.5-.5 8.5 0 10.3.4 12.9 3l.7.7c.6.6 1.1 1 1.5 1.4 4.3 3.8 6.4 5.8 6.7 6.1.7.8 1.3 2 1.9 3.6.9 2.5 1.4 5 1.4 7.7-.4 12.1-6.7 19.2-12.6 21.8z"/><path fill="none" d="M39.3 111.8v.6c.1-.2.1-.4 0-.6z"/><path fill="#FFF" d="M66.3 90.1l9.9-2.9c1.9-.5 3.4-.9 4.8-1.3 5.2-1.5 7.4-2.8 10.4-6.1l.1-.1c.5-.5 1-1.1 1.5-1.7.1-.1.1-.2.2-.2.5-.6 1.1-1.3 1.7-2 6.2-7.5 9.4-15.1 9.4-22.6 0-5.5-2.7-12.4-8.2-20.6v.1c-.6-1-2.7-3-6.3-5.9-.9-.8-1.7-1.5-2.5-2.4-1.7-2-1.5-3.4-9.7-5.5-9.2-2.4-14.9-3.7-16.9-3.7-1.9 0-4.5.5-7.8 1.5-8.1 2.4-13.6 4.4-16 6.1-.8.5-2.1 1.8-3.9 3.4l-4.3 3.6c-3 2.4-5 4.6-5.8 6.4-2.4 5.4-3.7 11.2-3.7 17.1 0 11.7 4.7 21.3 14 28.5 3.4 2.6 6.3 4.3 8.6 5.1.3.1.7.2 1.1.3h.1c6 1.5 22.6 3 22.6 3l.7-.1zm-.9-40.9c.2-.5.6-1.2 1.3-1.9l1-1.1c.4-.5.7-.8.9-1 .5-.5 1.8-1.1 3.6-1.8.7-.3 1.3-.4 1.7-.4.4 0 1.7.4 3.8 1.1 1.8.6 1.8 1 2.2 1.6.2.3.4.5.6.7.8.8 1.3 1.4 1.4 1.7 1.2 2.4 1.8 4.4 1.8 6 0 2.2-.7 4.4-2.1 6.6-1.4 2.3-1.7 2.5-4.2 3.3l-2.4.9h-.1s-4.3-.5-5.3-1c-.5-.2-1.2-.7-1.9-1.5-2.1-2.1-3.1-4.9-3.1-8.3-.1-1.6.2-3.3.8-4.9zM51.3 64l-2.2.8H49s-4.3-.5-5.3-1c-.5-.2-1.2-.7-1.9-1.5-2.1-2.1-3.1-4.9-3.1-8.3 0-1.7.3-3.4.8-5 .2-.5.6-1.2 1.3-1.9l1-1.1c.4-.5.7-.8.9-1 .5-.5 1.8-1.1 3.6-1.8.7-.3 1.3-.4 1.7-.4s1.7.4 3.8 1.1c1.8.6 1.8 1 2.2 1.6.2.3.4.5.6.7.8.8 1.3 1.4 1.4 1.7 1.2 2.4 1.8 4.4 1.8 6 0 2.2-.7 4.4-2.1 6.6-1.7 2.4-1.9 2.6-4.4 3.5zm12.8 4c-.6.5-.8.5-1.9.7l-1 .2h-1.3c-.5 0-.9-.1-1.1-.1-.2 0-.5-.1-.9-.3-.9-.4-1.4-1-1.4-1.7 0-.3.1-.7.4-1 .1-.1.3-.2.6-.4l.4-.2c.2-.1.3-.2.4-.2.1 0 .2-.1.4-.1s.5-.1.8-.2c.1 0 .3-.1.4-.1.3-.1.6-.1.8-.1.1 0 .5 0 1 .1.2 0 .5.1.7.1.8.1.8.2.9.3.1.1.2.1.3.1l.6.3c.6.5.8.9.8 1.2 0 .5-.3.9-.9 1.4z"/><path fill="#FFF" d="M53.2 49.6c-.1-.1-.3-.4-.7-.8l-.3-.3c-.2-.3-.2-.5-1-.8-1-.3-1.6-.5-1.8-.5s-.5.1-.8.2c-.9.3-1.5.6-1.7.9-.1.1-.2.3-.4.5l-.5.5c-.3.3-.5.7-.6.9-.3.8-.4 1.6-.4 2.4 0 1.7.5 3 1.5 4 .4.4.7.6.9.7.5.2 2.6.5 2.6.5h.1l1.1-.4c1.2-.4 1.3-.5 2-1.6s1-2.1 1-3.2c-.1-.8-.4-1.8-1-3zm18.9 6.6c.5.2 2.6.5 2.6.5h.1l1.1-.4c1.2-.4 1.3-.5 2-1.6s1-2.1 1-3.2c0-.8-.3-1.8-.9-2.9-.1-.1-.3-.4-.7-.8l-.3-.3c-.2-.3-.2-.5-1-.8-1-.3-1.6-.5-1.8-.5-.2 0-.5.1-.8.2-.9.3-1.5.6-1.7.9-.1.1-.2.3-.4.5l-.5.5c-.3.3-.5.7-.6.9-.3.8-.4 1.6-.4 2.4 0 1.7.5 3 1.5 4 .2.2.5.5.8.6zm.7 54.1c-1.7-.7-3.3-1.7-4.8-2.7l-15.8 24.8c3.9 1.4 13.3 2.7 13.3 2.7l1.6-.2 6.2-2.8c.6-.3 1.1-.5 1.6-.7l-.6-20.5c-.4-.1-.9-.3-1.5-.6zm15.4.6l-8.6-5-1.8-.1c.1.1.1.3.2.4.4.7.6 1.2.7 1.6.1.7-.5 2.1-.7 2.5l-.1.2-.3.1-1.2.2c-.5.1-.8.2-1.2.2h-.1l.6 19.8c4.3-2.1 5.3-3.3 8.7-9.7.8-1.5 1.5-3.3 2.1-4.8.1-.1.1-.3.2-.4s.1-.3.2-.4c.5-1.3 1-2.5 1.4-3.8 0-.1 0-.7.1-.7l-.2-.1zm-48.8 2l.1.7.7 1.9c.2.6.4 1.1.6 1.7.1.1.1.3.2.4.1.1.1.3.2.4 1.4 3.2 3.1 6.2 5.2 8.7 2.1 2.5 3.4 4.4 4.9 5.2 0 0 .1.1.2.1l17-26.9-4-.3-21.1 5.3-3.9 1.6v.8c-.1.1-.1.3-.1.4z"/><path fill="#FFF" d="M76.3 110l.9-.2c.3-.7.5-1.5.5-1.8 0-.2-.1-.5-.6-1.3-.2-.4-.4-.7-.5-1l-7.2-.5-1 1.5c1.4 1 2.9 1.9 4.6 2.7 2.1.8 2.2.8 3.3.6zm10 10.8c0-.1 0-.1 0 0 .2-.5.4-1 .6-1.6-.2.4-.3.8-.5 1.2-.1 0-.1.2-.1.4zm-16.4 14c.4-.1.9-.2 1.3-.3v-.1l-1.3.4z"/><path fill="#EA6293" d="M106.6 53.2c0-4.2-1.5-9.1-4.5-14.8.5-.5 1-1.1 1.8-2.2 1.8-2.6 2.8-5.2 2.8-7.7 0-1.9-.8-4.2-2.4-7-.2-.4-.8-1-1.9-2-.3-.3-.5-.5-.7-.8-.5-.7-.4-1.2-2.9-1.9-2.7-.8-4.5-1.3-5-1.3-.6 0-1.3.2-2.3.5-2.4.8-4.1 1.5-4.8 2.1l-1.2 1.2-.2.2c-1.3-.7-3.3-1.5-6.7-2.4-9.7-2.6-15.7-3.9-17.8-3.9-2 0-4.7.6-8.2 1.6-7.4 2.2-12.8 4.1-15.7 5.7-.3-.3-.7-.7-1.2-1.1-.3-.3-.5-.5-.7-.8-.5-.7-.4-1.2-2.9-1.9-2.7-.8-4.5-1.3-5-1.3-.6 0-1.3.2-2.3.5-2.4.8-4.1 1.5-4.8 2.1l-1.2 1.2-1.3 1.2c-.9.8-1.5 1.6-1.7 2.2-.7 1.9-1.1 3.8-1.1 5.8 0 4 1.4 7.3 4.2 9.7.3.3.6.4.8.6-1.6 4.7-2.5 9.5-2.5 14.5 0 12.3 5 22.4 14.7 30 3.6 2.8 6.6 4.5 9.1 5.4.5.2 1.3.4 2.2.6l-.1.1c-2.1.1-4.3.3-6.5.7-4.9.9-8.8 2.3-11.6 4.2-1 .7-1.6 1.3-1.9 1.7-.5.8-.7 3.8-.7 3.8v.1l1.5 1.3c1.6 1.5 1.9 1.6 5.3 2 3.1.4 6.3.3 9.3-.2-.1 1.4-.2 2.7-.2 4.1 0 3.9.5 7.4 1.5 10.7.3 4.1 1.5 8.6 2 11.6.4 2.3.6 5.2 1.5 8.7.1.4.5 1.3 1 2.5.2.3.3.6.4 1 .3.8.3 1.4 1.5 2.3 1.4 1 2.3 1.5 2.6 1.5s.7-.3 1.2-.7c1.2-1.1 2-2 2.4-2.7.1-.2.3-.8.5-1.5l.6-1.6c.4-1 .7-2 .8-2.7.1-.5.1-1.1.1-1.7 3.9.9 10.1 1.7 11.2 1.8h.9l3.4-1.3 1.3-.5v.1c.1.8.1 1.7.2 2.5s.4 1.7.8 2.7l.6 1.6c.3.7.4 1.2.5 1.5.3.7 1.1 1.6 2.3 2.7.5.4.9.7 1.2.7.3 0 1.2-.5 2.6-1.5 1.3-.9 1.3-1.4 1.6-2.3.1-.4.3-.7.4-1 .6-1.2.9-2 1-2.5 1-3.4 1.1-6.4 1.6-8.7.4-2.4 1.8-6.3 2.2-9.5 0-.1 0-.3.1-.5.2-.4.4-.8.5-1.2 1.8-4.1 2.7-8.3 2.7-12.4 0-2.9-.7-6.4-2.2-10.2 1.8-.5 3.4-1 4.7-1.5 2.9-1.3 5.7-3.1 8.2-5.2 1.6-1.4 2.3-2 2.7-2.8l.4-2.4v-2.2c-.6-.7-1.5-1.7-2-1.9-.5-.2-1.3-.3-2.5-.3-1.7 0-3.5.2-5.5.7 1-1.1 2-2.3 3.2-3.8 6.6-7.8 10-15.8 10.1-23.8zm-55.4 78.7c-1.5-.8-2.8-2.7-4.9-5.2-2.1-2.6-3.8-5.5-5.2-8.7-.1-.1-.1-.3-.2-.4-.1-.1-.1-.3-.2-.4-.2-.6-.4-1.1-.6-1.7l-.7-1.9-.1-.7c0-.1 0-.3-.1-.5v-.7h.1l3.9-1.6 21.1-5.3 4 .3-17 26.9s-.1 0-.1-.1zm18.3-26.7l7.2.5c.1.3.2.6.5 1 .4.8.5 1.2.6 1.3 0 .2-.2 1.1-.5 1.8l-.9.2c-1.1.3-1.2.3-3.1-.6-1.7-.7-3.2-1.6-4.6-2.7l.8-1.5zm3.8 26.9l-6.2 2.8-1.6.2s-9.4-1.3-13.3-2.7L68 107.6c1.4 1.1 3 2 4.8 2.7.6.3 1.1.5 1.5.6l.6 20.5c-.5.2-1 .4-1.6.7zm14.9-21.2l.3.2c0 .1 0 .6-.1.7-.4 1.3-.8 2.5-1.4 3.8-.1.1-.1.3-.2.4s-.1.3-.2.4c-.6 1.5-1.3 3.3-2.1 4.8-3.4 6.4-4.4 7.6-8.7 9.7l-.6-19.8h.1c.3 0 .7-.1 1.2-.2l1.2-.2.3-.1.1-.2c.2-.4.8-1.8.7-2.5-.1-.4-.3-.9-.7-1.6-.1-.2-.2-.3-.2-.4l1.8.1 8.5 4.9zm5-33.1c-.1.1-.2.2-.2.3-.5.6-1 1.2-1.5 1.7l-.1.1c-3 3.2-5.3 4.5-10.4 6.1-1.4.4-2.9.8-4.8 1.3l-9.9 2.9-.5.1s-16.6-1.5-22.6-3h-.1c-.4-.1-.8-.2-1.1-.3-2.4-.8-5.3-2.5-8.6-5.1-9.3-7.2-14-16.8-14-28.5 0-5.9 1.3-11.7 3.7-17.1.8-1.8 2.8-4 5.8-6.4l4.3-3.6c1.8-1.6 3.1-2.9 3.9-3.4 2.4-1.6 7.9-3.7 16-6.1 3.3-1 5.9-1.5 7.8-1.5 2 0 7.7 1.3 16.9 3.7 8.2 2.2 7.9 3.5 9.7 5.5.8.9 1.6 1.7 2.5 2.4 3.5 2.8 5.6 4.8 6.3 5.9v-.1c5.5 8.2 8.2 15.1 8.2 20.6 0 7.6-3.3 15.2-9.4 22.6-.8.7-1.4 1.3-1.9 1.9z"/><path fill="#EA6293" d="M55.8 48c-.1-.3-.6-.9-1.4-1.7-.2-.2-.4-.4-.6-.7-.4-.6-.3-1-2.2-1.6-2.1-.7-3.3-1.1-3.8-1.1-.4 0-1 .2-1.7.4-1.8.7-3 1.3-3.6 1.8-.2.2-.5.5-.9 1l-1 1.1c-.7.7-1.1 1.3-1.3 1.9-.5 1.6-.8 3.3-.8 5 0 3.4 1.1 6.2 3.1 8.3.8.8 1.4 1.2 1.9 1.5 1 .5 5.3 1 5.3 1h.1l2.2-.8c2.5-.9 2.7-1.1 4.2-3.3 1.4-2.2 2.1-4.4 2.1-6.6.2-1.7-.4-3.8-1.6-6.2zm-2.7 7.7c-.7 1.1-.8 1.2-2 1.6l-1.1.5h-.1s-2.1-.2-2.6-.5c-.3-.1-.6-.4-.9-.7-1-1-1.5-2.4-1.5-4 0-.8.1-1.7.4-2.4.1-.3.3-.6.6-.9l.5-.5c.2-.2.3-.4.4-.5.3-.2.9-.5 1.7-.9.4-.1.6-.2.8-.2s.8.2 1.8.5c.9.3.9.5 1 .8l.3.3c.4.4.6.7.7.8.6 1.2.9 2.1.9 2.9.1 1.1-.3 2.2-.9 3.2zM69.6 64c1 .5 5.3 1 5.3 1h.1l2.2-.8c2.5-.9 2.7-1.1 4.2-3.3 1.4-2.2 2.1-4.4 2.1-6.6 0-1.6-.6-3.6-1.8-6-.1-.3-.6-.9-1.4-1.7-.2-.2-.4-.4-.6-.7-.4-.6-.3-1-2.2-1.6-2.1-.7-3.3-1.1-3.8-1.1-.4 0-1 .2-1.7.4-1.8.7-3 1.3-3.6 1.8-.2.2-.5.5-.9 1l-1 1.1c-.7.7-1.1 1.3-1.3 1.9-.5 1.6-.8 3.3-.8 5 0 3.4 1.1 6.2 3.1 8.3.9.6 1.6 1.1 2.1 1.3zm.4-15c.1-.3.3-.6.6-.9l.5-.5c.2-.2.3-.4.4-.5.3-.2.9-.5 1.7-.9.4-.1.6-.2.8-.2.2 0 .8.2 1.8.5.9.3.9.5 1 .8l.3.3c.4.4.6.7.7.8.6 1.2.9 2.1.9 2.9 0 1.1-.4 2.2-1 3.2-.7 1.1-.8 1.2-2 1.6l-1.1.4h-.1s-2.1-.2-2.6-.5c-.3-.1-.6-.4-.9-.7-1-1-1.5-2.4-1.5-4 .1-.7.3-1.5.5-2.3zm-5.8 16.4c-.1-.1-.3-.2-.6-.3-.1 0-.2-.1-.3-.1-.2-.1-.2-.2-.9-.3-.3 0-.5-.1-.7-.1-.5-.1-.8-.1-1-.1s-.5 0-.8.1c-.2 0-.3.1-.4.1-.3.1-.6.1-.8.2-.2 0-.3.1-.4.1-.1 0-.2.1-.4.2l-.4.2c-.3.1-.5.3-.6.4-.2.3-.4.7-.4 1 0 .7.5 1.3 1.4 1.7.3.2.6.3.9.3.2 0 .6.1 1.1.1h1.3l1-.2c1.1-.2 1.2-.2 1.9-.7.6-.4.9-.9 1-1.3-.1-.4-.4-.8-.9-1.3z"/><path fill="#FFF" d="M101 90.5h1.8v1.8H101v-1.8zm.1-14.9h1.8v1.8h-1.8v-1.8z"/></svg>