<svg id="Layer_1" viewBox="0 0 600 257.4"><style>.st0{fill:#414141}.st1{fill:url(#SVGID_1_)}.st2{fill:url(#SVGID_2_)}</style><path class="st0" d="M48.1 228.7c0 16.3-12.4 27.7-30.1 27.7H0v-55.1h18c17.7 0 30.1 10.8 30.1 27.4zm-36.8-17.2v34.7H18c11.1 0 18.5-6.9 18.5-17.5 0-10.9-7.4-17.2-18.5-17.2h-6.7zM94.7 211.5H68.9v11.2h19v9.6h-19v13.9h26.8v10.2H57.6v-55.1h37.1v10.2zM116.8 246.2h24.1v10.2h-35.4v-55.1h11.3v44.9zM182.7 211.5H165v44.9h-11.3v-44.9h-17.6v-10.2h46.6v10.2zM269.6 256.4h-11.3v-55.1h11.3v55.1zM329.1 201.3v56.1h-3.8l-31.9-34.1v33.1h-11.3v-56.1h3.7l32 33.8v-32.8h11.3zM376.7 256.4L353 227.7v28.7h-11.3v-55.1H353v25.6l21-25.6h13.4l-21.1 26 23.9 29.1h-13.5zM488 210.7l-7.7 5.9c-2.7-4-6-6.3-10.5-6.3-3.7 0-6.8 1.7-6.8 5.3 0 3.2 2.4 4.5 6.4 6.3l6.3 2.8c8.7 3.8 13.6 8.3 13.6 16.1 0 10.3-8.3 16.5-19.3 16.5-9.5 0-17.2-4.8-21.3-12.2l7.8-5.8c3 4.2 6.9 8 13.5 8 4.8 0 7.8-2.3 7.8-6.1 0-3.6-2.7-4.8-7-6.8l-5.9-2.7c-7.8-3.6-13.4-8.1-13.4-15.9 0-9.5 7.9-15.6 18.3-15.6 8.8.1 15 4.5 18.2 10.5zM533.4 210.7l-7.7 5.9c-2.7-4-6-6.3-10.5-6.3-3.7 0-6.8 1.7-6.8 5.3 0 3.2 2.4 4.5 6.4 6.3l6.3 2.8c8.7 3.8 13.6 8.3 13.6 16.1 0 10.3-8.3 16.5-19.3 16.5-9.5 0-17.2-4.8-21.3-12.2l7.8-5.8c3 4.2 6.9 8 13.5 8 4.8 0 7.8-2.3 7.8-6.1 0-3.6-2.7-4.8-7-6.8l-5.9-2.7c-7.8-3.6-13.4-8.1-13.4-15.9 0-9.5 7.9-15.6 18.3-15.6 8.7.1 14.9 4.5 18.2 10.5zM600 228.8c0 16.2-13.2 28.6-29.4 28.6s-29.2-12.4-29.2-28.6c0-16.2 13-28.6 29.2-28.6s29.4 12.4 29.4 28.6zm-47 0c0 10.7 7.4 18.1 17.7 18.1 10.1 0 17.7-7.4 17.7-18.1 0-10.6-7.6-18.1-17.7-18.1-10.3 0-17.7 7.5-17.7 18.1zM207 200.3h-3.7l-24.7 56.1h12.2l3-7.2 4.1-9.3 7.2-18.5 7.3 18.5 4 9.3 3.1 7.2h12.1zM420.9 200.3h-3.8l-24.6 56.1h12.1l3.1-7.2 4-9.3 7.2-18.5 7.3 18.5 4 9.3 3.1 7.2h12.1z"/><g><linearGradient id="SVGID_1_" gradientUnits="userSpaceOnUse" x1="225.368" y1="122.099" x2="374.632" y2="208.276" gradientTransform="matrix(1 0 0 -1 0 257.402)"><stop offset="0" stop-color="#00507f"/><stop offset=".159" stop-color="#055b8a"/><stop offset=".442" stop-color="#1479a8"/><stop offset=".813" stop-color="#2caad8"/><stop offset="1" stop-color="#39c5f3"/></linearGradient><path class="st1" d="M300 6c-47.5 0-86.2 38.7-86.2 86.2s38.7 86.2 86.2 86.2 86.2-38.7 86.2-86.2S347.5 6 300 6zm0 8.9c42.6 0 77.3 34.7 77.3 77.3 0 15.8-4.8 30.5-12.9 42.7-1.6-.5-3.2-1.1-4.7-1.7-18.8-7.1-35.2-19.2-47.5-34.8.7-.5 1.3-1 2-1.5.1.2.1.3.2.4.1.2.7.7 1.6 1.3.4.3.9.6 1.4.9 3.8 2.4 10 5.9 12.6 7.7 3.7 2.5 9.6 4.3 9.6 4.3l-1.5.7 2.8.2-2 1.4s4.3-.6 7.4-4.1c3.1-3.5 3.3-11.9 3.3-11.9s0-.3-.1-.6c-.4-.1-.8-.1-1.3-.2-.4-.1-.9-.2-1.3-.3-.3-.1-.6-.2-1-.3h-.1c-.8-.2-1.6-.5-2.3-.8-.7-.3-1.4-.6-1.9-.9-.3-.2-.5-.3-.7-.5-.2-.1-.4-.3-.5-.4l-.4-.4s.2.1.5.2c.2 0 .4.1.6.2.2.1.5.1.8.2.6.1 1.3.3 2 .5.4.1.7.2 1.1.3h.2c.3.1.7.2 1 .3.2 0 .3.1.5.1 1 .3 2 .6 2.9.9 1.8-1.6 7.2-11.5 7.2-11.5s5-4.7 5.2-7.7c.1-3-10.3-11.2-13.2-13s-7.8-3.7-7.8-3.7.1-5.8-.1-6.9c-.2-1.1-2.4-3.3-4.1-4.6-1.2-.9-8.7-7.4-13.9-8.8-.3-.1-.6-.1-.9-.2l-1.2-1.2c-1.7-1.6-3.5-3.1-5.4-4.5-4.4-3.2-9.3-5.8-14.5-7.7-.2-.1-.4-.1-.6-.2-6.6-2.2-13.8-3.3-21.2-2.8h-.4c.1.1.2.2.4.3 6.2 1.4 12 3.9 17.1 7.1 1 .6 2 1.3 2.9 2 .4.3.9.7 1.3 1-2.6-.5-5.1-.8-7.7-1-7.7-.6-15.5-.2-23.2 1.5-3.6.8-7.2 1.8-10.7 3.1-6.2 2.3-12.1 5.4-17.8 9.3-.2.1-.3.2-.5.4.2 0 .4 0 .6.1 3.1-1 6.1-1.8 9.2-2.5.9-.2 1.7-.3 2.6-.5 4.8-.8 9.5-1.2 14.2-1.1-3 .9-5.9 1.9-8.7 3.1-.7.3-1.4.6-2.2 1C244 54 233.5 63 225 73.4c8.4-33.6 38.8-58.5 75-58.5zm-61.2 124.5c-2.9-3.7-5.5-7.8-7.6-12 2.2-13.8 7.1-27 14.1-38.9-6.1 16.3-8.3 33.7-6.5 50.9zm27.6-34.4c.2 2.9.5 5.8.9 8.6 3 20.2 11.6 39.4 24.9 55.2.1.1.2.3.3.4-5.2-.5-10.3-1.5-15.1-3-9.6-19.2-13.2-40.5-11-61.2zm19.1-45.5c.1.5.1 1 .2 1.5v.3c0 .2.1.4.1.6 0 .3.1.5.1.7.1.4.1.7.1.9v.3l.1 1.6-.8-1.4s-.2-.4-.6-1.1c-.1-.3-.3-.6-.5-1l-.2-.4c-.2-.5-.4-1-.6-1.7-.2-.5-.4-1.4-.4-2.3v-.1-1.2l.1-1.3c0-.4.1-.7.2-1.1l.1-.4.3-1.2.2-.6c.1-.3.2-.5.3-.7.3-.5.5-1 .9-1.4.4-.4.8-.8 1.3-1.1.5-.3 1-.4 1.6-.5.4-.1.9-.1 1.4 0 .5 0 1 .1 1.6.3.8.2 1.6.5 2.4 1l.6.3 1.2.7c.1.1.2.2.3.2.3.3.5.7.7 1 .2.3.3.6.4.9.2.6.3 1.1.4 1.4.1.8.2 1.2.2 1.3l.1 2.7-.9-2.9c-.1-.2-.2-.5-.3-.8-.1-.3-.3-.7-.5-1.2-.2-.3-.4-.7-.6-.9-.1-.1-.2-.2-.3-.2 0 0-.1 0-.1-.1l-1.2-.5c-.1-.1-.3-.1-.5-.2-.6-.2-1.3-.5-2.1-.6-.8-.2-1.5-.2-2.1-.1-.1 0-.2 0-.2.1-.5.2-1 .4-1.3.9-.2.3-.4.5-.5.9-.1.1-.1.2-.1.4l-.2.8c-.1.2-.1.5-.2.7 0 .2-.1.3-.1.5 0 .1 0 .2-.1.3l-.1.4c0 .1-.1.3-.1.4-.1.8-.2 1.5-.2 2.1v.1c-.3.4-.2 1.2-.1 1.7zm42.2 102.4c-15.9-12.8-27.6-29.5-34.4-48-.4-1-.7-2.1-1.1-3.1 11 20.3 28.2 36.7 49.1 46.8-3.6 2.3-7.5 4.3-11.5 6-.7-.6-1.4-1.1-2.1-1.7zM316.4 60.2v-.4c0-.1 0-.2.1-.3v-.1c.3-.3.7-.6 1-.9.2-.2.4-.4.6-.5.4-.4.9-.8 1.2-1 .1-.1.2-.1.3-.2l.1-.1c.2-.1.4-.2.5-.3h.2c.4-.1 1.4-.5 1.6-.5.2 0 .4 0 .6.1.2 0 .3.1.5.1.5.1.9.4 1.3.6.2.2.4.3.6.5l.6.6c.1.1.2.3.4.4.5.7 1.1 1.5 1.8 2.1.2.1.4.3.7.4.2.1.3.2.5.2.2.1.4.1.6.2-.2.1-1.5-.1-1.8-.1-.1.2-.5.4-.6.3-.2.1-.4.1-.6.1-2.2-.6-3.9-1.1-6.6-1.5-.2 0-.3 0-.5-.1 0 0-.5 0-.9-.1-.2-.1-.4-.1-.4-.2-.2 0-.5.1-.9.3-.2.1-.5.3-.7.4 0-.1-.1 0-.2 0z"/><linearGradient id="SVGID_2_" gradientUnits="userSpaceOnUse" x1="220.155" y1="119.089" x2="379.845" y2="211.286" gradientTransform="matrix(1 0 0 -1 0 257.402)"><stop offset="0" stop-color="#00507f"/><stop offset=".159" stop-color="#055b8a"/><stop offset=".442" stop-color="#1479a8"/><stop offset=".813" stop-color="#2caad8"/><stop offset="1" stop-color="#39c5f3"/></linearGradient><path class="st2" d="M300 0c-50.8 0-92.2 41.4-92.2 92.2 0 50.8 41.4 92.2 92.2 92.2s92.2-41.4 92.2-92.2C392.2 41.4 350.8 0 300 0zm0 182.2c-49.6 0-90-40.4-90-90s40.4-90 90-90 90 40.4 90 90-40.4 90-90 90z"/></g></svg>