<svg viewBox="0 0 500 89.7"><path d="M28.1 4.5v.8H.8v23.3h23.9v.8H.8v23.4H0V4.5h28.1zM41.9 52.6h-.8V4.5h.8v48.1zM60.6 4.7l34.1 46.4v-.4V4.3h.7v48.2h-.2c-.1 0-.3-.1-.4-.2L60.4 5.8v46.8h-.7V4.5h.3c.3 0 .4 0 .6.2zM145.1 52.6h-.6c-.2 0-.3-.1-.4-.3l-6.7-16.1H112l-6.7 16.1c-.1.2-.2.3-.5.3h-.6l20.1-48.2h.7l20.1 48.2zm-32.8-17.1h24.8L125.2 7c-.1-.3-.2-.5-.3-.7-.1-.2-.2-.5-.3-.7-.1.3-.2.5-.3.7-.1.2-.2.5-.3.7l-11.7 28.5zM154.8 4.7l34.1 46.4v-.4V4.3h.7v48.2h-.2c-.1 0-.3-.1-.4-.2L154.7 5.8v46.8h-.7V4.5h.3c.2 0 .4 0 .5.2zM242 46.1c.1 0 .2 0 .2.1l.3.3c-1 1-2.1 1.9-3.2 2.7-1.2.8-2.4 1.5-3.8 2.1-1.4.6-2.9 1-4.5 1.4s-3.5.5-5.5.5c-3.2 0-6.2-.6-8.9-1.7s-5.1-2.8-7.1-4.9c-2-2.1-3.5-4.7-4.7-7.8s-1.7-6.5-1.7-10.3c0-3.7.6-7 1.7-10s2.7-5.6 4.7-7.8 4.5-3.8 7.3-5c2.8-1.2 6-1.8 9.4-1.8 1.7 0 3.3.1 4.7.3s2.7.6 3.9 1c1.2.5 2.4 1.1 3.5 1.8s2.2 1.5 3.3 2.5l-.1.2c-.1.1-.2.2-.3.2-.2 0-.4-.1-.7-.4-.3-.3-.7-.6-1.2-1s-1.2-.8-1.9-1.3c-.8-.5-1.7-.9-2.7-1.3s-2.3-.7-3.7-1c-1.4-.3-3-.4-4.7-.4-3.3 0-6.2.6-9 1.7-2.7 1.1-5.1 2.7-7 4.8-2 2.1-3.5 4.6-4.6 7.6-1.1 3-1.6 6.3-1.6 9.9 0 3.7.5 7.1 1.6 10 1.1 3 2.6 5.5 4.5 7.5 1.9 2.1 4.2 3.6 6.8 4.7s5.5 1.6 8.5 1.6c1.9 0 3.7-.1 5.2-.4 1.5-.3 2.9-.7 4.2-1.2 1.3-.5 2.5-1.2 3.5-1.9 1.1-.8 2.2-1.6 3.3-2.6.1 0 .2-.1.3-.1zM257.7 52.6h-.8V4.5h.8v48.1zM308.9 52.6h-.6c-.2 0-.3-.1-.4-.3l-6.7-16.1h-25.4l-6.7 16.1c-.1.2-.2.3-.5.3h-.6l20.1-48.2h.7l20.1 48.2zM276 35.5h24.8L289 7c-.1-.3-.2-.5-.3-.7-.1-.2-.2-.5-.3-.7-.1.3-.2.5-.3.7-.1.2-.2.5-.3.7L276 35.5zM318.7 51.9h24.6v.8h-25.4V4.5h.8v47.4z"/><g><path d="M343.3 6.3h21.9V52h3.1V3.1h-22.1zM373.7 6.2l6.5.1V3.1h-3.6zM388.4 3.1l-2.9 3.2h25V3.1zM385.5 48.9h25V52h-25zM385.5 25.8h25v3.1h-25z"/></g><g><path d="M478.1 6.3V2.9L475 6.3V52h3.1V29h18.8v23h3.1V25.9h-21.9zM500 9.6V2.9l-.2.2-2.9 3.2v3.3z"/></g><g><path d="M468.1 28.3V25l-.2.2-3 3.1C464.1 40.4 454 50 441.6 50c-12.9 0-23.5-10.5-23.5-23.5S428.6 3 441.6 3c2.7 0 5.3.5 7.7 1.3l.4-.4 2-2.1c-3.1-1.3-6.5-2-10-2C427 0 415 11.9 415 26.6s11.9 26.6 26.6 26.6c14.1 0 25.6-11.1 26.5-24.9z"/></g><g><path d="M13.4 67.3c-.1.1-.1.1-.2.1s-.3-.1-.5-.4c-.2-.2-.5-.5-.9-.8-.4-.3-.9-.5-1.6-.8-.6-.2-1.5-.4-2.4-.4-1 0-1.9.2-2.7.5-.8.3-1.4.7-1.9 1.2s-.9 1.1-1.2 1.8c-.3.7-.4 1.4-.4 2.1 0 .9.2 1.7.5 2.3.4.6.8 1.2 1.4 1.6.6.4 1.3.8 2 1.1.8.3 1.5.6 2.3.8.8.3 1.6.5 2.3.8.8.3 1.4.7 2 1.1.6.4 1.1 1 1.4 1.6.4.7.5 1.5.5 2.5s-.2 1.9-.5 2.8-.8 1.6-1.5 2.3c-.6.6-1.4 1.2-2.3 1.5-.9.4-2 .6-3.2.6-.8 0-1.6-.1-2.2-.2-.6-.1-1.2-.4-1.8-.6-.5-.3-1-.6-1.5-1-.1-.4-.6-.8-1-1.3l.1-.1.1-.1h.1c.1 0 .2.1.3.2.1.1.3.3.5.6s.5.5.8.7c.3.3.7.5 1.2.7.5.2 1 .4 1.6.6.6.1 1.3.2 2 .2 1.1 0 2.1-.2 3-.5.9-.4 1.6-.8 2.2-1.5.6-.6 1.1-1.3 1.4-2.1.3-.8.5-1.7.5-2.6 0-.8-.1-1.4-.4-2-.2-.6-.6-1-1-1.4-.4-.4-.9-.7-1.4-1-.5-.3-1.1-.5-1.7-.8-.6-.2-1.2-.4-1.9-.6-.6-.2-1.3-.4-1.9-.6s-1.2-.5-1.7-.8c-.5-.3-1-.7-1.4-1.1-.4-.4-.7-.9-1-1.5-.2-.6-.4-1.3-.4-2.1s.1-1.5.4-2.2c.3-.7.7-1.3 1.3-1.9s1.2-1 2.1-1.3c.8-.3 1.8-.5 2.8-.5 1.2 0 2.2.2 3.1.6.9.4 1.8 1 2.6 1.8l.1.1zM88.3 65h.3c.1 0 .2.1.2.2l7.1 22.7c.1.2.1.3.2.5 0 .1.1.3.1.5 0-.2.1-.3.1-.5 0-.1.1-.3.1-.5l7.9-22.7c0-.1.1-.2.2-.2h.1c.1 0 .2.1.2.2l7.9 22.7.3.9c.1-.3.2-.7.3-.9l7.1-22.7c0-.1.1-.2.2-.2h.3l-7.7 24.3h-.3L104.8 66c-.1-.2-.1-.4-.2-.5 0 .1-.1.3-.2.5l-8.1 23.4H96L88.3 65zM211.6 65v.4h-13.8v11.4h11.7v.4h-11.7V89h13.8v.4h-14.2V65h14.2zM310.2 77.2c0 1.9-.3 3.6-.8 5.1-.5 1.5-1.3 2.8-2.3 3.8-1 1-2.2 1.8-3.6 2.4-1.4.5-2.9.8-4.6.8h-8.7V65h8.7c1.7 0 3.2.3 4.6.8 1.4.5 2.6 1.3 3.6 2.4 1 1 1.8 2.3 2.3 3.8.5 1.6.8 3.3.8 5.2zm-.5 0c0-1.9-.3-3.6-.8-5-.5-1.5-1.3-2.7-2.2-3.7-1-1-2.1-1.8-3.4-2.3-1.3-.5-2.8-.8-4.4-.8h-8.3V89h8.3c1.6 0 3.1-.3 4.4-.8 1.3-.5 2.5-1.3 3.4-2.3 1-1 1.7-2.2 2.2-3.7.5-1.4.8-3.1.8-5zM403 65v.4h-13.8v11.4h11.7v.4h-11.7V89H403v.4h-14.2V65H403zM482 65.2l17.2 23.4v-.2V65h.3v24.3h-.1c-.1 0-.1 0-.2-.1l-17.3-23.6v23.7h-.3V65h.1c.1 0 .2.1.3.2z"/></g></svg>