<svg viewBox="0 0 304.9 386.5"><path fill="#231F20" d="M166.7 98.3c-5.9-5.9-10.8-12.9-14.3-20.7-3.5 7.7-8.3 14.7-14.3 20.7-3.6 3.7-5.9 8.7-5.9 14.3 0 5.6 2.3 10.6 5.9 14.3 3.6 3.7 8.7 5.9 14.3 5.9s10.6-2.3 14.3-5.9 5.9-8.7 5.9-14.3c0-5.6-2.3-10.7-5.9-14.3zM130.2 7.9c8.8 8.8 14.8 20.4 16.5 33.4.6-5 1.7-9.9 3.3-14.6-3.3-8.9-8.5-16.9-15.1-23.5l3.2-3.2c5.9 5.9 10.8 12.9 14.3 20.7C155.9 13 160.7 6 166.7 0l3.2 3.2c-11.8 11.8-19 28-19 46s7.3 34.2 19 46c4.5 4.5 7.2 10.6 7.2 17.4s-2.8 13-7.2 17.4c-4.5 4.5-10.6 7.2-17.4 7.2-6.8 0-13-2.8-17.4-7.2-4.5-4.5-7.2-10.6-7.2-17.4s2.8-13 7.2-17.4c6.6-6.6 11.8-14.6 15.1-23.5-1.6-4.7-2.7-9.5-3.3-14.6-1.7 13-7.7 24.6-16.5 33.4-5.7 5.7-9.2 13.5-9.2 22.2s3.5 16.5 9.2 22.2 13.5 9.2 22.2 9.2 16.5-3.5 22.2-9.2 9.2-13.5 9.2-22.2-3.5-16.5-9.2-22.2c-10.5-10.5-17.1-25.1-17.1-41.2s6.5-30.7 17.1-41.2l3.2 3.2c-9.7 9.7-15.8 23.2-15.8 38 0 14.9 6 28.3 15.8 38.1 6.5 6.5 10.5 15.5 10.5 25.4s-4 18.9-10.5 25.4-15.5 10.5-25.4 10.5-18.9-4-25.4-10.5-10.5-15.5-10.5-25.4 4-18.9 10.5-25.4c9.7-9.7 15.8-23.2 15.8-38 0-14.9-6-28.3-15.8-38.1l3-3.4zm-7.9 8c8.5 8.5 13.8 20.3 13.8 33.3s-5.3 24.8-13.8 33.3c-7.7 7.7-12.5 18.4-12.5 30.1 0 11.8 4.8 22.4 12.5 30.1s18.4 12.5 30.1 12.5c11.8 0 22.4-4.8 30.1-12.5 7.7-7.7 12.5-18.4 12.5-30.1 0-11.8-4.8-22.4-12.5-30.1-8.5-8.5-13.8-20.3-13.8-33.3s5.3-24.8 13.8-33.3l3.2 3.2c-7.7 7.7-12.5 18.4-12.5 30.1 0 11.8 4.8 22.4 12.5 30.1 8.5 8.5 13.8 20.3 13.8 33.3s-5.3 24.8-13.8 33.3-20.3 13.8-33.3 13.8-24.8-5.3-33.3-13.8-13.8-20.3-13.8-33.3 5.3-24.8 13.8-33.3c7.7-7.7 12.5-18.4 12.5-30.1s-4.8-22.4-12.5-30.1l3.2-3.2zm-7.9 7.9c6.5 6.5 10.5 15.5 10.5 25.4s-4 18.9-10.5 25.4c-9.7 9.7-15.8 23.2-15.8 38.1s6 28.3 15.8 38c9.7 9.7 23.2 15.8 38 15.8 14.9 0 28.3-6 38.1-15.8s15.8-23.2 15.8-38c0-14.9-6-28.3-15.8-38.1C184 68 180 59.1 180 49.1c0-9.9 4-18.9 10.5-25.4l3.2 3.2c-5.7 5.7-9.2 13.5-9.2 22.2s3.5 16.5 9.2 22.2c10.5 10.5 17.1 25.1 17.1 41.2s-6.5 30.7-17.1 41.2c-10.5 10.5-25.1 17.1-41.2 17.1s-30.7-6.5-41.2-17.1c-10.5-10.5-17.1-25.1-17.1-41.2s6.5-30.7 17.1-41.2c5.7-5.7 9.2-13.5 9.2-22.2s-3.5-16.5-9.2-22.2l3.1-3.1zm4.7 163.2c18.7 18.7 30.2 44.4 30.2 72.9s-11.5 54.3-30.2 72.9l-3.2-3.2c17.9-17.9 28.9-42.5 28.9-69.8s-11-51.9-28.9-69.8l-20.5-20.5c-14.6-14.6-23.6-34.8-23.6-57.1s9-42.5 23.6-57.1l3.2 3.2c-13.8 13.8-22.3 32.9-22.3 53.9s8.5 40.1 22.3 53.9l20.5 20.7zm-8 7.9c16.6 16.6 26.9 39.6 26.9 65s-10.3 48.4-26.9 65l-3.2-3.2c15.8-15.8 25.6-37.7 25.6-61.8s-9.8-46-25.6-61.8l-20.5-20.5c-16.6-16.6-26.9-39.6-26.9-65s10.3-48.4 26.9-65l3.2 3.2C74.8 66.6 65 88.4 65 112.6c0 24.1 9.8 46 25.6 61.8l20.5 20.5zm-7.9 8c14.6 14.6 23.6 34.8 23.6 57.1s-9 42.5-23.6 57.1l-3.2-3.2c13.8-13.8 22.3-32.9 22.3-53.9s-8.5-40.1-22.3-53.9l-20.5-20.5c-18.7-18.7-30.2-44.4-30.2-72.9s11.5-54.3 30.2-72.9l3.2 3.2c-17.9 17.9-28.9 42.5-28.9 69.8 0 27.2 11 51.9 28.9 69.8l20.5 20.3zm90.5-8c-16.6 16.6-26.9 39.6-26.9 65s10.3 48.4 26.9 65l3.2-3.2c-15.8-15.8-25.6-37.7-25.6-61.8 0-24.1 9.8-46 25.6-61.8l20.5-20.5c16.6-16.6 26.9-39.6 26.9-65s-10.3-48.4-26.9-65l-3.2 3.2c15.8 15.8 25.6 37.7 25.6 61.8s-9.8 46-25.6 61.8l-20.5 20.5zm8 8c-14.6 14.6-23.6 34.8-23.6 57.1s9 42.5 23.6 57.1l3.2-3.2c-13.9-13.9-22.4-32.9-22.4-54s8.5-40.1 22.3-53.9l20.5-20.5c18.7-18.7 30.2-44.4 30.2-72.9S244 58.3 225.3 39.7l-3.2 3.2C240 60.8 251 85.4 251 112.7c0 27.2-11 51.9-28.9 69.8l-20.4 20.4zM181 182.2c-11.7 11.7-20.8 26-26.3 42 1.4 4.1 2.5 8.4 3.4 12.7 4.4-19.3 14.1-36.5 27.6-50l20.5-20.5c13.8-13.8 22.3-32.9 22.3-53.9 0-21.1-8.5-40.1-22.3-53.9l3.2-3.2C224 70 233 90.2 233 112.5s-9 42.5-23.6 57.1L189 190.2c-17.9 17.8-28.9 42.5-28.9 69.8 0 27.2 11 51.9 28.9 69.8l-3.2 3.2c-13.5-13.5-23.3-30.7-27.6-50-.9 4.3-2 8.6-3.4 12.7 5.5 16 14.6 30.3 26.3 42l-3.2 3.2c-10.9-10.9-19.6-24-25.4-38.6-5.8 14.6-14.5 27.7-25.4 38.6l-3.2-3.2c19.9-19.9 32.2-47.3 32.2-77.7s-12.3-57.8-32.2-77.7l-20.5-20.5c-12.6-12.6-20.4-30-20.4-49.1 0-19.2 7.8-36.6 20.4-49.1 3.7-3.7 5.9-8.7 5.9-14.3S107 38.7 103.4 35l3.2-3.2c4.5 4.5 7.2 10.6 7.2 17.4s-2.8 13-7.2 17.4c-11.8 11.8-19 28-19 46s7.3 34.2 19 46c11.8 11.8 28 19 46 19 17.9 0 34.1-7.2 45.9-19l.1-.1c11.8-11.8 19-28 19-46s-7.3-34.2-19-46c-4.5-4.5-7.2-10.6-7.2-17.4s2.8-13 7.2-17.4l3.2 3.2c-3.7 3.6-5.9 8.7-5.9 14.3s2.3 10.6 5.9 14.3c12.6 12.6 20.4 30 20.4 49.1 0 19.2-7.8 36.6-20.4 49.1L181 182.2zm-54-3.1c10.9 10.9 19.6 24 25.4 38.6 5.8-14.6 14.5-27.7 25.4-38.6l3.1-3.1c-8.7 3.9-18.4 6.1-28.6 6.1s-19.9-2.2-28.6-6.1l3.3 3.1zM233.3 31.7l-3.2 3.2c19.9 19.9 32.2 47.3 32.2 77.7 0 30.3-12.3 57.8-32.2 77.7l-20.5 20.5c-12.6 12.6-20.4 30-20.4 49.1s7.8 36.6 20.4 49.1h57.1V31.8h-2.2l-31.2-.1zm29 49.1c-4.8-16.8-13.4-31.9-24.8-44.6h24.8v44.6zm-219.7 0V36.2h24.8C56 48.8 47.4 64 42.6 80.8zm50.8 223.8H42.6V144.4c5.4 18.8 15.5 35.6 29 49l20.5 20.5c11.8 11.8 19 28 19 46 0 17.3-6.7 33-17.7 44.7zM71.6 31.7H38.1v277.4h57.1c12.6-12.6 20.4-30 20.4-49.1 0-19.2-7.8-36.6-20.4-49.1l-20.5-20.5c-19.9-19.9-32.2-47.3-32.2-77.7 0-30.3 12.3-57.8 32.2-77.7l-3.1-3.3zm161.7 161.7c13.5-13.5 23.6-30.3 29-49v160.2h-50.8c-11-11.6-17.8-27.4-17.8-44.7 0-18 7.3-34.2 19-46l20.6-20.5zM29.9 353.5v1.7c-3.3 0-3.5.2-3.5 2.9v19.3c0 2.7.2 2.9 3.5 2.9v1.7H18.3v-1.7c2.8 0 3.1-.2 3.1-2.8v-19.1c0-2.5-.2-2.7-2.4-2.7h-6.5c-2.4 0-2.4.3-2.4 2.5v6.6c0 3.2-.5 8.2-1.5 11.2-1 3.1-3.3 6.7-6.2 6.7-1.4 0-2.4-1-2.4-2 0-.8.5-1.8 1.2-2.4 2.7-2.3 4.6-5.5 4.6-13.6v-6.6c0-2.7-.5-2.9-3.7-2.9v-1.7h27.8zm37.4 22.6c0 2.9.6 4.3 2 4.3.7 0 1.2-.2 1.8-.5l.4 1.6c-1.2.6-2.4.8-4.3.8-2.5 0-4-1.1-4.5-3.3h-.2c-2.4 2.2-5.2 3.7-9.7 3.7-4.2 0-8.9-2.3-8.9-7.4 0-2.9 1.1-5.3 4.2-7.1 2.3-1.5 5.7-2.7 10.2-3.6l4.1-.8v-2.6c0-4.1-1.8-6.3-5.9-6.3-4.4 0-5.8 2.7-6.7 4.6-.4 1-1 1.6-2.4 1.6s-2-.9-2-2c0-2.5 3.8-6.3 11.5-6.3 6.5 0 10.6 2.1 10.6 9.2l-.2 14.1zm-5-10.3c-2.8.7-6 1.5-8.5 2.8-2.7 1.4-4.6 3.1-4.6 6 0 1.9.8 5.4 5.9 5.4 3.2 0 5.5-1.6 7.3-3.3v-10.9h-.1zm47.5-10.6c-2 0-2.8.3-4.5 2l-7.1 7.2 8.8 13c1.9 2.7 2.5 2.8 4.8 2.8v1.7h-7.4l-9.8-14.4-3 3.1v6.8c0 2.6.3 2.7 3.5 2.7v1.8h-12v-1.8c3.5 0 3.6-.1 3.6-2.7v-19.6c0-2.6-.2-2.7-3.6-2.7v-1.7H95v1.7c-3 0-3.3.1-3.3 2.8v8.9l8.8-8.8c1.1-1.1 1.6-1.9 1.6-2.3 0-.5-.7-.6-2-.6v-1.7h9.6l.1 1.8zm44.7 0c-3.3 0-3.7.2-3.7 2.9v19.2c0 2.7.3 2.9 3.7 2.9v1.7h-11.8v-1.7c2.9 0 3.2-.2 3.2-2.9v-15.2l-15.4 15c0 2.9.2 3.1 3.1 3.1v1.7h-11.8v-1.7c3.3 0 3.6-.2 3.6-2.9v-19.2c0-2.7-.3-2.9-3.6-2.9v-1.7h11.8v1.7c-2.9 0-3.1.2-3.1 2.9v15.5l15.4-15.2c0-2.9-.1-3.2-3.2-3.2v-1.7h11.8v1.7zm66.2 31.3c-1.4-4.1-1.4-4.5-4.7-4.5h-16.3c-2.7 0-3.1.4-4.5 4.5h-2l1.5-6.7h1.9c2.9-6.8 3.5-13.6 3.5-22.8 0-1.5-.7-1.8-3.8-1.8v-1.7h26v1.7c-3 0-3.3.3-3.3 2.8v21.8h2l1.5 6.7h-1.8zm-6.7-29.6c0-1.1-.2-1.2-1.3-1.2h-6.6c-1 0-1.3.2-1.3 1.2 0 9.1-.5 16.2-3.3 22.9H214v-22.9zm46.7 19.2c0 2.9.6 4.3 2 4.3.7 0 1.2-.2 1.8-.5l.4 1.6c-1.2.6-2.4.8-4.3.8-2.5 0-4-1.1-4.5-3.3h-.2c-2.4 2.2-5.2 3.7-9.7 3.7-4.2 0-8.9-2.3-8.9-7.4 0-2.9 1.1-5.3 4.2-7.1 2.3-1.5 5.7-2.7 10.2-3.6l4.1-.8v-2.6c0-4.1-1.8-6.3-5.9-6.3-4.4 0-5.8 2.7-6.7 4.6-.4 1-1 1.6-2.4 1.6s-2-.9-2-2c0-2.5 3.8-6.3 11.5-6.3 6.5 0 10.6 2.1 10.6 9.2l-.2 14.1zm-5.1-10.3c-2.8.7-6 1.5-8.5 2.8-2.7 1.4-4.6 3.1-4.6 6 0 1.9.8 5.4 5.9 5.4 3.2 0 5.5-1.6 7.3-3.3l-.1-10.9zm33.6 4.1l-6.1 8.2c-.5.6-.7 1-.7 1.3 0 .6.7.9 2.5.9v1.7h-9.1v-1.7c1.4 0 2.4-.6 4-2.5l7.9-10-6.7-9.6c-1.9-2.8-2.7-3-4.2-3v-1.7h11.8v1.7c-1.7 0-2.5.2-2.5.9 0 .5.3 1.1 1 2l4.2 6.4h.2l5.3-6.7c.6-.7.9-1.3.9-1.7 0-.6-.7-.9-2.2-.9v-1.7h8.8v1.7c-1.5 0-2.3.6-4 2.5l-7.4 8.9 7.4 10.6c2.1 2.9 3 3 4.4 3v1.7H293v-1.7c1.6 0 2.4-.2 2.4-.8 0-.5-.3-1.1-1-2l-5-7.6-.2.1z"/></svg>