<svg id="Layer_1" viewBox="0 0 596.1 330.6"><style>.st0{fill:none;stroke:#231f20;stroke-width:12}</style><path class="st0" d="M112.2 165.3V59.1M112.2 59.1C112.2 29.8 136 6 165.3 6s53.1 23.8 53.1 53.1M271.5 59.1c0-29.3 23.8-53.1 53.1-53.1s53.1 23.8 53.1 53.1M218.4 165.3c0 29.3-23.8 53.1-53.1 53.1s-53.1-23.8-53.1-53.1M271.5 59.1c0 29.3-23.8 53.1-53.1 53.1M430.8 165.3c0 29.3-23.8 53.1-53.1 53.1M590.1 59.1c0 29.3-23.8 53.1-53.1 53.1M6 165.3V6M218.4 165.3V59.1M271.5 165.3V59.1M377.7 165.3V59.1M112.2 165.3c0 29.3-23.8 53.1-53.1 53.1S6 194.6 6 165.3M430.8 165.3V59.1M430.8 59.1c0-29.3 23.8-53.1 53.1-53.1C513.3 6 537 29.8 537 59.1"/><path class="st0" d="M537 165.3c0 29.3-23.8 53.1-53.1 53.1s-53.1-23.8-53.1-53.1M537 165.3V59.1M377.7 165.3c0 29.3-23.8 53.1-53.1 53.1s-53.1-23.8-53.1-53.1M377.7 271.5V165.3M377.7 271.5c0 29.3-23.8 53.1-53.1 53.1s-53.1-23.8-53.1-53.1"/></svg>