<svg viewBox="0 0 596.1 330.6"><path fill="none" stroke="#231F20" stroke-width="12" d="M112.2 165.3V59.1m0 0C112.2 29.8 136 6 165.3 6s53.1 23.8 53.1 53.1m53.1 0c0-29.3 23.8-53.1 53.1-53.1s53.1 23.8 53.1 53.1M218.4 165.3c0 29.3-23.8 53.1-53.1 53.1s-53.1-23.8-53.1-53.1M271.5 59.1c0 29.3-23.8 53.1-53.1 53.1m212.4 53.1c0 29.3-23.8 53.1-53.1 53.1M590.1 59.1c0 29.3-23.8 53.1-53.1 53.1M6 165.3V6m212.4 159.3V59.1m53.1 106.2V59.1m106.2 106.2V59.1M112.2 165.3c0 29.3-23.8 53.1-53.1 53.1S6 194.6 6 165.3m424.8 0V59.1m0 0c0-29.3 23.8-53.1 53.1-53.1C513.3 6 537 29.8 537 59.1"/><path fill="none" stroke="#231F20" stroke-width="12" d="M537 165.3c0 29.3-23.8 53.1-53.1 53.1s-53.1-23.8-53.1-53.1m106.2 0V59.1M377.7 165.3c0 29.3-23.8 53.1-53.1 53.1s-53.1-23.8-53.1-53.1m106.2 106.2V165.3m0 106.2c0 29.3-23.8 53.1-53.1 53.1s-53.1-23.8-53.1-53.1"/></svg>