<svg id="Layer_1" viewBox="0 0 335.1 396.2"><style>.st0{fill:#62b22f}.st1{fill:none}.st2{fill:#010202}.st3{fill:#de0642}.st4{enable-background:new}</style><path class="st0" d="M109.3 154.5c0 11.7-7.3 21.2-22.3 23.7-2 .3-8.4 7-16.5 4.3-6.6-2.2-15.4-13-15.4-18.3 0-11.7 10.5-28 25.8-28s28.4 6.6 28.4 18.3z"/><path class="st1" d="M177.6 174.2c2.7 2.8 4.1 5.8 7.4 7.5 5.9 3 14.4 6.3 21.2 7 2.2.2 4.2.3 6.2.3 1.9-.1 2.3-.9 3.7-1.3.8-.2 1.8.2 2.3-.8-1.9-1.7-4.6-.4-7-.6-1.9-.2-4.4-.3-6.8-.5-1.7-.1-3.6-.7-5.3-1-4.6-.9-9.2-1.2-12.3-3-3-1.8-4.2-6.4-6.7-9-1.9-2-4.9-3.6-7.7-4.4-.1 0-.2.1-.3.1v.3c.8 1.5 3.5 3.5 5.3 5.4zM158.1 123.9c2.1-1.9 3.3-5.4 4.7-8 4.1-7.3 11.4-13.5 17-19 .6-.6 1.9-1.5 1.5-2.4-10.8 6.8-19.8 15.3-23.2 29.4zM182.7 100.2c-.5.5-2 1.9-2 2.5 0 1.9 5.5 3 6 .5.3-1.7-1-2.9-1.1-4.7-1.6.1-2.1.8-2.9 1.7zM220.7 183.7c.7.9 1 2.5 2.4 2.4.3-1.2.8-2.9 0-4.2-.6-.9-3.9-1.6-3.9 0 0 .6 1.1 1.3 1.5 1.8zM215.1 148.3c-2.7.3-6.2 2.5-9.6 3-2.5.4-4.8.4-6.9.9 4.3 4.5 12.2-.4 17.5-.8 3.2-.2 5.4.9 7.9 1.4-.4-4.2-4.7-5-8.9-4.5zM216.4 155.5c-.9.1-6.1 1.3-6.2 2-.2 1 2.1 1.8 3.2 2.2 3.8 1.3 10.2 1.6 10.5-2.9-1.4-1-4.6-1.7-7.5-1.3zM185.7 122.3c-3.9-.1-7-2.4-9.5-3.3-.8 3.8 2.3 5.3 4.9 6.5 2.3 1 5.8 1.8 8.4 1.9 4.4.2 7.5-1.4 10.7-1.8-1.9-5.4-9-3.1-14.5-3.3z"/><path class="st1" d="M194.8 154.1c-2.2-1.8-4.5-4.4-6.8-6.7-2.2-2.2-5.3-4.4-6.9-6.9-1-1.6-1.3-3.7-2-5.7-.7-1.9-1.6-3.7-2.3-5.5-2.1-5.7-3.3-12.3-2.7-18.3h-.3c-.2.1-.3.2-.4.4-.2 3.6-1.5 5.2-1.1 9.1 1 10.2 5.6 20.1 11.4 26.3 4.4 4.7 8.2 10.1 15.5 10.8-.5-1.9-2.9-2.3-4.4-3.5zM173.2 131.4c-.8-4.7-1.8-10.2-2.5-15.3h-.3c-.1.1-.3.1-.4.3-1.2 3.6.4 8.1 1.3 11.8.3 1.2 1 2.5 1.9 3.2zM195.6 176.6c-1.6-.1-4.6-1.2-5.5-2.4-2-2.5-1-6.4-6-6.4-.1 0-.2.1-.3.1 0 .1-.1.3 0 .4 1 1.8 2.8 4.6 4.6 6.7.7.8 3.3 1.9 4 2.3 2.3 1.3 7 1 10.9 1.4 1.1.1 2.5.7 3.7.6 5.1-.1 2.5-3.8-.4-4.3-3.5-.6-7.4 1.9-11 1.6z"/><path class="st1" d="M215.1 143.9c1.6.1 2.8.8 4.6.6-.2-3-4.3-4.9-7.4-4.8-5.5.2-11.2 3.9-17.6 3.3-3.6-.3-5.4-2.6-9.1-2.4.8 1.9 2.3 3.5 3.9 4.3 2 1 4.6 2 6.7 2.2 6.3.5 12.5-3.7 18.9-3.2zM189.1 110.7c-2.1-.1-3.7 2-6.5 1.4-2.3-.5-3.4-2.8-5.7-3.4-2.4 1.8 1.9 5.1 4.7 6.1 2.6.9 5.2 1.1 7.9 1.1 1.3 0 3.5-.1 3.7-.8.4-1.3-2.7-4.3-4.1-4.4zM197.9 111.4c-2.3-3.9-6.6-11.6-6.9-17.1-2 .3 3.4 15.2 6.9 17.1zM201.3 133.7c-3.4.8-9.4.8-13.1 0-3.1-.7-5.1-2.6-8.1-3.8-.1.1-.3.1-.4.3-.3 1.4 1.4 2.9 2.3 3.7 3.7 3.2 8.4 4.5 15 3.9 5.8-.5 9.8-2.6 14.8-3.3-1.8-4.8-6.8-1.7-10.5-.8zM296.1 127.4c-1.4-2-3.6-3.7-5.7-5.5-2.7-2.2-5.1-4.6-8.6-5.2-.1 0-.1.1-.1.3-.1 0-.2 0-.1.1.5 1 2.1 1.8 2.9 2.7 1.7 1.7 3.1 3.5 4.7 4.9.7.7 1.8 1 2.5 1.8 6.8 7.6 11.4 17.4 13.4 29.2.5 3.2.4 6.5.8 10 .2 2.2 1 5.4 1.8 8.2.7 2.5 2.9 5.2 4.2 7.7.5 1 1.3 3.7 2.5 3.6 1.1-.1 3-4.8 2.8-6-.2-1-1.9-1.8-2.7-2.8-3.5-4.9-5.2-11.6-6-18.4-.9-8.3-4.8-15.7-8-22.1-1.4-2.8-2.8-6.1-4.4-8.5zM274.8 109c-1.8-4-4.7-7.9-7.5-11.4-1-1.3-2-3.8-3.7-3.8-1.6 2.5 1.9 4.7 3.2 7 2.1 3.7 2.7 8.5 8 8.2z"/><path class="st1" d="M222.9 174c.5-1.8-2.5-2.1-4.1-2.4-5.1-.9-8-.9-11.7-2.7-3.7-1.8-7.1-3.4-10.4-5.3-1-.6-1.6-1.7-2.4-2.4-2.5-2.3-5-3.9-7.7-6.5-2.5-2.4-5.3-5-6.9-7.4-.8-1.2-1.4-2.8-2.3-4.2-.8-1.4-2-2.5-2.8-3.8-3-4.9-3.6-9.3-5.3-15.7-.5-1.9-.9-3.3-1.8-3.2-.9.2-1.7 2.1-1.6 3.2 0 2.3 2.4 5.9 3.3 7.9 2.1 4.6 4.3 8.8 6.9 12.7 3.2 4.8 5.5 9.7 9.8 14 3.2 3.2 6.1 6.8 9.5 9 2.8 1.8 6.3 2.1 9.5 3.8 2.2 1.2 3.9 2.6 6.2 3.2 1.5.3 11.3 1.5 11.8-.2zM255.6 197.9c.2 1.1 3.2 1.2 4.4.6 2.8-1.2 3.2-6.1 4.8-9.4 1.9-3.7 7.1-9.8 5.1-14.7h-.3c-1.8 1.4-1.2 3.1-1.9 5.5-.7 2.2-2.2 3.6-3.3 6.2-1.7 4.1-2.5 7.8-5.7 9.4-.3.2-3.5.7-3.1 2.4zM259.7 131.9c-.2.1-.3.2-.4.4-.3 2 1.3 4 1.5 6.5.6 5.5-.1 12.8 2.3 16.4 1.1-4.1 1.1-11 1.9-15.3.2-1.2 1-2.4.8-3.4-.4-2-5-3.6-6.1-4.6zM253.6 173.8c-1.6 3.9-2.9 7-4.7 10.3 2.9-.9 5.2-3.9 6.5-7 4.8-11.7 3.7-31.9.1-44.1-.5-1.9-1.9-6.2-2.7-6.2-.1 1.1.6 2 .8 3 1.5 9.2 3.8 19.6 3.9 29.9 0 .7 0 1.5-.1 2.2-.6 4.1-2.4 8.5-3.8 11.9zM156.1 129.9c-.1 0-5.4 9.6-6.2 13.3-1.1 4.6-2.6 9.5-2 14 2.2-3.8 2.7-8.3 3.7-13.1.7-3.1 4.7-10.4 4.5-14.2z"/><path class="st1" d="M193.8 80.8c-.8-.8-1.7-2.1-2.5-2.5-5.1-2.6-10.4 2-13.8 4.4-2.8 2-5.2 3.7-7.6 6.1-4.7 4.7-8.6 10.3-11.8 15.7-1.7 2.9-2.9 6.1-4.6 9.1-1.7 3-3.4 5.9-4.9 8.9-4.2 8.1-6.5 17.3-8.6 26.9-.2.8-2.1 6.1 0 6 .8-.1 1.1-1.7 1.3-2.2 1.8-6 4.2-12.6 5.7-18.3 1.2-4.7 3.5-9.5 5.6-14.2 2.1-4.9 4.1-9.6 6.3-13.4.5-.8 1.6-1.4 1.9-2 .4-.7.5-2 .9-2.5.6-.9 1.8-1.8 2.7-2.9 3.5-4.5 8-9 13.1-11.3 3-1.4 6.7-3.1 10.3-3.7 2.7-.4 5.6 0 8.5-1.3-.4-1.3-1.6-1.9-2.5-2.8zM157.3 167.2c4 3.8 7.5 7.4 11 11.4 6.5 7.4 15.1 13.4 25.8 15.9 2.3.5 5 .7 8 .9 7.9.4 18.1 1 22.5-2.4-1.4-3.1-6.3-.1-9.1.3-2.4.3-4.2-.3-6-.4-4.2-.1-7.6.8-11.2.5-5.7-.5-9-3.2-13.6-4.9-2.7-1-5.3-2.7-7.1-3.9-4.3-2.9-6.5-7.9-10.3-11.7-1.4-1.4-3.5-2.6-5.3-4.1-2.3-1.8-5.6-5.1-8.6-5.3v.3c.7 1 2.5 2 3.9 3.4zM144.9 199.7c1-.4 1.3-1.9 2.7-2.2 1.4-.2 2 .5 3.6.8-.2-4.1-2-9.8-2-15.7 0-2 .2-3.9 0-5.8-.3-2.4.2-7.3-.5-9.8-.7-2.3-5.8-5.8-8.1-5.5-1 2.3-.1 5.3-.1 8 0 1.9-.4 3.9-.5 6.1-.5 7.5-1.7 15-2.8 20.9 3.9-.5 4 4.7 7.7 3.2zM235.2 208.4c.6-1.5-.1-3.3-.8-4.7-1.4-3.2-2.9-6.5-4.3-9.8-.4-.9-1.2-1.6-1.5-2.7-2.6-9.7 1.9-19.9 1.9-30.4 0-6.5-.5-13.1-.5-19.3 0-9.3-1.1-18.1-3-25.1-1-3.8-2.8-6.8-4.4-10.4-1.4-3.2-2.6-6.1-5.3-8.5-1.1-1-2.6-1.8-3.9-2.8-1.4-1-3.4-3.2-5.1-2.2.6 1.5 2.5 1.6 3.6 2.5 1.3 1.2 2.5 3.2 3.8 4.8.9 1.1 2.2 2.1 3.3 3.3 1 1.1 2.6 2.6 3 3.6 2.8 6 2.5 15.2 3.4 23.2.2 1.6 1 3.1 1 4.4 0 .7-.4 1.4-.4 2 0 1.9.5 3.7.5 5.7 0 6.2 0 13-.4 19.4-.5 7.4-.6 14.9-.6 20.8 0 6.1 2.2 11.8 3.9 16.4.6 1.5 1.3 3.1 1.9 4.3.9 2.1 2.1 4.4 3.9 5.5zM245.6 106.6c.6 2.5 1 4.6 2.7 5.6.8.5 2.1.4 3.2.8 3 .9 6.3 1.8 9.3 2.9 2.4.9 4.4 2.9 6.6 4.2 3.9 2.4 7.7 4.3 10.7 7.4 1.4 1.4 2.5 3.1 3.9 4.6 4.2 4.3 7.9 9.4 10.1 15.6 3.4 9.6 5.9 20.7 6.1 32.9.1 3.4-.8 6.9-.6 10.5.1 2.7 1.3 4.3 2.3 6.5.2.4.9 2.9 2 2.9s3.9-3.6 3.9-4.6c0-.9-1.6-2.8-2.2-3.9-2.3-4.3-2-10.3-2.5-16.1-.9-10.2-4.3-19.2-6.7-27.9-1.7-6-4.1-9.5-6.7-14.3-2.6-4.9-4.8-8-9.4-11-5-3.3-10.2-6.9-15.2-9.9-4.7-2.8-11.4-4.7-17-6.3-.3-.2-.4-.1-.5.1zM229.7 211.8c.9.7 2 1.4 3.3 1.5.2-2.3-2.1-3.7-3.4-5.3-1.6-1.9-3.5-4.2-4.7-6.1-.7-1-.8-2.8-2.3-2.7-.3 0-.3.4-.5.5.9 5.5 4.1 9.2 7.6 12.1zM256.9 100.2c1.4 1.7 2.4 4.8 5.2 4.4-.1-1.9-1.4-4-2.8-5.8-1.6-2.1-4.2-5.3-7.4-3.7.7 2.3 3.4 3.1 5 5.1zM263.6 171.4c1.7-1.4 3.4-5.3 1.8-7.7-1.6 1.1-1.9 4.9-1.8 7.7zM48.5 169.9c-1.7 2.2-4.8 14.1-2.3 15.3-.5-3.5 2.5-14.1 2.3-15.3z"/><path class="st1" d="M142 122.4c3.7-6.8 7.1-16 10.5-22.7 1.8-3.5 3.4-7.3 5.6-10.1 2.8-3.6 6.5-4.9 9.6-8 1.9-2 4.1-3.4 6-5.3.6-.6.8-1.4 1.4-1.9 1.3-1.1 3.8-2.3 5.6-3 1.1-.5 3.6-.8 3.8-1.8.2-.8-2.1-4.8-2.8-4.9-1.2-.2-3.6 2.2-4.3 2.8-1.5 1.2-2.8 1.8-4.2 2.9-2.8 2.3-5.6 4.4-8.2 5.7 3.6-3.9 8.3-8.3 12.9-11.5 1.1-.8 2.4-1.6 2.5-2.8.1-1.2-1-4.1-1.8-4.2-1.5-.1-4.3 4.6-4.9 5.3-1.3 1.3-3.3 2.1-4.8 3.6-1.8 1.6-3 3.8-4.8 5.2-2.9 2.3-6 4.1-8.4 6.3 2.4-3 6.1-5.1 8.9-8.2 1.2-1.4 2-3.2 3.3-4.6.9-.9 2.1-1.4 3-2.2 1.6-1.4 3.8-4 5.2-6 .6-.8 1.4-2.3 1.4-3.2 0-.3-.2-1.7-1.1-1.7-.6 0-1.2 1.5-1.5 1.9-2.8 3.5-7.4 5.4-10.5 9.4-2.6 3.3-4.6 7.3-8.5 8.8 1.2-2 3.3-3.2 4.8-5.2 1-1.4 1.6-3.1 2.7-4.7 2.6-3.8 7.1-6.6 9.6-9.5.7-.8 2.4-3.1 2.5-4.2.1-1.3-.9-3.5-1.9-3.7-.7-.1-1.4 2.1-1.8 2.5-.7.9-1.8 1.3-2.5 2.2-1.1 1.3-1.8 2.9-2.9 4.2-3.6 3.8-7.6 7.2-11.3 11.3-4.3 4.8-8.6 9-12.9 13.2-3.3 3.2-5.9 7.4-7.5 12.3-.8 2.3-1.9 4.6-2.5 6.7-1.2 4.1-2.1 9.8-2.9 14.6-.2 1.2-1 2.8.1 3.9 1.6-2.5 3.8-5.7 4.1-8.9.6-8.4 4-17.7 8.9-21.3-1.9 2.4-2.9 5.4-3.8 9-.5 1.9-1.4 3.8-1.8 5.8-.4 2.3-.2 4.7-.8 7-.8 3.3-3.7 6.4-4.4 9.6-.1.6-1 3.3-1 3.8 0 1 1.1 2.2 2 2.7 1.1-2.8 1.5-5.4 2.4-8.1 1-3.3 3.5-7.2 4.2-10.9.2-1 0-2.1.1-3 .4-3.4 2.4-6.4 3.7-8.5.8-1.3 1.2-3 1.9-4.2 1.6-2.5 4.5-4.3 6.6-6.3-3.8 5.2-8.6 10.9-9.5 18.5-.6 5.1-2.3 8.2-3.9 12.7-.7 1.8-1.4 3.8-2 5.5-1.1 3.1-1.4 4.5-2.4 7.7.2 1.2.5 3.8 1.9 3.7 1.3-.1 1.9-4.3 2.3-5.7 1.5-5.2 4-10.8 5.3-16.7.4-1.7.6-2.3 1.1-3.4.8-1.7 1.1-4 1.9-5.6 1.1-2.1 3.2-3.6 4.3-5.1-2.4 3.9-3.7 8.8-4.8 14-.7 3.4-3.1 8.7-3.5 12.7M54.8 184.1c.6-4.4 2.2-9.6 1.4-12.8h-.3c-.4.3-.8.8-1 1.4-1.7 4.8-2.7 11.8-3.3 17.4 2.9 2.9 2.9-3.9 3.2-6zM57.7 166.6c1.4-2.8 3.6-7.1 3.2-10-1.5 2.8-3.1 6.1-3.2 10zM59.5 170.7c.9-2.3 1.6-6.1 2.2-7.7 1.1-3.2 3.8-8.3 3.7-8.4 0 .2-3.8 5.8-5.1 8.8-.9 2-1.9 5.5-.8 7.3zM50.2 189.8c1.4-4.7 2.3-10.3 3.3-15.2.4-1.9 1.5-3.8 1.4-5.3-.1-1.4-1.5-4-2.7-3-2.2 3.9-3.9 10.7-4.6 16.7-.3 3.7-1 6.3 2.6 6.8zM64.2 291.6c.5-6.5-.3-15.6-2.4-19.7 0-.2-.1-.1-.3 0-.1 0-.2 0-.1.1-.7 4.4-.3 9.3-1.4 13.6-.4 1.6-1.1 2.9-1.3 4.6-.5 6.3-.9 13.4-1.1 19.8-.2 4.7-.5 9.5-.3 14.1 4.1-7.8 6-20.8 6.9-32.5z"/><path class="st1" d="M65.7 188.6c1.2-.7 5.3-3.1 5.2-4.6-4.4-1.8-12.1-9.5-13.3-9.5-1.8 3.3-2.6 12.1-2.4 16.5 3.4.1 7.4-.6 10.5-2.4zM197.1 93c-1.7-.4-3.5-.1-4.7.8.6 9.6 5.2 16 9.9 21.1-1.4-.3-2-2.1-3.4-1.9 1.7 3.8 5.1 6.6 7.9 9-2.1-1.3-4.5-2.6-6.1-4.6-3-3.7-7.1-7.2-9.3-11.5-1.5-3-1.6-6.1-3.3-9.6-2.5.5-1.4 2-.9 3.3.7 1.8.8 3.6 1.6 5.2 2.9 5.5 6 9.9 10.5 13.6 2 1.6 3.5 3.7 5.7 5.2 6.9 4.8 14 10.2 17 18.5.5 1.3.4 2.9 2 4.2 1.6-6.6-3.8-9.1-5.2-13.8 2.1.9 2.5 3.6 4.8 4.4 2-6.6-6.6-6.5-7.1-11.4 2.6 1.1 3.6 3.8 6.5 4.7 2.8-6.4-5.8-7.5-7.6-10.8 3.3.4 4.3 3.1 7.4 3.8.1-1.8.4-3.8-.3-4.9-1.1-1.9-5-.9-5.6-2.9 1.6.3 3.3 1.6 5.1.9 1.7-4.4-3.6-3.9-5.7-5.3 1.5-.1 3.3.9 4.3 0-.1-4.4-6.7-3-7.6-6.1 1.7.2 2.8 1.7 4.6 1.5-.2-1.9-2-3.3-3.3-4.7-2.3-2.4-9.4-7.7-10.5-7.7-1.6 1.9.7 5.2.4 7.5-2.8-1.3-.6-8.9-4.9-7.9-.7 6 3.4 9.5 4.8 14.2-2.2-2.4-4.5-5.1-5.6-8.8-.5-2-.2-4.4-1.4-6zM178.2 163.1c-1.4-3.5-5.2-4.6-6.2-8.5 2.4 3.1 5.2 6 8.4 8.5 1.5 1.2 3.8 2.5 6 1.8.2-.8-.8-1.1-.5-1.5 1.7 1.2 3.5 3 5.8 3-.2-1.3-1.2-1.6-1.9-2.3-4.7-4.4-9.1-8.9-12.3-14.8-.5-.9-.7-1.8-1.1-2.7-1-1.8-2.6-3.2-3.5-5.2-.9-2-2.5-3.7-3.2-5.7-.3-1-.3-2-.8-2.9-.3-.7-1-1.1-1.3-1.8-.7-1.5-1.1-5.2-2.8-5.2-2.3 5 1 10.7 3.3 15.1 1.8 3.5 3.4 7.1 5.5 10 3.2 4.6 7.4 8.6 11 11.9-3.1-1.4-5.3-3.8-7.6-6.2-1.6-1.6-2.4-3.7-3.7-5.5-2.7-3.6-5.4-7.6-7.2-11.7-1.1-2.5-1.2-5.6-3.4-7.4-.9 1 2.7 10.7 3.5 13.6-3.1-5.1-4.2-9.3-4.8-10-4.5 4.8 1.1 10.1 3.3 14.8.8 1.7 2 2.8 2.4 4.4-3.4-2.9-4.8-7.7-7.7-10.9 0 5.9 2.5 11.7 5.7 15.6 1.3 1.6 4.2 2.8 6.7 1.9 0-1.5-1.8-1.8-1.6-3 2.1 2.1 4 5.5 8 4.7zM120.3 108.1c1.7-6.1 2.1-11.9 4.3-17 .9-2.1 1.6-4.7 2.9-6.7.7-1 5.9-8.3 7.9-10 2.5-2.1 12.9-11.4 15.5-13.3 1.9-1.4 4-2.5 5.6-4.2 4.1-4.3 7.9-9.4 11.5-14.3 1.1-1.5 3.3-4 3.3-5.3 0-1.7-2.3-5.9-3-6.8-2 3.9-3.8 8.5-6.3 11.9-.8 1.1-2 1.9-2.8 3.2-.5.7-4.2 5.8-5.8 7.6-3.2 3.5-6.6 7.1-10.1 10.1-1.9 1.6-3.4 3.8-5.2 4.9-3.7 2.5-6.5 6-9.1 9.5-1.6 2-3.1 4-4.4 6.2-2.9 4.6-4.2 9.3-6.1 15.1-.6 2-2.4 5-1.8 6.9.1 1.1 2.3 2 3.6 2.2zM153.9 158.9c.3.9 2.5 1.2 3.6.8-.5-1.1-.2-4.5-1.5-4.7-1-.1-2.4 3-2.1 3.9zM186.2 152c.1 1.6 7.5 8.6 10.8 10.5 7.2 4.2 15.3 8.3 25.9 8.8.8-.9 1.1-4 0-4.6-.7-.4-2.2.3-3 .3-3.7-.2-8.1-1.5-11.4-2.4-6.3-1.6-13.2-6.6-17.8-9.4-1.8-1.1-2.9-2.3-4.5-3.2zM56.2 160.6c1.2 0 1.2-1.3 1.5-2.2-1-.3-1.9 1.1-1.5 2.2zM164.2 160.6c-2.4-4.4-4.8-8.7-6.5-13.8h-.1c-.9 1.3-1.9 3.7-1.3 6.1 1 3.9 3.5 9.5 7.9 7.7zM127.2 144.1c.9 3.3 1.7 8.4 5.5 8-1.2-9.1-4.3-18.1-8.2-25-1.8-3.2-4.4-7.2-7.1-9.5-2.6-2.2-4.8-4.6-7.5-6.7-2.7-2-6.6-3.5-9.5-5.3-3.1-1.9-6.4-3.1-9.9-4.6-6.6-2.7-13.5-7.5-20-10v.4c1.5 2.7 3.1 4.8 5.6 6.3 7 4.4 13.8 7.6 22 10.9 3.4 1.4 8.3 5.2 11.3 7.5 4.2 3.3 6.2 4.7 9.1 9 1.2 1.8 4.8 10.1 6 12.4 1 2.1 2.1 4.5 2.7 6.6zM82.7 142.1c-1.2-.6-5.7 1.9-5.8 3.3 1.8-1.4 5.7-2.3 5.8-3.3z"/><path class="st1" d="M79.1 180.4c1.3-1.4 19.4-8.3 22.5-9.1.8-.6 7-10.1 6.7-18.1-.2-4.4-5.8-10.8-9.9-12.3-2-.7-9.8-.6-13.6 1.4-1.5.8-2.4 2.5-1.7 4 .8.1 5.7-1.5 10.4 2.8 1 .9 2.2 3.3 2.5 4.4 1.6 5.6.4 9.7-2.4 13.4-1 1.4-8.1 5.6-11.8 3.9-.6 3.6-5.8 6.6-5.8 6.6s.6-.9.7-1.5c3.1-3.5 2.8-4.2 2.9-6 .2-2.4.8-5.2-2.2-7.1-3.3-1.6-5.3.3-6.5-.4-1.1-1.4-.2-5.4-.1-5.9.8-3.5 3.5-7.7 4.7-10.7-1.1.4-6 4.4-9.5 9.9-3.3 5.3-4.6 11.5-5.1 18.5.4.3 6.7 7.9 11.9 8 1.9.3 3.8.6 6.3-1.8zm-12.1-11c.2 0 .2.1.4.1 0 5 4.2 6.1 8.7 6.6-.2.6-.7 1.1-.9 1.4-1.6 0-2.9-.2-4.8-1-2.2-1.5-4.3-3.9-3.4-7.1zM223.4 164c-5.3.1-9.6-.4-14-2-3-1.1-5.9-3.3-8.6-3 2.3 3 8.6 5.2 13.4 6.3 2.9.6 9.8 2.4 9.2-1.3zM72.6 100.7c-5.4-1.1-17.3 2.3-22.9 4.7-3.4 1.5-9.7 8.8-10.1 9.3-1.1 1.4-3.3 5.9-3.9 8-2.8 9.7-7.2 21.3-5.6 33.5 3-2.6 4.9-6.4 7.9-9.5 2.8-2.9 5.6-5.8 8.9-8.5 3.2-2.6 18.5-11.1 22.7-12.1 2.6-.6 11.2-2.4 20.9-.8-2.2-6.1-17.1-24.4-17.9-24.6zM121.1 146.1c-4.8-18.2-17.8-29.3-35.1-35.4-.2.1-.3.2-.3.4.9 1.7 2.7 3.8 4.2 5.2 3.9 3.5 8.8 6.1 12.8 9.6 3.3 2.9 7 6.8 9.3 10.5 2.4 3.9 4.4 9 9.1 9.7zM117.9 173.8c-.8-6.9-4.2-14.4-6.9-19.3-.1 0-.6 0-.6.1-.1.3-1.5 12.5-6.6 20.8 10 .2 9.1 1.3 13.4 2 .9-1 .8-2.4.7-3.6zM222.9 179.8c.5-1.1.2-3-.5-3.7-3.1-.2-6.4-.8-8.9 0 .9 3.3 5.7 4.8 9.4 3.7zM126.5 242c.9 1.1 3.8.7 4.8 1.3.7-2.8-3.9-3.7-4.8-1.3zM37.4 214.5c-.2 0-.2-.2-.4-.3-2.3 1.4-1.3 5.1-1.6 8.4-.2 2.1-1.1 4.3-1.6 6.2-1 3.5-2.4 6.8-3.7 10-1.3 3.2-3.4 6.5-2.9 10.4 1.8-1.1 1.8-3.5 2.8-5.3 1-1.8 2.6-3.4 3.4-5.5 1.4-3.3 1.6-7.6 2.5-11.5.9-3.9 1.6-8.2 1.5-12.4zM136.2 228.6c-2.2-.2-2.1 1.1-3.3 2.3-2 2-3.2 5.2-5.7 6.3-1.6.7-3.1 1.3-3.8 2.8 1.8.4 3.2-1.1 4.6-1.5.8-.3 1.5 0 2.2-.5 3.1-2.4 3.1-8.2 8.1-7.4 1.9.3 3 2.4 4.7 2.8-.9-3-3.9-4.5-6.8-4.8zM147 248c.2.6 1.1.5 1.9.5.5-.3.8-.8 1-1.4-.8-.4-2.7-.2-2.9.9zM144.1 234.7c-.2 1.8 3.3 2.4 3 .6-.1-.8-2.1-1.2-3-.6zM144.7 239.9c1.2.6 3.8.5 4.9-.1.2-.4.2-1.2-.1-1.5-1.7.5-6.4-1.7-4.8 1.6z"/><path class="st1" d="M142.6 236.1c-1.3-1.2-2.8-4.5-5.3-3.9-2.1.5-.8 5.4-1 7.9 1.4 1 4.7 1 6.1 0 .3-1.1.2-2.7.2-4zM95.1 226.3c9.4-11.8 18.2-24.6 17.3-45.3 0-1 .1-2.1-.3-2.7-1.1-1.6-13.6-.5-15.1-.5-4.7.1-9 3.3-12.4 5.3-4.8 2.9-11.4 7.4-13.7 8.2-15.8 6.2-23 2.2-23.7 1.8-2.2-1.6-1.8-2.4-3.2-4.2-.8 3.2-1.3 8.8-1.1 12.6 0 .7.8 1.8-.4 2-1.2-.9-1.1-4.8-1.1-6 0-2.3.2-3.1.3-5.8.1-3.1.2-5.7.6-9 1-8.5 14.5-35.4 28.4-46.7 7.3-2.8 15.7-1.4 19.3-1 4.3.5 8.2 2.3 11.4 3.8 2.6 1.3 4.8 3.3 7.5 3.7-1.9-2.6-4.5-4.4-6.8-6.6-3-2.7-9.8-8.7-28-6.6-10.3 3.3-19 9.7-23.8 13.6-.4.5-9.2 7.3-13.7 14.2-.7 1.1-5.1 8-4.8 10.7.4 3.9 1.7 7.1 2.4 10.5.9 4.5 2.2 8.8 2.8 13.6.6 4.2 2 8.4 3.2 11.8 2 5.5 4 10.1 7.4 13.7 1.6 1.7 3.9 3.5 6.1 4.7 4.7 2.7 8.1 6.5 13.3 8.5 2.7 1 5.3 2.5 7.7 3.2 2.6.7 6.1 2.8 8.5 1.9 3.8-1.5 9.4-6.2 11.9-9.4zM40 224.7c-.1.1-.3.1-.4.3-1.2 5 1.6 8 4.2 10 4.1 1.7 6.1 5.5 9.5 7.9-2.4-7.7-7-14.2-13.3-18.2zM136.1 246.2c.4.8 1.6.9 2.7 1-.6-.6-1.7-.7-2.7-1zM43.3 327c-1.7-8.9-3.4-18.8-3.4-29.2 0-8.2 2-16.6 1.1-24.9-.6-5.2-2.4-11-2.8-16.4-.4-5.1 1.2-9.1 1.3-13.4-.5-.4-1.1-.8-1.9-.5-3.6 5.2-4.2 12.3-3.7 19.4.4 6.5 2.9 13.9 2.8 20.7-.1 3.8.1 7.4.4 11.4.5 6.8-.4 13.7.5 19.9.9 6.1 2.2 12 3.3 17.5 1.6 8 5.2 15.2 8.2 21.7.8 1.6 1.2 3.9 3 4.4-2.1-6.3-4.5-12.8-6.6-19.8-.9-3.2-1.6-7.1-2.2-10.8z"/><path class="st1" d="M52 276.7c.5-3.8.6-7.8.4-11.7-.3-7.5.6-16.2-5.6-17.6-.1.1-.3.1-.4.3-.5 3.1-.7 8.9.1 12.6.6 2.9 1.8 6 1.9 9.3 0 1.2-.2 2.5-.1 3.7.4 4.6-.1 9.1-.5 13.4-.4 4.2-.2 8.4-.4 12.6-.1 3.6-.9 7.4-.5 11.3.5 5 1.6 10.8 2.3 16 .5 4.2 1.1 8.5 3 11.8-1.7-16.4-3-35.9-1.6-53.8.2-2.8 1.1-5.3 1.4-7.9zM140.8 253.7c.1-.6-3.6-3.1-4.3-2.3 0 1.4 4.1 4 4.3 2.3z"/><path class="st1" d="M166.8 245.8c-1-.7-3.9-2.5-5.1-2.3-1.2.2-2.6 3.4-3.2 5.3-.6 2.2-.7 5.4-1.9 6.7-1.9 2.1-6.6 1.2-9.9 1.6-1.6.2-3.3 1-4.6.8-.9-.1-1.8-1.3-2.5-1.8-2.5-1.6-7.1-4.5-8.8-7-1.3-1.8-2.4-4.3-4.3-5.3-4.2-2.2-5.4 1.4-9 1.9-3.1.5-6.3-.1-9 1.5 1.4 2.1 3.8 3.4 5.8 4.7 5 3.2 10.2 6.3 14.6 9.9 2.6 2.1 4.7 4.8 7.2 6.7 3.6 2.7 7.7 5.8 13.8 5.3 6.1-.5 11.9-3.9 16.4-6.8 3.1-2.1 6-5 8.9-7.5 3-2.6 6.4-4.9 8.4-8-4.1-1.4-8.5 0-12.2-1.9-1.8-.8-3-2.8-4.6-3.8zm-18 18.2c-1.7.9-3.4 3.1-5.5 1.9 1.9-2.3 6.5-5.3 10.7-4.9.9.1 1.9.2 1.9 1.4-2.8.3-5.1.5-7.1 1.6zM143.2 229.1c-.5 1.5.7 2.4 1.8 2.7.3-1-.2-2.9-1.8-2.7z"/><path class="st1" d="M132.7 247.6c0-.4-.2-.6-.5-.8-.4.4.1.8.5.8zM259.9 299c-1-3.5-1.2-7.3-2.5-10.8-1.4-3.8-3.4-8.5-3.6-13.1-.3-6.8-.2-14.7-5.3-16.9-.2.1-.3.2-.4.4 0 2.5.8 5 1 7.9.3 4.4.3 8.8 1.6 11.9 1.3 3.1 3.2 5.8 4.3 9.1 2.7 8.4 3.8 18 6.7 26.1 1.1 3 1.9 6.4 4.3 8.2-.9-4.9-1.5-10-3-15-.7-2.6-2.3-5.1-3.1-7.8zM279.3 263c-1.2-.1-2.6-1-4.1-1.4-1.5-.5-3.2-.7-4.3-1.1-4.5-1.8-8.8-6.9-11.3-11.3-2.8-4.9-5.6-10.3-7.7-15.5-3.7-9-5.1-20.1-8.9-28.3h-.4v.4c1.4 4.1 1.8 8.8 2.9 13.6.5 2.2 1.4 4.3 1.6 6.3.4 3.2.6 5.1 1.4 7.6 1.2 4 3.4 8.8 5.3 12.7 2.4 5 4.8 8.2 8.6 11.8 2.4 2.2 4.8 4.4 7.4 5.7.8.4 1.8.5 2.5.9s1.1 1.2 1.8 1.5c3.8 1.8 10.3 1.5 13.8-.1 1.4-.6 2.7-2.2 2.4-4.3-3.7-.5-6.6 1.8-11 1.5zM243.4 240.8c-1.8-1.6-4.1-3.4-6.1-4.7v.5c1.2 1.7 2.8 2.9 4.2 4.4 1.1 1.2 1.5 3.3 3.3 3.8.7-1.5-.5-3.2-1.4-4zM296.2 244.7c-6-7.2-6.7-17-9.5-27.9-1.9-7.6-3.4-17-4.3-25.1h-.3c-.1 0-.1.2-.1.4-2.5 8.7-1.6 17.9.1 26 1.4 6.7 2.5 12.7 4.4 18.4 1 2.9 1.6 6.2 2.9 8.5 2.9 5.1 10.6 9.4 16.5 11.2 2.1.6 7.3 1.3 7.9-.8.3-1.1-1.6-3.3-2.7-3.4-1-.1-1.9.9-3.2.9-2.2 0-4.9-1.6-6.5-2.9-1.5-1.4-3.9-3.7-5.2-5.3zM239 228c-3.4-3.7-7.1-7.6-10.5-11.4-2.5-2.8-4.5-5.2-8-6.5 0-.2-.1-.1-.3 0 .5 2.6 3.7 4.1 5.3 6.1 4.9 5.9 9.4 13.1 16.1 16.9-.1-2.1-1.3-3.7-2.6-5.1z"/><path class="st1" d="M176.3 226.4c-1.9-3.5-4.3-6.8-5.7-10.4-3.8-9.6-6.5-20.3-6.6-33.2-1.4-2.1-3.4-3.4-5.1-5.2-1.6-1.7-3.2-3.9-5.5-4.9-1.6 4.3-1.5 11.3-1 17.3.2 1.9 2 7.7 1.4 8.9-1 2.2-4.6.6-6.1.6-1.3.1-1.9 1.3-3.2 1.5-3.7.7-3.9-2.9-7.4-2.4-.5 1.7-1.8 3.3-3.8 3-.5-5.1 2.5-10.5 2.7-16.4.2-5.8.5-11.5-.3-17.4-.3-1.9-1.1-5.4-2.2-7.5-.6-1.2-1.7-3.3-2.7-3.9-1.5-1-3.6-1.4-5.2-2.3-4.9-2.6-9.4-6.3-13.7-9.3-.1 0-.1.1-.3.1v.3c.5 1.1 1.6 1.7 2.2 2.7.8 1.4 1.4 2.8 2.2 4.4 2 3.9 4.7 7.9 5.7 12.2 1.4 5.8 1.7 12.1.5 17.4-2.7 12.3-8.7 24.3-14.5 33.1-1.2 1.8-3.1 3.5-4.4 5.5-4.1 6-9.2 11.3-15.6 14.5-.9.4-3.3 1.1-3.2 2.2.1.6 1.7 1.1 2.4 1.4 4.9 2 9.2 3.7 13.7 5.7 1.7.7 3.6 2.2 5.5 2.3 2.1.1 4.9-.7 7.2-1.3 2.5-.6 4.9-.9 6.3-2.2 1.7-1.5 3.3-4.7 4.4-7.1 2.8-5.9 1.6-15.6 7.1-17.8.2 1.5-1.4 1.3-1.1 2.8 1.9-.8 3.8-2.8 6.5-2.5 3.4.3 3.7 3.7 5.6 5.7.3-4.2-2-6.8-5.2-8 7.8-.8 5.3 10.9 9.1 14.3 3.1 2.8 4.6-1.2 7.5-1.1 1 0 2.3 1.1 2.9 2.2 2.5 4.2 4.1 9.8 8.4 12.1.6.3 1.6.4 2.3.8 2.6 1.4 4.2 4.3 7.5 4.9 1 .2 2.6.3 3.9.4 2.4.2 5.2 1 7.1.6 1.7-.3 3.6-2.2 5.5-2.9 2.6-1 5.6-1 7.1-3.2-9.6-3-17.3-9.5-21.9-17.9z"/><path class="st1" d="M152.2 245.8c1.5-.2 2.8-.7 2.9-2.3-1.7.1-2.4 1.1-2.9 2.3zM152.6 254.7c1.7.2 2.3-1.6 2.8-3-1.3-.4-1.9 2.1-2.8 3zM156.8 243.6c-.1 1.5 2.7 1.6 2.5-.1-.5-.6-2-.3-2.5.1zM216 224.9c-2.5-2.8-5.2-3.9-7.2-6.3-2.7-3.1-2.2-10.7-4.8-13.8-2.2-2.7-6.4-1.6-10.1-2.5-2-.5-3.7-1.9-5.5-2.7-1.5-.6-3-.7-4.3-1.1-3-1.1-6.1-3.4-8.1-5.3-1-1-1.8-3.3-3.2-2.5-.8.7-.9 3.3-.9 5.1 0 11.2 3.1 19.4 7.1 27.4.8 1.5 2.3 3.4 3.4 5.3 3.5 6.1 7 9.3 13.7 12.2 2.6 1.1 5.9 2.7 8.8 2.4 2.1-.2 5.3-1.7 7.5-2.8 2.4-1.2 4.9-2.5 6.6-3.8.8-.7 3.1-2.9 3-3.9 0-1.1-2-2.7-2.9-3.8-1.2-1.7-2.2-2.9-3.1-3.9zM160.3 240.9c0-.9-.7-1.1-1.3-1.4-.6.2-.8.8-1.4 1-1.5-.5-1.8-2.1-3.2-2.8 0 1.9 1.1 2.7 2.2 3.6 1.2-1 2.7 1 3.7-.4zM221 218.2c-1.7-2-4.2-3.5-6-5.5-1.7-1.9-3.6-4.4-4.2-6.6-.5-2-.6-3.6-3-2.8.8 8.7 6.1 13.2 11 18 1.8 1.7 4.4 3.3 7 3.8-.4-2.2-1.6-3.1-2.9-4.4-.8-.8-1.2-1.7-1.9-2.5zM292.5 88.8c1.7 1.7 3.8 3 5.5 4.4 1.6 1.4 3 3.4 4.6 4.9 4.4 4.4 7.3 10.1 9.8 16.1 1.6 3.9 3.4 7.6 4.7 11.7 1.1 3.2 2.3 6.3 3.4 9.6 1 3.1 2.3 6.6 3.9 9.1.1-10.8-3.5-20.2-7.4-28.8-1.8-4.1-3-8.9-5.7-12.6-2.6-3.5-4.8-7.7-7.9-10.4-.9-.8-2-1.3-2.9-2-1.5-1.3-2.7-2.9-4.3-4.2-1.6-1.3-3.4-2.2-5.1-3.4-4.7-3.5-9.5-9.5-14.7-12.1-.2.1-.3.2-.4.4.3.7.6 2 1 2.8 3.4 6 10.8 9.8 15.5 14.5zM243.3 114.8c-.3-1.5-1.6-3.5-1.9-4.2-1.6-4.6-1.5-10.5-6.2-10.8 0 1.7 1.3 2.4 1.8 3.8.9 2.7 2.3 5.8 3.2 8.8.1.5 1.6 4.6 2.3 4.7.9.1 1-1.3.8-2.3zM32.6 222.6h-.1c-3.2 4.4-7.2 11-8.5 17.6-.1.4-.1.9-.1 1.4-.1 1.6-.4 3.9.5 5.3 2.9-8 7.1-15.1 8.5-24.4-.1.1-.2.1-.3.1zM244.7 179.5c.7-.1.8-2.7 1.3-3.9 4.6-13.2 7.1-36.8-.1-49.1 0-.2-.1-.1-.3 0 0 3.6 1.2 7.5 1.5 11.7.4 5.6 0 10.7.1 16.6.1 4.4 0 8.6-.8 11.7-.8 3.3-3.4 7.6-3.3 10.5.1 1.1.8 2.7 1.6 2.5zM249.1 211.8c1.8 4.5 4.4 9.2 6.3 13.8.9 2.2 2.4 4.1 3 6.1.9 2.8 1.7 6.1 2.8 8.8.5 1.2 1.7 2.3 2.7 3.7 2.6 3.9 5.3 7.7 9 10.1 3.8 2.5 11.1 5.2 15.7 2.2-.4-1.2-1.1-3.2-2.2-3.3-.7-.1-1.4.8-2.2.9-4.5.6-8.5-1.2-11.2-3.4-7.6-6.2-8.9-17.4-14.5-27-4.3-7.5-8.9-14.4-11.5-22.8-.2 0-.2-.2-.4-.1 0 .2-.2.2-.1.4.1 2.7 1.1 5.8 1.8 8.8.4.5.6 1.3.8 1.8zM279.7 166.7h-.3c-3.3 5.3-3.3 16.8-.6 22.7 1.4-2.3.8-6 .8-9.1 0-4.6 1.1-9.6.1-13.6zM236.5 162c-.2 1.5-.4 3.7.9 4.9 4.6-7.2 2.8-19.7 2.8-29.3 0-2.5-.1-5.4-.3-8-.5-6-2-9.2-4.2-13.2-3.3-6.1-4.2-14.6-9.3-18.8 0-.1 0-.1-.1-.1-.2.1-.3.2-.4.4 0 1.4 1 2.8 1.6 4.3 2.9 6.7 4.7 14.1 7.5 21.3.7 1.9 1.5 4.2 1.8 5.8.5 2.9.4 5.2.5 8.1.2 5.2.6 10.4.3 15.7-.2 3-.9 6-1.1 8.9z"/><path class="st1" d="M273.2 234.7c-1.8-1-2.3-4.2-3.2-6.2-.9-2.1-2.7-4.3-4.1-6.7-.7-1.2-1.2-2.6-1.9-3.7-1.9-2.9-4.7-5.3-6.5-8-.9-1.3-1.4-2.8-2.3-3.9-.6-.8-1.3-1.2-1.8-2-1.4-2.5-2.4-5.4-4.3-6.6 1.5 5.2 4.2 9.4 6.8 13.7 2.5 4.1 6.1 7.5 8.5 11.8 2.6 4.7 4.3 9.7 7.2 14.2 1.3 2 3.9 6.9 5.8 7.7 1.2.5 3.7.5 4.3-.5-.9-3-1.9-7.1-3.7-9.6-.8.7-3 .7-4.8-.2zM288 186.1c0 4.5.5 7.3 1 11.8.3 2.8.7 10 2.5 10.7 1.1.4 3.4-1.3 3.4-2.3 0-1.4-2.4-3.5-2.9-5.1-1.2-3.6-1.7-9.4-1.7-14.2 0-1.8.3-3.5.1-5.2-.4-4-.2-9-1.1-12.7-.3-1-1.1-4.8-1.3-5.8-.8-4.9-2.4-10.4-3.9-15-.5-1.5-1.2-3.3-1.9-4.6-2.4-4.2-6-8.4-9.4-11.9-1.7-1.7-3.7-3.2-5.7-4.9-2-1.7-3.7-4-5.6-5.2-2.2-1.3-6.4-2.7-8.8-3.3-.2.1-.3.2-.3.4.6 1.8 1.4 3.3 2.4 4.7 4.4 6 10.8 7.2 15.7 12.2 5.2 5.2 10.5 12.4 13.2 20.6 3 8.1 4.2 19.1 4.3 29.8zM273.9 187c-.1 0-.2-.1-.3-.1 0-.1 0-.1-.1-.1 0 .2-.2.1-.3.3-3.9 4.2-3.3 13.2-8.6 16-.9.5-2.1.5-2.9 1.4 2.5 7.1 7.1-.1 8.8-4.1 1.6-4.1 3.3-8.3 3.4-13.4zM277.7 223.9c1.1-2.9.9-8.9-.1-11.9-.8.6-.9 2-1.4 3.4-.9 2.4-3.2 4.5-3 6 .1 1.1 2.6 2.9 4.5 2.5z"/><path class="st1" d="M277.2 148.9c-1.3 0-1.8 4.6-2.2 5.7-1.1 3.5-4.5 5.9-3.2 10.1 2.4-3.1 3.6-7.8 5.1-11.9.3-.6 1.9-3.8.3-3.9zM229.5 94.6c2.4 1.9 6.1 1.9 9.3 2.7 3.2.8 6.2 2.4 9.3 2.5 0-2.2-2-3.5-3-5.1-5.5.1-10.9-.9-15.6-.1zM252.7 125.6c-.6-2.5-1.5-4.8-3.4-6 .7 2.5 1.7 4.5 3.4 6zM270.1 140.4c-.9 1.8-1.6 6.4-1.7 9.9 0 2.5-.2 5.4.8 7.1 1.1-1.6 1.5-4.3 2.3-7 .5-1.7 2.2-5.7 2-7.2-.2-1.2-2-3.1-3.4-2.8zM258.3 185.8c-1.1-.2-3 1.9-4.8 2.5-1.1.4-2.5.6-2.5 1.4 0 .6.9 1.3 1.6 1.4 2.6.3 5.6-2.4 5.7-5.3zM242.4 203.6c.5-2.1-.5-3.8-1-5.7-2.1-8.3-3.2-18.8-6.1-26.4h-.4c0 .2-.1.3-.1.4-.5 1.9-1.1 4.6-1 6.9.1 3.1 2.2 6.3 2.9 9.3 1.4 5.8 3.4 11.5 5.7 15.5zM146.4 17.9c.6 3.4 1.3 7 1.4 10.3.1 4.6-1.2 8.8-2.4 12.7-1.2 3.9-3.7 6.3-5.6 9.5-.6 1-2.9 4-3.4 4.4-1.8 1.6-3.2 4.1-5.1 6.1-3.6 3.9-7.5 7.5-11 11.3-1.8 1.9-3.4 4.3-4.7 6.5-2.4 3.9-3.6 7.6-5.1 12.2-.6 2-1.8 4.6-2.3 6.3-.3 1.1-1.2 4.7.9 4.3 1.4-.2 1.7-5.3 2.2-7 1.2-4 3.6-9.1 5.5-12.4 1-1.8 3.2-3.8 4.9-5.8 5.1-6 10.3-11.3 15.2-17.4 3.2-4 6.5-7.9 9.8-11.9 3.4-4.1 6.4-8.2 7-14.7.3-4-.1-8.4-1-11-2.1-6.3-6-12-10.7-15.9.3.6 1.1 2.9 1.8 4.3 1.1 2.3 2.2 5.8 2.6 8.2zM171 19.5c1.5 2.7 3.3 5.3 4.8 8 5.5 9.9 9 21.6 14 31.7 3 6.2 6.1 11.7 9.9 17 3.4 4.7 8.2 8.8 13.3 11.4 6.8 3.5 15.3 4.8 25.6 4.8 2.5 0 5 .1 7-.5-3-1.2-6.2-1.4-9.8-2-1.8-.3-3.7-1.1-5.5-1.4-3.2-.5-6.5-.2-9.4-1-1.7-.5-4.1-1.6-5.6-2.4-3.3-1.8-7.2-4.8-9.9-7.2-2-1.8-3.3-4.3-5.2-6.5-7.5-8.7-10.8-20.4-15.5-31.5-1.1-2.7-2.8-5.2-3.9-7.9-3.3-7.9-7.5-16.4-14.1-20.9-.7-.4-3.2-2.5-3.3-2.5 0 .2 1 1.6 2.2 3.2 1.9 2.6 3.8 4.9 5.4 7.7zM164.2 25.1c.9-4.8-4.2-12-6.7-14.1-.1 0-4-3.2-4.1-3.2 2.5 6.1 7 19 7.5 25.1 1.6-1.3 2.7-5 3.3-7.8zM141.8 5.2l.1.1c0-.1-.1-.2-.1-.1z"/><path class="st1" d="M21.6 98.3c.9.1 2.4-2.1 3.2-2.8C30 91.1 36.9 87 42.6 82.8c3.7-2.7 7.2-5.8 9.1-10 .7-1.5.9-3.8 2.8-4.1 1.3 3.7 1.4 8.8 1.3 13.1-.3 8.4-5.3 13.4-7.4 19.4 3-.8 6-2.8 9.6-3.7 3.4-.9 7.6-.3 11.3-.9-3.6-7.6-9.6-15.1-11.8-24.2-.5-1.9-1.4-6.1 0-7.9 2.6 3.1 4.2 6.7 6.5 9.8 2.2 3.1 4.7 6 8 8.2 6.5 4.4 14.1 7.1 21.4 11 2.4 1.3 4.5 3.5 7.6 3.3 1.3-2.6 3.9-11.1 4.8-12.9 1.8-3.5 3.8-5.9 5.8-8.9 2.6-3.7 5.4-7.3 8.2-10.7 5.2-6.1 9.9-12.4 14.8-18.6 1.7-2.1 3.5-4.6 4.3-7 2.5-7.3 3.5-18.5-.5-24.7-2.2-3.5-6.7-4.6-11.4-6.2-4.7-1.6-8.9-2.8-14.5-2.4-4.8.3-11.3 1.2-15.5 2.7C83.9 13 74.7 21.9 65.6 31.3c-2.1 2.1-4.3 4-6.3 6.2-8.2 8.8-18.2 15.8-27.6 22.5-1.9 1.4-4.4 3.5-5.8 5.1-5.4 6.1-7.2 14.6-6.7 26 0 2 1.2 7.1 2.4 7.2z"/><path class="st1" d="M28.9 215.9c3.4-3.9 3.5-12.9 3-18.4-.8-9.8-4.8-20.1-7.4-28.5-2-6.7-4-16-3-24.1.8-6.9 3.8-15.4 6.5-21.2 4.4-9.6 10.5-17.3 15.6-26 .7-1.1 1.3-2.4 1.5-3.8h-.3c-.1.1-.3.1-.4.3-5.5 4.2-7.9 11.6-12.6 17.3-2.2 2.6-4.4 5.7-6.1 8.9-1.7 3.3-3.8 6.7-5.1 9.9-3.1 7.9-4.4 16.1-3.3 26.4.7 6.9 3.5 12.2 5.3 18.1 1.4 4.7 3.9 9.4 4.8 14 1.9 8.1 2.7 17.7 1.5 27.1z"/><path class="st1" d="M33.7 95.8h-.1c-5.2 3.5-10.1 8.1-14.2 13.4-1.9 2.5-3.4 5.4-5.2 8.2-4 6.4-7.1 13.4-8.5 22.2-.9 5.6.9 12.5 2.7 17.8 1 3 2.1 6.8 4.3 8.6.1-2.5-1.5-8.5-1.5-9.8-.1-3.4-1.4-7-1.4-10.4.1-8.6 2-15.6 4.3-21.8 4-10.5 12.2-17.2 18.3-25.4.5-.6 1.7-1.7 1.3-2.8zM196 51c3.8 9.6 9.1 17.6 15.6 24.5 2.6 2.7 7.6 7.7 11 8.5 6.5 1.6 16.4 3.8 23.9 2.2-.8-3.4-4.4-2.4-8.2-2.7-1.8-.1-3.8-.6-5.6-.9-1.9-.3-3.9-.5-5.1-1.4 3.9-1.1 9.1.9 13.4 0-.2-4.3-4.9-2.4-9.4-2.8-4.7-.5-8.4-1.1-9.9-4.1 3.7 2 10.8 3 15.3 1.4-.6-4.1-7-1.6-10.7-2.8-1.2-.4-2.2-1.4-3-2.2-.9-.8-2.1-1.4-2.4-2.8 2.1-.1 3.4 2.4 5.6 3 2.3.6 5.3 0 7.6 0 .4-2.9-2.5-3.2-4.2-3.8-8.1-3.2-13.7-10.7-15.3-20.6-1.2-6.9-5.7-18-9.4-19.5 6.5 7.2 4.6 22.8 9.4 31.7-5.6-7.3-4.8-20.1-9.6-28-1.4-2.2-3.3-4.3-5.3-6.2-2.6-2.5-4.4-5.7-7.9-6.8 1.1 2.6 3.3 4.5 5.1 6.7 1.7 2.1 3.5 4.8 4.7 7.5 3.7 8 3.6 18.3 7.1 26.8-3.6-5.4-4.8-13.3-6.9-20-2.6-8.9-8-16.1-14.1-21.6-1.1-1-2.7-2.8-4.6-2.2.8 1.7 4.6 5 7.7 12.1-1.6-1-10-13.1-12.3-13 .4 2.7 6.1 10 7.2 12.2 4.2 7.7 7.1 16.5 10.3 24.8zM241.9 76.6c4.2 4.2 8.8 9.1 15.2 9.9-1.3-3.1-4.6-4.5-7.1-7.1-2.2-2.3-4.4-5-6.9-7.4-2.4-2.3-5.4-4.8-6.6-7.6-.5-1.1-.8-3-2.2-1.6-.4 1 .9 2.4 1.5 3.7 2.1 3.9 3.5 7.5 6.1 10.1z"/><path class="st1" d="M232.3 65.3c.7-4.2-3.2-4.5-5.3-6.2-1.6-1.3-3-3.2-4.3-4.8-1.4-1.7-2.8-3.9-3.6-5.7-1.5-3.6-1.7-8.4-4.2-11 2.3 12.1 4.2 26.4 17.4 27.7zM265 85.8c6.4 6.9 11.7 15 17.6 22.5 1.2 1.5 3 3 3.7 4.4 1.4 3.1 2.6 5.2 5.7 6.6-.4-3.7-3.1-5.8-4.3-8.9-.8-1.9-1-3.6-1.6-5.1-.6-1.5-1.6-2.6-2.7-4.1-4.9-6.5-11.1-11.3-17.1-16.9-3.6-3.3-7.5-6.4-10.9-9.6-3.2-3-10.9-14.7-13.6-13.4 3.7 3.7 6.3 8.7 10.3 12.4 4.3 4.1 8.8 7.6 12.9 12.1z"/><path class="st1" d="M271.5 80.3c5.8 4.8 10.5 9.3 15.3 15.1 2.3 2.7 5.1 5.3 7 8.2 1.2 1.8 1.8 3.7 2.8 5.7 1.3 2.6 2.9 5 4.2 7.6 3.9 8.2 5.9 17.7 12.6 23.2-3.2-9.4-4.3-19.1-8.8-26.5-1-1.8-2.5-3.4-3.8-5.1-3.9-5.1-7.8-10.3-11.7-15.1-5.3-6.7-13.4-10.4-18.9-16.9-1.6-1.9-2.8-4.3-3.3-6.8-2.1 0-4.8-.6-6.3-.3 1.9 5 6.9 7.6 10.9 10.9zM275.9 200.4c-.8 3.3-1.7 6.7-4.1 9.1-1 1-4.3 1.9-4.4 3.3 0 .8 1.6 3 2.2 3 2.2.2 3.6-3.9 4.4-5.8 1.3-3.2 3.2-5.8 2.3-9.5-.2 0-.2-.1-.4-.1z"/><path class="st2" d="M76 176.1c-4.5-.5-8.7-1.6-8.7-6.6-.1-.1-.2-.1-.4-.1-.8 3.2 1.3 5.6 3.3 7.1 2 .8 3.8 1.1 5.4 1.1.3-.3.2-.9.4-1.5zM154 260.9c-4.2-.3-8.7 2.6-10.7 4.9 2.1 1.2 3.8-1 5.5-1.9 2-1.1 4.3-1.3 7.1-1.6 0-1.2-1-1.3-1.9-1.4z"/><path class="st2" d="M334.1 143.3c-.4-1.7-1.5-3.6-2-5.6-1.1-4.2-2.1-8-4.4-11.4-4.5-6.4-6.7-14.4-11-20.7-2.2-3.1-3.9-6.6-6.1-9.9-2.1-3.2-5.1-5.1-8.4-7.5-3-2.2-6-4.6-8.9-7-5.9-4.9-11.4-11.4-18.6-13.2-7.6-1.9-15.3-1.7-21.2-4.3-2-.9-3-2.5-4.9-3.7-3.1-1.8-6.6-1-10.7-2-4.7-1.2-9.3-6.2-11.8-10.3-1.5-2.3-2.5-4.9-3.8-7.2-4-7.2-8.9-13.4-14.8-18.5-6.2-5.3-13-8.9-21.3-11.9-2.7-1-5.1-2.5-7.6-3.4-5.6-2-12.1-2.3-18.8-3.4-6.6-1.2-13.6-1.1-20.7-1.5-6.7-.4-13.5-1.8-20.2-1.8-6.6.1-13.4 1-18.9 2.9-9.4 3.3-17.6 6.9-24.5 12.9-2.8 2.5-5.4 5.8-7.6 8.6-2.5 3.1-5 5.8-7.6 8.6-2.4 2.7-13.8 13.4-16.7 15.7-1.5 1.2-3 2.5-4.6 3.6-1.6 1.1-8.6 5-10.4 5.8-7.5 3.6-10.8 8.7-12.9 17.3-1.5 5.8-2 11.6-2.8 18-.7 5.8-2.8 11.3-4.3 16.6-1.5 5.3-3.6 10.6-4.9 16-1.4 5.4-3.3 11.4-3.6 17.4-.2 4.8 3.6 16.7 4.2 18.1 1.3 3.6 2.8 5.8 4.7 8.6 1.5 2.2 2.9 4.3 4.2 6.3 2.8 4.3 5.9 8.2 7.7 13.2 2.1 5.5 4.4 11.2 4.8 18.1.3 4.4-.8 8.7-1.5 13.2-1.4 9.4-5.3 17.6-4.4 28.5.5 6.7 3.2 11.7 5.3 16.6.7 1.7 2 3.2 2.5 4.8.7 2.1 1 4.1 1.9 6.2 1.8 4 2.3 8 3.6 12.7.6 2.1 1.4 4.2 1.8 6.3.6 4 .4 8 .8 11.9.3 3.8.8 7.4 1.5 11.2 1.3 7.1 2.5 14.2 4.7 20.8 1.9 5.6 4.4 10.6 7.1 15.7.8 1.5 1.7 3 2.8 4.6 1.1 1.5 1.9 3.5 2.9 4.4.6.6 1.6.7 2.3 1.3 1.1.9 2.1 2.4 3.2 3.7 3.5 4 5.7 7.9 9.5 11.4s7 6.5 12.1 8.9c1.5.7 13.3 4.4 18.5 5.1 1.1.4 10.7 1 11.5.9.6-.1 12.1-.9 14.1-1.6 3.3-1.2 7.4-1.7 7.6-4.8-3.2.1-8.1 2.6-12.4 1-3.2-1.2-7.3-4.5-10-6.6-3.2-2.5-6.5-4.6-9.6-7-6-4.5-9.7-13.2-14.7-18.5-2.3-2.4-5-4.3-7.2-6.7-1.1-1.2-6.2-5.5-7.2-6.7-2.1-2.5-2.9-6.3-3.7-10.3-.7-3.7-3-7.8-2.9-10.5.1-4.2 5.1-13.4 5.5-17 .7-7.8-.1-14.8-1.1-21.7-.5-3-1.8-5.8-2.9-8.8-2.1-5.9-4.7-11.2-5.2-18-.3-3.3-1.2-6.8-1.8-10-.6-3.4-.7-6.7-1.6-10-.9-3-1.6-6.1-2.2-9.4 3.4 1.2 6.4 3 9.8 4.3 8.5 3.4 17.7 6.1 25.9 9.6 1.6.7 3.2 1.7 4.8 2.3 3.3 1.2 17.2 8.7 17.8 8.9 2.6 1 5.2 3.5 7.7 5.2 2.7 1.8 5.4 3.4 7.5 5.5 4.2 4 9.4 9.3 15.3 10.7 8.5 1.9 15.2-2.1 20.4-4.8 2.9-1.5 5.3-3.2 7.6-5.2 1.2-1 2.2-2.3 3.3-3.2 1.3-1 7.1-5.7 8.8-7.4 5.3-5.4 12.4-6.8 20.9-9.9 5.5-2 11.2-4.2 15.9-7.2 1-.7 3.2-3.3 4.4-3.3 2.3.1 3.8 4.4 4.9 6.2 1.4 2.1 3.6 2.5 4.9 3.9 2.1 2.2 3.5 5.2 3.8 9.4.3 4 .8 7.9 1.8 11.4 2 7 6 11.8 8.1 18.3 1.2 3.8 1.7 8 3 11.8 1.4 3.8 2.6 7.6 3.4 11.4 1.7 7.2 5.3 14.8 9 20.7 7.8 12.2 15.5 23.4 30.7 28.7-2.9-3.7-6.7-6.6-9.6-10.5-2.9-3.8-6.4-7.4-8.8-11.8-2.5-4.7-4.6-9.7-6.2-15-.8-2.7-1.9-5.4-2.3-8.2-.6-4.3-.9-10.2-1.5-14.3-.7-4.5-2.7-8.4-3.6-12.7-1.1-5.3-.9-12.5-.8-17.9 4.3 1 7.9 4 12.8 4.9 4 .8 8.4-.1 11.4-1.4 1.1-.5 2.4-.8 3.3-1.3 2.7-1.3 3.2-4.9 5.1-7.4 7.3 2.2 16.8.6 21.7-2.9-.2-3.8-2.1-5.9-4.6-7.2-2.2-1.1-4.7-.9-7-2-2.4-1.2-4-5.9-4.3-9.1-.6-5.8 1.3-10.4 2.5-15.1 1.3-5.1 3.4-8.2 6.1-11.7 2.6-3.3 5.1-6.7 7.6-10 2.6-3.4 5.3-7 7.1-10.7 2.4-5 3.9-10.2 5.8-15.9 1-3 2.5-5.8 2.9-8.6 1-7.6 2.2-16.9.3-24.5zm-257.5 214c.1 0 .1 0 .1.1 6.1 6.8 11.2 16.6 17.5 23.7.9 1 2.2 2.3 3.3 3 1.7 1.2 4 1.4 4.9 3.7-3.1.2-6-1.7-8.1-3.3-2.3-1.7-4.6-3.3-6.7-5.1-1.3-1.1-1.9-2.7-2.8-4.2-1.1-1.9-2.8-3.5-3.7-5.6-1.6-3.8-3-8.2-4.6-12.1.1.1.1 0 .1-.2zm-7.3-10.1c5.2 12.6 10.8 25.4 15.6 37.9-2.4-1.7-3.8-4.5-5.5-7-1.7-2.5-2.6-5.4-3.8-8.5-1.4-3.5-4.2-8-5.2-12.8-.6-3-1.5-7-1.6-9.3-.1-.3.1-.3.5-.3zm-3.1-.4c0-.2.2-.2.3-.4.1 0 .1 0 .1.1.1 0 .1 0 .1.1 2.6 13.1 6.3 25.4 12.4 34.9 1.3 2.1 3.4 3.6 4.2 5.8-1.5-.4-3-1.3-4.1-2.4-4.1-4.3-7.3-10.8-9.8-17.4-1.9-5.4-4.2-12.9-3.2-20.7zm2.3 24.4c1.9 4.8 5.4 8.3 7.4 12.6-5.8-2.8-10.9-9.2-14-15.2-.7-1.3-1.6-3.2-1.8-4.6-.6-4.1 1.9-8.4 3-11.7h.4c.8 6.8 2.8 13.2 5 18.9zM57.6 310c.2-6.4.6-13.5 1.1-19.8.1-1.6.9-3 1.3-4.6 1.1-4.3.7-9.1 1.4-13.6 0-.1.1-.1.1-.1.1-.1.2-.2.3 0 2.1 4.1 2.9 13.2 2.4 19.7-.9 11.6-2.8 24.6-6.9 32.5-.2-4.6.1-9.4.3-14.1zm5.8 19.1c.1-.1.2-.2.4-.3.1 0 .1 0 .1.1 1.1 1.5 1.1 4.7.9 7-.6 8.5-3.9 15.6-6.3 22.2-3.8-9.2 1.1-22.5 4.9-29zM325 164.8c.1 0 .2 0 .3.1-.5 9.4-3 18.3-8 24.4-.4.5-6.8 8.6-10.1 12.4-3.3 3.8-6.7 6.8-10.7 9.9-2.2 1.7-5.7 4.9-5.1-.9 3.4-2 6.4-4.1 9.3-6.9 2.8-2.6 5.2-5.6 7.9-8.2 2.1-2.1 4.6-3.7 6.6-6.1 5.1-6.3 6.4-15.8 9.8-24.4-.2-.1 0-.2 0-.3zm-28.5 55.4c0 1.2-.5 2.9-1.3 3.7-2-.8-1-4.4 1.3-3.7zM146 99.1c-.8 1.6-1.1 3.9-1.9 5.6-.5 1.1-.8 1.7-1.1 3.4-1.4 6-3.9 11.6-5.3 16.7-.4 1.4-1 5.6-2.3 5.7-1.4.1-1.7-2.5-1.9-3.7 1-3.2 1.3-4.7 2.4-7.7.6-1.7 1.4-3.7 2-5.5 1.7-4.5 3.3-7.6 3.9-12.7.9-7.6 5.7-13.3 9.5-18.5-2.1 2.1-5 3.8-6.6 6.3-.7 1.1-1.1 2.9-1.9 4.2-1.3 2.1-3.2 5.1-3.7 8.5-.1 1 .1 2-.1 3-.6 3.7-3.1 7.6-4.2 10.9-.9 2.7-1.3 5.4-2.4 8.1-.9-.5-2-1.7-2-2.7 0-.5.9-3.2 1-3.8.7-3.3 3.7-6.4 4.4-9.6.5-2.3.4-4.7.8-7 .4-2.1 1.3-3.9 1.8-5.8.9-3.6 1.9-6.6 3.8-9-4.9 3.6-8.2 13-8.9 21.3-.2 3.2-2.4 6.4-4.1 8.9-1.1-1.2-.3-2.7-.1-3.9.8-4.8 1.7-10.5 2.9-14.6.6-2.2 1.8-4.4 2.5-6.7 1.6-4.9 4.2-9.1 7.5-12.3 4.3-4.2 8.7-8.4 12.9-13.2 3.7-4.1 7.7-7.4 11.3-11.3 1.2-1.2 1.8-2.9 2.9-4.2.7-.8 1.9-1.3 2.5-2.2.4-.5 1-2.6 1.8-2.5 1 .2 2 2.3 1.9 3.7-.1 1.1-1.8 3.3-2.5 4.2-2.5 3-7 5.7-9.6 9.5-1.1 1.5-1.6 3.3-2.7 4.7-1.5 2-3.6 3.2-4.8 5.2 3.9-1.5 5.9-5.5 8.5-8.8 3.1-3.9 7.7-5.9 10.5-9.4.4-.4.9-1.9 1.5-1.9.9 0 1.1 1.3 1.1 1.7 0 .9-.8 2.4-1.4 3.2-1.4 2-3.6 4.6-5.2 6-.9.8-2.2 1.2-3 2.2-1.3 1.4-2.1 3.2-3.3 4.6-2.8 3.2-6.5 5.2-8.9 8.2 2.4-2.2 5.5-4.1 8.4-6.3 1.8-1.4 3-3.6 4.8-5.2 1.5-1.4 3.5-2.2 4.8-3.6.7-.7 3.5-5.5 4.9-5.3.8.1 1.9 3 1.8 4.2-.1 1.2-1.5 2-2.5 2.8-4.6 3.2-9.3 7.7-12.9 11.5 2.6-1.3 5.5-3.4 8.2-5.7 1.4-1.1 2.6-1.7 4.2-2.9.7-.6 3.1-3 4.3-2.8.7.1 3 4.2 2.8 4.9-.2 1-2.7 1.3-3.8 1.8-1.7.7-4.3 1.9-5.6 3-.6.5-.8 1.3-1.4 1.9-1.8 1.9-4 3.4-6 5.3-3.1 3.1-6.9 4.4-9.6 8-2.2 2.8-3.8 6.6-5.6 10.1-3.5 6.7-10.4 22.4-10.4 22.4-.7 1.8-4.5 14.2-5.1 15-2.2-1.6.4-3.4 1.1-5.3 1.1-2.7 2.3-7.4 2.8-9.1 0 0 3.9-11.4 4.6-14.8 1.1-5.1 2.4-10 4.8-14-.9 1.7-3 3.2-4.1 5.3zm-99.8 86.1c-2.5-1.2.6-13.2 2.3-15.3.2 1.2-2.8 11.8-2.3 15.3zm1.5-2.3c.6-6 2.4-12.8 4.6-16.7 1.1-.9 2.6 1.6 2.7 3 .1 1.6-1 3.5-1.4 5.3-1 4.9-1.9 10.5-3.3 15.2-3.7-.4-3-3-2.6-6.8zm7.2-10.2c.2-.6.6-1 1-1.4h.3c.8 3.2-.8 8.4-1.4 12.8-.3 2.1-.3 9-3.2 6 .6-5.6 1.6-12.6 3.3-17.4zm2.8-6.1c0-3.8 1.7-7.2 3.2-10 .4 2.9-1.8 7.2-3.2 10zm7.6-12c.1.1-2.5 5.2-3.7 8.4-.6 1.7-1.3 5.5-2.2 7.7-1.1-1.9-.1-5.3.8-7.3 1.3-3 5.1-8.6 5.1-8.8zm-9.1 6c-.4-1.1.5-2.5 1.5-2.2-.3.9-.3 2.2-1.5 2.2zm1.4 14c1.2 0 8.9 7.7 13.3 9.5.1 1.4-4 3.9-5.2 4.6-3.1 1.8-7.1 2.4-10.5 2.4-.2-4.4.6-13.3 2.4-16.5zm3.4-.2c.5-7 1.7-13.2 5.1-18.5 3.5-5.5 8.4-9.5 9.5-9.9-1.2 2.9-3.9 7.2-4.7 10.7-.1.5-1 4.5.1 5.9 1.1.7 3.2-1.2 6.5.4 6.4 2.6 2.7 10.2-.7 13-.2.7-.7 1.5-.7 1.5s4.5-2.9 5.8-6.6c3.7 1.7 10.8-2.6 11.8-3.9 2.8-3.8 4-7.9 2.4-13.4-.3-1.2-1.5-3.5-2.5-4.4-4.7-4.2-9.6-2.7-10.4-2.8-.7-1.5.2-3.2 1.7-4 3.8-2 11.6-2.2 13.6-1.4 4.1 1.5 9.7 7.9 9.9 12.3.3 8-6 17.5-6.7 18.1-3.1.8-21.2 7.7-22.5 9.1-2.5 2.4-4.4 2.2-6.2 2.1-5.3-.2-11.5-7.8-12-8.2zm15.9-29.1c0-1.3 4.6-3.9 5.8-3.3-.1 1.1-4 2-5.8 3.3zm33.5 9.3c0-.1.6-.1.6-.1 2.6 4.9 6.1 12.4 6.9 19.3.1 1.2.3 2.6-.6 3.7-4.4-.8-2.6-3.4-12.5-3.6 4.9-8.4 5.5-19 5.6-19.3zm-7.6-28.6c-4-3.6-8.9-6.1-12.8-9.6-1.5-1.4-3.3-3.5-4.2-5.2 0-.2.1-.3.3-.4 17.3 6.1 30.3 17.2 35.1 35.4-4.8-.8-6.8-5.8-9.1-9.6-2.4-3.8-6.1-7.7-9.3-10.6zm-12.3-.7c-9.7-1.7-18.3.2-20.9.8-4.2.9-19.5 9.4-22.7 12.1-3.2 2.7-6.1 5.6-8.9 8.5-3 3.1-4.9 6.9-7.9 9.5-1.6-12.1 2.8-23.8 5.6-33.5.6-2.1 2.8-6.6 3.9-8 .4-.5 6.7-7.8 10.1-9.3 5.6-2.3 17.5-5.8 22.9-4.7.8.2 15.7 18.5 17.9 24.6zm28-.2c-2.9-4.3-4.9-5.8-9.1-9-3-2.3-7.9-6.1-11.3-7.5-8.2-3.3-14.9-6.5-22-10.9-2.5-1.6-4.1-3.7-5.6-6.3V91c6.5 2.6 13.3 7.4 19.9 10.1 3.5 1.5 6.8 2.7 9.9 4.6 2.9 1.7 6.7 3.2 9.5 5.3 2.8 2.1 5 4.5 7.5 6.7 2.7 2.3 5.3 6.3 7.1 9.5 3.9 6.9 7 15.9 8.2 25-3.8.4-4.5-4.7-5.5-8-.6-2.1-1.8-4.5-2.8-6.6-1-2.5-4.6-10.7-5.8-12.5zm-.3-26.2c1.8-5.8 3.2-10.5 6.1-15.1 1.4-2.2 2.9-4.2 4.4-6.2 2.7-3.5 5.4-7.1 9.1-9.5 1.8-1.2 3.3-3.3 5.2-4.9 3.6-3.1 6.9-6.7 10.1-10.1 1.7-1.8 5.4-6.9 5.8-7.6.8-1.2 2-2.1 2.8-3.2 2.5-3.4 4.4-8 6.3-11.9.8 1 3.1 5.2 3 6.8 0 1.4-2.2 3.9-3.3 5.3-3.7 4.9-7.4 10-11.5 14.3-1.6 1.7-3.7 2.8-5.6 4.2-2.5 1.9-13 11.2-15.5 13.3-2 1.7-7.2 9-7.9 10-1.3 2-2 4.6-2.9 6.7-2.2 5.1-2.6 10.9-4.3 17-1.3-.2-3.4-1-3.8-2.3-.3-1.7 1.4-4.8 2-6.8zm81.1-5.5c4.3-1 2.2 6.5 4.9 7.9.3-2.3-1.9-5.5-.4-7.5 1.1 0 8.2 5.3 10.5 7.7 1.3 1.4 3 2.8 3.3 4.7-1.7.2-2.8-1.3-4.6-1.5.9 3.1 7.5 1.7 7.6 6.1-1 .9-2.8-.1-4.3 0 2.1 1.5 7.4.9 5.7 5.3-1.7.7-3.5-.6-5.1-.9.6 2 4.5 1 5.6 2.9.7 1.2.3 3.1.3 4.9-3-.7-4.1-3.4-7.4-3.8 1.8 3.3 10.4 4.4 7.6 10.8-2.8-.9-3.9-3.5-6.5-4.7.5 4.9 9.1 4.8 7.1 11.4-2.3-.8-2.7-3.5-4.8-4.4 1.4 4.8 6.8 7.3 5.2 13.8-1.6-1.3-1.6-2.8-2-4.2-3-8.4-10.1-13.8-17-18.5-2.2-1.5-3.7-3.6-5.7-5.2-4.5-3.7-7.7-8.1-10.5-13.6-.9-1.6-1-3.4-1.6-5.2-.5-1.3-1.6-2.8.9-3.3 1.7 3.5 1.8 6.7 3.3 9.6 2.2 4.3 6.2 7.9 9.3 11.5 1.6 1.9 4 3.3 6.1 4.6-2.7-2.4-6.1-5.2-7.9-9 1.5-.2 2 1.6 3.4 1.9-4.7-5.1-9.3-11.5-9.9-21.1 1.2-.8 3-1.2 4.7-.8 1.2 1.6.9 4 1.4 5.8 1 3.7 3.4 6.4 5.6 8.8-1.4-4.6-5.5-8-4.8-14zm-27.5 68.2c-2.5.9-5.4-.3-6.7-1.9-3.2-3.9-5.7-9.7-5.7-15.6 3 3.3 4.4 8 7.7 10.9-.4-1.6-1.7-2.8-2.4-4.4-2.2-4.7-7.8-10-3.3-14.8.6.8 1.7 5 4.8 10-.9-2.9-4.4-12.6-3.5-13.6 2.2 1.8 2.3 4.9 3.4 7.4 1.8 4.1 4.5 8.1 7.2 11.7 1.3 1.7 2.1 3.9 3.7 5.5 2.3 2.4 4.5 4.8 7.6 6.2-3.6-3.4-7.8-7.4-11-11.9-2.1-2.9-3.7-6.5-5.5-10-2.3-4.4-5.6-10.1-3.3-15.1 1.7 0 2.1 3.7 2.8 5.2.3.7.9 1.1 1.3 1.8.5.9.4 1.9.8 2.9.7 2 2.2 3.7 3.2 5.7.9 2 2.5 3.4 3.5 5.2.5.9.7 1.8 1.1 2.7 3.2 5.9 7.7 10.5 12.3 14.8.7.6 1.7 1 1.9 2.3-2.4-.1-4.1-1.9-5.8-3-.3.4.7.7.5 1.5-2.2.7-4.5-.6-6-1.8-3.2-2.5-5.9-5.4-8.4-8.5 1 3.9 4.9 5 6.2 8.5-4 .7-6-2.6-8.1-4.6-.1 1.1 1.6 1.5 1.7 2.9zm-15.5-8.7c-.6-2.3.3-4.8 1.3-6.1h.1c1.7 5.1 4.1 9.4 6.5 13.8-4.4 1.8-6.9-3.8-7.9-7.7zm1.1 6.8c-1 .5-3.3.1-3.6-.8-.3-1 1.1-4 2-3.9 1.4.2 1.1 3.6 1.6 4.7zm51 4.8c3.4.9 7.7 2.2 11.4 2.4.8.1 2.3-.7 3-.3 1.1.6.8 3.7 0 4.6-10.5-.5-18.7-4.5-25.9-8.8-3.3-1.9-10.7-8.9-10.8-10.5 1.6 1 2.6 2.1 4.4 3.2 4.8 2.8 11.7 7.8 17.9 9.4zm-7.6-5.6c2.7-.2 5.7 1.9 8.6 3 4.4 1.6 8.6 2.1 14 2 .7 3.7-6.3 1.9-9.1 1.3-4.9-1-11.2-3.2-13.5-6.3zm4.1 12.1c-3.2-1.7-6.7-2-9.5-3.8-3.4-2.2-6.3-5.8-9.5-9-4.2-4.2-6.5-9.1-9.8-14-2.6-3.8-4.7-8.1-6.9-12.7-.9-2-3.3-5.5-3.3-7.9 0-1.1.8-3 1.6-3.2.8-.2 1.3 1.2 1.8 3.2 1.7 6.5 2.3 10.8 5.3 15.7.8 1.3 1.9 2.4 2.8 3.8.8 1.4 1.5 3 2.3 4.2 1.6 2.3 4.4 5 6.9 7.4 2.7 2.6 5.2 4.2 7.7 6.5.8.8 1.4 1.8 2.4 2.4 3.3 1.9 6.7 3.6 10.4 5.3 3.6 1.7 6.6 1.8 11.7 2.7 1.5.3 4.6.6 4.1 2.4-.5 1.7-10.3.5-11.8.1-2.3-.5-4-1.9-6.2-3.1zm2.1 8.4c-1.2 0-1.4-.4-2.6-.5-4-.4-5.2 2.1-12.5-.3-.8-.3-4.2-2.8-4.9-3.6-1.8-2.1-2.3-4.8-3.3-6.6-.1-.1 0-.3 0-.4.1 0 .1-.1.3-.1 5-.1 2.5 3.4 6 6.4 1.2 1 4 2.2 5.5 2.4 7.7.9 7.5-2.2 11-1.5 3 .4 5.6 4.1.5 4.2zm-37-63.1c.1-.1.2-.2.4-.3h.3c.7 5.2 1.8 10.7 2.5 15.3-.8-.7-1.6-2-1.9-3.3-.9-3.6-2.5-8.1-1.3-11.7zm13.8 30.6c-5.8-6.2-10.4-16-11.4-26.3-.4-3.9.9-5.5 1.1-9.1.1-.2.2-.3.4-.4h.3c-.6 5.9.6 12.6 2.7 18.3.6 1.8 1.6 3.6 2.3 5.5.7 2 1.1 4.2 2 5.7 1.5 2.5 4.7 4.6 6.9 6.9 2.3 2.3 4.7 4.9 6.8 6.7 1.5 1.2 3.8 1.6 4.4 3.6-7.3-.8-11.1-6.2-15.5-10.9zm12.4.1c-2.1-.2-4.8-1.1-6.7-2.2-1.6-.8-3.1-2.4-3.9-4.3 3.8-.2 5.6 2.1 9.1 2.4 6.5.6 12.1-3.1 17.6-3.3 3-.1 7.1 1.8 7.4 4.8-1.8.1-3-.5-4.6-.6-6.4-.4-12.6 3.8-18.9 3.2zm.8-9.2c-6.6.5-11.3-.7-15-3.9-.9-.8-2.6-2.3-2.3-3.7.1-.1.2-.2.4-.3 3 1.2 5 3.1 8.1 3.8 3.7.8 9.6.8 13.1 0 3.7-.9 8.7-4 10.5.8-5 .7-9 2.8-14.8 3.3zm-7.5-10.4c-2.6-.1-6.1-.9-8.4-1.9-2.7-1.2-5.7-2.6-4.9-6.5 2.5.9 5.6 3.2 9.5 3.3 5.5.2 12.6-2 14.5 3.3-3.2.3-6.3 2-10.7 1.8zm3.7-12.2c-.2.7-2.4.8-3.7.8-2.7 0-5.3-.2-7.9-1.1-2.8-1-7.1-4.3-4.7-6.1 2.3.7 3.4 2.9 5.7 3.4 2.8.6 4.4-1.5 6.5-1.4 1.4 0 4.5 3 4.1 4.4zm-6.6-11.9c-.5 2.5-6 1.4-6-.5 0-.6 1.5-2 2-2.5.9-.9 1.4-1.7 2.8-1.6.2 1.7 1.5 2.9 1.2 4.6zm-6.8-6.4c-5.6 5.5-12.9 11.7-17 19-1.4 2.6-2.6 6.1-4.7 8 3.4-14.1 12.5-22.6 23.2-29.4.4.9-.9 1.8-1.5 2.4zm-7.7 71.4c.1 0 .1-.1.3-.1 2.8.8 5.8 2.4 7.7 4.4 2.5 2.6 3.7 7.2 6.7 9 3.1 1.8 13.3 5.1 24.5 4.6 2.8-.1 5.1-1 7 .6-.5 1-1.5.5-2.3.8-1.4.4-1.8 1.2-3.7 1.3-2 .1-7.6.7-9.7.5-6.8-.7-11.2-2.3-17.1-5.3-3.3-1.7-5.3-7.1-8-9.9-1.8-1.8-4.5-3.9-5.5-5.6.1-.1.1-.2.1-.3zm41.4 7.8c2.5-.8 5.8-.2 8.9 0 .7.7 1 2.6.5 3.7-3.7 1.1-8.5-.4-9.4-3.7zm9.6 5.8c.8 1.3.3 2.9 0 4.2-1.4 0-1.7-1.5-2.4-2.4-.4-.5-1.5-1.2-1.5-1.8 0-1.6 3.3-.9 3.9 0zm-9.7-22.2c-1.1-.4-3.4-1.1-3.2-2.2.1-.7 5.3-1.9 6.2-2 2.9-.4 6.1.3 7.5 1.3-.3 4.5-6.7 4.2-10.5 2.9zm2.8-8.2c-5.3.3-13.2 5.2-17.5.8 2-.5 4.4-.5 6.9-.9 3.4-.5 6.9-2.7 9.6-3 4.2-.5 8.5.3 8.9 4.6-2.6-.7-4.8-1.7-7.9-1.5zM191 94.3c.2 5.6 4.5 13.2 6.9 17.1-3.5-1.9-8.9-16.8-6.9-17.1zm-3.4-9.4c-3.6.5-7.3 2.3-10.3 3.7-5.1 2.3-9.6 6.8-13.1 11.3-.9 1.1-2.1 2-2.7 2.9-.4.6-.5 1.9-.9 2.5-.4.7-1.4 1.3-1.9 2-2.3 3.8-4.2 8.6-6.3 13.4-2 4.7-4.4 9.5-5.6 14.2-1.5 5.7-3.9 12.3-5.7 18.3-.1.5-.4 2.1-1.3 2.2-2.1.2-.2-5.1 0-6 2.2-9.6 4.4-18.8 8.6-26.9 1.5-2.9 3.3-5.9 4.9-8.9 1.6-3 2.8-6.2 4.6-9.1 3.2-5.4 7.1-11 11.8-15.7 2.4-2.4 4.8-4.1 7.6-6.1 3.4-2.5 8.7-7.1 13.8-4.4.8.4 1.8 1.7 2.5 2.5.9.9 2 1.5 2.3 2.8-2.7 1.3-5.6.9-8.3 1.3zm-47.8 90.7c.1-2.2.5-4.2.5-6.1.1-2.7-.8-5.7.1-8 2.3-.3 7.4 3.1 8.1 5.5.7 2.5.2 7.3.5 9.8.2 1.9 0 3.8 0 5.8 0 6 1.9 11.6 2 15.7-1.6-.2-2.2-1-3.6-.8-1.4.2-1.7 1.7-2.7 2.2-3.7 1.5-3.8-3.6-7.9-3.2 1.3-5.9 2.5-13.4 3-20.9zm8.1-18.3c-.6-4.5.9-9.4 2-14 .8-3.8 6.1-13.3 6.2-13.3.1 3.7-3.9 11.1-4.5 14.3-1 4.7-1.5 9.2-3.7 13zm5.5 6.1c3 .2 6.3 3.5 8.6 5.3 1.9 1.4 3.9 2.6 5.3 4.1 3.7 3.8 4.6 7.1 8.9 10l8.4 5.6c9.4 6.1 28.3 5.1 30.7 4.8 2.9-.4 7.7-3.4 9.1-.3-4.3 3.4-14.6 2.9-22.5 2.4-3-.2-5.6-.3-8-.9-10.7-2.5-19.3-8.5-25.8-15.9-3.5-4-7.1-7.6-11-11.4-1.4-1.4-3.2-2.4-3.9-3.6.2.1.2 0 .2-.1zm69.2 35.9c1.5-.1 1.6 1.7 2.3 2.7 1.2 1.9 3.1 4.2 4.7 6.1 1.4 1.7 3.6 3.1 3.4 5.3-1.3-.1-2.4-.8-3.3-1.5-3.5-3-6.7-6.7-7.6-12.1.2-.1.2-.5.5-.5zm8.7 3.8c-.6-1.2-1.3-2.8-1.9-4.3-1.7-4.5-4-10.3-3.9-16.4 0-5.9.1-13.4.6-20.8.4-6.4.4-13.2.4-19.4 0-2-.5-3.8-.5-5.7 0-.7.4-1.4.4-2 0-1.4-.8-2.9-1-4.4-.9-8-.6-17.2-3.4-23.2-.5-1-2-2.5-3-3.6-1.1-1.2-2.4-2.2-3.3-3.3-1.3-1.6-2.5-3.7-3.8-4.8-1.1-1-3-1-3.6-2.5 1.6-1 3.6 1.1 5.1 2.2 1.4 1 2.9 1.8 3.9 2.8 2.7 2.4 3.9 5.3 5.3 8.5 1.6 3.6 3.4 6.6 4.4 10.4 1.9 7 3 15.8 3 25.1 0 6.2.5 12.8.5 19.3 0 10.5-4.5 20.7-1.9 30.4.3 1 1.1 1.7 1.5 2.7 1.4 3.2 2.9 6.6 4.3 9.8.6 1.4 1.3 3.2.8 4.7-1.8-1.3-3-3.6-3.9-5.5zm31.7-90.6c5 3 10.2 6.6 15.2 9.9 4.6 3 6.7 6.2 9.4 11 2.6 4.9 5.1 8.3 6.7 14.3 2.4 8.7 5.8 17.7 6.7 27.9.5 5.8.3 11.8 2.5 16.1.6 1.1 2.2 3 2.2 3.9 0 .9-2.8 4.6-3.9 4.6s-1.9-2.5-2-2.9c-1-2.1-2.2-3.8-2.3-6.5-.1-3.6.7-7.1.6-10.5-.2-12.2-2.7-23.3-6.1-32.9-2.2-6.2-5.9-11.3-10.1-15.6-1.4-1.5-2.5-3.2-3.9-4.6-3-3-6.7-4.9-10.7-7.4-2.2-1.3-4.2-3.2-6.6-4.2-2.9-1.1-6.3-2-9.3-2.9-1.1-.3-2.3-.3-3.2-.8-1.6-1-2.1-3.1-2.7-5.6.1-.2.2-.3.4-.4 5.6 1.9 12.4 3.8 17.1 6.6zm-11.1-17.4c3.2-1.6 5.7 1.5 7.4 3.7 1.4 1.9 2.7 4 2.8 5.8-2.8.4-3.8-2.7-5.2-4.4-1.6-2-4.3-2.8-5-5.1zm11.7-1.4c1.7 0 2.6 2.5 3.7 3.8 2.8 3.5 5.7 7.4 7.5 11.4-5.2.4-5.9-4.5-8-8.2-1.3-2.3-4.8-4.5-3.2-7zm53.3 64c.6 1 1.2 2.3 2 3.4s2.1 2.3 2.3 3c.2.9-.2 3-1 3.2-1.2.3-3.4-2.6-3.8-3.4-1.9-3.3-2.3-7.7-3.9-12.3-.6-1.8-1.9-3.4-2.7-5.1-.8-1.9-1.2-4-2-5.8.1-.1.1-.2.1-.4 3.9 1.5 3.1 6.9 4.8 10.7 1 2.2 2.9 4.5 4.2 6.7zm-.5-13.8c1 .2 1.4 1.4 2.4 2.4 1.6 1.5 4.3 2.7 4.7 4.1.4 1.5-.3 4-.8 5.5-1.2-.6-2.3-2.5-3.4-4.3-1.3-2.3-4-5-2.9-7.7zm-7.9 14.2c.7 6.7 2.5 13.5 6 18.4.7 1 2.5 1.7 2.7 2.8.2 1.2-1.7 5.8-2.8 6-1.3.1-2-2.6-2.5-3.6-1.3-2.5-3.5-5.2-4.2-7.7-.8-2.9-1.5-6-1.8-8.2-.4-3.5-.2-6.9-.8-10-2-11.8-6.6-21.6-13.4-29.2-.7-.8-1.8-1.1-2.5-1.8-1.6-1.5-3-3.2-4.7-4.9-.8-.8-2.4-1.7-2.9-2.7 0-.1 0-.1.1-.1 0-.1 0-.2.1-.3 3.6.6 5.9 3 8.6 5.2 2.1 1.7 4.3 3.4 5.7 5.5 1.7 2.5 3 5.7 4.4 8.6 3.2 6.2 7.1 13.6 8 22zm-54.9-28.3c-.2-1-.9-1.9-.8-3 .7 0 2.1 4.4 2.7 6.2 3.5 12.3 4.7 32.4-.1 44.1-1.3 3.1-3.6 6.1-6.5 7 1.8-3.3 3.1-6.4 4.7-10.3 1.4-3.4 3.2-7.8 3.8-11.9.1-.7.1-1.5.1-2.2-.2-10.3-2.5-20.7-3.9-29.9zm11.4 10c-.8 4.4-.8 11.2-1.9 15.3-2.4-3.6-1.7-10.9-2.3-16.4-.3-2.5-1.9-4.4-1.5-6.5.1-.2.2-.3.4-.4 1.1.9 5.7 2.6 6.1 4.4.2 1.2-.6 2.4-.8 3.6zm-1.4 31.6c-.1-2.8.2-6.6 1.8-7.7 1.6 2.4-.1 6.3-1.8 7.7zm.9 14.7c1.1-2.6 2.6-4.1 3.3-6.2.7-2.3.1-4.1 1.9-5.5h.3c2 4.9-3.2 11-5.1 14.7-1.6 3.3-2.1 8.2-4.8 9.4-1.2.6-4.2.4-4.4-.6-.4-1.7 2.8-2.2 3.2-2.4 3-1.6 3.9-5.3 5.6-9.4zm9.5 24c-.8 1.9-2.3 6-4.4 5.8-.6 0-2.2-2.3-2.2-3 .1-1.4 3.5-2.3 4.4-3.3 2.4-2.4 3.2-5.8 4.1-9.1.2 0 .2.1.4.1.9 3.7-1 6.3-2.3 9.5zm3.6 1.9c1 3 1.2 9 .1 11.9-1.9.4-4.4-1.4-4.6-2.5-.2-1.4 2.2-3.6 3-6 .6-1.4.7-2.8 1.5-3.4zm-15.9-7.6c.8-.9 2-.9 2.9-1.4 5.3-2.8 4.7-11.7 8.6-16 0-.1.3-.1.3-.3.1 0 .1 0 .1.1.1 0 .1.1.3.1 0 5.1-1.7 9.3-3.4 13.3-1.7 4.1-6.3 11.2-8.8 4.2zm10.1-39.6c-1.3-4.3 2.1-6.6 3.2-10.1.4-1.1.8-5.7 2.2-5.7 1.6 0 0 3.2-.3 3.9-1.5 4-2.7 8.8-5.1 11.9zm-.3-14.3c-.8 2.7-1.2 5.3-2.3 7-1-1.7-.8-4.6-.8-7.1 0-3.5.8-8 1.7-9.9 1.4-.4 3.3 1.6 3.4 2.8.2 1.5-1.5 5.5-2 7.2zm-18.9 40.7c-.8-.1-1.7-.8-1.6-1.4.1-.8 1.4-1 2.5-1.4 1.8-.7 3.7-2.7 4.8-2.5-.1 2.8-3.1 5.5-5.7 5.3zm.1-65.6c-1.7-1.5-2.7-3.5-3.4-6 1.9 1.2 2.8 3.5 3.4 6zm-14-28.3c-3.2-.8-6.9-.8-9.3-2.7 4.7-.9 10.1.2 15.5.1 1 1.6 3 2.9 3 5.1-2.9-.1-6-1.7-9.2-2.5zm-1.4 40.2c-.1-2.9 0-5.2-.5-8.1-.3-1.7-1.1-3.9-1.8-5.8-2.7-7.2-4.6-14.6-7.5-21.3-.6-1.5-1.7-2.9-1.6-4.3.1-.2.2-.3.4-.4.1 0 .1 0 .1.1 5 4.2 5.9 12.7 9.3 18.8 2.2 4 3.7 7.2 4.2 13.2.2 2.6.3 5.4.3 8 0 9.6 1.8 22.1-2.8 29.3-1.3-1.3-1-3.4-.9-4.9.3-2.9.9-5.9 1.1-8.8.4-5.3 0-10.6-.3-15.8zm-3.5 41.2c-.1-2.3.5-5 1-6.9.1-.1.1-.2.1-.4h.4c2.8 7.6 4 18 6.1 26.4.5 1.9 1.5 3.6 1 5.7-2.4-4-4.3-9.7-5.7-15.6-.7-2.9-2.8-6.1-2.9-9.2zm8.6-61.6c-.6-.1-2.2-4.2-2.3-4.7-.8-3-2.3-6.1-3.2-8.8-.5-1.4-1.8-2.1-1.8-3.8 4.7.3 4.6 6.1 6.2 10.8.3.7 1.6 2.7 1.9 4.2.3 1 .2 2.4-.8 2.3zm4.1 49.3c.8-3 .9-7.3.8-11.7-.2-5.9.2-11-.1-16.6-.3-4.2-1.5-8-1.5-11.7.1-.1.2-.2.3 0 7.3 12.3 4.7 35.9.1 49.1-.4 1.3-.5 3.8-1.3 3.9-.8.2-1.5-1.4-1.5-2.5-.2-2.9 2.4-7.2 3.2-10.5zm.4 34.3c.2 0 .2.1.4.1 2.7 8.4 7.2 15.4 11.5 22.8 5.5 9.6 6.9 20.8 14.5 27 2.7 2.2 6.7 4 11.2 3.4.7-.1 1.4-1 2.2-.9 1.1.1 1.7 2.1 2.2 3.3-4.6 3-11.9.3-15.7-2.2-3.7-2.4-6.4-6.2-9-10.1-.9-1.4-2.1-2.5-2.7-3.7-1.1-2.7-1.8-6-2.8-8.8-.7-2-2.2-3.9-3-6.1-1.9-4.7-4.6-9.3-6.3-13.8-.2-.6-.5-1.4-.6-2-.7-2.9-1.7-6-1.8-8.8-.3 0-.1-.1-.1-.2zm30.8 44.3c-1.9-.8-4.5-5.7-5.8-7.7-2.9-4.5-4.6-9.5-7.2-14.2-2.4-4.3-6-7.7-8.5-11.8-2.6-4.3-5.4-8.5-6.8-13.7 1.9 1.2 2.9 4.1 4.3 6.6.5.8 1.2 1.3 1.8 2 .9 1.2 1.4 2.6 2.3 3.9 1.8 2.7 4.5 5.1 6.5 8 .7 1.1 1.2 2.5 1.9 3.7 1.4 2.4 3.2 4.7 4.1 6.7.9 2 1.4 5.3 3.2 6.2 1.7.9 4 .9 5.1.1 1.8 2.5 2.8 6.6 3.7 9.6-.9 1.1-3.4 1-4.6.6zm1.1-55.6c-2.7-5.9-2.7-17.4.6-22.7h.3c1 4.1-.1 9-.1 13.6 0 3.1.6 6.7-.8 9.1zm-8.1-53.8c-4.9-4.9-11.4-6.1-15.7-12.2-1-1.4-1.8-2.9-2.4-4.7 0-.2.1-.3.3-.4 2.4.6 6.5 2 8.8 3.3 1.9 1.2 3.6 3.5 5.6 5.2 2 1.7 4 3.2 5.7 4.9 3.4 3.5 7 7.7 9.4 11.9.7 1.3 1.4 3.1 1.9 4.6 1.5 4.6 3.1 10.1 3.9 15 .2 1 1 4.8 1.3 5.8.9 3.7.7 8.7 1.1 12.7.2 1.7-.1 3.4-.1 5.2 0 4.8.5 10.6 1.7 14.2.5 1.6 3 3.7 2.9 5.1 0 1-2.4 2.7-3.4 2.3-1.8-.6-2.2-7.8-2.5-10.7-.5-4.5-1-7.3-1-11.8-.1-10.7-1.3-21.7-4.1-29.9-2.9-8.1-8.2-15.3-13.4-20.5zm5.7-64.3c5.2 2.6 10 8.5 14.7 12.1 1.6 1.2 3.5 2.2 5.1 3.4 1.6 1.3 2.8 2.9 4.3 4.2.9.8 2 1.2 2.9 2 3.1 2.7 5.3 6.9 7.9 10.4 2.7 3.7 3.9 8.4 5.7 12.6 3.8 8.5 7.5 18 7.4 28.8-1.7-2.6-2.9-6-3.9-9.1-1.1-3.3-2.4-6.5-3.4-9.6-1.3-4-3-7.7-4.7-11.7-2.5-6-5.4-11.7-9.8-16.1-1.6-1.6-3-3.6-4.6-4.9-1.7-1.5-3.7-2.7-5.5-4.4-4.7-4.7-12.1-8.5-15.5-14.3-.4-.8-.8-2.1-1-2.8.1-.4.2-.5.4-.6zm-9.5-1.5c.5 2.6 1.7 4.9 3.3 6.8 5.5 6.5 13.6 10.2 18.9 16.9 3.8 4.8 7.8 10 11.7 15.1 1.3 1.7 2.8 3.3 3.8 5.1 4.5 7.5 5.5 17.1 8.8 26.5-6.6-5.5-8.7-15-12.6-23.2-1.3-2.7-2.9-5-4.2-7.6-1-2-1.6-3.9-2.8-5.7-1.9-2.9-4.7-5.5-7-8.2-4.8-5.8-9.6-10.3-15.3-15.1-3.9-3.3-8.9-5.9-10.9-10.8 1.5-.4 4.2.2 6.3.2zm-11.5 4.9c3.4 3.2 7.3 6.3 10.9 9.6 6.1 5.5 12.2 10.4 17.1 16.9 1.1 1.4 2 2.5 2.7 4.1.6 1.5.9 3.2 1.6 5.1 1.3 3.1 3.9 5.2 4.3 8.9-3.1-1.4-4.3-3.5-5.7-6.6-.6-1.4-2.4-2.9-3.7-4.4-5.9-7.4-11.3-15.6-17.6-22.5-4.1-4.4-8.6-8-12.9-12.1-4-3.7-6.5-8.7-10.3-12.4 2.7-1.2 10.4 10.4 13.6 13.4zm-21-11.9c1.4-1.3 1.7.6 2.2 1.6 1.2 2.8 4.2 5.3 6.6 7.6 2.4 2.3 4.6 5.1 6.9 7.4 2.5 2.6 5.9 4 7.1 7.1-6.4-.8-11-5.7-15.2-9.9-2.6-2.6-4-6.2-6-10.1-.7-1.4-2-2.7-1.6-3.7zm-15.3-14.2c.8 1.8 2.1 4 3.6 5.7 1.3 1.6 2.7 3.6 4.3 4.8 2.2 1.8 6 2 5.3 6.2-13.1-1.3-15.1-15.6-17.4-27.8 2.5 2.7 2.7 7.5 4.2 11.1zm-28.2-21.5c-3.1-7.1-6.9-10.4-7.7-12.1 1.9-.7 3.4 1.1 4.6 2.2 6.1 5.5 11.4 12.7 14.1 21.6 2 6.8 3.2 14.7 6.9 20-3.5-8.4-3.4-18.7-7.1-26.8-1.2-2.7-3-5.3-4.7-7.5-1.8-2.2-4-4.2-5.1-6.7 3.5 1.1 5.3 4.4 7.9 6.8 2 1.9 4 4 5.3 6.2 4.8 7.9 4 20.7 9.6 28-4.8-8.9-2.8-24.6-9.4-31.7 3.7 1.5 8.2 12.7 9.4 19.5 1.6 9.8 7.2 17.3 15.3 20.6 1.6.6 4.6.9 4.2 3.8-2.4 0-5.3.6-7.6 0-2.1-.6-3.5-3.2-5.6-3 .4 1.4 1.6 2 2.4 2.8.8.7 1.8 1.7 3 2.2 3.6 1.2 10.1-1.4 10.7 2.8-4.6 1.6-11.7.6-15.3-1.4 1.4 3 5.2 3.6 9.9 4.1 4.5.4 9.2-1.5 9.4 2.8-4.3.9-9.5-1.1-13.4 0 1.2.9 3.2 1.1 5.1 1.4 1.8.3 3.8.7 5.6.9 3.8.3 7.5-.8 8.2 2.7-7.5 1.6-17.4-.6-23.9-2.2-3.4-.8-8.5-5.8-11-8.5-6.5-6.9-11.8-14.8-15.6-24.5-3.2-8.3-6.1-17.1-10.1-24.7-1.1-2.1-6.8-9.5-7.2-12.2 2.1-.2 10.5 11.8 12.1 12.9zm-24.2-15.9c6.6 4.4 10.9 12.9 14.1 20.9 1.1 2.7 2.8 5.2 3.9 7.9 4.7 11.1 7.9 22.8 15.5 31.5 1.9 2.1 3.2 4.7 5.2 6.5 2.7 2.4 6.6 5.4 9.9 7.2 1.5.8 3.9 1.9 5.6 2.4 2.9.9 6.1.5 9.4 1 1.8.3 3.7 1.1 5.5 1.4 3.5.7 6.8.9 9.8 2-1.9.6-4.5.5-7 .5-10.3 0-18.9-1.4-25.6-4.8-5.1-2.6-9.9-6.8-13.3-11.4-3.8-5.3-6.8-10.8-9.9-17-5-10.1-8.5-21.9-14-31.7-1.5-2.6-3.3-5.3-4.8-8-1.6-2.9-3.6-5.1-5.3-7.6-1.2-1.6-2.2-3-2.2-3.2.1-.1 2.6 2 3.2 2.4zm-9.2-.2c2.4 2.1 7.5 9.3 6.7 14.1-.5 2.8-1.6 6.5-3.2 7.9-.6-6.1-5.1-19-7.5-25.1 0 0 3.9 3.1 4 3.1zm-15.6-5.7c4.6 3.8 8.5 9.6 10.7 15.9.9 2.6 1.3 7 1 11-.5 6.5-3.6 10.7-7 14.7-3.3 4-6.6 8-9.8 11.9-4.9 6.1-10.1 11.4-15.2 17.4-1.7 2-3.9 4-4.9 5.8-1.9 3.3-4.3 8.4-5.5 12.4-.5 1.7-.8 6.8-2.2 7-2.1.3-1.2-3.2-.9-4.3.5-1.7 1.7-4.3 2.3-6.3 1.4-4.6 2.7-8.3 5.1-12.2 1.3-2.1 2.9-4.5 4.7-6.5 3.6-3.8 7.4-7.4 11-11.3 1.9-2 3.2-4.5 5.1-6.1.5-.4 2.8-3.4 3.4-4.4 1.9-3.2 4.4-5.6 5.6-9.5 1.2-3.8 2.5-8.1 2.4-12.7-.1-3.3-.8-6.9-1.4-10.3-.4-2.3-1.5-5.9-2.7-8.2-.6-1.4-1.4-3.7-1.7-4.3l-.1-.1c0-.1.1 0 .1.1zm-116 59.8c1.4-1.6 3.9-3.7 5.8-5.1 9.3-6.7 19.4-13.7 27.5-22.5 2-2.2 4.3-4.1 6.3-6.2C74.7 21.9 83.9 13 97.3 8.1c4.2-1.5 10.7-2.3 15.5-2.7 5.6-.4 9.7.8 14.5 2.4 4.7 1.6 9.2 2.7 11.4 6.2 4 6.2 3.1 17.5.5 24.7-.8 2.4-2.6 4.9-4.3 7-5 6.2-9.6 12.5-14.8 18.6-2.9 3.3-5.7 7-8.2 10.7-2 2.9-4 5.4-5.8 8.9-1 1.8-3.6 10.4-4.8 12.9-3.1.2-5.2-2-7.6-3.3-7.4-3.9-14.9-6.6-21.4-11-3.3-2.2-5.8-5.2-8-8.2-2.2-3.1-3.9-6.6-6.5-9.8-1.4 1.7-.5 5.9 0 7.9C60 81.5 66 89 69.6 96.6c-3.6.6-7.9 0-11.3.9-3.6.9-6.7 2.9-9.6 3.7 2.1-6 7-11 7.4-19.4.2-4.2.1-9.4-1.3-13.1-1.9.2-2.1 2.6-2.8 4.1-2 4.2-5.4 7.3-9.1 10-6 4.2-12.9 8.3-18.2 12.7-.8.7-2.3 2.9-3.2 2.8-1.2-.2-2.3-5.2-2.4-7.2-.4-11.4 1.4-19.9 6.8-26zM9.8 145.9c0 3.4 1.3 7 1.4 10.4 0 1.3 1.6 7.3 1.5 9.8-2.2-1.8-3.3-5.7-4.3-8.6-1.8-5.3-3.5-12.2-2.7-17.8 1.4-8.8 4.5-15.8 8.5-22.2 1.8-2.9 3.3-5.8 5.2-8.2 4.1-5.4 9-9.9 14.2-13.4h.1c.4 1.2-.9 2.2-1.4 2.9C26.2 107 18 113.7 14 124.2c-2.3 6-4.2 13-4.2 21.7zm13 28.8c-1.8-5.9-4.6-11.3-5.3-18.1-1.1-10.3.2-18.5 3.3-26.4 1.3-3.2 3.3-6.6 5.1-9.9 1.7-3.2 3.9-6.3 6.1-8.9 4.6-5.6 7-13 12.6-17.3.1-.1.2-.2.4-.3h.3c-.2 1.4-.9 2.7-1.5 3.8-5.1 8.7-11.2 16.4-15.6 26-2.7 5.7-5.7 14.3-6.5 21.2-1 8.1 1 17.4 3 24.1 2.5 8.4 6.5 18.8 7.4 28.5.5 5.5.3 14.5-3 18.4 1.2-9.4.3-19-1.3-27.3-1-4.5-3.5-9.1-5-13.8zm1.6 72.3c-.9-1.5-.6-3.7-.5-5.3 0-.5 0-1 .1-1.4 1.3-6.6 5.3-13.2 8.5-17.6h.4c-1.4 9.2-5.7 16.3-8.5 24.3zm5.5-3.1c-1 1.8-1 4.2-2.8 5.3-.5-3.9 1.6-7.2 2.9-10.4 1.3-3.2 2.7-6.5 3.7-10 .5-1.9 1.4-4.1 1.6-6.2.4-3.2-.7-6.9 1.6-8.4.2 0 .2.2.4.3.1 4.2-.6 8.5-1.5 12.4s-1.2 8.2-2.5 11.5c-.8 2.2-2.3 3.7-3.4 5.5zm19.2 109.4c-3-6.5-6.7-13.7-8.2-21.7-1.1-5.5-2.4-11.4-3.3-17.5-.9-6.2 0-13.1-.5-19.9-.3-4-.4-7.6-.4-11.4.1-6.7-2.4-14.2-2.8-20.7-.5-7.1 0-14.2 3.7-19.4.8-.3 1.4.1 1.9.5-.1 4.4-1.6 8.4-1.3 13.4.4 5.3 2.2 11.2 2.8 16.4.9 8.3-1.1 16.6-1.1 24.9 0 10.4 1.8 20.2 3.4 29.2.7 3.7 1.3 7.5 2.3 10.9 2.1 7 4.5 13.5 6.6 19.8-1.9-.6-2.3-2.9-3.1-4.5zm3.2-15.1c-1.9-3.3-2.5-7.6-3-11.8-.6-5.2-1.8-11-2.3-16-.4-3.9.4-7.7.5-11.3.1-4.2 0-8.4.4-12.6.4-4.4.9-8.8.5-13.4-.1-1.2.1-2.4.1-3.7-.1-3.3-1.3-6.4-1.9-9.3-.8-3.7-.6-9.5-.1-12.6.1-.1.2-.2.4-.3 6.2 1.4 5.2 10.1 5.6 17.6.2 3.9.1 7.9-.4 11.7-.3 2.6-1.2 5.1-1.4 7.7-1.5 18.1-.2 37.6 1.6 54zm-8.5-103.3c-2.6-2-5.4-5.1-4.2-10 .1-.1.2-.2.4-.3 6.3 4.1 10.9 10.6 13.3 18.1-3.5-2.2-5.5-6.1-9.5-7.8zm30.8-1.1c-2.5-.7-5.1-2.1-7.7-3.2-5.2-2-8.6-5.8-13.3-8.5-2.1-1.2-4.5-3-6.1-4.7-3.4-3.6-5.4-8.2-7.4-13.7-1.2-3.4-2.6-7.6-3.2-11.8-.6-4.7-1.9-9.1-2.8-13.6-.7-3.5-2-6.6-2.4-10.5-.3-2.7 4.1-9.5 4.8-10.7 4.5-6.9 13.3-13.7 13.7-14.2 4.9-3.9 13.6-10.3 23.8-13.6 18.3-2.1 25.1 3.9 28 6.6 2.3 2.1 5 4 6.8 6.6-2.7-.3-4.9-2.4-7.5-3.7-3.2-1.6-7.1-3.3-11.4-3.8-3.6-.4-12-1.7-19.3 1-13.9 11.2-27.4 38.2-28.4 46.7-.4 3.3-.5 5.9-.6 9-.1 2.7-.3 3.5-.3 5.8 0 1.2-.2 5.1 1.1 6 1.1-.3.4-1.3.4-2-.1-3.8.4-9.3 1.1-12.6 1.5 1.7 1 2.6 3.2 4.2.7.4 7.8 4.4 23.7-1.8 2.4-.8 8.9-5.3 13.7-8.2 3.4-2.1 7.7-5.2 12.4-5.3 1.5 0 14-1.1 15.1.5.4.5.2 1.7.3 2.7.9 20.7-7.9 33.5-17.3 45.3-2.6 3.2-8.1 7.8-12.1 9.4-2.2.9-5.7-1.2-8.3-1.9zm100.7 25.9c-2.9 2.5-5.7 5.4-8.9 7.5-4.5 2.9-10.2 6.4-16.4 6.8-6.2.5-10.3-2.6-13.8-5.3-2.5-2-4.6-4.6-7.2-6.7-4.4-3.6-9.6-6.7-14.6-9.9-2-1.3-4.5-2.6-5.8-4.7 2.7-1.6 5.9-1.1 9-1.5 3.6-.5 4.8-4.1 9-1.9 1.9 1 3.1 3.5 4.3 5.3 1.7 2.4 6.3 5.4 8.8 7 .8.5 1.6 1.6 2.5 1.8 1.3.2 3-.5 4.6-.8 3.3-.5 8 .5 9.9-1.6 1.2-1.3 1.3-4.5 1.9-6.7.6-1.9 2-5.1 3.2-5.3 1.2-.2 4 1.6 5.1 2.3 1.5 1 2.8 2.9 4.7 3.9 3.6 1.9 8.1.5 12.2 1.9-2.1 3-5.4 5.3-8.5 7.9zm-34.5-6c-.2 1.7-4.3-1-4.3-2.3.7-.8 4.4 1.7 4.3 2.3zm-4.7-7.5c1 .3 2.1.3 2.7 1-1.1-.1-2.3-.1-2.7-1zm.1-6.2c.2-2.4-1.1-7.4 1-7.9 2.5-.6 4 2.7 5.3 3.9 0 1.4.1 2.9-.3 3.9-1.3 1.1-4.6 1.1-6 .1zm2.1-9.4c-5-.8-5 5-8.1 7.4-.7.5-1.3.2-2.2.5-1.4.4-2.8 1.9-4.6 1.5.7-1.5 2.3-2.1 3.8-2.8 2.5-1.1 3.7-4.3 5.7-6.3 1.2-1.2 1.1-2.5 3.3-2.3 2.9.3 5.8 1.8 6.7 4.8-1.6-.4-2.7-2.5-4.6-2.8zm-7 12.7c-1-.6-4-.2-4.8-1.3.9-2.4 5.5-1.5 4.8 1.3zm18.4-3.5c-1.1.7-3.7.7-4.9.1-1.6-3.3 3.1-1.1 4.8-1.6.3.2.3 1 .1 1.5zm.2 7.3c-.2.6-.5 1.1-1 1.4-.8 0-1.7.1-1.9-.5.2-1.1 2.1-1.3 2.9-.9zm-5.8-12.4c.9-.6 2.9-.2 3 .6.3 1.7-3.2 1.2-3-.6zm.9-2.9c-1.1-.3-2.3-1.2-1.8-2.7 1.6-.2 2.1 1.7 1.8 2.7zm11.7 9.5c-1-.9-2.2-1.6-2.2-3.6 1.3.7 1.7 2.3 3.2 2.8.6-.2.8-.8 1.4-1 .6.3 1.2.5 1.3 1.4-1.1 1.4-2.6-.6-3.7.4zm.1 2.3c.5-.3 2-.6 2.5-.1.2 1.6-2.6 1.6-2.5.1zm-1.4 8.1c-.5 1.4-1.1 3.3-2.8 3 .9-.9 1.5-3.4 2.8-3zm-.3-8.1c-.1 1.6-1.4 2.1-2.9 2.3.5-1.3 1.2-2.3 2.9-2.3zm36.2 3.8c-1.8.7-3.7 2.6-5.5 2.9-1.9.4-4.7-.5-7.1-.6-1.4-.1-2.9-.2-3.9-.4-3.3-.7-4.9-3.5-7.5-4.9-.7-.4-1.7-.4-2.3-.8-4.2-2.3-5.9-7.8-8.4-12.1-.6-1.1-1.9-2.1-2.9-2.2-2.9-.1-4.4 3.9-7.5 1.1-3.8-3.4-1.3-15.1-9.1-14.3 3.2 1.2 5.5 3.8 5.2 8-1.8-2-2.1-5.4-5.6-5.7-2.6-.3-4.6 1.7-6.5 2.5-.2-1.5 1.3-1.3 1.1-2.8-5.5 2.2-4.3 11.8-7.1 17.8-1.1 2.4-2.7 5.6-4.4 7.1-1.5 1.3-3.9 1.6-6.3 2.2-2.3.5-5.1 1.3-7.2 1.3-1.8-.1-3.8-1.5-5.5-2.3-4.5-2-8.8-3.7-13.7-5.7-.7-.3-2.3-.8-2.4-1.4-.2-1.1 2.3-1.7 3.2-2.2 6.4-3.1 11.5-8.4 15.6-14.5 1.4-2 3.2-3.6 4.4-5.5 5.8-8.8 11.7-20.8 14.5-33.1 1.2-5.3.9-11.6-.5-17.4-1-4.2-3.7-8.3-5.7-12.2-.8-1.6-1.3-3.1-2.2-4.4-.6-1-1.6-1.6-2.2-2.7v-.3c.1 0 .1-.1.3-.1 4.3 2.9 8.8 6.6 13.7 9.3 1.6.9 3.7 1.3 5.2 2.3.9.6 2.1 2.7 2.7 3.9 1 2.1 1.9 5.6 2.2 7.5.8 5.8.5 11.5.3 17.4-.2 5.8-3.1 11.2-2.7 16.4 2.1.2 3.3-1.3 3.8-3 3.5-.5 3.7 3.1 7.4 2.4 1.3-.3 1.8-1.4 3.2-1.5 1.5-.1 5.1 1.6 6.1-.6.6-1.2-1.2-7-1.4-8.9-.5-5.9-.6-12.9 1-17.3 2.3 1.1 3.8 3.2 5.5 4.9 1.7 1.8 3.7 3.1 5.1 5.2.1 12.9 2.7 23.6 6.6 33.2 1.4 3.6 3.8 6.9 5.7 10.4 4.6 8.4 12.2 14.9 22.1 17.8-1.7 2.3-4.7 2.2-7.3 3.3zm27.7-11.1c-1.7 1.4-4.1 2.6-6.6 3.8-2.2 1.1-5.4 2.5-7.5 2.8-2.9.3-6.2-1.3-8.8-2.4-6.7-2.8-10.2-6-13.7-12.2-1.1-2-2.7-3.8-3.4-5.3-4-8-7.1-16.2-7.1-27.4 0-1.8.1-4.3.9-5.1 1.4-.8 2.1 1.5 3.2 2.5 2 1.9 5.1 4.2 8.1 5.3 1.3.5 7.7 3.3 9.8 3.8 3.8.9 7.9-.1 10.1 2.5 2.6 3.1 2.2 10.7 4.8 13.8 2.1 2.4 4.8 3.6 7.2 6.3.9 1 1.9 2.2 3 3.7.9 1.1 2.9 2.7 2.9 3.8.1 1.2-2.1 3.5-2.9 4.1zm-.2-14.9c-4.9-4.8-10.3-9.3-11-18 2.4-.9 2.5.8 3 2.8.6 2.2 2.5 4.7 4.2 6.6 1.7 2 4.3 3.4 6 5.5.7.8 1.2 1.7 1.9 2.5 1.3 1.4 2.5 2.3 2.9 4.4-2.6-.5-5.2-2.1-7-3.8zm6.7-5.2c-1.7-2-4.9-3.5-5.3-6.1.1-.1.2-.2.3 0 3.5 1.3 5.5 3.6 8 6.5 3.4 3.8 7.2 7.7 10.5 11.4 1.3 1.4 2.5 3.1 2.7 5.1-6.7-3.9-11.2-11-16.2-16.9zm19.3 28.6c-1.8-.5-2.2-2.6-3.3-3.8-1.4-1.5-3-2.8-4.2-4.4v-.5c1.9 1.3 4.3 3.1 6.1 4.7.9.8 2.1 2.5 1.4 4zm21.3 77.2c-2.4-1.8-3.2-5.3-4.3-8.2-2.9-8.1-4-17.7-6.7-26.1-1.1-3.4-3-6-4.3-9.1-1.3-3.1-1.4-7.5-1.6-11.9-.2-2.9-1-5.3-1-7.9.1-.2.2-.3.4-.4 5.1 2.1 5.1 10 5.3 16.9.2 4.5 2.1 9.2 3.6 13.1 1.3 3.5 1.5 7.2 2.5 10.8.8 2.8 2.3 5.3 3.2 8 1.4 4.7 2 9.9 2.9 14.8zm22-56.2c-3.6 1.6-10 1.9-13.8.1-.7-.3-1.1-1.2-1.8-1.5-.8-.4-1.7-.5-2.5-.9-2.5-1.3-5-3.5-7.4-5.7-3.8-3.6-6.2-6.8-8.6-11.8-1.9-3.9-4.1-8.7-5.3-12.7-.8-2.5-1-4.5-1.4-7.6-.3-2-1.2-4.2-1.6-6.3-1.1-4.8-1.5-9.5-2.9-13.6v-.4h.4c3.8 8.2 5.2 19.3 8.9 28.3 2.1 5.1 4.9 10.6 7.7 15.5 2.5 4.4 6.8 9.5 11.3 11.3 1.1.4 2.8.7 4.3 1.1 1.5.4 2.8 1.3 4.1 1.4 4.4.3 7.3-2 11.2-1.5.1 2.1-1.2 3.6-2.6 4.3zm19.9-13c1.2 0 2.2-1 3.2-.9 1.1.1 3 2.3 2.7 3.4-.5 2.1-5.8 1.4-7.9.8-5.9-1.7-13.6-6.1-16.5-11.2-1.3-2.3-1.9-5.6-2.9-8.5-2-5.7-3-11.7-4.4-18.4-1.7-8.1-2.6-17.3-.1-26 0-.2 0-.4.1-.4h.3c.9 8.1 2.4 17.5 4.3 25.1 2.8 10.9 3.5 20.7 9.5 27.9 1.3 1.6 3.7 3.9 5.3 5.2 1.5 1.4 4.2 3 6.4 3zm24-90.2c-.4 3.3-.7 6.2-1.6 9.1-2.5 7.7-5 16.7-8.9 23.3-4.2 7.2-10.5 13-15.1 19.8-1.5 2.3-2.8 4.9-5.2 6.3 1.3-9.1 9.2-13.8 13.6-20.4 4.9-7.4 9.4-15.7 12.4-25.4 2.8-9.1 2.8-21.4 2.5-32.6-.1-3.5-1-6.9-1.6-10 0-.2.1-.2.1-.4 1.2.9 1.3 3.8 1.9 5.7 1.4 4.3 3.2 7.8 3.3 12.6 0 4.2-1 8.4-1.4 12z"/><path class="st3" d="M126.6 244c1.9 1 3.1 3.5 4.3 5.3 1.7 2.4 6.3 5.4 8.8 7 .8.5 1.6 1.6 2.5 1.8 1.3.2 3-.5 4.6-.8 3.3-.5 8 .5 9.9-1.6 1.2-1.3 1.3-4.5 1.9-6.7.6-1.9 2-5.1 3.2-5.3.9-.2 3.9.3 3.3 0-4.2-2.3-5.9-7.8-8.4-12.1-.6-1.1-1.9-2.1-2.9-2.2-2.9-.1-4.4 3.9-7.5 1.1-3.8-3.4-1.3-15.1-9.1-14.3 3.2 1.2 5.5 3.8 5.2 8-1.8-2-2.1-5.4-5.6-5.7-2.6-.3-4.6 1.7-6.5 2.5-.2-1.5 1.3-1.3 1.1-2.8-5.5 2.2-4.3 11.8-7.1 17.8-1.1 2.4-2.7 5.6-4.4 7.1-1.5 1.2 2.5-1.4 6.7.9zm4.7-.7c-1-.6-4-.2-4.8-1.3.9-2.4 5.5-1.5 4.8 1.3zm4.8 2.9c1 .3 2.1.3 2.7 1-1.1-.1-2.3-.1-2.7-1zm.4 5.2c.8-.8 4.4 1.7 4.3 2.3-.1 1.7-4.3-.9-4.3-2.3zm5.8-11.4c-1.4 1-4.7 1-6.1 0 .2-2.4-1.1-7.4 1-7.9 2.5-.6 4 2.7 5.3 3.9.1 1.5.2 3-.2 4zm10.3 14.7c.9-.9 1.5-3.4 2.8-3-.4 1.4-1.1 3.3-2.8 3zm4.2-11.1c.5-.3 2-.6 2.5-.1.2 1.6-2.5 1.6-2.5.1zm.9-3.1c.6-.2.8-.8 1.4-1 .6.3 1.2.5 1.3 1.4-1 1.4-2.5-.6-3.7.4-1-.9-2.2-1.6-2.2-3.6 1.3.7 1.7 2.3 3.2 2.8zm-2.5 3.1c-.1 1.6-1.4 2.1-2.9 2.3.4-1.3 1.1-2.3 2.9-2.3zm-6.3 4.9c-.8 0-1.7.1-1.9-.5.2-1.1 2.1-1.3 2.9-.9-.2.6-.5 1.1-1 1.4zm.7-10.2c.3.3.3 1.1.1 1.5-1.1.7-3.7.7-4.9.1-1.7-3.3 3-1.1 4.8-1.6zm-2.4-3c.3 1.7-3.3 1.1-3-.6.8-.6 2.8-.2 3 .6zm-4-6.2c1.6-.2 2.1 1.7 1.8 2.7-1.1-.3-2.3-1.2-1.8-2.7zm-16 8.1c2.5-1.1 3.7-4.3 5.7-6.3 1.2-1.2 1.1-2.5 3.3-2.3 2.9.3 5.8 1.8 6.7 4.8-1.7-.4-2.8-2.5-4.7-2.8-5-.8-5 5-8.1 7.4-.7.5-1.3.2-2.2.5-1.4.4-2.8 1.9-4.6 1.5.8-1.5 2.4-2.1 3.9-2.8z"/><g class="st4"><path d="M250.9 386.8c0-.4 0-.7.1-1s.2-.6.4-.9c.2-.3.4-.5.6-.8.2-.2.5-.4.8-.6.3-.2.6-.3.9-.4.3-.1.7-.1 1-.1s.7 0 1 .1c.3.1.6.2.9.4.3.2.5.4.8.6.2.2.4.5.6.8.2.3.3.6.4.9s.1.7.1 1 0 .7-.1 1-.2.6-.4.9c-.2.3-.4.5-.6.8-.2.2-.5.4-.8.6s-.6.3-.9.4c-.3.1-.7.1-1 .1s-.7 0-1-.1c-.3-.1-.6-.2-.9-.4s-.5-.4-.8-.6c-.2-.2-.4-.5-.6-.8-.2-.3-.3-.6-.4-.9s-.1-.7-.1-1zm.6 0c0 .4.1.9.2 1.3.2.4.4.7.7 1 .3.3.6.5 1 .7.4.2.8.3 1.3.3.4 0 .9-.1 1.3-.3.4-.2.7-.4 1-.7.3-.3.5-.6.7-1 .2-.4.2-.8.2-1.3s-.1-.9-.2-1.3c-.2-.4-.4-.7-.7-1-.3-.3-.6-.5-1-.7-.4-.2-.8-.3-1.3-.3s-.9.1-1.3.3c-.4.2-.7.4-1 .7-.3.3-.5.6-.7 1-.1.4-.2.8-.2 1.3zm4.5 1.6c-.1.1-.1.3-.3.4-.1.1-.2.2-.4.3s-.3.1-.5.1h-.3c-.2 0-.3 0-.5-.1-.1-.1-.3-.1-.4-.3s-.2-.2-.3-.4-.1-.3-.1-.5v-2.4c0-.2 0-.3.1-.5s.1-.3.3-.4c.1-.1.2-.2.4-.3.1-.1.3-.1.5-.1h.3c.2 0 .3 0 .5.1.1.1.3.1.4.3.1.1.2.2.3.4.1.1.1.3.1.5v.3l-.6.1v-.4-.2c0-.1-.1-.1-.1-.2s-.1-.1-.2-.1h-.7c-.1 0-.1.1-.2.1-.1.1-.1.1-.1.2V388.1c0 .1.1.1.1.2.1.1.1.1.2.1h.7c.1 0 .1-.1.2-.1s.1-.1.1-.2V387.5l.6.1v.3c0 .2-.1.4-.1.5zM261.5 383.6c-.2 0-.3 0-.5.1-.1.1-.3.1-.4.3s-.2.2-.3.4-.1.3-.1.5v.3l-.7-.1v-.2c0-.2 0-.5.1-.7.1-.2.2-.4.4-.6.2-.2.4-.3.6-.4.2-.1.5-.1.7-.1h.3c.3 0 .5 0 .7.1.2.1.4.2.6.4s.3.4.4.6c.1.2.1.5.1.8 0 .3 0 .6-.1.9l-.3.9c-.1.3-.3.6-.5.8s-.4.5-.6.8c-.4.6-1 1.1-1.5 1.6h3.1v.6h-4.2v-.5c.6-.5 1.2-1.1 1.7-1.6.2-.2.4-.5.6-.8s.4-.6.6-.8.3-.6.4-.9c.1-.3.1-.6.1-.9 0-.2 0-.4-.1-.6-.1-.2-.2-.3-.3-.4-.1-.1-.2-.2-.4-.2-.1-.1-.3-.1-.4-.1v-.2zM268.8 389.5c-.1.2-.2.4-.4.6-.2.2-.4.3-.6.4-.2.1-.5.1-.7.1h-.3c-.3 0-.5 0-.7-.1-.2-.1-.4-.2-.6-.4-.2-.2-.3-.4-.4-.6-.1-.2-.1-.5-.1-.7v-4c0-.2 0-.5.1-.7.1-.2.2-.4.4-.6.2-.2.4-.3.6-.4.2-.1.5-.1.7-.1h.3c.3 0 .5 0 .7.1.2.1.4.2.6.4.2.2.3.4.4.6.1.2.1.5.1.7v4c0 .2 0 .4-.1.7zm-.5-4.7c0-.2 0-.3-.1-.5-.1-.1-.1-.3-.3-.4-.1-.1-.2-.2-.4-.3-.1-.1-.3-.1-.5-.1h-.3c-.2 0-.3 0-.5.1-.1.1-.3.1-.4.3-.1.1-.2.2-.3.4-.1.1-.1.3-.1.5v4c0 .2 0 .3.1.5.1.1.1.3.3.4s.2.2.4.3c.1.1.3.1.5.1h.3c.2 0 .3 0 .5-.1.1-.1.3-.1.4-.3.1-.1.2-.2.3-.4.1-.1.1-.3.1-.5v-4zM270.5 390.5v-.6h1.8v-6.1l-1.8.7v-.6l1.8-.7h.7v6.7h1.8v.6h-4.3zM277.5 383.6c-.2 0-.3 0-.5.1-.1.1-.3.1-.4.3-.1.1-.2.2-.3.4s-.1.3-.1.5v.3l-.7-.1v-.2c0-.2 0-.5.1-.7.1-.2.2-.4.4-.6.2-.2.4-.3.6-.4.2-.1.5-.1.7-.1h.3c.2 0 .5 0 .7.1.2.1.4.2.6.4s.3.4.4.6c.1.2.1.5.1.8 0 .3 0 .6-.1.9l-.3.9c-.1.3-.3.6-.5.8s-.4.5-.6.8c-.4.6-1 1.1-1.5 1.6h3.1v.6h-4.2v-.5c.6-.5 1.2-1.1 1.7-1.6.2-.2.4-.5.6-.8.2-.3.4-.6.6-.8.2-.3.3-.6.4-.9s.1-.6.1-.9c0-.2 0-.4-.1-.6-.1-.2-.2-.3-.3-.4-.1-.1-.2-.2-.4-.2s-.3-.1-.4-.1v-.2zM281.1 390.5v-.8h.8v.8h-.8z"/></g><g><path d="M189.7 353.8h1.8v7.1h-1.8zM209.4 364.8V363c-3.9 0-7.2 3.2-7.2 7.2h1.8c0-2.9 2.4-5.4 5.4-5.4zM191.5 382.8V364h-1.8v18.8c0 3-2.4 5.4-5.4 5.4-3 0-5.4-2.4-5.4-5.4v-12.5c0-3.9-3.2-7.2-7.2-7.2-2.7 0-5.1 1.5-6.3 3.7-1.2-2.2-3.6-3.7-6.3-3.7-3.9 0-7.2 3.2-7.2 7.2v12.5c0 3-2.4 5.4-5.4 5.4v1.8c3.9 0 7.2-3.2 7.2-7.2v-12.5c0-3 2.4-5.4 5.4-5.4 3 0 5.4 2.4 5.4 5.4v19h1.8v-19c0-3 2.4-5.4 5.4-5.4s5.4 2.4 5.4 5.4v12.5c0 3.9 3.2 7.2 7.2 7.2 2.7 0 5.1-1.5 6.3-3.7 1.2 2.2 3.6 3.7 6.3 3.7v-1.8c-3 0-5.4-2.5-5.4-5.4z"/><path d="M241.7 383.7h1.9v-1.8h-1.9v-11.7c0-3.9-3.2-7.2-7.2-7.2-3.9 0-7.2 3.2-7.2 7.2v12.5c0 3-2.4 5.4-5.4 5.4-3 0-5.4-2.4-5.4-5.4 0-3.9-3.2-7.2-7.2-7.2-3 0-5.4-2.4-5.4-5.4h-1.8c0 3.9 3.2 7.2 7.2 7.2 3 0 5.4 2.4 5.4 5.4 0 3-2.4 5.4-5.4 5.4h-12.5v1.8h12.5c2.7 0 5.1-1.5 6.3-3.7 1.2 2.2 3.6 3.7 6.3 3.7 3.9 0 7.2-3.2 7.2-7.2v-12.5c0-3 2.4-5.4 5.4-5.4 3 0 5.4 2.4 5.4 5.4v11.7h-3.4v1.8h3.5c.4 3.5 3.5 6.3 7.1 6.3v-1.8c-2.7 0-5-2-5.4-4.5z"/></g></svg>