<svg viewBox="0 0 166.4 35.7"><path fill="#877463" d="M34 30.1c0 2.7 1.2 4.6 4.3 4.6 2.8 0 4.3-1.8 4.3-4.6V0h1.1v29.8c0 4.4-2.7 5.7-5.4 5.7s-5.4-1-5.4-5.7V0H34v30.1zM19.4 5.5c0-2.7-1.2-4.6-4.3-4.6-2.8 0-4.3 1.8-4.3 4.6v30.1H9.7V5.7c0-4.4 2.7-5.7 5.4-5.7s5.4 1 5.4 5.7v29.8h-1.1v-30z"/><path fill="#877463" d="M9.6 5.5C9.6 2.8 8.4.9 5.3.9 2.5.9 1 2.7 1 5.5v30.1H0V5.7C0 1.3 2.7 0 5.4 0s5.4 1 5.4 5.7v29.8H9.6v-30zm94.6 20.4c-2.7 0-4.6 1.2-4.6 4.3 0 2.8 1.8 4.3 4.6 4.3h5.3v1.1h-5.1c-4.4 0-5.7-2.7-5.7-5.4s1-5.4 5.7-5.4h5.1v1.1h-5.3zM97.6 0h1.1v35.5h-1.1V0zM84.5 5.5c0-2.7-1.2-4.6-4.3-4.6-2.8 0-4.3 1.8-4.3 4.6v30.1h-1.1V5.7c0-4.4 2.7-5.7 5.4-5.7s5.4 1 5.4 5.7v29.8h-1.1v-30z"/><path fill="#877463" d="M77.7 34.4H88v1.1H77.7v-1.1z"/><g fill="#877463"><path d="M126.7 5.5c0-2.7-1.2-4.6-4.3-4.6-2.8 0-4.3 1.8-4.3 4.6v30.1H117V5.7c0-4.4 2.7-5.7 5.4-5.7s5.4 1 5.4 5.7v29.8h-1.1v-30z"/><path d="M119.9 34.4h10.3v1.1h-10.3v-1.1z"/></g><g fill="#877463"><path d="M59 34.4c2.7 0 4.6-1.2 4.6-4.3 0-2.8-1.8-4.3-4.6-4.3h-2.1v-1.1h1.9c4.4 0 5.7 2.7 5.7 5.4s-1 5.4-5.7 5.4h-6.3v-1.1H59zm-7.1-29H53v15.1h-1.1V5.4z"/><path d="M57.4 24.8h1.5v1.1h-1.3c-4.7 0-5.7-2.7-5.7-5.4H53c.1 3 1.7 4.3 4.4 4.3zm0-23.7h4.7V0h-4.5c-4.7 0-5.7 2.7-5.7 5.4H53c.1-3 1.7-4.3 4.4-4.3z"/></g><path fill="#877463" d="M142.5 34.6c-.1.2-.2.4-.4.6s-.3.3-.6.4-.4.1-.7.1h-.5c-.2 0-.5 0-.7-.1s-.4-.2-.6-.4-.3-.3-.4-.6-.1-.4-.1-.7v-6.8h.7V30c.2-.2.4-.3.6-.5.2-.1.5-.2.8-.2h.2c.2 0 .5 0 .7.1s.4.2.6.4.3.3.4.6.1.4.1.7v2.7c.1.3 0 .6-.1.8zm-.6-3.4c0-.1 0-.3-.1-.4s-.1-.2-.2-.3c-.1-.1-.2-.2-.3-.2-.1-.1-.3-.1-.4-.1h-.5c-.1 0-.3 0-.4.1-.1.1-.2.1-.3.2s-.2.2-.2.3c-.1.1-.1.3-.1.4V34c0 .1 0 .3.1.4.1.1.1.2.2.3.1.1.2.2.3.2.1.1.3.1.4.1h.5c.1 0 .3 0 .4-.1.1-.1.2-.1.3-.2s.2-.2.2-.3c.1-.1.1-.3.1-.4v-2.8zm13.2 4.3l-.4-.6c-.2.2-.4.4-.6.5s-.5.2-.8.2h-.2c-.2 0-.5 0-.7-.1s-.4-.2-.6-.4-.3-.3-.4-.6-.1-.4-.1-.7v-.1c0-.2 0-.5.1-.7s.2-.4.4-.6.3-.3.6-.4.4-.1.7-.1h1.5V31c0-.1 0-.3-.1-.4s-.1-.2-.2-.3c-.1-.1-.2-.2-.3-.2-.1-.1-.3-.1-.4-.1h-.4c-.1 0-.3 0-.4.1-.1.1-.2.1-.3.2s-.2.2-.2.3c-.1.1-.1.3-.1.4v.2l-.7-.1V31c0-.2 0-.5.1-.7s.2-.4.4-.6.3-.3.6-.4.4-.1.7-.1h.4c.2 0 .5 0 .7.1s.4.2.6.4.3.3.4.6.1.4.1.7v4.4l-.4.1zm-.5-2.9h-1.5c-.1 0-.3 0-.4.1-.1.1-.2.1-.3.2s-.2.2-.2.3c-.1.1-.1.3-.1.4v.3c0 .1 0 .3.1.4.1.1.1.2.2.3.1.1.2.2.3.2.1.1.3.1.4.1h.5c.1 0 .3 0 .4-.1.1-.1.2-.1.3-.2s.2-.2.2-.3c.1-.1.1-.3.1-.4v-1.3zm11.1-2.4c-.1 0-.3 0-.4.1s-.2.1-.3.2-.2.2-.2.3-.1.3-.1.4v4.3h-.7v-6h.2l.4.6c.2-.2.4-.4.6-.5s.5-.2.8-.2h.4v.8h-.7z"/></svg>