<svg id="Layer_1" viewBox="0 0 600 221"><style>.st0{fill:#414042}.st1{fill:#00a59b}.st2{fill:#004b68}.st3{fill:#009b90}.st4{fill:#fac601}.st5{fill:#e65131}.st6{fill:#e10241}</style><path class="st0" d="M0 146.1h17.5l24 32.3v-32.3h15.6v60.1H39.6l-24.1-31.3v31.3H0v-60.1zM64.5 184.2c.1-3.7.9-6.9 2.3-9.7 1.4-2.8 3.2-5.1 5.5-7 2.3-1.9 4.9-3.3 7.9-4.3s6.2-1.5 9.6-1.5c3.7 0 7.1.6 10.2 1.7 3.1 1.1 5.7 2.7 7.9 4.6 2.2 2 3.9 4.3 5.2 7.1 1.2 2.8 1.8 5.8 1.8 9.1 0 2.7-.3 5.1-1 7.3s-1.6 4.1-2.8 5.7c-1.2 1.7-2.6 3.1-4.2 4.3-1.6 1.2-3.4 2.2-5.2 3-1.9.8-3.8 1.4-5.8 1.7-2 .4-4 .6-6 .6-3.8 0-7.2-.5-10.3-1.6-3.1-1.1-5.7-2.6-8-4.6-2.2-2-3.9-4.4-5.1-7.1s-2-5.9-2-9.3zm17.1 0c0 1.6.2 3 .7 4.2.5 1.2 1.1 2.2 1.9 3 .8.8 1.6 1.4 2.6 1.8 1 .4 2 .6 3 .6s2-.2 3-.6c1-.4 1.9-1 2.6-1.8.8-.8 1.4-1.8 1.9-3s.7-2.6.7-4.2-.2-3-.7-4.2c-.5-1.2-1.1-2.2-1.9-3-.8-.8-1.7-1.4-2.6-1.8-1-.4-2-.6-3-.6s-2 .2-3 .6c-1 .4-1.9 1-2.6 1.8-.8.8-1.4 1.8-1.9 3s-.7 2.6-.7 4.2zM121.4 163h18.4v8.9c1.4-3.5 3.2-6.1 5.6-7.7 2.3-1.6 5-2.5 8-2.5L156 176c-5.5 0-9.6.6-12.2 1.8-2.6 1.2-3.9 3.1-3.9 5.7v22.7h-18.4V163zM179.6 161.7c3.3 0 6.1.7 8.5 2s4.3 3.6 5.8 6.8v-22l18.4-2.7v60.3H194V198c-1.4 2.9-3.2 5.1-5.6 6.6-2.4 1.5-5.3 2.2-8.8 2.2-3 0-5.9-.6-8.4-1.9-2.6-1.2-4.8-2.9-6.7-5-1.9-2.1-3.4-4.5-4.5-7.2s-1.6-5.6-1.6-8.5c0-3.2.6-6.2 1.7-8.9 1.2-2.8 2.7-5.1 4.7-7.2 2-2 4.2-3.6 6.8-4.8 2.5-1 5.2-1.6 8-1.6zM194 184c-.1-1.1-.3-2.2-.8-3.2s-1.1-1.9-1.9-2.7c-.8-.8-1.7-1.4-2.7-1.8-1-.4-2.1-.7-3.2-.7-1.3 0-2.4.2-3.5.7-1.1.5-2 1.1-2.8 1.9-.8.8-1.4 1.7-1.8 2.8-.4 1.1-.7 2.2-.7 3.3 0 1.3.2 2.4.7 3.5.5 1.1 1.1 2 1.9 2.8.8.8 1.7 1.4 2.8 1.8 1 .4 2.2.7 3.3.7 1.2 0 2.4-.2 3.4-.7 1-.5 2-1.1 2.7-1.9.8-.8 1.4-1.7 1.8-2.8.4-1.1.7-2.1.7-3.3l.1-.4zM220.8 147.9c0-1.3.3-2.5.8-3.5.6-1.1 1.3-2 2.2-2.8.9-.8 2-1.4 3.2-1.8 1.2-.4 2.4-.6 3.7-.6 1.5 0 2.8.3 4 .8 1.2.5 2.2 1.2 3.1 2 .9.8 1.5 1.8 2 2.8.5 1 .7 2.1.7 3.1 0 1.3-.3 2.5-.8 3.6s-1.3 2-2.2 2.8c-.9.8-2 1.4-3.1 1.8s-2.4.7-3.7.7c-1.4 0-2.7-.2-3.9-.7-1.2-.5-2.3-1.1-3.1-1.9-.9-.8-1.6-1.7-2.1-2.8-.5-1.1-.8-2.3-.8-3.5zm27.3 55.9c-3.4 2-7.3 3-11.4 3-2.5 0-4.7-.4-6.6-1.2-1.9-.8-3.6-2-4.9-3.5-1.3-1.5-2.3-3.4-3-5.5-.7-2.2-1-4.6-1-7.2v-27h18.5v26.1c0 1.4.4 2.4 1.1 3.1.7.7 1.7 1 2.8 1 1.1 0 2.3-.3 3.6-1l.9 12.2zM272.2 172.6c-3.5 0-5.2.6-5.2 1.8 0 .5.1.9.4 1.2.3.4.6.7 1 .9.4.3.9.5 1.4.7.5.2 1 .3 1.5.3 2.2.3 4.3.9 6.2 1.6 1.9.7 3.6 1.6 5 2.8 1.4 1.2 2.5 2.6 3.3 4.3.8 1.7 1.2 3.7 1.2 6s-.4 4.4-1.2 6.2c-.8 1.8-1.9 3.3-3.4 4.6-1.4 1.3-3.2 2.2-5.1 2.9-2 .7-4.1 1-6.4 1-3.7 0-7.1-.2-10.2-.5-3.1-.3-5.9-1.1-8.5-2.2l2-10.1c.9.3 1.8.5 2.5.7.7.2 1.3.3 1.7.4.4.1 1 .2 1.6.3s1.4.2 2.1.4c.8.1 1.5.2 2.3.3.8.1 1.5.1 2.1.1 2.9 0 4.4-.7 4.4-2-.1-.5-.3-1-.7-1.4s-.8-.8-1.3-1.1c-.5-.3-1.2-.5-1.9-.7-.7-.2-1.4-.4-2.2-.5-2.2-.4-4.2-1-5.9-1.7-1.7-.7-3.1-1.6-4.2-2.8s-2-2.5-2.6-4.1c-.6-1.6-.9-3.6-.9-5.8.1-2.6.7-4.7 1.6-6.5 1-1.8 2.3-3.3 3.9-4.4 1.7-1.2 3.6-2 5.8-2.5s4.7-.8 7.3-.8c2.8 0 5.4.1 7.8.4 2.4.3 4.7 1 6.9 2l-1.9 10.4c-4.1-1.5-7.6-2.2-10.4-2.2zM330.8 180.9c.6 3.7 1.3 6.2 1.9 7.5 1.3 2.9 3.6 4.4 6.9 4.4.8 0 2.1-.2 3.8-.5l-1.7 14.3c-1.8.2-3.4.3-4.9.3-3.1 0-5.7-.3-7.8-1s-3.9-1.6-5.3-3-2.6-3.1-3.6-5.2c-.9-2.1-1.8-4.7-2.6-7.6l-5.1 4.1v12h-18.5v-57.6l18.5-2.7v29.9l22.4-18.3 10.1 13.7-14.1 9.7zM383.3 198c-1.4 2.8-3.2 5-5.5 6.5s-5.3 2.3-8.8 2.3c-2.8 0-5.6-.6-8.1-1.7-2.6-1.2-4.9-2.7-6.8-4.8s-3.5-4.4-4.7-7.2c-1.2-2.8-1.7-5.8-1.7-9.1 0-3.2.6-6.2 1.8-9 1.2-2.7 2.8-5.1 4.7-7.1 2-2 4.2-3.5 6.8-4.6 2.6-1.1 5.3-1.6 8.1-1.6 1.4 0 2.9.2 4.3.6 1.4.4 2.7 1 4 1.8 1.3.8 2.4 1.9 3.5 3.2 1 1.3 1.9 2.8 2.6 4.6v-10.2h18.3v44.4h-18.3V198zm0-14c-.1-1.1-.3-2.2-.8-3.2s-1.1-1.9-1.9-2.7c-.8-.8-1.7-1.4-2.7-1.8-1-.4-2.1-.7-3.2-.7-1.3 0-2.4.2-3.5.7-1.1.5-2 1.1-2.8 1.9s-1.4 1.7-1.9 2.8c-.5 1.1-.7 2.2-.7 3.4 0 1.3.2 2.4.7 3.5.5 1.1 1.1 2 1.9 2.8.8.8 1.7 1.4 2.8 1.8 1.1.4 2.2.7 3.3.7 1.2 0 2.3-.2 3.3-.7 1-.5 1.9-1.1 2.7-1.8s1.4-1.7 1.8-2.7c.5-1 .7-2.1.8-3.2v-.8zM455.3 186.5c0 3.6-.5 6.7-1.6 9.3-1.1 2.6-2.7 4.8-4.7 6.5-2 1.7-4.6 3-7.5 3.9-3 .9-6.3 1.3-10.1 1.3-8.3 0-15.6-1.5-21.9-4.5 1.7-4.3 3.1-8.3 4.1-11.9.2-.6.3-1.1.5-1.5l6.4 1.6c.8.2 1.6.4 2.5.6.9.2 1.8.4 2.6.5.9.2 1.7.3 2.5.4.8.1 1.5.2 2.1.2 1 0 1.9 0 2.8-.1s1.7-.2 2.4-.5 1.2-.6 1.6-1.1c.4-.5.6-1.1.6-2 0-1-.5-1.8-1.4-2.5s-2.1-1.3-3.5-1.8-3-1-4.6-1.5c-1.7-.4-3.2-.9-4.7-1.4-2-.6-3.9-1.5-5.6-2.6-1.7-1.1-3.2-2.4-4.5-3.9-1.3-1.5-2.3-3.2-3-5.1-.7-1.9-1.1-4-1.1-6.2 0-13 7.8-19.5 23.4-19.5 7.4 0 14.3 1.5 20.6 4.6l-4.7 13.1c-2.8-.7-4.9-1.3-6.5-1.7-1.6-.4-2.9-.7-3.9-.9-1-.2-1.7-.3-2.3-.4-.6-.1-1.2-.1-1.8-.1H431.2c-1.3 0-2.3.2-2.9.6-.7.4-1 1.2-1 2.4 0 1.8 1.6 3.2 4.7 4.1 7.7 1.8 13.5 4.4 17.5 7.8 3.8 3.3 5.8 7.5 5.8 12.3zM495 206.8c-3.2 0-6-.7-8.4-2-2.4-1.4-4.4-3.6-5.9-6.8v19.5l-18.4 3.5v-58h18.4v7.6c1.5-3.2 3.4-5.4 5.8-6.8s5.2-2 8.4-2c2.7 0 5.3.4 7.7 1.3 2.4.8 4.7 2.3 6.9 4.4 4.5 4.5 6.8 10.1 6.8 16.9 0 6.7-2.3 12.3-6.8 16.8-2.1 2.1-4.4 3.6-6.8 4.4-2.4.8-5 1.2-7.7 1.2zm-14.4-22.5c0 1.3.2 2.4.7 3.5.5 1.1 1.1 2 1.9 2.8.8.8 1.7 1.4 2.8 1.8 1 .4 2.1.7 3.3.7 1.3 0 2.4-.2 3.5-.7 1.1-.5 2-1.1 2.8-1.9.8-.8 1.4-1.7 1.8-2.8.4-1.1.7-2.2.7-3.3 0-1.4-.3-2.6-.8-3.7s-1.2-2-2-2.7c-.8-.7-1.8-1.3-2.8-1.7s-2.1-.6-3.2-.6c-1.4 0-2.6.3-3.6.8s-1.9 1.2-2.6 2c-.7.8-1.3 1.7-1.7 2.7-.4 1-.6 1.9-.7 2.9l-.1.2zM548.3 194.6c4 0 8.3-1 12.9-3.1l2.1 11.7c-5.3 2.4-11.2 3.6-17.8 3.6-3.7 0-7-.6-10-1.7s-5.6-2.7-7.8-4.7-3.9-4.4-5.1-7.1c-1.2-2.8-1.8-5.8-1.8-9 0-3.4.6-6.5 1.9-9.3s3-5.1 5.2-7.1 4.8-3.5 7.7-4.6 6.1-1.6 9.4-1.6c3.4 0 6.3.6 8.8 1.7 2.5 1.1 4.6 2.7 6.3 4.6 1.7 1.9 3 4.2 3.8 6.8s1.3 5.4 1.3 8.3v1.2c0 .4-.1.7-.1 1.1l-26.2 3.4c.7 2 1.8 3.5 3.4 4.4 1.5.9 3.5 1.4 6 1.4zm3.3-16.8c-1-3.6-3.2-5.5-6.7-5.5-1.1 0-2 .2-2.9.6-.8.4-1.6 1-2.2 1.8-.6.8-1 1.7-1.3 2.7-.3 1-.5 2.2-.5 3.3l13.6-2.9zM600 203.8c-4 2-8.3 3-13.1 3-2.5 0-4.7-.4-6.6-1.2-1.9-.8-3.6-2-4.9-3.5-1.3-1.5-2.3-3.4-3-5.5-.7-2.1-1-4.6-1-7.3v-40.8l18.4-2.7V188c0 1.6.5 2.7 1.5 3.5 1 .8 2.3 1.1 4.1 1.1 1.3 0 2.6-.3 4-1l.6 12.2z"/><path class="st1" d="M509.4 61.2c.8-1.3 1.6-2.7 2.2-4.1-.8 1.4-1.6 2.7-2.2 4.1zM373.6 65c-.1-.1-.2-.3-.3-.4.1.1.2.3.3.4z"/><g><path class="st2" d="M333.2 99.1c-9.1-6.3-21.6-4.1-27.9 5-6.3 9.1-4.1 21.6 5 27.9 9.1 6.3 21.6 4.1 27.9-5 6.3-9.1 4.1-21.6-5-27.9zm-.8 23.9c-4.1 5.9-12.3 7.4-18.2 3.2-5.9-4.1-7.4-12.3-3.2-18.2 4.1-5.9 12.3-7.4 18.2-3.2 5.9 4.2 7.3 12.3 3.2 18.2z"/></g><g><path class="st3" d="M366 57c-12.1-8.4-28.8-5.5-37.2 6.6-8.4 12.1-5.5 28.8 6.6 37.2 12.1 8.4 28.8 5.5 37.2-6.6 6.3-9 6.2-20.4.9-29.2-.1-.1-.2-.3-.3-.4-1.7-2.9-4.2-5.5-7.2-7.6zm0 32.6c-5.9 8.4-17.4 10.5-25.8 4.6-8.4-5.9-10.5-17.4-4.6-25.9 5.9-8.4 17.4-10.5 25.8-4.6 8.4 5.9 10.5 17.4 4.6 25.9z"/></g><g><path class="st4" d="M381 22.2c-12.7 10.5-15.6 28.5-7.7 42.4.1.1.2.3.3.4.9 1.5 1.8 2.9 2.9 4.2 11.7 14.2 32.8 16.2 47 4.5 14.2-11.7 16.3-32.8 4.5-47-11.7-14.2-32.8-16.2-47-4.5zm40.7 39.4c-7.5 10.7-22.3 13.4-33 5.9-10.8-7.5-13.4-22.3-5.9-33 7.5-10.8 22.3-13.4 33-5.9 10.8 7.4 13.4 22.2 5.9 33z"/></g><g><path class="st5" d="M498.3 7.2c-18.2-12.7-43.1-8.2-55.8 9.9-12.7 18.2-8.2 43.1 9.9 55.8 18.2 12.7 43.1 8.2 55.8-9.9.4-.6.8-1.2 1.1-1.8.7-1.4 1.4-2.7 2.2-4.1 8.3-17.3 3-38.5-13.2-49.9zm.4 49.2c-9 12.9-26.7 16-39.6 7-12.9-9-16-26.7-7-39.6 9-12.9 26.7-16 39.6-7 12.8 8.9 16 26.7 7 39.6z"/></g><g><path class="st6" d="M578.2 43.1c-21.2-14.8-50.3-9.6-65.1 11.6-.5.8-1.1 1.6-1.5 2.4-.7 1.4-1.4 2.7-2.2 4.1-9.8 20.3-3.7 45.3 15.4 58.7 21.2 14.8 50.3 9.6 65.1-11.6 14.7-21.2 9.5-50.4-11.7-65.2zm.3 57.2c-10.4 14.9-30.9 18.6-45.8 8.2-14.9-10.4-18.6-30.9-8.2-45.8 10.4-14.9 30.9-18.6 45.8-8.1 14.9 10.3 18.6 30.8 8.2 45.7z"/></g></svg>