<svg id="Layer_1" viewBox="0 0 502.5 259.2"><style>.st0{fill:#231f20}</style><path d="M421.1 64L419 48.4l-5.4 13.7-8.7 4.6-19.8-7.2-54.7 13.8 1.3-32.9 3.2-5.9 11.2-3.7-13.7-4.4-5.5 1.4-6.4-5.9 5.8-4.4 8.4 1.2 11.8 8.5-9.2-14.4v-.1l-11.6-2.2h-.1L313.7 19l3.8-6.2 14.3-6 11.9 6L331.9.1V0L313 6.4l-10 11.3-1.6-5.8-12.2-5.3 5.1 10.6v5.2l-5.1 6.2-1.2 11.2-10 7.2-3.1 10.8v.1l4.1 5.3-2.7 2.7-.1.1 1.6 1.6 2.7-2.7 15.3 2.6 9.6 54.2 14.1 30.2 3.8 39.7-6.2 9.5-.1.1 9.2 4.4 11.4-10.2.1-.1-2.6-17.7.9-22.3 2.5-2 3.3 40.5-5.9 7.4 8.3 4.3h.1l10.8-6.9.6-40.1 9.7-12.7 10.1-2.4 2 37.5-9.3 8.3-.1.1 5.4 6.9 15-6.7h.1l.7-43.1 7.2-.7-5.1 39.5-5.3 10 8 5.7 8.8-8.8 5.7-42.8 8.5-40.4-5.3-27.4 1.2-7.6 8.1-9.9zm-10.4 8.9l-1.4 8.6 5.3 27.4-8.4 40-5.6 42.2-6.9 6.9-4.8-3.4 4.5-8.6 5.5-42.6v-.2l-12.1 1.1-.7 43.7-12.1 5.4-2.9-3.8 8.6-7.6-2.2-41.1v-.2l-13.5 3.2-10.7 13.9-.6 39.6-8.7 5.5-4.7-2.5 4.7-5.9-3.7-45.4v-.3l-6.7 5.4-.9 23.5v.1l2.4 16.7-9.4 8.4-5.5-2.7 5.3-8.1-3.9-40.8-14.1-30.3-9.8-55.4v-.1l-15.3-2.6 3.2-3.2.1-.1-1.6-1.6-3.6 3.6-3.2-4.2 2.5-9 10.1-7.3h.1l1.2-11.4 5.2-6.3v-6.5l-2.7-5.6 5.6 2.4 2.5 8.7 12.3-13.9L331 2.8l2.4 2.6-1.7-.8L316 11l-7 11.1h4.2l12.9-9.2 9.7 1.9 2.3 3.6-2.6-1.9-9.9-1.5h-.1l-8.7 6.6 9.3 8.6 6.1-1.6 6.4 2-5.3 1.8-3.9 7.1-1.4 36.6v.2l56.9-14.4 20.1 7.3h.1l10.3-5.5 2.6-6.4.8 6-8.1 9.6z"/><circle cx="295.7" cy="36.8" r="2.2"/><circle cx="302.5" cy="36.8" r="2.2"/><g><path class="st0" d="M4 234.5c0-1.3-1.4-1.5-4-1.5v-1.6c1.6 0 3.8-.8 6.6-2.2v3.3c2.6-2.3 5-3.4 8.6-3.4 5.2 0 9.9 4.2 9.9 10.9 0 9.2-7 11.4-11 11.4-3 0-5.1-1.1-7.5-3.2v7.6c0 1.1.9 1.6 1.7 1.6h2.2v1.6H.3v-1.6H2c1.1 0 1.9-.5 1.9-1.6l.1-21.3zm2.6 11.2c1.1 2.9 4.8 4.3 7.5 4.3 1.9 0 3.6-.6 5.1-1.8 2.2-1.8 3.3-4.5 3.3-8 0-4.6-2.8-9.3-8.1-9.3-3.1 0-7 2-7.8 4.5v10.3zM32.2 234.2c0-1.1-.8-1.4-4.1-1.4v-1.6c1.9 0 4.2-.7 6.7-1.9v5c.9-1.3 3.8-5 8.1-5 1.7 0 3.9.4 3.9 2.9 0 1-.7 1.5-1.7 1.5-.9 0-1.5-.4-2.1-1s-1.2-.9-2.1-.9c-2.3 0-4.5 2.1-6.2 5.8v12.3c0 1.6.4 2.1 1.9 2.1h1.9v1.6H28.2V252c3 0 4 0 4-2.1v-15.7zM51.4 240.8v1.2c0 5.7 3.9 11 9.1 11 3.9 0 6.2-2.7 8.5-5.9l1.3.9c-4.1 5.2-6.2 6.6-10.4 6.6-7.9 0-11.2-7-11.2-12.6 0-8.1 5.3-13.2 10.7-13.2 5.6 0 10.3 4.8 10.3 12.1l-18.3-.1zm15.8-1.6c-.2-3-.9-5.3-2.3-6.7-1.3-1.4-3.1-2.2-5.3-2.2-3.9 0-7.2 3.6-8 8.9h15.6zM82.6 249.7c0 1.6.6 2.4 2.3 2.4h3v1.6H74.8V252h2.9c1.6 0 2.3-.9 2.3-2.4V231h-6.7v-1.6H80v-2.2c0-4 .7-7 2.1-8.9 1.2-1.7 3-2.6 5.3-2.6 3.4 0 7.4 1.8 7.4 5.7 0 .8-.7 1.5-1.6 1.5-1.2 0-1.6-1.1-1.6-1.5v-1.1c0-1.5-1.2-3.1-4.2-3.1-3.4 0-4.8 2.4-4.8 7.9v4.4h7v1.6h-7v18.6zM106.8 252c-2.3 1.7-4.9 2.7-8.1 2.7-2.3 0-6.3-1.2-6.3-6.2 0-2.1.8-3.7 2.6-5.1 2.4-1.8 6.7-3.1 13.2-4V236c0-3.4-3.2-5.6-6.2-5.6-3.7 0-5.4 2.4-5.4 3.4v.6c.1.6.3 2.1-1.5 2.1-1.3 0-1.6-1-1.6-1.6 0-3.2 3.5-6.1 8.5-6.1 5.4 0 8.8 3.7 8.8 7.2v11.9c0 1.9 0 5.1 1.1 5.1.5 0 1.1-1 1.7-2.8l1.4.8c-1 3.3-2.4 3.6-3.7 3.6-2.7 0-2.9-2.5-3.1-4.3l-1.4 1.7zm1.4-10.9c-5.1.9-8.8 2.1-10.9 3.5-1.5 1-2.3 2.3-2.3 3.9 0 2.8 2.5 4.6 4.7 4.6 3.2 0 8-2.3 8.5-6.1v-5.9zM122.2 232.9c2.2-2.4 4.7-3.5 8.1-3.5 4.4 0 9.5 3.4 9.5 11.5 0 6.5-3.4 13.1-10.7 13.1-2.9 0-5-1.1-7.2-3.3l-1.1 3h-1.3v-32.9c0-1.3-.8-1.4-3.9-1.4v-1.6c1.8 0 4.1-.6 6.5-1.9v17zm0 15.2c.8 1.8 3.6 4.3 6.9 4.3 2.3 0 4.2-.9 5.6-2.6 1.6-2 2.5-4.9 2.5-8.9 0-3.4-.8-6-2.3-7.6-1.5-1.5-3.3-2.4-5.5-2.4-3.6 0-6.6 3.1-7.2 4.6v12.6zM147 234.2c0-1.1-.8-1.4-4.1-1.4v-1.6c1.9 0 4.2-.7 6.7-1.9v5c.9-1.3 3.8-5 8.1-5 1.7 0 4 .4 4 2.9 0 1-.7 1.5-1.7 1.5-.9 0-1.5-.4-2.1-1s-1.2-.9-2.1-.9c-2.3 0-4.5 2.1-6.2 5.8v12.3c0 1.6.4 2.1 1.9 2.1h1.9v1.6H143V252c3 0 4 0 4-2.1v-15.7zM168.6 234.3c0-1.4-2.2-1.4-4-1.3v-1.6c1.9 0 4.1-.7 6.5-2v20.8c0 1.4 1.2 1.8 2.2 1.8h3.1v1.6h-13.1V252h3.1c1.1 0 2.3-.5 2.3-1.8v-15.9zm3.7-16.3c0 1.3-1.2 2.4-2.4 2.4-1.5 0-2.2-1.2-2.2-2.4 0-1.3.8-2.3 2.2-2.3 1.3.1 2.4 1 2.4 2.3zM201.6 248c-3 4.6-5.9 6.7-10.1 6.7-7 0-11.5-5.4-11.5-13.2 0-8.4 6.3-12.7 12.4-12.7 3.8 0 8.3 2.7 8.3 6.9 0 .7-.4 1.5-1.7 1.5-.8 0-1.6-.5-1.6-1.5.1-.2.2-1.3.2-1.5 0-1.3-1.7-3.7-5.1-3.7-4.4 0-9.4 3.6-9.4 10.3 0 10.6 6.8 12.2 9.3 12.2 3.3 0 5.4-1.9 8.1-5.7l1.1.7zM220.2 252c-2.3 1.7-4.9 2.7-8.1 2.7-2.3 0-6.3-1.2-6.3-6.2 0-2.1.8-3.7 2.6-5.1 2.4-1.8 6.7-3.1 13.2-4V236c0-3.4-3.2-5.6-6.2-5.6-3.7 0-5.4 2.4-5.4 3.4v.6c.1.6.3 2.1-1.5 2.1-1.3 0-1.6-1-1.6-1.6 0-3.2 3.5-6.1 8.5-6.1 5.4 0 8.8 3.7 8.8 7.2v11.9c0 1.9 0 5.1 1.1 5.1.5 0 1.1-1 1.7-2.8l1.4.8c-1 3.3-2.4 3.6-3.7 3.6-2.7 0-2.9-2.5-3.1-4.3l-1.4 1.7zm1.4-10.9c-5.1.9-8.8 2.1-10.9 3.5-1.5 1-2.3 2.3-2.3 3.9 0 2.8 2.5 4.6 4.7 4.6 3.2 0 8-2.3 8.5-6.1v-5.9zM237.6 247.3c0 3.1.3 5.1 3.1 5.1 1.3 0 3.1-1.1 5.1-3.4l1.1 1.1c-2.5 2.7-3.9 4-7 4-4.2 0-5-3.5-5-6.7v-15.9h-4.7v-1.6c4.8 0 5.8-3.2 5.8-10.9h1.4v10.9h7.1v1.6h-7.1l.2 15.8zM252.6 240.8v1.2c0 5.7 4 11 9.1 11 4 0 6.2-2.7 8.5-5.9l1.3.9c-4.1 5.2-6.2 6.6-10.4 6.6-7.9 0-11.2-7-11.2-12.6 0-8.1 5.3-13.2 10.7-13.2 5.6 0 10.3 4.8 10.3 12.1l-18.3-.1zm15.7-1.6c-.2-3-.9-5.3-2.3-6.7-1.3-1.4-3.1-2.2-5.3-2.2-3.9 0-7.2 3.6-8 8.9h15.6zM295.9 249.2c0 2.2 1.1 2.8 2.5 2.8h2.1v1.6h-7.2v-3.3c-1.9 2.5-4 3.6-7.8 3.6-6.1 0-10.2-5.2-10.2-12.9 0-6.2 4.7-11.7 11.1-11.7 2.8 0 5.1.9 6.9 2.8v-11.2c0-1.3-.4-1.4-4-1.4v-1.6c1.8 0 4.1-.7 6.6-2.1v33.4zm-2.6-14.1c-.6-1.3-3.2-3.9-6.9-3.9-3.9 0-8.2 3.3-8.2 10 0 4.8 2.1 11.1 8 11.1 3.7 0 6.5-2.8 7.1-5.6v-11.6zM314.7 248.7c6.4 1.2 10.5 2.4 10.5 5.1 0 1.8-2 5.4-12.3 5.4-5.8 0-11.5-.7-11.5-4.3 0-.9.5-1.8 1.3-2.7.8-.9 2.5-1.7 5.1-2.7-3.4-1-3.8-1.4-3.8-2.8 0-2.1 2.5-3.1 3.7-3.5l-1.3-.8c-2-1.6-2.9-3.4-2.9-5.5 0-5.5 5.2-7.8 9.5-7.8 2.6 0 4.7.7 6.3 2.1 1.1-1.2 3.3-2.6 5.3-2.6 1.7 0 1.8 1.2 1.8 1.4 0 1-.6 1.5-1.6 1.5-.3 0-1.8-.6-2.2-.6h-.3c-.5 0-1.2.4-2.2 1.2 1.1 1.3 1.7 2.9 1.7 4.8 0 4.3-3.7 7.3-9.2 7.3-2.2 0-6.2 0-6.2 1.7 0 .3.1.5.3.7.4.3 2.2.7 5.4 1.5v.1l2.6.5zm-4.2 1.5c-2.8.9-6.5 2.1-6.5 4.7s7.2 2.6 8.9 2.6c7.3 0 9.7-2.1 9.7-3.2 0-1.5-3.4-2.3-7.9-3.1l-4.2-1zm-4.4-13.2c0 3.9 3.7 5.6 6.6 5.6 3.7 0 6.6-2.2 6.6-5.7 0-4.4-3.5-6.1-6.4-6.1-4.1 0-6.8 2.6-6.8 6.2zM341.6 254.7c-8.6 0-11.6-7.3-11.6-12.8 0-9.9 7-13.3 11.6-13.3 5.8 0 11.3 4.4 11.3 13.3 0 5.7-3.2 12.8-11.3 12.8zm6.1-21.6c-1.6-1.8-3.6-2.8-6.1-2.8-2.5 0-4.6 1-6.4 2.9-1.6 1.8-2.4 4.8-2.4 8.8 0 3.7 1.4 11.1 8.8 11.1 6.7 0 8.4-6.8 8.4-11.1 0-4.1-.8-7.1-2.3-8.9zM371.7 252c-2.3 1.7-4.9 2.7-8.1 2.7-2.3 0-6.3-1.2-6.3-6.2 0-2.1.8-3.7 2.6-5.1 2.4-1.8 6.7-3.1 13.2-4V236c0-3.4-3.2-5.6-6.2-5.6-3.7 0-5.4 2.4-5.4 3.4v.6c.1.6.3 2.1-1.5 2.1-1.3 0-1.6-1-1.6-1.6 0-3.2 3.5-6.1 8.5-6.1 5.4 0 8.8 3.7 8.8 7.2v11.9c0 1.9 0 5.1 1.1 5.1.5 0 1.1-1 1.7-2.8l1.4.8c-1 3.3-2.4 3.6-3.7 3.6-2.7 0-2.9-2.5-3.1-4.3l-1.4 1.7zm1.5-10.9c-5.1.9-8.8 2.1-10.9 3.5-1.5 1-2.3 2.3-2.3 3.9 0 2.8 2.5 4.6 4.7 4.6 3.2 0 8-2.3 8.5-6.1v-5.9zM389.2 247.3c0 3.1.3 5.1 3.1 5.1 1.3 0 3.1-1.1 5.1-3.4l1.1 1.1c-2.5 2.7-3.9 4-7 4-4.2 0-5-3.5-5-6.7v-15.9h-4.7v-1.6c4.8 0 5.8-3.2 5.8-10.9h1.4v10.9h7.1v1.6H389l.2 15.8zM408.1 251.1c0 1.2-1.1 2.4-2.4 2.4-1.5 0-2.2-1.3-2.2-2.4 0-1.7 1.2-2.3 2.2-2.3 1.5.1 2.4 1 2.4 2.3zM436.1 248c-3 4.6-5.9 6.7-10.1 6.7-7 0-11.5-5.4-11.5-13.2 0-8.4 6.3-12.7 12.4-12.7 3.8 0 8.3 2.7 8.3 6.9 0 .7-.4 1.5-1.7 1.5-.8 0-1.6-.5-1.6-1.5.1-.2.2-1.3.2-1.5 0-1.3-1.7-3.7-5.1-3.7-4.4 0-9.4 3.6-9.4 10.3 0 10.6 6.8 12.2 9.3 12.2 3.3 0 5.4-1.9 8.1-5.7l1.1.7zM451.9 254.7c-8.6 0-11.6-7.3-11.6-12.8 0-9.9 7-13.3 11.6-13.3 5.8 0 11.3 4.4 11.3 13.3 0 5.7-3.2 12.8-11.3 12.8zm6.1-21.6c-1.6-1.8-3.6-2.8-6.1-2.8-2.5 0-4.6 1-6.4 2.9-1.6 1.8-2.4 4.8-2.4 8.8 0 3.7 1.4 11.1 8.8 11.1 6.7 0 8.4-6.8 8.4-11.1 0-4.1-.8-7.1-2.3-8.9zM470.2 234.2c0-1.4-1.5-1.4-4-1.4v-1.6c1.8 0 4.1-.6 6.6-1.8v3.8c1.8-2.3 3.1-3.8 6.5-3.8 2.2 0 3.8.7 5 2.3.4.5.7 1.2.9 2 1-1.7 3.3-4.3 7.4-4.3 3.5 0 6.2 2.5 6.2 7.1v13.6c0 1.2.7 1.9 1.9 1.9h1.8v1.6h-10V252h2c1 0 1.6-.7 1.6-1.9v-13.6c0-3.4-1.7-5.5-4.3-5.5-2.2 0-5.5 1.9-6.3 4.9v14.3c0 1.3.7 1.9 1.9 1.9h1.7v1.6H479V252h2.2c.8 0 1.7-.7 1.7-1.9v-13.4c0-2.8-1-5.7-4.5-5.7-2 0-5.1 1.6-5.8 5.3v13.9c0 1.2.7 1.8 1.7 1.8h1.9v1.6H466V252h1.5c.9 0 2.4-.3 2.4-1.8v-16z"/></g></svg>