<svg viewBox="0 0 220.1 294"><path fill="#073F54" d="M.8 257l4-.4c.2 1.6.6 3 1.3 4s1.8 1.9 3.3 2.5 3.1 1 5 1c1.6 0 3.1-.2 4.3-.7 1.3-.5 2.2-1.2 2.8-2s.9-1.8.9-2.8-.3-1.9-.9-2.7-1.6-1.4-2.9-1.9c-.9-.3-2.8-.9-5.8-1.6-3-.7-5.1-1.4-6.3-2-1.5-.8-2.7-1.8-3.5-3s-1.1-2.5-1.1-4c0-1.6.5-3.2 1.4-4.6.9-1.4 2.3-2.5 4.1-3.2s3.8-1.1 6-1.1c2.4 0 4.5.4 6.4 1.2 1.8.8 3.2 1.9 4.2 3.4s1.5 3.2 1.6 5.1l-4.1.3c-.2-2-1-3.6-2.2-4.6-1.3-1-3.2-1.6-5.7-1.6-2.6 0-4.5.5-5.7 1.4-1.2 1-1.8 2.1-1.8 3.4 0 1.2.4 2.1 1.3 2.9.8.8 3 1.5 6.5 2.3s5.9 1.5 7.2 2.1c1.9.9 3.3 2 4.2 3.3s1.3 2.9 1.3 4.6-.5 3.4-1.5 4.9-2.4 2.7-4.3 3.6c-1.9.8-3.9 1.3-6.3 1.3-2.9 0-5.4-.4-7.4-1.3s-3.5-2.1-4.7-3.9S.8 259.2.8 257zm28.1 10.4L41.3 235H46l13.3 32.4h-4.9l-3.8-9.8H37l-3.6 9.8h-4.5zm9.3-13.3h11l-3.4-9c-1-2.7-1.8-5-2.3-6.7-.4 2.1-1 4.1-1.7 6.2l-3.6 9.5zm24.4 13.3V235H67l17 25.5V235h4.1v32.4h-4.4l-17-25.5v25.5h-4.1zm32.8 0V235h11.2c2.5 0 4.4.2 5.8.5 1.9.4 3.4 1.2 4.8 2.3 1.7 1.4 3 3.3 3.8 5.5s1.3 4.8 1.3 7.7c0 2.5-.3 4.6-.9 6.6s-1.3 3.5-2.2 4.7c-.9 1.2-1.9 2.2-3 2.9-1.1.7-2.4 1.3-3.9 1.6-1.5.4-3.2.6-5.2.6H95.4zm4.3-3.8h6.9c2.1 0 3.8-.2 5-.6s2.2-1 2.9-1.7c1-1 1.8-2.4 2.4-4.1.6-1.7.9-3.8.9-6.3 0-3.4-.6-6-1.7-7.8s-2.5-3-4.1-3.7c-1.2-.4-3-.7-5.6-.7h-6.8l.1 24.9zm28.3 3.8V235h12.2c2.5 0 4.5.3 6 1s2.7 1.7 3.5 3c.8 1.4 1.3 2.8 1.3 4.3 0 1.4-.4 2.7-1.1 3.9-.8 1.2-1.9 2.2-3.4 3 2 .6 3.5 1.6 4.5 2.9 1.1 1.4 1.6 3 1.6 4.9 0 1.5-.3 2.9-1 4.2-.6 1.3-1.4 2.3-2.4 3-.9.7-2.1 1.2-3.6 1.6-1.4.4-3.2.5-5.2.5l-12.4.1zm4.3-18.8h7c1.9 0 3.3-.1 4.1-.4 1.1-.3 1.9-.9 2.5-1.6.6-.8.8-1.7.8-2.8s-.3-2-.8-2.8-1.3-1.4-2.2-1.7c-1-.3-2.6-.5-4.9-.5h-6.5v9.8zm0 15h8.1c1.4 0 2.4-.1 2.9-.2 1-.2 1.8-.5 2.5-.9s1.2-1 1.6-1.8.6-1.7.6-2.7c0-1.2-.3-2.3-.9-3.2-.6-.9-1.5-1.5-2.6-1.9s-2.7-.5-4.7-.5h-7.5v11.2zm24.8-12c0-5.4 1.4-9.6 4.3-12.6s6.6-4.6 11.2-4.6c3 0 5.7.7 8.1 2.1 2.4 1.4 4.2 3.4 5.5 6s1.9 5.5 1.9 8.7c0 3.3-.7 6.2-2 8.8s-3.2 4.6-5.6 5.9-5.1 2-7.9 2c-3.1 0-5.8-.7-8.2-2.2s-4.2-3.5-5.5-6c-1.2-2.5-1.8-5.2-1.8-8.1zm4.4.1c0 3.9 1.1 7 3.2 9.2s4.7 3.4 7.9 3.4 5.9-1.1 8-3.4 3.1-5.5 3.1-9.7c0-2.6-.4-4.9-1.3-6.9s-2.2-3.5-3.9-4.6-3.6-1.6-5.8-1.6c-3 0-5.7 1-7.8 3.1s-3.4 5.6-3.4 10.5zm28.8 15.7l12.5-16.9-11-15.5h5.1l5.9 8.3c1.2 1.7 2.1 3.1 2.6 4 .7-1.2 1.6-2.4 2.6-3.7l6.5-8.6h4.7l-11.4 15.3 12.3 17.2h-5.3l-8.2-11.6c-.5-.7-.9-1.4-1.4-2.2-.7 1.2-1.2 2-1.5 2.4l-8.1 11.3h-5.3zM3.5 293.7v-16.4h2v9.4l4.8-4.8h2.6l-4.5 4.4 5 7.5h-2.5L7 287.7 5.6 289v4.7H3.5zm27.5-14v-2.3h2v2.3h-2zm0 14v-11.9h2v11.9h-2zm25.5-1.8l.3 1.8c-.6.1-1.1.2-1.5.2-.7 0-1.3-.1-1.7-.3-.4-.2-.7-.5-.8-.9-.2-.4-.2-1.2-.2-2.4v-6.8H51v-1.6h1.5V279l2-1.2v4.2h2v1.6h-2v6.9c0 .6 0 .9.1 1.1s.2.3.3.4c.2.1.4.1.7.1.2-.1.5-.1.9-.2zm26.1-2l2.1.3c-.3 1.2-.9 2.2-1.8 2.8-.9.7-2 1-3.4 1-1.7 0-3.1-.5-4.1-1.6s-1.5-2.6-1.5-4.5c0-2 .5-3.5 1.5-4.7s2.4-1.7 4-1.7 2.9.5 3.9 1.6 1.5 2.6 1.5 4.6v.5h-8.9c.1 1.3.4 2.3 1.1 3s1.5 1 2.5 1c.7 0 1.4-.2 1.9-.6.4-.2.8-.8 1.2-1.7zm-6.7-3.2h6.6c-.1-1-.3-1.7-.8-2.2-.6-.8-1.5-1.2-2.5-1.2-.9 0-1.7.3-2.3.9s-.9 1.4-1 2.5zm57.4 2.7l2 .3c-.2 1.4-.8 2.4-1.7 3.2-.9.8-2 1.2-3.3 1.2-1.6 0-2.9-.5-3.9-1.6s-1.5-2.6-1.5-4.6c0-1.3.2-2.4.6-3.4s1.1-1.7 1.9-2.2c.9-.5 1.8-.7 2.8-.7 1.3 0 2.3.3 3.2 1s1.3 1.6 1.6 2.8l-2 .3c-.2-.8-.5-1.4-1-1.8s-1-.6-1.7-.6c-1 0-1.8.4-2.5 1.1-.6.7-1 1.9-1 3.5s.3 2.8.9 3.5 1.4 1.1 2.4 1.1c.8 0 1.5-.2 2-.7.7-.7 1-1.4 1.2-2.4zm19.6 4.3v-16.4h2v16.4h-2zm28.9 0V292c-.9 1.3-2.2 2-3.8 2-.7 0-1.4-.1-2-.4s-1.1-.6-1.4-1-.5-.9-.6-1.5c-.1-.4-.1-1-.1-1.9v-7.4h2v6.6c0 1.1 0 1.8.1 2.1.1.5.4.9.8 1.2.4.3.9.5 1.5.5s1.2-.2 1.7-.5.9-.7 1.1-1.3.3-1.3.3-2.3v-6.4h2v11.9l-1.6.1zm22.8 0h-1.9v-16.4h2v5.9c.9-1.1 1.9-1.6 3.3-1.6.7 0 1.4.1 2.1.4.7.3 1.2.7 1.6 1.2.4.5.8 1.2 1 1.9.2.8.4 1.6.4 2.4 0 2-.5 3.6-1.5 4.7s-2.2 1.7-3.6 1.7-2.5-.6-3.3-1.8l-.1 1.6zm0-6c0 1.4.2 2.5.6 3.1.6 1 1.5 1.6 2.6 1.6.9 0 1.6-.4 2.3-1.1s1-1.9 1-3.4c0-1.6-.3-2.7-.9-3.4s-1.4-1.1-2.2-1.1c-.9 0-1.6.4-2.3 1.1s-1.1 1.8-1.1 3.2zM197.9 0H22C16.7 0 11.8 1.9 8 5 3.1 9 0 15.1 0 22v179c0 12.1 9.8 22 22 22h176c2.3 0 4.5-.3 6.5-1 9-2.8 15.5-11.1 15.5-21V22c-.1-12.2-10-22-22.1-22zm17.3 141.4c0 19.4-15.7 35.1-35.1 35.1H39.8c-19.4 0-35.1-15.7-35.1-35.1V81.6c0-19.4 15.7-35.1 35.1-35.1h140.3c19.4 0 35.1 15.7 35.1 35.1v59.8z"/><path fill="#073F54" d="M74.7 126.2c0 12.1-9.8 22-22 22h92.4V96.7c0-12.1 9.8-22 22-22H74.7v51.5z"/></svg>