<svg viewBox="0 0 776.2 285.8"><path d="M127.1 271.2c.2 0 .5.1.7.3l1.7 1.9c-1.3 1.5-3 2.8-4.9 3.6-1.9.9-4.2 1.3-6.9 1.3-2.4 0-4.5-.4-6.4-1.2-1.9-.8-3.5-2-4.9-3.4-1.4-1.5-2.4-3.2-3.1-5.3-.7-2-1.1-4.3-1.1-6.8s.4-4.7 1.2-6.8c.8-2 1.9-3.8 3.4-5.3 1.4-1.5 3.2-2.6 5.2-3.4 2-.8 4.2-1.2 6.7-1.2 2.4 0 4.5.4 6.2 1.1 1.7.7 3.3 1.8 4.6 3l-1.4 2c-.1.2-.2.3-.4.4s-.3.1-.6.1c-.2 0-.4-.1-.6-.2-.2-.1-.5-.3-.8-.5-.3-.2-.7-.4-1.1-.7s-.9-.5-1.5-.7c-.6-.2-1.2-.4-2-.5-.7-.1-1.6-.2-2.6-.2-1.7 0-3.3.3-4.8.9-1.4.6-2.7 1.5-3.7 2.6s-1.9 2.5-2.4 4.1c-.6 1.6-.9 3.4-.9 5.4 0 2 .3 3.8.9 5.4.6 1.6 1.4 2.9 2.4 4s2.2 1.9 3.6 2.5c1.4.6 2.9.9 4.5.9 1 0 1.8-.1 2.6-.2s1.5-.3 2.2-.5c.7-.2 1.3-.5 1.8-.9s1.1-.8 1.7-1.3c.2-.3.4-.4.7-.4zM148.5 254.5c1.7 0 3.2.3 4.6.8 1.4.6 2.5 1.4 3.5 2.4.9 1 1.7 2.3 2.2 3.7.5 1.5.8 3.1.8 4.9 0 1.8-.3 3.5-.8 4.9-.5 1.5-1.2 2.7-2.2 3.7s-2.1 1.8-3.5 2.4c-1.4.6-2.9.8-4.6.8s-3.2-.3-4.6-.8c-1.4-.6-2.5-1.3-3.5-2.4-1-1-1.7-2.3-2.2-3.7-.5-1.5-.8-3.1-.8-4.9 0-1.8.3-3.4.8-4.9.5-1.5 1.3-2.7 2.2-3.7 1-1 2.1-1.8 3.5-2.4 1.4-.5 2.9-.8 4.6-.8zm0 20.6c2.3 0 4-.8 5.1-2.3 1.1-1.5 1.7-3.7 1.7-6.4s-.6-4.9-1.7-6.4-2.8-2.3-5.1-2.3c-1.2 0-2.2.2-3 .6-.9.4-1.6 1-2.1 1.7-.6.7-1 1.7-1.3 2.7-.3 1.1-.4 2.3-.4 3.7s.1 2.6.4 3.7c.3 1.1.7 2 1.3 2.7s1.3 1.3 2.1 1.7c.9.4 1.9.6 3 .6zM170 278v-19.6l-2.6-.3c-.3-.1-.6-.2-.8-.4-.2-.2-.3-.4-.3-.7v-1.7h3.6v-2.2c0-1.3.2-2.5.6-3.5s.9-1.9 1.6-2.6c.7-.7 1.5-1.2 2.5-1.6 1-.4 2.1-.5 3.3-.5 1 0 2 .2 2.9.5l-.1 2c0 .3-.1.5-.4.5-.2.1-.6.1-1 .1h-.7c-.7 0-1.3.1-1.9.3-.6.2-1.1.5-1.5.9-.4.4-.7.9-.9 1.6-.2.7-.3 1.5-.3 2.5v2.1h6.7v2.9H174V278h-4zM189.9 278v-19.6l-2.6-.3c-.3-.1-.6-.2-.8-.4-.2-.2-.3-.4-.3-.7v-1.7h3.6v-2.2c0-1.3.2-2.5.6-3.5s.9-1.9 1.6-2.6c.7-.7 1.5-1.2 2.5-1.6 1-.4 2.1-.5 3.3-.5 1 0 2 .2 2.9.5l-.1 2c0 .3-.1.5-.4.5-.2.1-.6.1-1 .1h-.7c-.7 0-1.3.1-1.9.3-.6.2-1.1.5-1.5.9-.4.4-.7.9-.9 1.6-.2.7-.3 1.5-.3 2.5v2.1h6.7v2.9h-6.5V278h-4.2zM218 254.5c1.4 0 2.7.2 3.8.7s2.2 1.1 3 2c.9.9 1.5 2 2 3.2.5 1.3.7 2.7.7 4.4 0 .6-.1 1.1-.2 1.3-.1.2-.4.3-.8.3h-15.3c0 1.5.2 2.7.6 3.8.4 1.1.9 2 1.5 2.7.6.7 1.4 1.3 2.3 1.6.9.4 1.9.5 3 .5 1 0 1.9-.1 2.6-.4.7-.2 1.4-.5 1.9-.8.5-.3 1-.5 1.3-.8.4-.2.7-.4.9-.4.3 0 .6.1.8.4l1.1 1.5c-.5.6-1.1 1.1-1.8 1.6-.7.4-1.4.8-2.2 1.1s-1.6.5-2.5.6c-.9.1-1.7.2-2.5.2-1.6 0-3.1-.3-4.4-.8-1.3-.5-2.5-1.3-3.5-2.4s-1.7-2.3-2.3-3.9c-.5-1.5-.8-3.3-.8-5.3 0-1.6.2-3.1.7-4.5s1.2-2.6 2.1-3.6 2.1-1.8 3.4-2.4c1.4-.3 2.9-.6 4.6-.6zm.1 3c-2 0-3.5.6-4.6 1.7-1.1 1.1-1.8 2.7-2.1 4.7h12.5c0-.9-.1-1.8-.4-2.6-.3-.8-.6-1.5-1.1-2s-1.1-1-1.8-1.3c-.8-.3-1.6-.5-2.5-.5zM246.4 254.5c1.4 0 2.7.2 3.8.7s2.2 1.1 3 2c.8.9 1.5 2 2 3.2.5 1.3.7 2.7.7 4.4 0 .6-.1 1.1-.2 1.3-.1.2-.4.3-.8.3h-15.3c0 1.5.2 2.7.6 3.8.4 1.1.9 2 1.5 2.7.6.7 1.4 1.3 2.3 1.6.9.4 1.9.5 3 .5 1 0 1.9-.1 2.6-.4.7-.2 1.4-.5 1.9-.8.5-.3 1-.5 1.3-.8.4-.2.7-.4.9-.4.3 0 .6.1.8.4l1.1 1.5c-.5.6-1.1 1.1-1.8 1.6-.7.4-1.4.8-2.2 1.1s-1.6.5-2.5.6c-.9.1-1.7.2-2.5.2-1.6 0-3.1-.3-4.4-.8-1.3-.5-2.5-1.3-3.5-2.4s-1.7-2.3-2.3-3.9c-.5-1.5-.8-3.3-.8-5.3 0-1.6.2-3.1.7-4.5s1.2-2.6 2.1-3.6 2.1-1.8 3.4-2.4c1.4-.3 2.9-.6 4.6-.6zm.1 3c-2 0-3.5.6-4.6 1.7-1.1 1.1-1.8 2.7-2.1 4.7h12.5c0-.9-.1-1.8-.4-2.6-.3-.8-.6-1.5-1.1-2s-1.1-1-1.8-1.3c-.8-.3-1.6-.5-2.5-.5zM304.1 245c1.2 0 2.3.2 3.3.6 1 .4 1.8.9 2.6 1.5s1.3 1.4 1.7 2.2c.4.8.7 1.7.7 2.6l-2.5.5h-.2c-.2 0-.4-.1-.6-.2s-.3-.3-.4-.6c-.1-.4-.3-.8-.5-1.2s-.5-.8-.9-1.2c-.4-.3-.8-.6-1.3-.9-.5-.2-1.1-.3-1.8-.3-.8 0-1.4.1-2 .4-.6.2-1.1.6-1.6 1s-.8.9-1 1.5c-.2.6-.4 1.2-.4 1.9 0 .5.1 1 .2 1.5s.3 1 .6 1.5.6 1 1 1.5.9 1.1 1.5 1.7l9.4 9.5c.6-1 1-2.1 1.4-3.2.3-1.1.6-2.2.7-3.4 0-.3.1-.5.3-.7.2-.2.4-.2.6-.2h2.5c0 1.7-.3 3.5-.8 5.1s-1.3 3.3-2.3 4.7l6.8 6.9H317c-.4 0-.8-.1-1.1-.2-.3-.1-.6-.3-.9-.7l-3.3-3.3c-1.4 1.4-3.1 2.5-4.9 3.3-1.9.8-3.9 1.2-6.1 1.2-1.2 0-2.4-.2-3.6-.6-1.2-.4-2.2-1-3.1-1.8-.9-.8-1.7-1.7-2.2-2.9-.6-1.1-.8-2.4-.8-3.8 0-1.1.2-2.1.5-3 .4-.9.8-1.8 1.5-2.6.6-.8 1.4-1.5 2.2-2.2s1.8-1.2 2.8-1.6c-.9-1.2-1.6-2.3-2-3.4s-.7-2.3-.7-3.4.2-2.1.6-3.1c.4-1 1-1.8 1.7-2.5.8-.7 1.7-1.3 2.8-1.7 1.1-.2 2.3-.4 3.7-.4zm-9.1 24c0 1 .2 1.9.5 2.6.4.8.8 1.4 1.4 1.9.6.5 1.3.9 2 1.2s1.5.4 2.3.4c1.7 0 3.2-.3 4.6-.9 1.4-.6 2.5-1.4 3.6-2.5l-9.6-9.7c-1.6.9-2.8 1.9-3.6 3.1-.8 1.1-1.2 2.4-1.2 3.9zM373 250.4c-.1.2-.3.4-.4.5s-.3.2-.6.2-.6-.1-.9-.4c-.3-.3-.8-.5-1.3-.9s-1.2-.6-1.9-.9-1.6-.4-2.7-.4c-1 0-1.9.1-2.6.4s-1.4.6-1.9 1.1-.9 1-1.1 1.6c-.3.6-.4 1.3-.4 2 0 .9.2 1.7.7 2.3.4.6 1 1.1 1.8 1.5.7.4 1.6.8 2.5 1.1.9.3 1.9.6 2.9 1 1 .3 1.9.7 2.9 1.1.9.4 1.8.9 2.5 1.6s1.3 1.4 1.8 2.3c.4.9.7 2.1.7 3.4 0 1.4-.2 2.8-.7 4-.5 1.3-1.2 2.3-2.1 3.3s-2.1 1.7-3.4 2.2c-1.4.5-2.9.8-4.6.8-2.1 0-4-.4-5.8-1.1s-3.2-1.8-4.5-3.1l1.3-2.1c.1-.2.3-.3.4-.4.2-.1.4-.2.6-.2.3 0 .7.2 1.1.5.4.3.9.7 1.5 1.1.6.4 1.4.8 2.2 1.1.9.3 1.9.5 3.2.5 1 0 2-.1 2.8-.4.8-.3 1.5-.7 2.1-1.2.6-.5 1-1.2 1.3-1.9s.5-1.5.5-2.4c0-1-.2-1.8-.7-2.4-.4-.6-1-1.2-1.8-1.6-.7-.4-1.6-.8-2.5-1.1-.9-.3-1.9-.6-2.9-.9-1-.3-1.9-.7-2.9-1.1-.9-.4-1.8-.9-2.5-1.6-.7-.7-1.3-1.5-1.8-2.4-.4-1-.7-2.2-.7-3.6 0-1.2.2-2.3.7-3.3.4-1.1 1.1-2 1.9-2.9.8-.8 1.9-1.5 3.2-2s2.7-.8 4.3-.8c1.8 0 3.5.3 5 .9 1.5.6 2.8 1.4 3.9 2.5l-1.1 2.1zM384.3 285.8v-30.9h2.4c.6 0 .9.3 1.1.8l.3 2.7c1-1.2 2.1-2.2 3.4-2.9s2.7-1.1 4.4-1.1c1.3 0 2.5.3 3.6.8s2 1.3 2.8 2.3c.8 1 1.3 2.2 1.8 3.7s.6 3.2.6 5.1c0 1.7-.2 3.3-.7 4.7s-1.1 2.7-2 3.8c-.9 1.1-1.9 1.9-3.1 2.5-1.2.6-2.6.9-4.2.9-1.4 0-2.6-.2-3.7-.7-1-.5-1.9-1.1-2.7-2v10.2l-4 .1zm10.3-28c-1.3 0-2.5.3-3.5.9-1 .6-1.9 1.5-2.7 2.6v11.2c.7 1 1.6 1.7 2.4 2.1.9.4 1.9.6 3 .6 2.1 0 3.8-.8 4.9-2.3s1.7-3.7 1.7-6.6c0-1.5-.1-2.8-.4-3.9-.3-1.1-.6-2-1.1-2.7s-1.1-1.2-1.8-1.5c-.8-.3-1.6-.4-2.5-.4zM423.3 254.5c1.7 0 3.2.3 4.6.8 1.4.6 2.5 1.4 3.5 2.4.9 1 1.7 2.3 2.2 3.7.5 1.5.8 3.1.8 4.9 0 1.8-.3 3.5-.8 4.9-.5 1.5-1.2 2.7-2.2 3.7s-2.1 1.8-3.5 2.4c-1.4.6-2.9.8-4.6.8s-3.2-.3-4.6-.8c-1.4-.6-2.5-1.3-3.5-2.4-1-1-1.7-2.3-2.2-3.7-.5-1.5-.8-3.1-.8-4.9 0-1.8.3-3.4.8-4.9.5-1.5 1.3-2.7 2.2-3.7 1-1 2.1-1.8 3.5-2.4 1.4-.5 3-.8 4.6-.8zm0 20.6c2.3 0 4-.8 5.1-2.3 1.1-1.5 1.7-3.7 1.7-6.4s-.6-4.9-1.7-6.4-2.8-2.3-5.1-2.3c-1.2 0-2.2.2-3 .6-.8.4-1.6 1-2.1 1.7-.6.7-1 1.7-1.3 2.7-.3 1.1-.4 2.3-.4 3.7s.1 2.6.4 3.7c.3 1.1.7 2 1.3 2.7s1.3 1.3 2.1 1.7c.9.4 1.9.6 3 .6zM443.9 278v-23.1h2.3c.4 0 .7.1.9.2s.3.5.3.9l.3 3.6c.8-1.6 1.8-2.9 2.9-3.8 1.2-.9 2.5-1.4 4.1-1.4.6 0 1.2.1 1.7.2s1 .3 1.4.6l-.5 3c-.1.4-.3.6-.7.6-.2 0-.5-.1-1-.2s-1.1-.2-1.8-.2c-1.4 0-2.6.4-3.5 1.2-.9.8-1.7 2-2.4 3.6V278h-4zM473.8 278.3c-1.8 0-3.2-.5-4.2-1.5s-1.5-2.5-1.5-4.4v-14.1h-2.8c-.2 0-.4-.1-.6-.2-.2-.1-.2-.4-.2-.7v-1.6l3.8-.5.9-7.1c0-.2.1-.4.3-.6.2-.1.4-.2.6-.2h2v7.9h6.6v2.9h-6.6V272c0 1 .2 1.7.7 2.2s1.1.7 1.8.7c.4 0 .8-.1 1.1-.2.3-.1.6-.2.8-.4s.4-.3.6-.4c.2-.1.3-.2.4-.2.2 0 .4.1.6.4l1.2 1.9c-.7.7-1.5 1.2-2.5 1.5s-2 .8-3 .8zM501.5 258.7c-.2.3-.5.5-.8.5-.2 0-.5-.1-.8-.3-.3-.2-.6-.4-1.1-.6-.4-.2-.9-.4-1.5-.6s-1.3-.3-2-.3-1.3.1-1.8.3-1 .4-1.4.7c-.4.3-.7.7-.9 1.1-.2.4-.3.8-.3 1.3 0 .6.2 1.1.5 1.5.3.4.8.7 1.4 1 .6.3 1.2.5 1.9.8.7.2 1.4.5 2.2.7.8.3 1.5.5 2.2.8.7.3 1.4.7 1.9 1.1.6.5 1 1 1.4 1.7.3.7.5 1.5.5 2.4 0 1.1-.2 2-.6 2.9-.4.9-.9 1.7-1.7 2.3-.7.7-1.7 1.2-2.7 1.6-1.1.4-2.3.6-3.7.6-1.6 0-3.1-.3-4.4-.8-1.3-.5-2.4-1.2-3.3-2l1-1.5c.1-.2.3-.3.4-.5.2-.1.4-.2.7-.2s.6.1.9.3c.3.2.7.4 1.1.7.4.3 1 .5 1.6.7.6.2 1.4.3 2.3.3.8 0 1.5-.1 2.1-.3.6-.2 1.1-.5 1.5-.8.4-.3.7-.8.9-1.2.2-.5.3-.9.3-1.5s-.2-1.2-.5-1.6c-.3-.4-.8-.8-1.4-1.1s-1.2-.6-1.9-.8-1.5-.5-2.2-.7c-.8-.2-1.5-.5-2.2-.8-.7-.3-1.4-.7-1.9-1.2-.6-.5-1-1.1-1.4-1.7-.3-.7-.5-1.5-.5-2.5 0-.9.2-1.7.5-2.5s.9-1.5 1.6-2.1c.7-.6 1.6-1.1 2.6-1.5 1-.4 2.2-.5 3.5-.5 1.5 0 2.9.2 4.1.7s2.2 1.1 3.1 2l-1.2 1.6zM540 278v-32.6h10.4c2 0 3.7.2 5.2.6 1.4.4 2.6 1 3.6 1.7.9.7 1.6 1.6 2.1 2.7.4 1.1.7 2.2.7 3.6 0 .8-.1 1.6-.4 2.3-.3.7-.6 1.4-1.1 2.1-.5.6-1.1 1.2-1.9 1.7-.8.5-1.7.9-2.7 1.2 2.4.5 4.2 1.3 5.4 2.6 1.2 1.2 1.8 2.9 1.8 4.9 0 1.4-.3 2.6-.8 3.8-.5 1.1-1.3 2.1-2.2 2.9s-2.2 1.5-3.6 1.9c-1.4.4-3 .7-4.9.7L540 278zm4.4-18h5.8c1.2 0 2.3-.1 3.2-.4.9-.3 1.7-.7 2.3-1.1s1-1.1 1.3-1.8c.3-.7.4-1.4.4-2.3 0-1.9-.6-3.3-1.7-4.2-1.2-.9-2.9-1.3-5.4-1.3h-6l.1 11.1zm0 3.1v11.4h7.1c1.3 0 2.3-.1 3.2-.4.9-.3 1.6-.7 2.2-1.2.6-.5 1-1.1 1.3-1.9.3-.7.4-1.5.4-2.4 0-1.7-.6-3-1.8-4-1.2-1-3-1.5-5.4-1.5h-7zM590.3 278h-1.8c-.4 0-.7-.1-1-.2-.2-.1-.4-.4-.5-.8l-.5-2.1-1.8 1.5c-.6.5-1.2.8-1.8 1.1s-1.3.5-2 .7c-.7.2-1.5.2-2.4.2-.9 0-1.7-.1-2.5-.4-.8-.3-1.5-.6-2-1.1-.6-.5-1-1.1-1.4-1.9s-.5-1.7-.5-2.7c0-.9.3-1.8.8-2.6s1.3-1.6 2.4-2.3c1.1-.7 2.6-1.2 4.4-1.6s4-.6 6.6-.6v-1.8c0-1.8-.4-3.2-1.2-4.1-.8-.9-1.9-1.4-3.4-1.4-1 0-1.8.1-2.5.4-.7.3-1.3.5-1.8.8-.5.3-.9.6-1.3.8-.4.2-.7.4-1.1.4-.3 0-.5-.1-.7-.2-.2-.1-.4-.3-.5-.5l-.7-1.3c1.3-1.2 2.6-2.1 4.1-2.8 1.5-.6 3.1-.9 4.9-.9 1.3 0 2.4.2 3.4.6s1.8 1 2.5 1.8 1.2 1.7 1.5 2.8c.3 1.1.5 2.3.5 3.6l.3 14.6zm-10.5-2.5c.7 0 1.4-.1 2-.2.6-.1 1.2-.3 1.7-.6s1-.6 1.5-1 .9-.8 1.4-1.3v-4.8c-1.9 0-3.5.1-4.8.4-1.3.2-2.4.5-3.2.9-.8.4-1.4.8-1.8 1.4-.4.5-.6 1.1-.6 1.7 0 .6.1 1.1.3 1.6.2.4.5.8.8 1.1.3.3.7.5 1.2.6.5.1.9.2 1.5.2zM601 278v-23.1h2.3c.4 0 .7.1.9.2s.3.5.3.9l.3 3.6c.8-1.6 1.8-2.9 2.9-3.8 1.2-.9 2.5-1.4 4.1-1.4.6 0 1.2.1 1.7.2s1 .3 1.4.6l-.5 3c-.1.4-.3.6-.7.6-.2 0-.5-.1-1-.2-.4-.1-1.1-.2-1.8-.2-1.4 0-2.6.4-3.5 1.2-.9.8-1.7 2-2.4 3.6V278h-4z"/><g><path d="M0 177.4C0 166.9 8.3 165 20.6 165c9.2.7 16.8.5 23.2 7.8 4.5 5.2 8.1 11.1 15.9 11.1 7.1 0 12.3-5.5 12.3-13.3 0-11.1-9.5-17.5-19-21.8C28.5 138 2.6 125.4 2.6 92c0-27.5 33.4-33.7 59-33.7 11.1 0 56.9 1.4 56.9 31.5 0 10.7-8.5 13.3-19.4 13.3-14.9 0-19.9-4.3-28.5-12.8-2.8-2.6-6.2-4.5-10.2-4.5-5.9 0-10.4 4.7-10.4 11.4 0 13 16.8 19.2 27.5 24.4 22.5 11.4 44.3 20.2 44.3 46 0 43.6-38.9 40.8-64.5 42.9C36.8 212.2 0 206.1 0 177.4zM156.5 24.9c0-13.8 1-24.9 18.5-24.9 19 0 27 5 27 24.2 0 12.6-.9 25.1-.9 37.7 0 18.3-2.4 50.3 10.7 50.3 9.5 0 15.2-16.6 18.7-23.5 7.4-16.1 12.1-30.8 34.9-30.8 8.3 0 16.8 2.4 16.8 10.4 0 3.8-1.9 7.6-3.6 11.1-8.8 19.4-20.6 39.4-20.6 54.1 0 20.4 21.6 56.2 24.7 65.4.2 1.2.2 2.4.2 3.3 0 8.1-6.4 9-15.4 9-12.8 0-24.2-3.6-29.9-17.8-7.1-13.5-14.9-37.2-25.8-37.2-10.7 0-10 18-10 24.9-.7 13 2.4 29.6-16.8 29.6-14-.7-28.5 0-28.5-21.6V24.9zM434.4 136.3c0 10.4.5 20.4 1.2 30.1.7 12.8 13.8 21.3 13.8 33.2 0 10-10.7 11.6-19.2 11.6-14 0-27-5.5-40.1-5.5-10.9 0-22.1 4.7-33.2 4.7-18.3 0-35.8-11.4-39.1-30.4-1.7-8.8-1.9-17.5-1.9-26.3 0-15.9.2-32 .2-47.9 0-13.8-11.9-23.2-11.9-34.6 0-14 24.9-12.3 37.9-12.3 11.1 0 19.2 2.6 19.2 17.8 0 25.6-.7 51-.7 76.1 0 11.6 1.7 30.1 14.7 30.1 16.6 0 14.7-28.5 14.7-44.8 0-16.1-.2-32-.2-48.6 0-15.9-2.6-31.3 25.6-31.3 14.7 0 20.6 5.2 20.6 27.7l-1.6 50.4zM487.1 148.7c0-21.6.7-33.9-1.2-46-1.9-12.6-11.4-23-11.4-32.7 0-11.6 16.8-12.6 29.4-12.6 11.1 0 19 6.6 28.2 6.6 9.7 0 21.6-6.4 29.6-6.4 11.6 0 17.8 6.4 17.8 18.3 0 19.4-17.8 15.9-30.4 18-18.5 3.1-17.1 24.7-17.8 38.2-.7 17.8.2 35.3.2 53.1 0 17.1-1.9 26.1-24.2 26.1-13.3 0-22.5-4-21.8-22.5l1.6-40.1zM723.9 172.2c-4.5 20.9-23.2 37.7-45.1 38.6-4 .2-8.1.2-11.9.2-38.7 0-61.2-18.7-61.2-58.3-.5-10-1.2-20.4-1.2-30.4 0-45.1 26.1-64.3 65.9-64.3 29.2 0 53.6 18.5 55 51.7.2 8.3.5 16.8.5 25.1.2 12.5.7 25.3-2 37.4zm-58.5-85.7c-14.2 0-14.7 17.3-14.7 28.7 0 27.3-5.2 67.6 14.5 67.6 17.5 0 15.4-36.3 15.4-45.5 0-20.4 1.4-50.8-15.2-50.8z"/></g><path d="M776.2 26.4c0-4-3.2-7.2-7.2-7.2-3.7 0-6.8 2.8-7.2 6.4-2.9-1.5-6.3-2.4-9.8-2.4-11.9 0-21.6 9.7-21.6 21.6s9.7 21.6 21.6 21.6c11.9 0 21.6-9.7 21.6-21.6 0-4.2-1.2-8.1-3.3-11.4 3.4-.6 5.9-3.5 5.9-7zm-24.2 26c-4.2 0-7.6-3.4-7.6-7.6s3.4-7.6 7.6-7.6 7.6 3.4 7.6 7.6-3.4 7.6-7.6 7.6z"/></svg>