<svg id="Layer_1" viewBox="0 0 249.3 55.8"><style>.st0{fill:#a3195b}</style><path d="M89.3 24.6c0 7.3-5.8 10.8-13.7 10.8-6.4 0-13.9-3.7-13.9-10.9 0-1.2.3-1.4 1.5-1.4h5c1.2 0 1.8.2 1.9 1.4.1.7.3 1.3 1 2.1 1 1.2 3.1 1.7 5 1.7 2.8 0 5.1-.6 5.1-3.5s-4.6-2.9-9-4.3c-5.2-1.6-10-3.7-10-10.3 0-6.7 6.1-10 12.5-10.3 6.5 0 13.7 3 13.7 9.8 0 1.2-.3 1.4-1.5 1.4h-5.1c-1 0-1.1-.7-1.4-1.4-.2-.5-.5-.9-1.1-1.5-1-.9-2.8-1.4-4.4-1.4-1.7 0-4.5.7-4.5 3 0 3.1 7.6 4.3 9.6 5.1 3.9 1.2 9.3 2.7 9.3 9.7zM119.8 2.3v4.3c0 .9-.3 1.5-1.5 1.5h-7.9v25.1c0 1.2-.6 1.5-1.5 1.5h-5.1c-.9 0-1.5-.3-1.5-1.5V8h-7.9c-1.2 0-1.5-.6-1.5-1.5V2.3c0-.9.3-1.5 1.5-1.5h23.9c1.2 0 1.5.5 1.5 1.5zM150 34.7h-5.4c-1.1 0-1.5-.3-2-1.5l-1.4-4.1h-12.6l-1.4 4.1c-.4 1.2-.8 1.5-2 1.5h-5.4c-1.1 0-1.1-.8-.9-1.4l11.4-30.9c.4-1.1 1-1.6 2.1-1.6h4.9c1.1 0 1.6.5 2.1 1.6l11.4 30.9c.4.6.4 1.4-.8 1.4zm-11.2-12.9l-3.9-11.4-3.9 11.4h7.8zM183 2.3v30.9c0 .9-.3 1.5-1.5 1.5h-4.7c-1.3 0-1.6-.7-2.3-1.8l-10.9-17.7v17.9c0 1.2-.6 1.5-1.5 1.5H157c-.9 0-1.5-.3-1.5-1.5V2.3c0-.9.3-1.5 1.5-1.5h4.8c1.3 0 1.6.7 2.3 1.8L175 20.2V2.3c0-1.2.6-1.5 1.5-1.5h4.9c1 0 1.6.3 1.6 1.5zM203.4 35.5c-6.1 0-13.8-3.6-13.8-11.6V11.6c0-8.1 7.7-11.6 13.8-11.6 6.4 0 12.7 3.2 13.4 9.8 0 1.2-.4 1.5-1.6 1.5h-4.9c-1.1 0-1.1-1-1.5-1.6-1.1-1.7-2.5-2.5-5.3-2.5-3.4 0-5.7 1.9-5.7 5.2v10.7c0 3.3 2.3 5.2 5.7 5.2 2.8 0 5-1 5.4-3.5.2-1 .3-1.9 1.4-1.9h5.1c1.1 0 1.5.5 1.5 1.8-.1 6.6-7.2 10.8-13.5 10.8zM249.3 29v4.2c0 .9-.3 1.5-1.5 1.5h-23.1c-1.2 0-1.5-.6-1.5-1.5V2.3c0-.9.3-1.5 1.5-1.5h22.2c1.2 0 1.5.6 1.5 1.5v4.3c0 .9-.3 1.5-1.5 1.5h-15.6v5.6h13.8c1.2 0 1.5.6 1.5 1.5v4c0 .9-.3 1.5-1.5 1.5h-13.8v6.8h16.4c1.3 0 1.6.5 1.6 1.5z"/><g><path d="M7.7 52.8c0 2-1.6 3-3.8 3-1.8 0-3.9-1-3.9-3 0-.3.1-.4.4-.4h1.4c.3 0 .5 0 .5.4 0 .2.1.4.3.6.3.3.9.5 1.4.5.8 0 1.4-.2 1.4-1s-1.3-.8-2.5-1.2c-1.4-.5-2.8-1-2.8-2.9s1.7-2.8 3.5-2.9c1.8 0 3.8.8 3.8 2.7 0 .4-.1.4-.4.4H5.6c-.3 0-.3-.2-.4-.4-.1-.1-.1-.3-.3-.4-.3-.3-.8-.4-1.2-.4-.5 0-1.3.2-1.3.8 0 .9 2.1 1.2 2.7 1.4 1.1.4 2.6.8 2.6 2.8zM35.7 46.5L32.5 50l3.1 5.1c.1.2.1.5-.2.5h-1.8c-.3 0-.5-.2-.7-.5 0 0-1.3-2.2-2.1-3.4l-.9.9v2.6c0 .3-.2.4-.4.4h-1.4c-.3 0-.4-.1-.4-.4v-8.6c0-.3.1-.4.4-.4h1.4c.2 0 .4.1.4.4v3.2l3-3.3c.3-.3.4-.3.7-.3h1.9c.3-.1.3.2.2.3zM63.3 55.6h-1.5c-.3 0-.4-.1-.5-.4l-.4-1.2h-3.5l-.4 1.1c-.1.3-.2.4-.5.4H55c-.3 0-.3-.2-.2-.4l3.2-8.6c.1-.3.3-.4.6-.4H60c.3 0 .5.1.6.4l3.2 8.6c-.2.2-.2.5-.5.5zM60.2 52l-1.1-3.2L58 52h2.2zM89.4 46.5v1.2c0 .3-.1.4-.4.4h-2.2v7c0 .3-.2.4-.4.4H85c-.3 0-.4-.1-.4-.4v-7h-2.2c-.3 0-.4-.2-.4-.4v-1.2c0-.3.1-.4.4-.4H89c.3 0 .4.2.4.4zM116.4 54v1.2c0 .3-.1.4-.4.4h-6.4c-.3 0-.4-.2-.4-.4v-8.6c0-.3.1-.4.4-.4h6.2c.3 0 .4.2.4.4v1.2c0 .3-.1.4-.4.4h-4.3v1.6h3.8c.3 0 .4.2.4.4v1.1c0 .3-.1.4-.4.4h-3.8v1.9h4.6c.2 0 .3.1.3.4zM165.8 52.8c0 2-1.6 3-3.8 3-1.8 0-3.9-1-3.9-3 0-.3.1-.4.4-.4h1.4c.3 0 .5 0 .5.4 0 .2.1.4.3.6.3.3.9.5 1.4.5.8 0 1.4-.2 1.4-1s-1.3-.8-2.5-1.2c-1.4-.5-2.8-1-2.8-2.9s1.7-2.8 3.5-2.9c1.8 0 3.8.8 3.8 2.7 0 .3-.1.4-.4.4h-1.4c-.3 0-.3-.2-.4-.4-.1-.1-.1-.3-.3-.4-.3-.3-.8-.4-1.2-.4-.5 0-1.3.2-1.3.8 0 .9 2.1 1.2 2.7 1.4 1 .4 2.6.8 2.6 2.8zM193.5 46.5v8.6c0 .3-.2.4-.4.4h-1.4c-.3 0-.4-.1-.4-.4v-3.2h-3.2v3.2c0 .3-.1.4-.4.4h-1.4c-.3 0-.4-.1-.4-.4v-8.6c0-.3.2-.4.4-.4h1.4c.3 0 .4.1.4.4v3.2h3.2v-3.2c0-.3.2-.4.4-.4h1.4c.2 0 .4.1.4.4zM221.4 52.5c0 2.3-2.2 3.2-3.9 3.2-1.7 0-3.8-1-3.8-3.2v-3.4c0-2.3 2.1-3.2 3.8-3.2 1.7 0 3.9 1 3.9 3.2v3.4zm-2.3-3.1c0-.9-.7-1.4-1.6-1.4-.9 0-1.6.5-1.6 1.4v3c0 .9.7 1.4 1.6 1.4.9 0 1.6-.5 1.6-1.4v-3zM249 49.5c0 2-1.3 3.3-3.8 3.3h-1.4v2.4c0 .3-.2.4-.4.4H242c-.3 0-.4-.1-.4-.4v-8.6c0-.3.1-.4.4-.4h3.2c2.5-.1 3.8 1.3 3.8 3.3zm-2.2 0c0-.7-.5-1.3-1.6-1.3h-1.4v2.7h1.4c1.1-.1 1.6-.7 1.6-1.4z"/></g><g><path class="st0" d="M44.9 36l-7.2-19.5-20.4 17-3 2.5H.1l6.3-12.4L18.3 0H54v36z"/></g></svg>