<svg viewBox="0 0 466.9 128.3"><path fill="none" d="M428.2 52.3c-2.4-3.9-5.6-7.3-9.1-10.1-1 3.2-1.7 6.6-1.9 10 3.5.7 7.2.7 11 .1zm-20.4-16.1c-4.3-1.4-8.9-2.1-13.7-1.9 2.4 5.3 6.2 9.7 10.9 12.9.6-3.8 1.5-7.4 2.8-11zm16.9-5.4c6.2 4.3 11.5 10.1 15.3 16.8 10.5-6.8 16.3-19.6 13.7-32.6-.1-.7-.3-1.4-.5-2-.6.1-1.3.2-1.9.3-11.2 2.3-20.5 8.8-26.6 17.5zm8.3 33.3c-.5.1-1.1.3-1.6.4-4.5.9-9 1.1-13.3.6 2.1 8.7 6.7 16.2 13 21.8 2.8-6.7 3.6-14.3 2.1-21.9 0-.3-.1-.6-.2-.9z"/><linearGradient id="a" gradientUnits="userSpaceOnUse" x1="416.031" y1="928.317" x2="413.781" y2="922.067" gradientTransform="translate(0 -871.442)"><stop offset="0" stop-color="#847811"/><stop offset=".07" stop-color="#9e8e17"/><stop offset=".152" stop-color="#b4a01d"/><stop offset=".249" stop-color="#c5af21"/><stop offset=".368" stop-color="#d0b924"/><stop offset=".535" stop-color="#d7be26"/><stop offset="1" stop-color="#d9c026"/></linearGradient><path fill="url(#a)" d="M428.2 52.3c4.4-.8 8.3-2.4 11.8-4.7-3.8-6.8-9.1-12.5-15.3-16.8-3.5-2.4-7.2-4.4-11.2-5.9-6.9-2.6-14.5-3.7-22.2-3-1.8.2-3.6.4-5.5.8-.8.2-1.6.3-2.5.6-2.7.7-4.4 3.4-3.9 6.1 0 .2.1.3.1.5.5 2.5 1.2 4.9 2.1 7.1 2.1-.8 4.3-1.5 6.7-2 2-.4 3.9-.6 5.9-.7 4.7-.2 9.4.5 13.7 1.9 4.1 1.4 7.9 3.4 11.2 6 3.5 2.8 6.6 6.2 9.1 10.1z"/><linearGradient id="b" gradientUnits="userSpaceOnUse" x1="433.027" y1="919.189" x2="429.777" y2="926.064" gradientTransform="translate(0 -871.442)"><stop offset="0" stop-color="#197a84"/><stop offset=".044" stop-color="#1e8893"/><stop offset=".128" stop-color="#269ca9"/><stop offset=".227" stop-color="#2cabba"/><stop offset=".35" stop-color="#30b6c5"/><stop offset=".522" stop-color="#32bccc"/><stop offset="1" stop-color="#33bece"/></linearGradient><path fill="url(#b)" d="M431.1 86.9c-6.3-5.6-10.9-13.1-13-21.8l-.3-1.5c-.8-3.8-1-7.6-.7-11.3.2-3.4.9-6.8 1.9-10-3.4-2.6-7.2-4.6-11.2-6-1.3 3.5-2.2 7.2-2.8 11-.7 4.6-.8 9.4-.2 14.2.2 1.5.4 3 .7 4.6C408.1 79 415 90 424.4 97.8c2 1.6 4.1 3.1 6.3 4.5 2.5 1.5 5.7.8 7.3-1.6 1.4-2.1 2.7-4.4 3.8-6.7-3.9-1.9-7.5-4.2-10.7-7.1z"/><linearGradient id="c" gradientUnits="userSpaceOnUse" x1="416.264" y1="904.865" x2="424.014" y2="904.615" gradientTransform="translate(0 -871.442)"><stop offset="0" stop-color="#873b66"/><stop offset=".052" stop-color="#994574"/><stop offset=".135" stop-color="#af5184"/><stop offset=".234" stop-color="#c05a91"/><stop offset=".355" stop-color="#cb609a"/><stop offset=".526" stop-color="#d264a0"/><stop offset="1" stop-color="#d465a1"/></linearGradient><path fill="url(#c)" d="M458 0c-3.5.1-7.1.5-10.7 1.4 2.7 3.3 4.7 7.3 5.9 11.6.2.7.4 1.3.5 2 2.6 13-3.3 25.7-13.7 32.6-3.3 2.1-7 3.7-11 4.5-.3.1-.5.1-.8.1-3.8.7-7.5.6-11.1-.1-.3 4.2 0 8.5 1 12.9 4.3.5 8.8.3 13.3-.6.5-.1 1.1-.2 1.6-.4 4.2-1 8.2-2.6 11.8-4.7 15.8-9.1 24.9-27.5 21.3-46.4 0-.1 0-.3-.1-.4-.7-3.3-1.7-6.5-3-9.5-.8-1.9-2.8-3.1-5-3z"/><path fill="none" d="M428.2 52.3c-2.4-3.9-5.6-7.3-9.1-10.1-1 3.2-1.7 6.6-1.9 10 3.5.7 7.2.7 11 .1zm-20.4-16.1c-4.3-1.4-8.9-2.1-13.7-1.9 2.4 5.3 6.2 9.7 10.9 12.9.6-3.8 1.5-7.4 2.8-11zm16.9-5.4c6.2 4.3 11.5 10.1 15.3 16.8 10.5-6.8 16.3-19.6 13.7-32.6-.1-.7-.3-1.4-.5-2-.6.1-1.3.2-1.9.3-11.2 2.3-20.5 8.8-26.6 17.5zm8.3 33.3c-.5.1-1.1.3-1.6.4-4.5.9-9 1.1-13.3.6 2.1 8.7 6.7 16.2 13 21.8 2.8-6.7 3.6-14.3 2.1-21.9 0-.3-.1-.6-.2-.9z"/><path fill="#404041" d="M35.1 74.3c-.5 0-1-.4-1.1-.9-.7-3.5-2.2-6.1-4.4-8-2.8-2.4-6.7-3.5-11.6-3.5-4.1 0-7.5.9-10.3 2.9-2.8 1.9-4.1 4.1-4.1 7 0 3 1.5 5.4 4.7 7.3 2 1.1 5.6 2.4 10.7 3.8 6.2 1.6 10.6 3.1 12.8 4.4 4 2.3 5.9 5.4 5.9 9.4 0 9.5-6.1 14.3-18.4 14.3-11.4 0-17.9-5-19.4-15-.1-.7.4-1.3 1.1-1.3h.1c.6 0 1 .4 1.1 1 .7 4.5 2.3 7.8 5.2 10 2.6 2.1 6.6 3.1 11.9 3.1 10.7 0 16-4.1 16-12.1 0-3.4-1.8-5.9-5.2-7.7-1.8-.9-5.7-2.3-11.7-3.9-5.7-1.5-9.6-3-11.8-4.3-3.6-2.2-5.4-5.2-5.4-9 0-3.6 1.7-6.6 5.1-8.9 3.2-2.3 7.1-3.3 11.6-3.3 10.2 0 16.3 4.4 18.1 13.3.3.7-.2 1.4-.9 1.4zm9.2-12.6l14.2 41.2c.4 1 1.8 1 2.1 0l12.8-41.1c.1-.5.6-.8 1.1-.8h.9c.5 0 .9.3 1.1.8l12.8 41.1c.3 1 1.8 1.1 2.1 0l14.2-41.2c.2-.5.6-.8 1.1-.8h.2c.8 0 1.3.8 1.1 1.5l-16.2 46.5c-.2.4-.6.8-1.1.8H90c-.5 0-.9-.3-1.1-.8L76 67.9c-.3-1-1.8-1-2.1 0l-12.8 40.9c-.1.5-.6.8-1.1.8h-.7c-.5 0-.9-.3-1.1-.8L42 62.4c-.3-.7.3-1.5 1.1-1.5h.2c.4 0 .9.3 1 .8zm106.4 5.5c3 4.1 4.7 10 5.2 17.7 0 .6-.5 1.2-1.1 1.2h-39.2c-.6 0-1.2.5-1.1 1.2.4 6.2 2.1 11.3 5.5 15.2 3.6 4.1 8.2 6.2 14 6.2 5.3 0 9.4-1.5 12.6-4.3 2.5-2.3 4.4-5.5 5.5-9.5.1-.5.6-.8 1.1-.8h.2c.7 0 1.3.7 1.1 1.4-1.2 4.2-3.2 7.6-5.9 10.2-3.8 3.5-8.6 5.3-14.5 5.3-6.7 0-12-2.4-15.9-7.2-4-4.8-5.9-11-5.9-18.6 0-7.1 1.9-13 5.7-17.8 4.1-5.3 9.4-7.8 16.1-7.8 7.3 0 12.9 2.5 16.6 7.6zm-30.6 1c-3.4 3.9-5.2 8.7-5.7 14.4-.1.6.5 1.2 1.1 1.2h36.8c.7 0 1.2-.6 1.1-1.2-1.3-13.9-7.8-20.7-19.5-20.7-5.6-.1-10.2 2-13.8 6.3zm81-1c3 4.1 4.7 10 5.2 17.7 0 .6-.5 1.2-1.1 1.2H166c-.6 0-1.2.5-1.1 1.2.4 6.2 2.1 11.3 5.5 15.2 3.6 4.1 8.2 6.2 14 6.2 5.3 0 9.4-1.5 12.6-4.3 2.5-2.3 4.4-5.5 5.5-9.5.1-.5.6-.8 1.1-.8h.2c.7 0 1.3.7 1.1 1.4-1.2 4.2-3.2 7.6-5.9 10.2-3.8 3.5-8.6 5.3-14.5 5.3-6.7 0-12-2.4-15.9-7.2-4-4.8-5.9-11-5.9-18.6 0-7.1 1.9-13 5.7-17.8 4.1-5.3 9.4-7.8 16.1-7.8 7.4 0 12.9 2.5 16.6 7.6zm-30.5 1c-3.4 3.9-5.2 8.7-5.7 14.4-.1.6.5 1.2 1.1 1.2h36.8c.7 0 1.2-.6 1.1-1.2-1.3-13.9-7.8-20.7-19.5-20.7-5.6-.1-10.3 2-13.8 6.3zm55.7-7.3H238c.6 0 1.1.5 1.1 1.1s-.5 1.1-1.1 1.1h-11.7c-.6 0-1.1.5-1.1 1.1v35.5c0 2.8.5 4.8 1.4 5.9.8 1.1 2.6 1.7 5.4 1.7h4.9c.6 0 1.1.5 1.1 1.1s-.5 1.1-1.1 1.1H232c-3.6 0-6-.9-7.4-2.6-1.1-1.5-1.7-4-1.7-7.3V64.3c0-.6-.5-1.1-1.1-1.1h-9.2c-.6 0-1.1-.5-1.1-1.1s.5-1.1 1.1-1.1h9.2c.6 0 1.1-.5 1.1-1.1v-13c0-.4.3-.8.7-1 .7-.3 1.6.2 1.6 1v12.9c0 .6.5 1.1 1.1 1.1zm61.4 6.5c3.7 4.7 5.6 10.7 5.6 18 0 7.2-1.9 13.1-5.5 17.8-4 5.1-9.3 7.7-16.3 7.7-5.8 0-10.5-2.4-14.1-7.1-.7-.9-2-.4-2 .7v20c0 2.1-1.7 3.8-3.8 3.8s-3.8-1.7-3.8-3.8V64.4c0-2 1.6-3.5 3.5-3.5 2 0 3.5 1.6 3.5 3.5v.8c0 1.1 1.3 1.5 2 .7 3.4-4.2 8.1-6.4 14.2-6.4 7.1.1 12.7 2.6 16.7 7.9zm-28.9 4.2c-2.5 3.4-3.7 7.9-3.7 13.4v.9c0 5.7 1.3 10.2 4.1 13.7 2.6 3.4 6.1 5.2 10.7 5.2 5.3 0 9.2-1.9 12-5.5 2.5-3.4 3.7-8 3.7-13.9 0-5.7-1.2-10.4-3.5-13.8-2.7-4-6.7-5.8-11.9-5.8-4.9 0-8.8 1.9-11.4 5.8zm81-6.6c2.8 3.2 4.3 7.6 4.3 13.3v27.8c0 2-1.6 3.5-3.5 3.5-2 0-3.5-1.6-3.5-3.5v-1.6c0-1-1.2-1.5-1.9-.8-1.6 1.6-3.4 3-5.5 4.2-3.6 2-7.6 3-12.2 3-4.9 0-8.8-1.2-11.7-3.7-3-2.5-4.5-5.8-4.5-9.8 0-5.6 2.2-9.7 6.7-12.5 4-2.6 9.6-4.1 17-4.1l10.6-.2c.6 0 1.1-.5 1.1-1.1v-1.4c0-8.2-4.2-12.3-12.7-12.3-3.6 0-6.5.7-8.8 2.2-1.8 1.1-3.2 2.6-4.1 4.6-.6 1.4-2.1 2.3-3.6 2.2-2.6-.2-4.1-3-3-5.3 1.4-2.7 3.3-4.9 5.9-6.4 3.6-2.3 8.2-3.4 14-3.4 6.9-.1 12 1.7 15.4 5.3zm-14.5 21.4c-10.9.2-16.4 3.8-16.4 10.8 0 2.3.8 4.1 2.7 5.6 1.9 1.4 4.3 2.2 7.4 2.2 4.6 0 8.7-1.5 12.3-4.5 3.5-2.9 5.3-6.3 5.3-10.1v-3c0-.6-.5-1.1-1.1-1.1l-10.2.1zm34.2-23.1l12.9 33.3c.4 1 1.7.9 2.1 0L387 63.4c.6-1.5 2-2.5 3.6-2.5 2.7 0 4.6 2.7 3.6 5.2l-23.7 59.8c-.6 1.4-1.9 2.4-3.5 2.4-2.7 0-4.5-2.7-3.4-5.2l6-14.2c.1-.3.1-.6 0-.9l-17-42c-1-2.5.8-5.2 3.5-5.2 1.5.1 2.9 1.1 3.4 2.5z"/><linearGradient id="d" gradientUnits="userSpaceOnUse" x1="420.844" y1="900.326" x2="424.844" y2="893.201" gradientTransform="translate(0 -871.442)"><stop offset="0" stop-color="#197a84"/><stop offset=".044" stop-color="#1e8893"/><stop offset=".128" stop-color="#269ca9"/><stop offset=".227" stop-color="#2cabba"/><stop offset=".35" stop-color="#30b6c5"/><stop offset=".522" stop-color="#32bccc"/><stop offset="1" stop-color="#33bece"/></linearGradient><path fill="url(#d)" d="M413.5 24.9c4 1.5 7.7 3.5 11.2 5.9 2.9-4.1 6.4-7.7 10.6-10.6l-7.4-10.1c-5.8 4-10.6 9.1-14.4 14.8z"/><linearGradient id="e" gradientUnits="userSpaceOnUse" x1="450.295" y1="877.705" x2="442.67" y2="881.58" gradientTransform="translate(0 -871.442)"><stop offset="0" stop-color="#197a84"/><stop offset=".044" stop-color="#1e8893"/><stop offset=".128" stop-color="#269ca9"/><stop offset=".227" stop-color="#2cabba"/><stop offset=".35" stop-color="#30b6c5"/><stop offset=".522" stop-color="#32bccc"/><stop offset="1" stop-color="#33bece"/></linearGradient><path fill="url(#e)" d="M447.3 1.4c-7 1.6-13.3 4.5-18.9 8.3-.2.1-.4.3-.6.4l7.4 10.1c.2-.1.4-.3.6-.4 4.6-3.1 9.8-5.3 15.5-6.5.6-.1 1.3-.2 1.9-.3-1.1-4.3-3.2-8.3-5.9-11.6z"/><g><linearGradient id="f" gradientUnits="userSpaceOnUse" x1="404.596" y1="923.052" x2="398.846" y2="922.927" gradientTransform="translate(0 -871.442)"><stop offset="0" stop-color="#873b66"/><stop offset=".052" stop-color="#994574"/><stop offset=".135" stop-color="#af5184"/><stop offset=".234" stop-color="#c05a91"/><stop offset=".355" stop-color="#cb609a"/><stop offset=".526" stop-color="#d264a0"/><stop offset="1" stop-color="#d465a1"/></linearGradient><path fill="url(#f)" d="M405 47.2c-2.3-1.6-4.3-3.4-6.1-5.5l-9.6 8.1c4.3 5 9.6 8.9 15.5 11.6-.6-4.8-.5-9.5.2-14.2z"/><linearGradient id="g" gradientUnits="userSpaceOnUse" x1="388.747" y1="906.102" x2="390.372" y2="911.477" gradientTransform="translate(0 -871.442)"><stop offset="0" stop-color="#873b66"/><stop offset=".052" stop-color="#994574"/><stop offset=".135" stop-color="#af5184"/><stop offset=".234" stop-color="#c05a91"/><stop offset=".355" stop-color="#cb609a"/><stop offset=".526" stop-color="#d264a0"/><stop offset="1" stop-color="#d465a1"/></linearGradient><path fill="url(#g)" d="M398.1 40.7c-1.6-2-2.9-4.1-4-6.5-1.9.1-3.9.3-5.9.7-2.3.5-4.5 1.1-6.7 2 1.7 4.4 4 8.4 6.9 11.9.3.3.5.7.8 1l9.6-8.1c-.2-.3-.4-.6-.7-1z"/></g><g><linearGradient id="h" gradientUnits="userSpaceOnUse" x1="434.332" y1="960.991" x2="438.082" y2="955.616" gradientTransform="translate(0 -871.442)"><stop offset="0" stop-color="#847811"/><stop offset=".07" stop-color="#9e8e17"/><stop offset=".152" stop-color="#b4a01d"/><stop offset=".249" stop-color="#c5af21"/><stop offset=".368" stop-color="#d0b924"/><stop offset=".535" stop-color="#d7be26"/><stop offset="1" stop-color="#d9c026"/></linearGradient><path fill="url(#h)" d="M431.1 86.9c3.2 2.9 6.8 5.2 10.6 7 2.6-5.6 4.2-11.7 4.7-18l-12.6-.5c-.3 4-1.2 7.9-2.7 11.5z"/><linearGradient id="i" gradientUnits="userSpaceOnUse" x1="437.398" y1="933.787" x2="439.273" y2="938.662" gradientTransform="translate(0 -871.442)"><stop offset="0" stop-color="#847811"/><stop offset=".07" stop-color="#9e8e17"/><stop offset=".152" stop-color="#b4a01d"/><stop offset=".249" stop-color="#c5af21"/><stop offset=".368" stop-color="#d0b924"/><stop offset=".535" stop-color="#d7be26"/><stop offset="1" stop-color="#d9c026"/></linearGradient><path fill="url(#i)" d="M445.6 62.6c-.2-1.1-.5-2.1-.7-3.1-3.6 2.1-7.6 3.7-11.8 4.7.1.3.1.6.2.9.6 3.1.8 6.2.7 9.2 0 .4 0 .8-.1 1.3l12.6.5c0-.4.1-.8.1-1.3.1-4.1-.2-8.2-1-12.2z"/></g></svg>