<svg id="Layer_1" viewBox="0 0 280.6 87.6"><style>.st0{fill:#9e1f63}</style><path class="st0" d="M228.2 49.7v.7c.3-.2.6-.4.9-.5l.9-.6c15.3-9.6 25.5-24.4 29.7-40.7-2.6 1.5-5.1 3.2-7.5 5.1 1.4-3.6 2.6-7.3 3.5-11.1l.7-2.7-1.9 2c-2.5 2.6-4.9 5.2-7.1 8 .3-2.7.4-5.4.4-8-11.3 11.5-18.6 27.1-19.5 44.3-.1 1.2-.1 2.4-.1 3.5zm1.2-1.9c1-3.4 2.1-6.7 3.4-10 3.3-6.8 7.6-12.9 12.8-18.2.6-2.2 1-4.5 1.4-6.8 2.1-2.7 4.2-5.3 6.5-7.8-1 3.6-2.3 7.1-3.7 10.6-1.5 1.3-2.9 2.6-4.2 4-1.3 5.2-3.3 10.2-5.8 15-3.1 4.7-6.6 9.1-10.4 13.2z"/><path class="st0" d="M272.6 78.1c-1.6-2.3-3.4-4.4-5.3-6.5 3.5 1 7 1.7 10.6 2.3l2.7.5-2.1-1.8c-2.9-2.4-6-4.6-9.1-6.7 2.9.1 5.9 0 8.8-.3-12.8-10.6-29.5-16.5-47.3-15.5-.7 0-1.3.1-2 .1-.3 0-.5 0-.8.1.1.1.2.3.3.4.6.9 1.3 1.7 1.9 2.5 11 13.8 26.2 22.2 42.3 24.9zm-7.3-8.6c-1.6-1.6-3.2-3-4.9-4.5-6.8-1.1-13.4-3.3-19.7-6.5-3.5-2.1-6.8-4.4-10-6.9 5 1 10 2.3 14.8 4 5.4 2.5 10.5 5.7 15 9.4 2 .3 4 .6 6 .7 3.1 1.9 6 4 8.9 6.2-3.5-.5-6.8-1.4-10.1-2.4zM209.2 50.9c.1 0 .1 0 0 0 2-.9 4.2-1.6 6.2-1.9 0 .1.1.3.1.4 3.3 10.4 9.1 20.2 17.5 28.4-.1-11.6-3.1-22.6-8.3-32.2-2.6-4.8-9.5-2.5-9.4 2.3-1.6.5-3.2 1.2-4.5 2-.7.3-1.2.7-1.6 1zm8.6-3.5c.1-.6.6-1 1.2-1 .6.1 1 .6 1 1.2-.1.6-.6 1-1.2 1-.7 0-1.1-.6-1-1.2z"/><g><path class="st0" d="M29 50.4l-9.5 25.3-1.9 4.7c-1.8 4.3-5.2 7.1-9.4 7.1-1.6 0-3.1-.2-4.1-.5-.5-.2-1-.6-1.1-1.3L2.4 82c-.2-.9.7-1.4 1.5-1.1.9.3 2.1.6 3.2.6 1.4 0 2.7-.8 3.3-1.9 0 0-1-4.1-1.3-5l-9.2-24c-.3-.6.1-1.3.7-1.4l6-.6c.6-.1 1.2.2 1.4.9l6.2 19.9L20.7 50c.2-.6.7-1 1.3-1h6.2c.8.1 1.1.6.8 1.4zM30.8 62.7c0-8.6 6-14.4 15.1-14.4 9 0 15 5.8 15 14.4 0 8.7-6 14.4-15 14.4-9.1 0-15.1-5.8-15.1-14.4zm22.2 0c0-4.5-2.8-7.6-7.1-7.6s-7.2 3.1-7.2 7.6c0 4.6 2.9 7.6 7.2 7.6s7.1-3.1 7.1-7.6zM66 72.6c0-2.7 2-4.5 5-4.5 2.8 0 4.8 1.8 4.8 4.5 0 2.9-1.9 4.8-4.8 4.8s-5-1.9-5-4.8zm1.4-8.1l-.8-27.3c0-.8.5-1.2 1.2-1.2H74c.7 0 1.2.4 1.1 1.2l-.8 27.3c0 .8-.5 1.2-1.2 1.2h-4.5c-.7 0-1.1-.4-1.2-1.2zM94.6 75.8c-1.2.8-2.9 1.3-4.8 1.3-4.6 0-7.8-2.4-7.8-8.2V38.1c0-.6.3-.9.9-1l5.9-.9c1-.2 1.5.4 1.5 1.4V69c0 .9.6 1.5 1.3 1.5.5 0 1.1-.1 1.6-.3.7-.3 1.2.1 1.4.7l.7 3.6c0 .4-.2 1-.7 1.3zM97.8 62.7c0-8.6 6-14.4 15.1-14.4 9 0 15 5.8 15 14.4 0 8.7-6 14.4-15 14.4-9.1 0-15.1-5.8-15.1-14.4zm22.2 0c0-4.5-2.8-7.6-7.1-7.6s-7.2 3.1-7.2 7.6c0 4.6 2.9 7.6 7.2 7.6 4.3 0 7.1-3.1 7.1-7.6zM152.2 50v4.3c0 .6-.3.9-.9.9h-7.9v12.5c0 1.8 1.1 2.5 2.6 2.5 1.1 0 2.3-.2 3.3-.5s1.5 0 1.7.9l.5 3.6c.1.6-.2 1.1-.6 1.4-1.6.9-3.7 1.4-7 1.4-5.5 0-9-3.4-9-8.5V55.2h-3c-.6 0-1-.3-1-.9V50c0-.6.3-1 1-1h3l2-5.2c.3-.8.9-1.4 1.5-1.4h3.5c.9 0 1.5.5 1.5 1.4V49h7.9c.6.1.9.4.9 1zM176.1 50v4.3c0 .6-.3.9-.9.9h-7.9v12.5c0 1.8 1.1 2.5 2.6 2.5 1.1 0 2.3-.2 3.3-.5s1.5 0 1.7.9l.5 3.6c.1.6-.2 1.1-.6 1.4-1.6.9-3.7 1.4-7 1.4-5.5 0-9-3.4-9-8.5V55.2h-3c-.6 0-1-.3-1-.9V50c0-.6.3-1 1-1h3l2-5.2c.3-.8.9-1.4 1.5-1.4h3.5c.9 0 1.5.5 1.5 1.4V49h7.9c.6.1.9.4.9 1zM193.8 48.3c-9.1 0-15.1 5.8-15.1 14.4 0 8.7 6 14.4 15.1 14.4 9 0 15-5.8 15-14.4 0-8.7-6-14.4-15-14.4zm6.2 15.5l-6.2 6.2-6.2-6.2c-1.6-1.6-1.6-4.3 0-5.9s4.3-1.6 5.9 0l.3.3.3-.3c1.6-1.6 4.3-1.6 5.9 0 1.7 1.6 1.7 4.2 0 5.9z"/></g></svg>