<svg viewBox="0 0 418.6 187.7"><path fill="#575756" d="M26.8 157.9l-9.5 17.7v10.1c0 1.1-.5 1.3-1.3 1.3h-4.6c-.9 0-1.3-.3-1.3-1.3v-10.1L.2 157.9c-.2-.5-.1-1.3.7-1.3h5.3c1.1 0 1.5.1 2.2 1.4l5.4 9.9L19 158c.6-1.2 1.1-1.4 2.1-1.4h5c.8 0 .9.8.7 1.3zm27.8 19.3c0 7.3-6.9 10.4-12.4 10.4s-12.3-3.1-12.3-10.4v-10.9c0-7.3 6.8-10.4 12.3-10.4s12.4 3.1 12.4 10.4v10.9zM47.4 167c0-3-2.1-4.7-5.2-4.7-3 0-5.1 1.7-5.1 4.7v9.6c0 3 2.1 4.7 5.1 4.7s5.2-1.7 5.2-4.7V167zm37.1-9v19.7c0 7.2-6.7 10-12.2 10s-12.2-2.7-12.2-10V158c0-1.1.5-1.3 1.3-1.3H66c.8 0 1.3.3 1.3 1.3v18.7c0 2.9 1.9 4.6 4.9 4.6s5-1.7 5-4.6V158c0-1.1.5-1.3 1.3-1.3h4.6c.9-.1 1.4.2 1.4 1.3zm28.4 0v3.8c0 .8-.3 1.3-1.3 1.3h-7.1v22.5c0 1.1-.5 1.3-1.3 1.3h-4.6c-.8 0-1.3-.3-1.3-1.3v-22.5h-7.1c-1.1 0-1.3-.5-1.3-1.3V158c0-.8.3-1.3 1.3-1.3h21.4c1-.1 1.3.4 1.3 1.3zm29.3 0v27.7c0 1.1-.5 1.3-1.3 1.3h-4.6c-.8 0-1.3-.3-1.3-1.3v-10.4h-10.3v10.4c0 1.1-.5 1.3-1.3 1.3h-4.6c-.8 0-1.3-.3-1.3-1.3V158c0-1.1.5-1.3 1.3-1.3h4.6c.9 0 1.3.3 1.3 1.3v10.4H135V158c0-1.1.5-1.3 1.3-1.3h4.6c.8-.1 1.3.2 1.3 1.3zm68.2 29.7c-5.5 0-12.4-3.2-12.4-10.4v-10.9c0-7.2 6.9-10.4 12.4-10.4 5.7 0 11.4 2.9 12 8.8 0 1.1-.4 1.3-1.4 1.3h-4.4c-1 0-1-.9-1.4-1.4-1-1.5-2.3-2.2-4.8-2.2-3 0-5.1 1.7-5.1 4.6v9.6c0 3 2.1 4.6 5.1 4.6 2.5 0 4.5-.9 4.8-3.1.1-.9.2-1.7 1.2-1.7h4.5c1 0 1.4.5 1.4 1.6.1 5.8-6.2 9.6-11.9 9.6zm39.6-5.8v3.8c0 .8-.3 1.3-1.3 1.3h-19.2c-1.1 0-1.3-.5-1.3-1.3V158c0-1.1.5-1.3 1.3-1.3h4.6c.8 0 1.3.3 1.3 1.3v22.5h13.3c1.1 0 1.3.5 1.3 1.4zm28.9-4.7c0 7.3-6.9 10.4-12.4 10.4s-12.3-3.1-12.3-10.4v-10.9c0-7.3 6.8-10.4 12.3-10.4s12.4 3.1 12.4 10.4v10.9zm-7.3-10.2c0-3-2.1-4.7-5.2-4.7-3 0-5.1 1.7-5.1 4.7v9.6c0 3 2.1 4.7 5.1 4.7s5.2-1.7 5.2-4.7V167zm35-9v3.8c0 .8-.3 1.3-1.3 1.3h-7.1v22.5c0 1.1-.5 1.3-1.3 1.3h-4.6c-.8 0-1.3-.3-1.3-1.3v-22.5h-7.1c-1.1 0-1.3-.5-1.3-1.3V158c0-.8.3-1.3 1.3-1.3h21.4c1-.1 1.3.4 1.3 1.3zm29.4 0v27.7c0 1.1-.5 1.3-1.3 1.3h-4.6c-.8 0-1.3-.3-1.3-1.3v-10.4h-10.3v10.4c0 1.1-.5 1.3-1.3 1.3h-4.6c-.8 0-1.3-.3-1.3-1.3V158c0-1.1.5-1.3 1.3-1.3h4.6c.9 0 1.3.3 1.3 1.3v10.4h10.3V158c0-1.1.5-1.3 1.3-1.3h4.6c.8-.1 1.3.2 1.3 1.3zm21.3 24v3.6c0 .8-.3 1.3-1.3 1.3h-13c-1.1 0-1.3-.5-1.3-1.3V182c0-.8.3-1.3 1.3-1.3h2.9V163h-2.8c-1.1 0-1.3-.5-1.3-1.3V158c0-.8.3-1.3 1.3-1.3h12.8c1.1 0 1.3.5 1.3 1.3v3.7c0 .8-.3 1.3-1.3 1.3h-2.8v17.6h2.9c1.1.1 1.3.6 1.3 1.4zm30.6-24v27.7c0 .8-.3 1.3-1.3 1.3h-4.2c-1.2 0-1.5-.6-2.1-1.6l-9.8-15.8v16c0 1.1-.5 1.3-1.3 1.3h-4.6c-.8 0-1.3-.3-1.3-1.3V158c0-.8.3-1.3 1.3-1.3h4.3c1.2 0 1.5.6 2.1 1.6l9.8 15.8v-16c0-1.1.5-1.3 1.3-1.3h4.4c.9-.2 1.4.1 1.4 1.2zm30.7 13.4v6.7c-.4 6.6-7.1 9.6-12.4 9.6-5.4 0-12.4-2.8-12.4-10v-11.3c0-7.3 7-10.4 12.4-10.4 5.8 0 12.4 3.3 12.4 9.5 0 1.1-.3 1.3-1.3 1.3h-4.5c-1.3 0-1.1-.9-1.3-1.6-.5-1.4-2.2-2.8-5.3-2.8-3 0-5.1 2-5.1 5v9.3c0 3 2 4.7 5.1 4.7 3 0 5.1-1.4 5.1-4.9h-4.1c-1.1 0-1.3-.5-1.3-1.3v-3.6c0-.8.3-1.3 1.3-1.3h10.1c1.1-.3 1.3.3 1.3 1.1zM188.5 170.6v-.1c0-.3 0-.6-.1-.9 0-.1 0-.1-.1-.2 0-.1-.1-.2-.1-.2-.3-.7-.8-1.3-1.6-1.8-.7-.4-1.5-.7-2.4-.7h-4.6l2.3-4c.4-.7.6-1.6.6-2.3 0-1.3-.6-2.4-1.8-3.1l-1.7-1c-1.5-.9-3.3-.6-4.6.7l-.5.5c-.1.2-.3.4-.4.6l-2.3 4-2.3-4c-.1-.2-.2-.4-.4-.6-.2-.2-.3-.4-.5-.5-1.3-1.2-3.1-1.6-4.6-.7l-1.7 1h-.1c-1.1.7-1.7 1.8-1.8 3.1 0 .8.2 1.6.6 2.3l2.3 4h-4.6c-.9 0-1.7.2-2.4.7-1.1.7-1.8 1.8-1.8 3.2v2.1c0 .3 0 .6.1.9 0 0 0 .1.1.1 0 .1.1.2.1.3.3.7.8 1.3 1.6 1.8.7.4 1.5.6 2.4.6h4.6l-2.3 4c-.4.7-.6 1.6-.6 2.3 0 1.3.6 2.4 1.8 3.1l1.7 1c1.5.9 3.3.5 4.6-.7l.5-.5c.1-.2.3-.4.4-.6l2.3-4 2.3 4c.1.2.3.4.4.6.2.2.3.4.5.5 1.3 1.2 3.1 1.6 4.6.7l1.7-1c1.1-.7 1.7-1.8 1.8-3.1 0-.8-.2-1.6-.6-2.3l-2.3-4h4.6c.9 0 1.7-.2 2.4-.6 1.1-.7 1.8-1.8 1.8-3.2l.1-2z"/><path fill="#FFF" d="M178.5 171.4c0 1.3-.3 2.5-1 3.6s-1.5 2-2.6 2.6-2.3 1-3.6 1-2.5-.3-3.6-1-2-1.5-2.6-2.6-1-2.3-1-3.6.3-2.5 1-3.6 1.5-2 2.6-2.6 2.3-1 3.6-1 2.5.3 3.6 1 2 1.5 2.6 2.6 1 2.3 1 3.6zm-1 0c0-1.1-.3-2.1-.8-3.1s-1.3-1.7-2.3-2.3-2-.8-3.1-.8-2.1.3-3.1.8c-1 .6-1.7 1.3-2.3 2.3s-.8 2-.8 3.1.3 2.2.8 3.1c.6 1 1.3 1.7 2.3 2.3s2 .8 3.1.8 2.1-.3 3.1-.8 1.7-1.3 2.3-2.3.8-2 .8-3.1zm-2.7-1.5h-1.2c-.1-.5-.4-1-.7-1.2s-.8-.4-1.4-.4c-.8 0-1.4.3-1.9.8s-.7 1.3-.7 2.4c0 1 .2 1.8.7 2.4.5.5 1 .8 1.8.8.6 0 1.1-.2 1.5-.6s.7-.9.8-1.7h1.2c-.1 1-.5 1.8-1.1 2.4-.6.6-1.4.9-2.3.9-1.2 0-2.1-.4-2.8-1.1-.7-.7-1-1.8-1-3.1 0-1.4.4-2.5 1.1-3.2s1.6-1.2 2.7-1.2c1 0 1.8.3 2.4.8s.8 1.1.9 2z"/><g><path fill="#575756" d="M241.8 19.3l3.6.1c2.1 0 3.7-1.5 3.7-3.4v-1.5c0-1.9-1.7-3.5-3.8-3.5l-3.9-.1 1.9-3.4c1-1.8.5-4.1-1.1-5.1l-1.3-.8c-1.6-1-3.8-.3-4.8 1.5l-1.9 3.4-2-3.4c-1.1-1.8-3.2-2.6-4.8-1.7l-1.3.7c-1.6.9-2.1 3.2-1 5l1.8 3.1c-7.5-1.8-16.5-2.6-27.1-2.6h-5.1c-1.7 0-3.5.1-5.1.1-1.8.1-3.6.2-5.3.3s-3.5.2-5.1.4c-1.4.2-2.8.4-4 .7l1.8-3.2c1.1-1.8.6-4.1-1-5l-1.3-.7c-1.6-.9-3.8-.2-4.8 1.7l-2 3.4-2-3.3c-1-1.8-3.2-2.5-4.8-1.5l-1.3.8c-1.6 1-2.2 3.2-1.1 5.1l1.9 3.4-3.9.1c-2.1 0-3.8 1.6-3.8 3.5v1.5c0 1.9 1.6 3.4 3.7 3.4l3.3-.1c-.4.7-.8 1.4-1.2 2.2-2.8 6.4-4.2 14.4-4.2 24v.1c0 16.8 4 26.8 12 30.2 8 3.4 19.1 5.1 33.2 5.1 16.6 0 28.6-1.8 35.9-5.4 7.3-3.6 11-14.3 11-32 0-7.7-.9-13.9-2.6-18.7-.1-.2-.2-.5-.3-.7-.6-1.3-1.2-2.6-1.9-3.7zm-6.3 26.1v1.8c0 11.2-2.8 17.9-8.4 19.9-5.6 2-12.5 3.7-20.9 3.8-18.5.2-28.9-1.5-33.6-4.7-4.6-3.1-6.9-10.6-6.9-22.4 0-12.3 2.3-19.8 7-22.5s12.2-4.1 22.7-4.1c4.1 0 8.1 0 12.2.1 4 0 8 .3 12 .8 7.1 1 11.5 4 13.2 9.1s2.7 10.5 2.8 16.4c-.1.6-.1 1.2-.1 1.8zM165 84.1h72c2.5 0 4.8.7 6.6 1.8 3.1 1.9 5.1 5 5.1 8.9v5.6c0 3.8-2 6.9-5.1 8.9-1.8 1.1-4.2 1.8-6.6 1.8h-12.7l6.4 11v.3c1.1 2.1 1.7 4.4 1.6 6.5-.1 3.6-1.7 6.8-4.9 8.7l-.1.1-.1.1-4.8 2.8c-4.2 2.4-9.2 1.5-12.8-1.9-.4-.4-.8-.9-1.3-1.4-.4-.5-.7-1-1.1-1.6l-6.4-11-6.4 11c-.3.5-.6 1-1.1 1.5-.4.5-.9 1-1.3 1.4-3.6 3.4-8.5 4.3-12.8 1.9l-4.8-2.8-.1-.1-.1-.1c-3.1-1.9-4.8-5.1-4.9-8.7-.1-2.1.5-4.4 1.6-6.5v-.3l6.4-11H165c-2.5 0-4.8-.7-6.6-1.8-3.1-1.9-5.1-5-5.1-8.9v-5.6c0-3.8 2-6.9 5.1-8.9 1.7-1 4.1-1.7 6.6-1.7z"/><path fill="#575756" d="M208 58.4h4c.7 0 1.3.7 1.3 1.5v3c0 .8-.6 1.5-1.3 1.5h-4c-.7 0-1.3-.7-1.3-1.5v-3c0-.9.6-1.5 1.3-1.5"/><path fill="#F2AFAF" d="M178.3 27.3l12 5.5c.6.3.9 1.1.5 1.9l-1.2 2.7c-.3.7-1.1 1.1-1.8.8l-12-5.5c-.6-.3-.9-1.1-.5-1.9l1.2-2.7c.4-.8 1.2-1.1 1.8-.8m45.4 0l-12 5.5c-.6.3-.9 1.1-.5 1.9l1.2 2.7c.3.7 1.1 1.1 1.8.8l12-5.5c.6-.3.9-1.1.5-1.9l-1.2-2.7c-.4-.8-1.2-1.1-1.8-.8"/><path fill="#68C7E8" d="M61.7 29.7h13.2c.7 0 1.3.7 1.3 1.5v3c0 .8-.6 1.5-1.3 1.5H61.7c-.7 0-1.3-.7-1.3-1.5v-3c.1-.9.6-1.5 1.3-1.5m35.9 5.9h13.2c.7 0 1.3-.7 1.3-1.5v-3c0-.8-.6-1.5-1.3-1.5H97.6c-.7 0-1.3.7-1.3 1.5v3c0 .8.6 1.5 1.3 1.5"/><g fill="#575756"><path d="M79.6 56h13.2c.7 0 1.3.6 1.3 1.3V60c0 .7-.6 1.3-1.3 1.3H79.6c-.7 0-1.3-.6-1.3-1.3v-2.7c0-.7.6-1.3 1.3-1.3zm42.2 28.1H50.7c-6.7 0-12.2 4.9-12.2 11v4.8c0 6.1 5.4 11 12.2 11h12.4l-6.4 11c-3.4 5.8-1.8 13 3.5 16l4.1 2.4c5.3 3 12.3.8 15.6-5l6.3-10.9 6.3 10.9c3.4 5.8 10.3 8.1 15.6 5l4.1-2.4c5.3-3 6.8-10.2 3.5-16l-6.4-11h12.4c6.7 0 12.2-4.9 12.2-11v-4.8c.1-6-5.4-11-12.1-11z"/><path d="M40.1 44.3c0-9.6 1.4-17.6 4.2-24S53.9 9.9 64.8 8.5c1.7-.2 3.4-.3 5.2-.5 1.7-.1 3.5-.2 5.3-.3 1.7-.1 3.4-.2 5.2-.2h5.2c14 0 25.4 1.5 33.9 4.6 8.6 3.1 12.9 13.1 12.9 30.1 0 17.8-3.7 28.4-11 32-7.5 3.8-19.5 5.6-36.1 5.6-14.1 0-25.2-1.7-33.2-5.1s-12-13.5-12-30.2l-.1-.2zm11.2-.7c0 11.9 2.3 19.4 6.9 22.5s15.1 4.8 33.6 4.7c8.4-.1 15.3-1.7 20.9-3.8 5.6-2 8.4-8.7 8.4-19.9v-3.6c-.1-5.9-1-11.4-2.8-16.4-1.7-5.1-6.1-8.1-13.2-9.1-4-.5-8-.8-12-.8-4-.1-8.1-.1-12.2-.1-10.5 0-18 1.4-22.7 4.1s-7 10.3-7 22.6l.1-.2z"/></g><g><path fill="#575756" d="M351.3 84.1h-71.1c-6.7 0-12.2 4.9-12.2 11v4.8c0 6.1 5.4 11 12.2 11h12.4l-6.4 11c-3.4 5.8-1.8 13 3.5 16l4.1 2.4c5.3 3 12.3.8 15.6-5l6.3-10.9 6.3 10.9c3.4 5.8 10.3 8.1 15.6 5l4.1-2.4c5.3-3 6.8-10.2 3.5-16l-6.4-11h12.4c6.7 0 12.2-4.9 12.2-11v-4.8c.1-6-5.3-11-12.1-11zm-81.6-40.9c0-9.6 1.4-17.6 4.2-24 2.8-6.4 9.6-10.4 20.5-11.8 1.7-.2 3.4-.3 5.2-.4 1.7-.1 3.5-.2 5.3-.3 1.7-.1 3.4-.1 5.2-.1h5.2c14 0 25.4 1.5 33.9 4.6 8.6 3.1 12.9 13.1 12.9 30.1 0 17.8-3.7 28.4-11 32s-19.3 5.4-35.9 5.4c-14.1 0-25.2-1.7-33.2-5.1s-12-13.5-12-30.2l-.3-.2zm11.2-.6c0 11.9 2.3 19.4 6.9 22.5 4.6 3.1 15.1 4.9 33.6 4.7 8.4-.1 15.3-1.7 20.9-3.8 5.6-2 8.4-8.7 8.4-19.9v-3.6c-.1-5.9-1-11.4-2.8-16.4-1.7-5.1-6.2-8.1-13.2-9.1-4-.5-8-.8-12-.8-4-.1-8.1-.1-12.2-.1-10.5 0-18 1.4-22.7 4.1s-7 10.3-7 22.6l.1-.2z"/><path fill="#575756" d="M310.9 54.8l12.4 4.5c.7.2 1 1 .7 1.7l-.9 2.5c-.2.7-1 1.1-1.6.8l-12.4-4.5c-.7-.2-1-1-.7-1.7l.9-2.5c.2-.7.9-1.1 1.6-.8z"/><path fill="#9AC31C" d="M293.6 28l12 5.5c.6.3.9 1.1.5 1.9l-1.2 2.7c-.3.7-1.1 1.1-1.8.8l-12-5.5c-.6-.3-.9-1.1-.5-1.9l1.2-2.7c.4-.8 1.1-1.1 1.8-.8m45.4 0l-12 5.5c-.6.3-.9 1.1-.5 1.9l1.2 2.7c.3.7 1.1 1.1 1.8.8l12-5.5c.6-.3.9-1.1.5-1.9l-1.2-2.7c-.4-.8-1.2-1.1-1.8-.8"/></g></g></svg>