<svg viewBox="0 0 591.2 428.2"><path fill="#424143" d="M38.6 428.2C16.8 428.2 0 410.6 0 388.9s17.5-39.3 39.3-39.3c10.8 0 20.7 4.5 27.9 11.5.4.7.7 1.5.7 2.2 0 .8-.3 1.5-.8 2l-7.2 6.9c-.5.5-1.2.8-1.9.8-.9 0-1.8-.4-2.3-1.1-4.6-4.2-10.2-6.2-16.5-6.2-12.9 0-21.8 10.7-21.8 23.6s9.5 24.3 21.8 24.3c6 0 12.6-1.2 18.4-7.1.7-.7 1.5-1.1 2.4-1.1.7 0 1.2.3 1.9.7l5.8 6.4c.4.4.9 1.1.9 2 0 .7-.3 1.5-.8 2.2-7.1 8.7-17.1 11.5-29.2 11.5zm70.7-27.9H99v24.4c0 1.6-1.1 2.8-2.8 2.8H84.5c-1.6 0-2.8-1.2-2.8-2.8v-71.3c0-1.6 1.2-2.8 2.8-2.8h33.6c13 0 23.5 10.3 23.5 24.9 0 10.2-5.3 18.2-13 22.4l13.4 26.4c0 2-1.1 3.3-2.8 3.3h-13.7c-1.8 0-2.8-1.2-3.4-2.2l-12.8-25.1zM117 384c3.9 0 7.2-3.1 7.2-8.4s-3.3-8-7.2-8H99V384h18zm35.1 4.9c0-21.7 17.5-39.3 39.2-39.3s39.2 17.6 39.2 39.3-17.5 39.3-39.2 39.3-39.2-17.6-39.2-39.3zm61.2.4c0-12.9-9.1-23.6-22.1-23.6-12.6 0-21.8 10.7-21.8 23.6s9.2 24.3 21.8 24.3c13 0 22.1-11.4 22.1-24.3zm30.4 29.7c0-.7.1-1.1.3-1.4l3.9-7.2c.5-1.1 1.6-1.5 2.6-1.5.7 0 1.1.1 1.5.3 2.7 1.6 8.8 4.3 18.6 4.3 5.4 0 10.8-2.7 10.8-6.4 0-11.8-38.6-8.4-38.6-35 0-14.1 9.8-22.6 27.7-22.6 8.7 0 18.6 3.1 22.5 4.9.5.4 1.2.9 1.6 2.4 0 .7 0 1.1-.1 1.5L291 367c-.4.9-1.8 1.9-2.8 1.9-.4 0-.8-.1-1.2-.3-3.5-1.1-11.5-3-16-3-10.4 0-10.7 6-10.7 7.2 0 10.8 38.6 9.2 38.6 34.2 0 13-14.9 21.2-26.2 21.2-9.2 0-17.8-.7-27.4-6.6-.7-.4-1.6-1.6-1.6-2.6zm67.8 0c0-.7.1-1.1.3-1.4l3.9-7.2c.5-1.1 1.6-1.5 2.6-1.5.7 0 1.1.1 1.5.3 2.7 1.6 8.8 4.3 18.6 4.3 5.4 0 10.8-2.7 10.8-6.4 0-11.8-38.6-8.4-38.6-35 0-14.1 9.8-22.6 27.7-22.6 8.7 0 18.6 3.1 22.5 4.9.5.4 1.2.9 1.6 2.4 0 .7 0 1.1-.1 1.5l-3.5 8.7c-.4.9-1.8 1.9-2.8 1.9-.4 0-.8-.1-1.2-.3-3.5-1.1-11.5-3-16-3-10.4 0-10.7 6-10.7 7.2 0 10.8 38.6 9.2 38.6 34.2 0 13-14.9 21.2-26.2 21.2-9.2 0-17.8-.7-27.4-6.6-.7-.4-1.6-1.6-1.6-2.6zm104.1 9.2c-21.8 0-38.6-17.6-38.6-39.3s17.5-39.3 39.3-39.3c10.8 0 20.7 4.5 27.9 11.5.4.7.7 1.5.7 2.2 0 .8-.3 1.5-.8 2l-7.2 6.9c-.5.5-1.2.8-1.9.8-.9 0-1.8-.4-2.3-1.1-4.6-4.2-10.2-6.2-16.5-6.2-12.9 0-21.8 10.7-21.8 23.6s9.5 24.3 21.8 24.3c6 0 12.6-1.2 18.4-7.1.7-.7 1.5-1.1 2.4-1.1.7 0 1.2.3 1.9.7l5.8 6.4c.4.4.9 1.1.9 2 0 .7-.3 1.5-.8 2.2-7.1 8.7-17.1 11.5-29.2 11.5zm41.6-34.8v-40c0-1.6 1.2-2.8 3-2.8h11.4c1.6 0 2.8 1.2 2.8 2.8v40.4c0 14.2 4.1 19.8 15.5 19.8s15.5-5.6 15.5-19.8v-40.4c0-1.6 1.2-2.8 2.8-2.8h11.4c1.8 0 3 1.2 3 2.8v40c0 21.3-10.8 34.8-32.5 34.8-22.2 0-32.9-13.5-32.9-34.8zm97.1-26.6h-16.5c-1.8 0-3-1.2-3-2.8v-10.6c0-1.6 1.2-2.8 3-2.8h50.4c1.8 0 3 1.2 3 2.8V364c0 1.6-1.2 2.8-3 2.8h-16.5v57.9c0 1.6-1.2 2.8-2.8 2.8h-11.5c-1.8 0-3-1.2-3-2.8v-57.9h-.1z"/><path fill="#ED1E3C" d="M287.8 1.4L139.9 66c-6.2 2.7-10.2 8.8-10.2 15.6v165.9c0 6.8 4 12.9 10.2 15.6l147.9 64.5c4.3 1.9 9.3 1.9 13.6 0l75.7-33 3.1-1.3 69.1-30.2c6.2-2.7 10.2-8.8 10.2-15.6v-166c0-6.8-4-12.9-10.2-15.6L301.4 1.4c-4.4-1.9-9.3-1.9-13.6 0zM447 110v107.2c0 12.5-13 20.7-24.2 15.4L389.9 217c-6-2.8-9.7-8.8-9.7-15.4v-77.3c0-6.8 4-12.9 10.2-15.6l32.9-14.3c11.1-4.9 23.7 3.3 23.7 15.6zm-158.7 48.9v57.3c0 12.2-12.6 20.5-23.8 15.6l-32.9-14.3c-6.2-2.7-10.2-8.8-10.2-15.6v-57.3c0-12.2 12.6-20.5 23.8-15.6l32.9 14.3c6.2 2.8 10.2 8.9 10.2 15.6zm0 108.1v21.3c0 12.2-12.6 20.5-23.8 15.6L184.4 269c-13.4-5.8-13.7-24.7-.4-31l23.5-11.1c4.4-2.1 9.6-2.2 14-.2l56.6 24.7c6.2 2.7 10.2 8.8 10.2 15.6zm88.9-166.1l-.2.1-75.7-33c-4.3-1.9-9.3-1.9-13.6 0l-68.8 30c-4.3 1.9-9.3 1.9-13.6 0l-18.1-7.9c-13.6-5.9-13.6-25.2 0-31.2L287.8 15c4.3-1.9 9.3-1.9 13.6 0L402 58.9c13.6 5.9 13.6 25.2 0 31.2l-24.8 10.8zm-113.9-8.8l24.4-10.7c4.3-1.9 9.3-1.9 13.6 0l56.1 24.5c6.2 2.7 10.2 8.8 10.2 15.6v80.4c0 6.8-4 12.9-10.2 15.6l-32.9 14.3c-11.2 4.9-23.8-3.3-23.8-15.6v-65.5c0-6.8-4-12.9-10.2-15.6l-27.3-11.9c-13.5-5.8-13.4-25.1.1-31.1zM311 251.4l56.6-24.7c4.5-2 9.6-1.9 14 .2l23.5 11.1c13.2 6.2 12.9 25.1-.4 31l-80 34.9c-11.2 4.9-23.8-3.3-23.8-15.6V267c-.1-6.8 3.9-12.9 10.1-15.6zM209 124.3v77.3c0 6.6-3.8 12.6-9.7 15.4l-32.9 15.5c-11.3 5.3-24.2-2.9-24.2-15.4V110c0-12.3 12.6-20.5 23.8-15.6l32.9 14.3c6.1 2.7 10.1 8.9 10.1 15.6z"/></svg>