<svg viewBox="0 0 500 89.9"><path d="M.1 53.3h1.5V29.9h23.9v-1.5H1.6V6h27.3V4.4H.1zM41.1 4.4h1.6v48.8h-1.6zM95.4 53.3h.6V4.4h-1.4v45.8L61.2 4.9c-.2-.3-.5-.4-.8-.4h-.7v48.8h1.4v-46l33.5 45.6c.3.3.6.4.8.4zM124.3 4.4l-20.4 48.8h1.1c.4 0 .7-.2.8-.6l6.6-15.8h24.8l6.6 15.8c.2.5.6.6.8.6h1.2L125.5 4.4h-1.2zm-11.2 31l11.6-27.9c.1-.2.1-.3.2-.5.1.2.1.3.2.5l11.6 27.9h-23.6zM188.6 50.2L155.3 4.9c-.2-.3-.5-.4-.8-.4h-.7v48.8h1.4v-46l33.5 45.6c.2.3.4.4.7.4h.6V4.4h-1.4v45.8zM242 46c-.2 0-.4.2-.5.3-1.1 1-2.2 1.9-3.2 2.6-1.1.7-2.2 1.4-3.5 1.9-1.2.5-2.6.9-4.1 1.2-1.5.3-3.2.4-5.2.4-3 0-5.8-.5-8.4-1.6-2.6-1.1-4.8-2.6-6.7-4.6-1.9-2-3.4-4.5-4.4-7.4-1.1-2.9-1.6-6.2-1.6-9.9 0-3.6.5-6.9 1.6-9.8 1.1-2.9 2.6-5.4 4.5-7.4s4.2-3.6 6.9-4.7 5.6-1.6 8.8-1.6c1.7 0 3.3.1 4.6.4 1.3.3 2.6.6 3.6 1s1.9.8 2.6 1.2c.7.4 1.4.9 1.9 1.2.6.4.9.7 1.2 1 .4.3.7.5 1 .5.2 0 .4-.1.6-.4l.3-.4-.2-.2c-1.1-.9-2.3-1.8-3.3-2.5-1.1-.7-2.3-1.3-3.5-1.8-1.2-.5-2.6-.8-4-1.1-1.4-.2-3-.3-4.8-.3-3.4 0-6.6.6-9.5 1.8-2.9 1.2-5.4 2.9-7.4 5.1-2 2.2-3.7 4.8-4.8 7.9-1.1 3-1.7 6.5-1.7 10.2 0 3.8.6 7.3 1.7 10.4 1.1 3.1 2.7 5.7 4.7 7.9s4.4 3.8 7.2 5c2.8 1.1 5.8 1.7 9.1 1.7 2 0 3.9-.2 5.5-.5 1.7-.3 3.2-.8 4.6-1.4 1.4-.6 2.7-1.3 3.9-2.1 1.2-.8 2.3-1.7 3.3-2.7l.3-.3-.6-.5c-.2-.4-.3-.5-.5-.5zM256.5 4.4h1.6v48.8h-1.6zM307.4 52.7c.2.5.6.6.8.6h1.2L289.1 4.7l-.1-.3h-1.2l-20.1 48.3-.2.5h1.1c.4 0 .7-.2.8-.6l6.6-15.8h24.8l6.6 15.9zM288.2 7.5c.1-.2.1-.3.2-.5.1.2.1.3.2.5l11.6 27.9h-23.7l11.7-27.9zM318.9 4.4h-1.5v48.9h26v-1.5h-24.5zM342.3 7h22.3v45.7h3.9V3.1h-22.6zM372.6 7h7.7V3.1h-4.1zM384.4 7h26.2V3.1H388zM384.9 48.8h25.7v3.9h-25.7zM384.9 25.8h25.7v3.9h-25.7zM496.1 52.7h3.9V25.8h-21.9V2.4l-3.9 4.1v46.2h3.9v-23h18zM500 2.4l-3.9 4.1v3.9h3.8zM464.2 28.6c-.9 12-11 21.4-22.9 21.4-12.7 0-23-10.3-23-23s10.3-23 23-23c2.5 0 5.1.4 7.5 1.3l.2.1 2.9-3-.5-.4c-3.2-1.3-6.7-2-10.1-2-14.8 0-26.9 12.1-26.9 26.9 0 14.8 12.1 26.9 26.9 26.9 14.1 0 25.9-11.1 26.8-25.2v-4.3l-3.9 4.1v.2zM13.2 78.2c-.6-.5-1.2-.8-2-1.2-.7-.3-1.5-.6-2.3-.8-.8-.3-1.5-.5-2.3-.8-.7-.3-1.4-.6-2-1-.6-.4-1-.8-1.4-1.4-.2-.5-.4-1.2-.4-2 0-.6.1-1.2.4-1.8.2-.6.6-1.1 1-1.5.5-.4 1-.8 1.7-1 .7-.3 1.5-.4 2.4-.4s1.6.1 2.3.3c.6.2 1.1.5 1.5.7.4.3.7.5 1 .7.2.2.4.3.6.3.2 0 .3-.1.5-.3l.4-.8c-.8-.8-1.8-1.5-2.8-1.9-1-.4-2.2-.6-3.4-.6-1.1 0-2.1.2-3 .5-.9.4-1.6.8-2.2 1.4-.6.6-1.1 1.3-1.4 2-.3.8-.5 1.6-.5 2.4 0 1.1.2 1.9.5 2.6.2.8.7 1.4 1.3 1.9.6.5 1.2.9 2 1.2.7.3 1.5.6 2.3.8.8.2 1.5.5 2.3.7.7.3 1.4.6 2 .9.6.4 1 .8 1.4 1.4.4.6.5 1.3.5 2.1s-.1 1.5-.4 2.2c-.3.7-.7 1.3-1.2 1.8s-1.2.9-1.9 1.2c-.8.3-1.6.4-2.6.4-.7 0-1.3-.1-1.9-.2-.6-.1-1-.3-1.5-.5-.4-.2-.8-.4-1.1-.7-.3-.2-.6-.5-.8-.7-.2-.2-.4-.4-.6-.5-.2-.1-.3-.2-.4-.2-.2 0-.3.1-.5.3l-.7 1c.9 1 1.9 1.8 3.1 2.4 1.2.6 2.6.9 4.2.9 1.2 0 2.4-.2 3.3-.6 1-.4 1.8-.9 2.5-1.6.7-.7 1.2-1.5 1.5-2.4.4-.9.5-1.9.5-2.9s-.2-1.8-.5-2.5c-.4-.8-.8-1.3-1.4-1.8zM120.6 65.2c-.1.1-.2.2-.2.3l-6.2 20.2c-.1.2-.1.5-.2.7 0 .3-.1.5-.2.8-.1-.3-.1-.6-.2-.8-.1-.3-.1-.5-.2-.7l-6.9-20.2c-.1-.1-.1-.3-.2-.3-.1-.1-.2-.1-.4-.1h-.5c-.2 0-.3 0-.4.1-.1.1-.2.2-.2.3l-6.9 20.2c-.1.2-.2.5-.2.7-.1.3-.1.5-.2.8-.1-.3-.1-.6-.2-.8-.1-.3-.1-.5-.2-.7l-6.2-20.2c-.1-.3-.3-.5-.6-.5h-1.5l7.7 24.6h1.6l7.3-21.3c.1-.3.2-.6.2-.9.1.3.1.6.2.9l7.3 21.3h1.6l7.7-24.6H121c-.1 0-.3.1-.4.2zM198.2 89.6h14.7v-1.5H200V77.9h10.7v-1.5H200v-9.9h12.9V65h-14.7zM307.9 68.3c-1-1.1-2.3-1.9-3.7-2.4-1.4-.6-3-.9-4.8-.9h-9v24.6h9c1.7 0 3.3-.3 4.8-.9 1.4-.6 2.7-1.4 3.7-2.4 1-1.1 1.8-2.4 2.4-3.9.6-1.5.8-3.2.8-5.1 0-1.9-.3-3.6-.8-5.1-.5-1.5-1.3-2.8-2.4-3.9zm.7 13.6c-.5 1.3-1.1 2.5-2 3.4-.9.9-1.9 1.6-3.1 2.1-1.2.5-2.6.7-4 .7h-7.2V66.5h7.2c1.5 0 2.8.2 4 .7 1.2.5 2.3 1.2 3.1 2.1.9.9 1.5 2.1 2 3.4.5 1.3.7 2.9.7 4.6 0 1.7-.2 3.3-.7 4.6zM388.7 89.6h14.7v-1.5h-12.9V77.9h10.8v-1.5h-10.8v-9.9h12.9V65h-14.7zM498.4 65v20.6c0 .3 0 .7.1 1l-15.9-21.3-.3-.3c-.1 0-.2-.1-.4-.1h-.9v24.6h1.5V68.9c0-.3 0-.6-.1-1l16 21.3c.2.2.4.3.6.3h.8V65h-1.4z"/></svg>