<svg viewBox="0 0 388.4 383"><radialGradient id="a" cx="105" cy="704.126" r="56.356" gradientTransform="translate(0 -477.176)" gradientUnits="userSpaceOnUse"><stop offset="0" stop-color="#93c01f"/><stop offset="1" stop-color="#214215"/></radialGradient><path fill="url(#a)" d="M144 196.5c0-8.1-2.5-15.6-6.7-21.8-1.5-2.2-3.3-4.3-5.2-6.2-2-2-4.3-3.7-6.7-5.2-6-3.7-13-5.8-20.5-5.8-21.5 0-39 17.5-39 39s17.5 39 39 39h13.6v-6.7H105c-17.8 0-32.3-14.5-32.3-32.3s14.5-32.3 32.3-32.3c7.8 0 14.9 2.7 20.5 7.3 2.6 2.1 4.9 4.7 6.7 7.6 3.2 5 5.1 11 5.2 17.4v99.9h6.7l-.1-99.9z"/><radialGradient id="b" cx="105" cy="717.926" r="53.969" gradientTransform="translate(0 -477.176)" gradientUnits="userSpaceOnUse"><stop offset="0" stop-color="#93c01f"/><stop offset="1" stop-color="#214215"/></radialGradient><path fill="url(#b)" d="M132.1 196.5c0-6.8-2.5-13-6.7-17.7-5-5.7-12.3-9.4-20.5-9.4v6.7c11.3 0 20.4 9.2 20.4 20.4V217H105c-11.3 0-20.4-9.2-20.4-20.4 0-11.3 9.2-20.4 20.4-20.4v-6.7c-15 0-27.1 12.2-27.1 27.1 0 15 12.2 27.1 27.1 27.1h20.4v88.4h6.7V196.5z"/><radialGradient id="c" cx="104.95" cy="688.176" r="82.293" gradientTransform="translate(0 -477.176)" gradientUnits="userSpaceOnUse"><stop offset="0" stop-color="#93c01f"/><stop offset="1" stop-color="#214215"/></radialGradient><path fill="url(#c)" d="M173 165.7c-1.5-3.3-3.2-6.5-5.2-9.5-2-3.1-4.3-6.1-6.7-8.9-1.6-1.9-3.4-3.6-5.2-5.3-2.1-1.9-4.2-3.8-6.5-5.5-1.6-1.2-3.3-2.3-5-3.4-2.1-1.3-4.2-2.5-6.4-3.6-1.6-.8-3.3-1.6-5-2.2-2.1-.9-4.3-1.6-6.5-2.3-6.8-2.1-14.1-3.2-21.6-3.2-41.2 0-74.7 33.5-74.7 74.7 0 18.1 6.5 34.8 17.3 47.7v-11.4c-6.7-10.5-10.5-23-10.5-36.3 0-37.5 30.5-68 68-68 7.3 0 14.3 1.2 20.9 3.3 2.2.7 4.4 1.6 6.6 2.5 1.7.8 3.4 1.6 5 2.5 2.3 1.2 4.5 2.6 6.6 4.1 1.8 1.3 3.5 2.6 5.1 4 2.4 2.1 4.6 4.3 6.7 6.6 1.9 2.1 3.6 4.3 5.2 6.6 2.6 3.9 4.9 8 6.7 12.4 3.3 8 5.2 16.8 5.2 25.9v101.1c2.4.6 4.6 1.6 6.7 2.7V196.5c0-10.9-2.4-21.4-6.7-30.8z"/><radialGradient id="d" cx="105.05" cy="692.326" r="72.584" gradientTransform="translate(0 -477.176)" gradientUnits="userSpaceOnUse"><stop offset="0" stop-color="#93c01f"/><stop offset="1" stop-color="#214215"/></radialGradient><path fill="url(#d)" d="M167.8 196.5c0-10.1-2.4-19.7-6.7-28.1-1.5-3-3.2-5.8-5.2-8.5-2-2.8-4.3-5.4-6.7-7.9-1.6-1.6-3.4-3.2-5.2-4.6-2.1-1.7-4.4-3.3-6.7-4.7-1.7-1-3.4-1.9-5.1-2.8-2.1-1-4.3-1.9-6.6-2.7-6.5-2.2-13.4-3.5-20.6-3.5-34.6 0-62.8 28.2-62.8 62.8 0 12.8 3.8 24.7 10.4 34.6 3.5 5.3 7.9 10.1 12.8 14.1 2.1 1.7 4.4 3.3 6.7 4.8v-8c-2.4-1.7-4.6-3.6-6.7-5.7-1.6-1.6-3.1-3.3-4.5-5.1-7.5-9.5-12-21.6-12-34.6 0-30.9 25.2-56.1 56.1-56.1 7.2 0 14.1 1.4 20.4 3.9 2.3.9 4.6 2 6.8 3.2 1.8 1 3.5 2.1 5.2 3.3 2.4 1.7 4.6 3.6 6.7 5.6 1.9 1.8 3.6 3.7 5.2 5.8 2.6 3.4 4.9 7.1 6.7 11 3.3 7.1 5.2 15.1 5.2 23.4v99.9h6.7l-.1-100.1z"/><radialGradient id="e" cx="105" cy="698.076" r="64.381" gradientTransform="translate(0 -477.176)" gradientUnits="userSpaceOnUse"><stop offset="0" stop-color="#93c01f"/><stop offset="1" stop-color="#214215"/></radialGradient><path fill="url(#e)" d="M155.9 196.5c0-9.1-2.4-17.7-6.7-25.2-1.5-2.6-3.2-5.1-5.2-7.4-2-2.4-4.3-4.7-6.7-6.7-1.6-1.4-3.4-2.6-5.2-3.7-2.1-1.4-4.4-2.6-6.7-3.6-6.3-2.8-13.2-4.3-20.5-4.3-28.1 0-50.9 22.9-50.9 50.9 0 16.5 7.9 31.2 20.2 40.6 4.7 3.6 10 6.4 15.8 8.1 4.7 1.5 9.8 2.2 15 2.2v-6.7c-5.3 0-10.3-.9-15-2.6-.9-.3-1.8-.7-2.6-1.1-15.6-6.8-26.6-22.4-26.6-40.6 0-24.4 19.8-44.2 44.2-44.2 7.4 0 14.3 1.8 20.5 5 2.4 1.2 4.6 2.7 6.7 4.3 1.8 1.4 3.6 3 5.2 4.7 2.6 2.8 4.9 6 6.7 9.4 3.3 6.2 5.2 13.2 5.2 20.7v99.9h6.7l-.1-99.7z"/><radialGradient id="f" cx="104.982" cy="695.726" r="109.898" gradientTransform="translate(0 -477.176)" gradientUnits="userSpaceOnUse"><stop offset="0" stop-color="#93c01f"/><stop offset="1" stop-color="#214215"/></radialGradient><path fill="url(#f)" d="M191.6 149.7c-2-3.6-4.2-7.1-6.6-10.5-1.5-2.1-3.1-4.1-4.7-6-1.9-2.2-3.8-4.4-5.9-6.4l-4.5-4.2c-1.9-1.7-3.8-3.3-5.9-4.8-1.5-1.1-3-2.2-4.6-3.2-2-1.3-4-2.5-6-3.7-1.5-.9-3.1-1.7-4.7-2.5-2-1-4.1-2-6.2-2.8-1.6-.7-3.2-1.3-4.9-1.9-2.1-.7-4.2-1.4-6.4-2-8.4-2.3-17.2-3.6-26.3-3.6-46.7 0-85.9 32.6-96 76.3-.4 1.8-.8 3.6-1.1 5.5-.9 5.5-1.5 11-1.5 16.8 0 1.6 0 3.3.1 4.9h6.7c-.1-1.6-.1-3.2-.1-4.9 0-50.6 41.2-91.8 91.8-91.8 8.5 0 16.8 1.2 24.6 3.4 2.2.6 4.3 1.3 6.4 2 1.7.6 3.3 1.2 4.9 1.9 2.1.9 4.2 1.9 6.2 3 1.6.8 3.2 1.7 4.7 2.6 2.1 1.2 4.1 2.6 6.1 4 1.6 1.1 3.1 2.3 4.6 3.5 2.1 1.7 4.1 3.5 6.1 5.4 1.6 1.6 3.2 3.2 4.7 4.9 2.3 2.5 4.4 5.2 6.3 7.9 1.9 2.6 3.6 5.3 5.2 8.1 2.7 4.7 4.9 9.6 6.7 14.8 3.3 9.5 5.2 19.7 5.2 30.3V339c.9-1.4 1.8-2.7 2.9-4 1.2-1.4 2.5-2.6 3.8-3.8V196.6c0-12.6-2.4-24.6-6.7-35.7-1.2-3.9-2.9-7.6-4.9-11.2z"/><radialGradient id="g" cx="105" cy="687.626" r="94.009" gradientTransform="translate(0 -477.176)" gradientUnits="userSpaceOnUse"><stop offset="0" stop-color="#93c01f"/><stop offset="1" stop-color="#214215"/></radialGradient><path fill="url(#g)" d="M184.9 163.1c-1.5-3.6-3.2-7-5.2-10.3-2-3.4-4.3-6.7-6.7-9.8-1.6-2-3.2-3.9-5-5.8-2-2.1-4.1-4.1-6.2-6-1.5-1.3-3.1-2.6-4.7-3.9-2-1.5-4.1-2.9-6.2-4.2-1.6-1-3.1-1.9-4.8-2.8-2-1.1-4.1-2.1-6.3-3.1-1.6-.7-3.2-1.4-4.9-2-2.1-.8-4.3-1.5-6.4-2.1-7.5-2.1-15.4-3.3-23.5-3.3-47.8 0-86.6 38.9-86.6 86.6 0 8.2 1.2 16.1 3.3 23.7h7c-2.3-7.5-3.6-15.4-3.6-23.7 0-44.1 35.8-79.9 79.9-79.9 7.8 0 15.2 1.1 22.3 3.2 2.2.6 4.3 1.4 6.5 2.2 1.7.6 3.3 1.3 4.9 2.1 2.2 1 4.3 2.1 6.4 3.3 1.6 1 3.3 2 4.8 3 2.2 1.5 4.3 3.1 6.4 4.8 1.7 1.4 3.4 2.9 4.9 4.5 2.4 2.3 4.6 4.8 6.6 7.5 1.9 2.4 3.6 4.8 5.2 7.4 2.7 4.3 4.9 8.9 6.7 13.6 3.3 8.8 5.2 18.3 5.2 28.2v107.2c2.6 2.2 4.9 4.7 6.7 7.6V196.3c0-11.6-2.4-22.9-6.7-33.2z"/><radialGradient id="h" cx="283.35" cy="699.126" r="86.796" gradientTransform="translate(0 -477.176)" gradientUnits="userSpaceOnUse"><stop offset="0" stop-color="#93c01f"/><stop offset="1" stop-color="#214215"/></radialGradient><path fill="url(#h)" d="M283.4 183.4c21.5 0 39-17.5 39-39s-17.5-39-39-39c-16 0-29.7 9.6-35.8 23.4-1.4 3.1-2.4 6.5-2.9 10-.3 1.8-.4 3.7-.4 5.6V331c1.3 1.1 2.6 2.3 3.8 3.6 1.1 1.2 2.1 2.5 3 3.9v-194c0-2.2.2-4.3.6-6.3 3-14.8 16-25.9 31.7-25.9 17.8 0 32.3 14.5 32.3 32.3s-14.5 32.3-32.3 32.3h-13.6v6.7l13.6-.2z"/><radialGradient id="i" cx="283.4" cy="705.076" r="80.588" gradientTransform="translate(0 -477.176)" gradientUnits="userSpaceOnUse"><stop offset="0" stop-color="#93c01f"/><stop offset="1" stop-color="#214215"/></radialGradient><path fill="url(#i)" d="M263 188.6v-17.1h20.4c15 0 27.1-12.2 27.1-27.1 0-15-12.2-27.1-27.1-27.1v6.7c11.3 0 20.4 9.2 20.4 20.4 0 11.3-9.2 20.4-20.4 20.4H263v-20.5c0-11.3 9.2-20.4 20.4-20.4v-6.7c-15 0-27.1 12.2-27.1 27.1v194.3c.9-1.4 1.8-2.7 2.9-3.9 1.2-1.3 2.4-2.5 3.8-3.6V188.6z"/><radialGradient id="j" cx="194.1" cy="640.826" r="179.576" gradientTransform="translate(0 -477.176)" gradientUnits="userSpaceOnUse"><stop offset="0" stop-color="#93c01f"/><stop offset="1" stop-color="#214215"/></radialGradient><path fill="url(#j)" d="M379.4 122.1c-10.1-43.7-49.3-76.3-96-76.3-29.9 0-56.6 13.4-74.7 34.4-1 1.2-2 2.4-2.9 3.6-1.1 1.4-2.1 2.8-3.1 4.2-1.3 1.9-2.6 3.8-3.7 5.7-.9 1.5-1.8 3.1-2.6 4.6-1.3-1.2-2.6-2.4-4-3.6.8-1.5 1.7-3.1 2.6-4.5 1.2-1.9 2.4-3.8 3.7-5.6 1-1.4 2-2.8 3.1-4.2 0-.1.1-.1.1-.2 19-24.1 48.4-39.6 81.4-39.6 45.2 0 83.7 29.1 97.9 69.5h7.1C374 66 332.4 34 283.4 34c-37.1 0-69.9 18.4-89.9 46.5-1.3 1.8-2.6 3.7-3.8 5.6l-2.7 4.5c-1.4-1.1-2.8-2.1-4.2-3.1.9-1.5 1.7-3 2.7-4.4 1.2-1.9 2.5-3.8 3.8-5.6 21-29.4 55.3-48.6 94.1-48.6 33.2 0 63.2 14.1 84.4 36.7 2.1 2.2 4.1 4.6 6 7h8.4c-4.3-5.9-9.2-11.4-14.5-16.5-22-21-51.7-33.9-84.4-33.9-41.1 0-77.5 20.4-99.7 51.5-1.3 1.8-2.6 3.7-3.8 5.6-.9 1.5-1.8 2.9-2.7 4.4-1.5-.9-2.9-1.8-4.4-2.7.9-1.5 1.7-3 2.7-4.4 1.2-1.9 2.5-3.8 3.8-5.6 23.1-32.6 61.1-54 104.1-54 12.7 0 24.9 1.9 36.5 5.4v-7c-11.6-3.3-23.9-5.1-36.5-5.1-45.4 0-85.7 22.7-110 57.4-1.3 1.8-2.5 3.7-3.7 5.6-.9 1.5-1.8 2.9-2.7 4.4-1.5-.8-3.1-1.6-4.6-2.3.9-1.5 1.7-3 2.7-4.4 1.2-1.9 2.4-3.8 3.7-5.7 21.1-30.5 54-52.1 92.1-58.4V0c-40.8 6.3-76 29.6-98.3 62.3-1.3 1.9-2.5 3.8-3.7 5.7-.9 1.5-1.8 3-2.6 4.5-1.6-.7-3.2-1.3-4.9-1.9.8-1.5 1.7-3 2.6-4.5 1.2-2 2.4-3.9 3.7-5.8 8.1-12.1 17.9-22.9 29-32.2h-10.2C166.8 37 158.2 47 151 58c-7.6-2.6-15.5-4.5-23.7-5.8V59c6.9 1.1 13.5 2.8 20 4.8-.9 1.5-1.8 3-2.6 4.5-12.6-3.9-26-6.1-39.9-6.1-12.7 0-24.9 1.8-36.5 5.1v7c11.6-3.5 23.8-5.4 36.5-5.4 12.8 0 25.1 1.9 36.8 5.4 2.2.7 4.3 1.4 6.4 2.1 1.6.6 3.3 1.2 4.9 1.9 2.1.8 4.1 1.7 6.2 2.7 1.6.7 3.1 1.5 4.6 2.3 2 1 3.9 2.1 5.9 3.3 1.5.9 3 1.8 4.4 2.7 1.9 1.2 3.8 2.5 5.6 3.8 1.4 1 2.8 2.1 4.2 3.2 1.8 1.4 3.6 2.9 5.3 4.5 1.4 1.2 2.7 2.4 4 3.7-.7 1.7-1.5 3.4-2.1 5.1-1.3-1.3-2.7-2.6-4-3.8-1.8-1.6-3.6-3.1-5.4-4.6l-4.2-3.3c-1.8-1.4-3.7-2.6-5.6-3.9-1.5-1-2.9-1.9-4.4-2.8-1.9-1.2-3.9-2.2-5.9-3.3-1.5-.8-3.1-1.6-4.6-2.3-2-1-4.1-1.8-6.2-2.7-1.6-.7-3.2-1.3-4.9-1.9-2.1-.8-4.3-1.4-6.4-2.1-10.9-3.2-22.5-5-34.5-5-32.7 0-62.4 12.9-84.4 33.9-5.3 5.1-10.1 10.6-14.5 16.5h8.4c1.9-2.4 3.9-4.7 6-7C41.7 95.1 71.7 81 105 81c11 0 21.7 1.6 31.8 4.5 2.2.6 4.3 1.3 6.4 2 1.6.6 3.3 1.2 4.9 1.8 2.1.8 4.1 1.7 6.2 2.7 1.6.7 3.1 1.5 4.6 2.3 2 1.1 4 2.2 5.9 3.3 1.5.9 3 1.9 4.4 2.8 1.9 1.3 3.8 2.6 5.6 4 1.5 1.1 2.9 2.3 4.3 3.4 1.9 1.6 3.7 3.2 5.4 4.9 1.4 1.4 2.8 2.7 4.2 4.2-.6 2-1.1 4-1.5 6-1.4-1.5-2.8-3.1-4.3-4.5-1.8-1.8-3.6-3.5-5.5-5.1-1.4-1.2-2.9-2.4-4.3-3.6-1.8-1.5-3.7-2.9-5.7-4.2-1.5-1-3-2-4.5-2.9-1.9-1.2-3.9-2.3-5.9-3.4-1.5-.8-3.1-1.6-4.6-2.4-2-1-4.1-1.9-6.2-2.7-1.6-.6-3.2-1.3-4.9-1.8-2.1-.7-4.3-1.4-6.4-2-9.5-2.7-19.6-4.2-30-4.2-49 0-90.6 32-105 76.2H7c14.2-40.4 52.7-69.5 97.9-69.5 9.6 0 18.9 1.3 27.8 3.8 2.2.6 4.3 1.3 6.4 2 1.6.6 3.3 1.2 4.9 1.8 2.1.9 4.2 1.8 6.2 2.7 1.6.8 3.1 1.6 4.7 2.4 2 1.1 4 2.3 6 3.6 1.5 1 3 2 4.5 3.1 2 1.4 3.9 2.9 5.8 4.4 1.5 1.3 3 2.6 4.4 3.9 2 1.8 3.9 3.7 5.7 5.7 1.5 1.7 3 3.4 4.4 5.2 2.1 2.6 4.1 5.4 6 8.2 1.8 2.8 3.5 5.7 5.1 8.6 2.7 5 4.9 10.3 6.7 15.8 3.3 10 5.1 20.6 5.2 31.6v131.7c1.6-.9 3.3-1.6 5.1-2.3.5-.2 1.1-.3 1.6-.5V143.5c0-3.3.3-6.6.8-9.7.5-3.2 1.2-6.4 2.1-9.5.6-2.1 1.4-4.1 2.2-6.1 1-2.4 2.1-4.7 3.3-7 .9-1.6 1.9-3.2 2.9-4.8 1.3-1.9 2.7-3.8 4.2-5.6C243.4 85.6 262.3 76 283.4 76c37.5 0 68 30.5 68 68 0 13.3-3.9 25.8-10.5 36.3v11.4c10.8-13 17.3-29.6 17.3-47.7 0-41.2-33.5-74.7-74.7-74.7-22.7 0-43.1 10.2-56.8 26.2-1.5 1.7-2.9 3.6-4.2 5.4-1 1.5-2.1 3-3 4.5-1.3 2.1-2.4 4.3-3.5 6.5-.9 1.8-1.6 3.6-2.3 5.5-1 2.6-1.9 5.3-2.6 8-.6 2.4-1.1 4.8-1.5 7.3-.6 3.7-.9 7.4-.9 11.3v14.2c-1.5-4-3.2-8-5.2-11.8v-2.5c0-2.6.1-5.1.4-7.6.3-3.3.9-6.6 1.6-9.8.5-2.2 1.1-4.4 1.7-6.5.8-2.5 1.7-5 2.7-7.4.8-1.8 1.6-3.5 2.5-5.2 1.1-2.1 2.3-4.2 3.6-6.2 1-1.5 2-3 3-4.4 1.3-1.8 2.8-3.6 4.3-5.3 14.7-16.8 36.2-27.4 60.2-27.4 44.1 0 79.9 35.9 79.9 79.9 0 8.2-1.3 16.2-3.6 23.7h7c2.1-7.5 3.3-15.5 3.3-23.7 0-47.8-38.9-86.6-86.6-86.6-25.7 0-48.9 11.3-64.8 29.2-1.5 1.7-2.9 3.4-4.3 5.2-1.1 1.4-2.1 2.8-3 4.3-1.3 1.9-2.5 3.9-3.6 6-.9 1.6-1.7 3.2-2.5 4.9-1.1 2.2-2 4.5-2.9 6.9-.7 1.9-1.3 3.8-1.9 5.8-.8 2.7-1.5 5.5-2 8.4-.5 2.5-.8 5-1.1 7.5-1.4-2.1-2.9-4.2-4.4-6.2.4-2.3.8-4.5 1.3-6.7.6-2.6 1.4-5.2 2.2-7.7.6-1.8 1.3-3.7 2-5.5.9-2.2 1.9-4.4 3-6.6.8-1.6 1.7-3.2 2.6-4.8 1.2-2 2.4-4 3.7-5.8 1-1.4 2-2.9 3.1-4.2 1.4-1.8 2.8-3.5 4.3-5.2 16.8-18.8 41.3-30.7 68.4-30.7 50.6 0 91.8 41.2 91.8 91.8 0 1.6 0 3.3-.1 4.9h6.7c.1-1.6.1-3.2.1-4.9 0-5.7-.5-11.3-1.5-16.8-.4-1.4-.8-3.3-1.2-5.1z"/><radialGradient id="k" cx="283.45" cy="679.776" r="96.381" gradientTransform="translate(0 -477.176)" gradientUnits="userSpaceOnUse"><stop offset="0" stop-color="#93c01f"/><stop offset="1" stop-color="#214215"/></radialGradient><path fill="url(#k)" d="M346.2 144.4c0-34.6-28.2-62.8-62.8-62.8-20 0-37.8 9.4-49.3 24-1.5 1.9-2.8 3.8-4.1 5.8-1 1.6-2 3.3-2.8 5.1-1.2 2.4-2.3 5-3.2 7.6-.8 2.3-1.4 4.6-1.9 6.9-.8 3.9-1.3 7.8-1.4 11.9v180.7h6.7V144.4c0-.9 0-1.9.1-2.8.2-3.2.6-6.3 1.3-9.3.7-3.1 1.6-6 2.8-8.9.8-1.9 1.7-3.8 2.7-5.7 1.2-2.2 2.5-4.3 4-6.3 10.2-14 26.7-23.2 45.4-23.2 30.9 0 56.1 25.2 56.1 56.1 0 13-4.5 25.1-12 34.6-1.4 1.8-2.9 3.5-4.5 5.1-2.1 2.1-4.3 4-6.7 5.7v8.1c2.4-1.5 4.6-3.1 6.7-4.8 5-4 9.3-8.8 12.8-14.1 6.3-9.9 10.1-21.7 10.1-34.5z"/><radialGradient id="l" cx="283.35" cy="687.626" r="90.203" gradientTransform="translate(0 -477.176)" gradientUnits="userSpaceOnUse"><stop offset="0" stop-color="#93c01f"/><stop offset="1" stop-color="#214215"/></radialGradient><path fill="url(#l)" d="M334.3 144.4c0-28.1-22.8-50.9-50.9-50.9-17.7 0-33.3 9.1-42.4 22.8-1.4 2.2-2.7 4.4-3.8 6.8-1 2.1-1.8 4.2-2.5 6.4-1.1 3.6-1.8 7.3-2.1 11.2-.1 1.2-.2 2.5-.2 3.7v180.3c2.3.6 4.6 1.5 6.7 2.7v-183c0-1.6.1-3.3.3-4.9.3-2.9.9-5.8 1.8-8.5.9-2.8 2.1-5.5 3.5-8 7.6-13.6 22.1-22.8 38.7-22.8 24.4 0 44.2 19.8 44.2 44.2 0 18.1-11 33.7-26.6 40.6-.9.4-1.7.7-2.6 1.1-4.7 1.7-9.7 2.6-15 2.6v6.7c5.2 0 10.2-.8 15-2.2 5.8-1.8 11.1-4.6 15.8-8.1 12.2-9.5 20.1-24.2 20.1-40.7z"/><path fill="#1D1D1B" d="M125.4 328.9V383h6.8v-54.1h-6.8zm0-11.7v6.7h6.8v-6.7h-6.8zm125.8 38.5v-.9c0-.7-.1-1.3-.1-1.9-.5-4.2-1.9-8.2-4.1-11.6-.8-1.2-1.7-2.4-2.6-3.5-1.5-1.7-3.3-3.2-5.2-4.5-2.1-1.4-4.3-2.5-6.7-3.3-1.7-.5-3.4-.9-5.2-1.1-1-.1-2.1-.2-3.2-.2v6.7c1.1 0 2.1.1 3.2.3 1.8.3 3.5.8 5.2 1.5 2.6 1.2 4.9 2.8 6.7 4.9 2.8 3 4.6 6.8 5.2 11.1v23.1h-20.3c-1.2 0-2.4-.1-3.5-.3-1.8-.3-3.5-.9-5.2-1.6-2.6-1.2-4.9-3-6.7-5.1-3.1-3.6-5-8.2-5-13.3 0-5.1 1.9-9.8 5-13.4 1.9-2.1 4.1-3.9 6.7-5.1 1.6-.8 3.3-1.3 5.2-1.6 1.2-.2 2.3-.3 3.5-.3v-6.7c-1.2 0-2.4.1-3.5.3-1.8.2-3.5.6-5.2 1.2-2.3.8-4.4 1.8-6.4 3.2-.1.1-.2.2-.3.2-1.9 1.3-3.6 2.9-5.2 4.7-3.4 3.9-5.6 8.8-6.3 14.2-.1 1.1-.2 2.3-.2 3.4 0 6.7 2.5 12.9 6.6 17.6 1.5 1.8 3.2 3.3 5.2 4.7 2.1 1.4 4.3 2.6 6.7 3.4 1.7.6 3.4 1 5.2 1.2v.3h30.7v-20.7l-.2-6.9zM263 338c-4 4.6-6.5 10.5-6.7 17v-4.3h-.1V383h6.7v-27.2c0-11.3 9.2-20.4 20.4-20.4v-6.7c-8-.1-15.4 3.6-20.3 9.3zm-71.3 17.8c0-.5 0-1-.1-1.5-.2-4.4-1.6-8.5-3.7-12.1 1.8-3.1 3-6.5 3.5-10.2.1-.7.1-1.4.2-2.1 0-.4.1-.9.1-1.3v-.9c-.2-6.5-2.7-12.4-6.7-17-1.5-1.7-3.3-3.3-5.2-4.6-2.1-1.4-4.3-2.5-6.7-3.3-1.7-.5-3.4-.9-5.2-1.2-1.1-.1-2.2-.2-3.3-.2h-27.1v54.4c0 5.3 1.6 10.3 4.3 14.5.7 1.1 1.5 2.2 2.4 3.2.1.1.1.2.2.3 1.5 1.6 3.1 3.1 5 4.3 2.1 1.4 4.3 2.6 6.7 3.4 1.7.6 3.4.9 5.2 1.2v.3h3.4v-6.7c-1.2 0-2.3-.1-3.4-.3-1.8-.3-3.6-.9-5.2-1.6-2.6-1.2-4.9-2.9-6.7-5-3.2-3.6-5.1-8.3-5.1-13.5V308.3h20.4c1.1 0 2.2.1 3.3.3 1.8.3 3.5.8 5.2 1.6 2.6 1.2 4.9 2.9 6.7 5 3 3.4 4.9 7.8 5.2 12.6v1.9c-.1 2.4-.6 4.7-1.5 6.8-.9 2.2-2.1 4.1-3.7 5.8 1.5 1.7 2.8 3.7 3.7 5.8.9 2.1 1.4 4.4 1.5 6.8v2c-.3 4.8-2.2 9.2-5.2 12.5-1.9 2.1-4.1 3.8-6.7 5-1.6.7-3.4 1.3-5.2 1.6-1.1.2-2.2.3-3.3.3v6.7c1.1 0 2.2-.1 3.3-.2 1.8-.2 3.5-.6 5.2-1.2.1 0 .1 0 .2-.1 2.3-.8 4.5-1.8 6.4-3.2 0 0 .1 0 .1-.1 1.9-1.3 3.6-2.9 5.2-4.6l.2-.2c3.4-3.9 5.6-8.8 6.3-14.2.1-.7.1-1.3.2-2-.2-.4-.1-.9-.1-1.4z"/></svg>