<svg viewBox="0 0 547.2 228"><path fill="#231F20" d="M3.6 0h4v139.9h61.3v3.6H3.6V0zm138.1 143.5h-4v-18.7h-.4c-1.8 9.2-11.7 21.1-26.5 21.1-19.9.1-26.8-13.2-26.8-31.5V39.8h4V114c0 22.9 10.2 28.4 22.7 28.4 8.8 0 26.9-6.8 26.9-36.4V39.8h4v103.7h.1zM163 0h4v143.5h-4V0zm61.1 0h4.8l45.4 143.5h-4l-14.7-46.6h-58.5l-14.7 46.6h-4L224.1 0zm2.7 3.6h-.4l-27.9 89.7h56.3l-28-89.7zM320.9 0h4.8l45.4 143.5h-4l-14.7-46.6h-58.5l-14.7 46.6h-4L320.9 0zm2.6 3.6h-.4l-27.9 89.7h56.3l-28-89.7zm58.3 36.2h4v18.7h.4c1.8-9.2 11.7-21.1 26.5-21.1 19.9 0 26.7 13.3 26.7 31.6v74.6h-4V69.4c0-22.9-10.2-28.4-22.7-28.4-8.8 0-26.9 6.8-26.9 36.4v66.1h-4V39.8zM495.8 0h4.8L546 143.5h-4l-14.7-46.6h-58.5l-14.7 46.6h-4L495.8 0zm2.6 3.6h-.4l-28 89.7h56.3L498.4 3.6zM4.9 192.6h1v30.1c0 4-1.6 5.3-4.6 5.3-.4 0-1 0-1.3-.1v-.9h1.4c2.6 0 3.5-1.1 3.5-4.2v-30.2zm0-10.1h1v5h-1v-5zm79.8 22.7c0 7.9 1.7 13.4 7.4 13.4 5 0 6.5-5.1 6.7-8.3h1c-.3 5.2-3.2 9.2-7.7 9.2-5.9 0-8.4-5-8.4-14.6 0-8.1 2.6-13 8.4-13 6.1 0 7.9 5.4 7.9 11.4v1.8H84.7v.1zm14.3-.9v-1.8c0-4-1.2-9.6-6.9-9.6-5.6 0-7.3 5.4-7.4 11.4H99zm76.3-11.7h1l5 25.4h.1l5.4-25.4h1.5l5.2 25.4h.1l5.1-25.4h1l-5.5 26.4h-1.4l-5.3-25.4h-.1L182 219h-1.4l-5.3-26.4zm100.9 12.6c0 7.9 1.7 13.4 7.4 13.4 5 0 6.5-5.1 6.7-8.3h1c-.3 5.2-3.2 9.2-7.7 9.2-5.9 0-8.4-5-8.4-14.6 0-8.1 2.6-13 8.4-13 6.1 0 7.9 5.4 7.9 11.4v1.8h-15.3v.1zm14.3-.9v-1.8c0-4-1.2-9.6-6.9-9.6-5.6 0-7.3 5.4-7.4 11.4h14.3zm78.5-21.8h1V219h-1v-36.5zm79.5 10.1h1v4.7h.1c.5-2.3 3-5.4 6.7-5.4h1v.9h-1c-2.2 0-6.8 1.7-6.8 9.2v17h-1v-26.4zm82.8 0h1l7.1 25h.1l6.7-25h1l-7.5 27.4c-1.7 6.2-2.8 7.9-6.4 7.9-.6 0-1.1-.1-1.4-.1v-.9c.4.1 1 .1 1.5.1 1.1 0 2.1-.3 2.9-1 .8-.7 1.8-3.3 2.7-6.9l-7.7-26.5z"/></svg>