<svg viewBox="0 0 600 90.8"><path fill="#75C8E8" d="M135.1 49.5c-1.5-1.1-3.3-2.1-5.3-2.9-1.9-.8-4-1.5-6.2-2.3-1.6-.5-3.1-1.1-4.6-1.7-1.4-.6-2.7-1.4-3.9-2.3-1.1-.9-2-1.9-2.6-3.2-.6-1.2-1-2.7-1-4.6 0-1.8.4-3.5 1.1-4.8.7-1.4 1.7-2.5 3-3.4 1.2-.9 2.7-1.6 4.2-2.1 3.8-1.1 7.9-.9 11.3.6 1.9.9 3.6 2.1 4.8 3.7l.8.9 3-2.6-.7-.9c-1.6-2-3.7-3.5-6.3-4.6-4.5-1.9-9.9-2.1-14.4-.6-2.1.6-3.9 1.6-5.5 2.8-1.6 1.3-2.9 2.8-3.8 4.6-.9 1.8-1.4 4-1.4 6.3 0 2.4.4 4.4 1.2 6.1.8 1.7 1.9 3.1 3.3 4.4 1.4 1.2 3 2.2 4.9 3 1.8.8 3.8 1.5 6 2.2 1.7.5 3.4 1.1 5 1.8 1.6.6 3 1.4 4.2 2.3 1.2.9 2.2 2 2.9 3.2s1.1 2.7 1.1 4.5-.3 3.4-1 4.8-1.6 2.6-2.8 3.5c-1.2 1-2.6 1.7-4.2 2.2-3.8 1.2-8.3 1-12.3-.6-2.3-.9-4.3-2.4-6.1-4.2l-.8-.8-3 2.6.8.9c1.9 2.1 4.2 3.7 7 4.9 2.8 1.2 5.9 1.8 9.3 1.8 2.2 0 4.4-.3 6.4-1 2.1-.7 3.9-1.6 5.4-2.9s2.8-2.9 3.7-4.8 1.4-4 1.4-6.4-.5-4.4-1.3-6.1c-.8-1.7-2-3.2-3.6-4.3zm42.4-8c-1-1.5-2.4-2.8-4.1-3.7-1.7-.9-3.9-1.4-6.4-1.4-1.6 0-3.1.2-4.6.7s-2.9 1.2-4.1 2.1c-1.3.9-2.4 2-3.4 3.3-.1.1-.2.3-.3.4v-.2c0-.9 0-1.7-.1-2.4 0-.8-.1-1.4-.1-1.9l-.1-1h-3.9l.1 1.3c0 .5.1 1.1.1 1.8s.1 1.5.1 2.3l.1 2.4v28.2h3.9v-18c0-2.4.3-4.6 1-6.5s1.5-3.5 2.6-4.8 2.4-2.3 3.8-3c1.5-.7 3.1-1 4.8-1 1.9 0 3.4.4 4.6 1.1 1.2.8 2.2 1.7 2.9 2.8s1.2 2.4 1.5 3.8c.3 1.5.4 2.9.4 4.2v21.4h3.9V52c0-1.8-.2-3.7-.6-5.5-.3-1.8-1.1-3.5-2.1-5zm44.3.3c-1.7-1.7-3.7-3-6-3.9s-4.8-1.4-7.6-1.4c-2.7 0-5.3.5-7.5 1.4-2.3.9-4.3 2.2-5.9 3.9-1.7 1.7-3 3.7-3.9 6s-1.4 4.9-1.4 7.6c0 2.8.5 5.4 1.4 7.7.9 2.3 2.2 4.4 3.9 6.1s3.7 3 6 4c2.3.9 4.8 1.4 7.5 1.4s5.3-.5 7.6-1.4 4.3-2.3 6-4 3-3.7 3.9-6.1c.9-2.3 1.4-4.9 1.4-7.7s-.5-5.3-1.4-7.6c-1-2.3-2.3-4.3-4-6zm-13.5-1.6c2.3 0 4.4.4 6.2 1.2s3.4 1.9 4.7 3.2c1.3 1.4 2.3 3 2.9 4.8.7 1.9 1 3.9 1 6s-.3 4.2-1 6-1.7 3.5-2.9 4.8c-1.3 1.4-2.9 2.5-4.7 3.3s-3.9 1.2-6.2 1.2-4.4-.4-6.2-1.2c-1.8-.8-3.4-1.9-4.6-3.3-1.3-1.4-2.3-3-2.9-4.8-.7-1.9-1-3.9-1-6s.3-4.1 1-6c.7-1.8 1.7-3.5 2.9-4.8 1.3-1.4 2.8-2.5 4.6-3.2 1.8-.8 3.9-1.2 6.2-1.2zM268 67.1l-10-29.6h-4l-10 29.6-8.5-29.6h-4.1l10.5 36h3.9L256 43.8l10.2 29.7h3.9l10.5-36h-4L268 67.1zM319.1 42c-1.6-1.7-3.5-3-5.7-4s-4.7-1.5-7.3-1.5c-3.4 0-6.6.9-9.5 2.7-1.8 1.2-3.4 2.7-4.7 4.5V15.8h-4v57.7h4v-6.1c.2.3.5.6.7.9 1.1 1.3 2.4 2.5 3.8 3.4s3 1.6 4.6 2.1 3.3.7 5 .7c2.6 0 5-.5 7.2-1.5s4.1-2.3 5.7-4 2.8-3.7 3.7-6c.9-2.3 1.3-4.8 1.3-7.5s-.4-5.3-1.3-7.6c-.7-2.2-1.9-4.2-3.5-5.9zm-13-1.8c2.2 0 4.1.4 5.8 1.2 1.7.8 3.2 2 4.4 3.3 1.2 1.4 2.2 3 2.8 4.9.7 1.9 1 3.9 1 5.9 0 2.1-.3 4-1 5.9s-1.6 3.5-2.8 4.9c-1.2 1.4-2.7 2.5-4.4 3.3-1.7.8-3.7 1.2-5.8 1.2-2.1 0-4-.4-5.7-1.2-1.7-.8-3.2-1.9-4.5-3.3s-2.3-3-3-4.9-1.1-3.9-1.1-6 .4-4.1 1.1-6 1.7-3.5 3-4.9 2.8-2.5 4.5-3.3c1.7-.6 3.6-1 5.7-1zm53.3 28.5c-.1-1.4-.2-2.7-.2-4V50c0-4.6-1.3-8-3.7-10.2-2.4-2.2-5.8-3.3-9.9-3.3-2 0-4.1.4-6.2 1.1-2.1.8-4 1.9-5.7 3.3l-.8.7 2.2 3.2 1-.9c1.3-1.1 2.7-2 4.3-2.7 1.6-.7 3.3-1 5.2-1 2.9 0 5.3.8 7.1 2.3 1.7 1.5 2.6 4 2.6 7.4v1.6h-4.7c-1.8 0-3.8.1-6 .4-2.2.3-4.3.8-6.3 1.7s-3.7 2.1-5.1 3.7c-1.4 1.7-2.1 3.9-2.1 6.5 0 1.8.4 3.5 1.1 4.9.7 1.4 1.7 2.5 2.9 3.4 1.2.9 2.5 1.5 4 1.9 1.4.4 2.9.6 4.4.6 2.9 0 5.7-.8 8.3-2.4 1.5-.9 2.7-2.1 3.7-3.6.1.7.1 1.4.2 2.1.1.8.1 1.4.2 1.9l.2.9h3.8l-.2-1.3c-.1-.9-.2-2.1-.3-3.5zm-4.1-11.5c0 1.6-.2 3.2-.6 4.8s-1 3-1.9 4.4c-.9 1.3-2.1 2.4-3.6 3.2-1.5.8-3.4 1.2-5.7 1.2-.9 0-1.9-.1-3-.4-1-.3-2-.7-2.8-1.2s-1.5-1.2-2-2.1-.8-2-.8-3.3c0-1.9.5-3.3 1.4-4.4 1-1.1 2.2-2 3.8-2.6 1.6-.6 3.4-1.1 5.3-1.3 2-.2 3.9-.3 5.7-.3h4l.2 2zm16-41.4h3.9v57.7h-3.9V15.8zm16.5 0h3.9v57.7h-3.9V15.8zm35.2 3.6h3.9v54.2H423V19.4zm43.7 22.1c-1-1.5-2.4-2.8-4.1-3.7s-3.9-1.4-6.4-1.4c-1.6 0-3.1.2-4.6.7s-2.9 1.2-4.1 2.1c-1.3.9-2.4 2-3.4 3.3-.1.1-.2.3-.3.4l-.1-2.6c0-.8-.1-1.4-.1-1.9l-.1-1h-3.9l.1 1.3c0 .5.1 1.1.1 1.8s.1 1.5.1 2.3l.1 2.4v28.2h3.9v-18c0-2.4.3-4.6 1-6.5s1.5-3.5 2.6-4.8 2.4-2.3 3.8-3c1.5-.7 3.1-1 4.8-1 1.9 0 3.4.4 4.6 1.1 1.2.8 2.2 1.7 2.9 2.8.7 1.1 1.2 2.4 1.5 3.8.3 1.5.4 2.9.4 4.2v21.4h3.9V52c0-1.8-.2-3.7-.6-5.5-.3-1.8-1.1-3.5-2.1-5zm24.8 26.2l-11.8-30.2h-4.3l14.2 36h3.7l13.8-36h-4.3l-11.3 30.2zM540.4 42c-1.4-1.6-3.2-3-5.3-4s-4.6-1.5-7.4-1.5c-2.4 0-4.7.5-6.8 1.4s-3.9 2.2-5.5 3.9c-1.5 1.7-2.8 3.7-3.6 5.9-.9 2.3-1.3 4.8-1.3 7.4 0 2.8.4 5.4 1.3 7.7.9 2.4 2.1 4.5 3.7 6.2 1.6 1.7 3.5 3.1 5.7 4 2.2 1 4.6 1.5 7.3 1.5 3.1 0 5.9-.6 8.2-1.8 2.4-1.2 4.5-3 6.2-5.2l.7-.9-2.9-2.6-.7 1c-1.4 1.9-3.1 3.3-5 4.2-1.9 1-4.1 1.4-6.5 1.4s-4.5-.5-6.2-1.3c-1.7-.9-3.2-2.1-4.3-3.5-1.2-1.5-2-3.2-2.6-5-.5-1.5-.7-3-.8-4.6h30.1v-2.5c0-2.1-.3-4.2-1-6.3-.8-2-1.9-3.8-3.3-5.4zm-22.8 3.2c1-1.4 2.4-2.6 4.1-3.6 1.6-.9 3.6-1.4 5.9-1.4 1.9 0 3.7.3 5.3 1 1.5.6 2.9 1.6 4 2.7 1.1 1.2 2 2.6 2.7 4.3.5 1.3.9 2.8 1 4.4h-26c.1-.9.3-1.9.7-2.9.5-1.6 1.3-3.1 2.3-4.5zm54.3 11.1c-1-.7-2.2-1.4-3.6-1.9-1.3-.5-2.6-.9-4-1.2s-2.7-.7-3.8-1-2-.7-2.7-1.2c-.7-.4-1.2-1-1.5-1.7-.4-.7-.6-1.7-.6-3 0-1.1.2-2 .7-2.8s1.1-1.4 1.8-1.9 1.6-.8 2.5-1c3-.7 5.5-.3 7.3.6 1.3.6 2.4 1.6 3.4 2.9l.6.8 3.4-1.9-.7-1c-2.5-3.6-6.3-5.4-11.3-5.4-1.4 0-2.8.2-4.1.6-1.4.4-2.6 1-3.7 1.8s-2 1.8-2.7 3.1c-.7 1.2-1 2.7-1 4.4 0 1.6.3 3 .8 4.2s1.3 2.1 2.2 2.9c.9.7 2 1.3 3.1 1.8 1.1.4 2.3.8 3.6 1.2 1.1.3 2.3.6 3.6 1 1.2.3 2.3.8 3.3 1.3.9.5 1.7 1.2 2.3 2s.8 1.8.8 3.1c0 1.1-.2 2.1-.7 3-.5.9-1.1 1.6-1.9 2.2-.8.6-1.7 1.1-2.7 1.4s-2 .5-2.9.5c-4.2 0-7.4-1.5-9.6-4.6l-.6-.9-3.2 2.2.7 1c1.4 2 3.3 3.6 5.5 4.6s4.6 1.5 7.3 1.5c1.6 0 3.2-.2 4.6-.7 1.4-.5 2.7-1.2 3.8-2.1s2-2.1 2.7-3.4 1-2.9 1-4.6c0-1.7-.3-3.2-1-4.4-.8-1.7-1.6-2.6-2.7-3.4zm27.5 13.3l-1.3.5c-1 .4-2.1.6-3.3.6-1.6 0-2.8-.4-3.7-1.2-.9-.8-1.3-2.1-1.3-4.1V41.2h9.9v-3.7h-9.9v-9.9h-3.9v9.9h-7.3v3.7h7.3v24.2c0 2.5.6 4.6 1.9 6.3 1.3 1.8 3.6 2.7 6.6 2.7.8 0 1.6-.1 2.5-.2.9-.2 1.6-.4 2.3-.7l.9-.4-.7-3.5z"/><g fill="#75C5E6"><path d="M71.4 8c-1.2-.8-3.7-1.9-7.7-3.6l-7.6-3.2C54.3.4 52 0 49 0c-3.7 0-9.2.9-16.4 2.8l-1.1.2C21.3 5.6 21 5.8 13.4 15.2l-.4.4c-1 1.2-2.2 2.7-3.5 4.3C1.2 30.2 0 34.3 0 44.1c0 8.5 2.6 21.5 9.8 30.1 4.7 5.4 14.4 11.9 20.4 13.5 7.2 2.1 13.5 3.1 18.8 3.1 3.4 0 7.5-.9 12.1-2.6C69.7 85 74.8 82.1 80.2 74l2.7-2.5c1.4-1.3 2.3-2.4 2.6-3.4l.4-1.1c1.5-4.7 4.9-15.7 4.9-20.4 0-5.3-.9-11.1-2.7-17-2.7-8.8-7.8-15.4-16.7-21.6zm17 40.6c-.1.7-.2 1.5-.4 2.4-.1.6-.2 1.1-.4 1.7-1.1 4.9-3 10.9-3.8 13.7l-.4 1.1c-.1.3-.5 1.1-2 2.4l-2.8 2.5-.1.2c-5.2 7.8-9.8 10.5-18.3 13.6-4.3 1.6-8.1 2.4-11.3 2.4-5.1 0-11.2-1-18.2-3C25 84 15.8 77.9 11.3 72.7 4.5 64.6 2 52.1 2 43.9c0-9.2 1.1-13 9.1-22.8 1.3-1.5 2.4-2.9 3.4-4.1l.4-.6c7.3-9.1 7.3-9.1 17-11.5l1.2-.3C40.2 3 45.5 2.1 49 2.1c2.6 0 4.7.3 6.2 1l7.7 3.2c3.9 1.6 6.2 2.6 7.3 3.3.8.6 1.5 1.1 2.3 1.7.2.2.5.4.7.5.5.4.9.8 1.4 1.2.4.4.9.8 1.3 1.1l.6.6 1.7 1.7c.1.1.1.2.2.2.9 1 1.7 2 2.5 3 2.3 3.1 3.9 6.5 5.1 10.3 1.7 5.8 2.6 11.3 2.6 16.4 0 .9-.1 1.6-.2 2.3z"/><path d="M43.7 44.5v1.9l1.7 1 1.7-1v-1.9l-1.7-1-1.7 1zm2.3 1.3l-.7.4-.7-.4V45l.7-.4.7.4v.8z"/><path d="M70.9 41.6c-.6 0-1.3.2-1.8.5h-2.7l.7-.7c.6-.6 1-1.5 1-2.4s-.4-1.7-1-2.4c-1.3-1.3-3.5-1.3-4.7 0L57 42h-5.7l2.8-4.9 7.4-2c1.8-.5 2.9-2.3 2.4-4.1-.5-1.8-2.3-2.8-4.1-2.4l-.9.2 1.4-2.4c.5-.3 1-.8 1.3-1.3 1.1-1.8.4-4.2-1.4-5.2-.9-.5-1.9-.6-2.9-.4-1 .3-1.8.9-2.3 1.8-.3.5-.5 1.2-.5 1.8L53 25.5l-.2-.9c-.2-.9-.8-1.6-1.6-2-.8-.5-1.7-.6-2.5-.3-.9.2-1.6.8-2 1.6-.4.8-.6 1.7-.3 2.5l2 7.4-2.9 4.9-2.9-4.9 2-7.4c.2-.9.1-1.8-.3-2.5-.4-.8-1.2-1.3-2-1.6-.9-.2-1.8-.1-2.5.3-.8.4-1.3 1.2-1.6 2l-.2.9-1.4-2.3c0-.6-.2-1.2-.5-1.8-.5-.9-1.3-1.5-2.3-1.8s-2-.1-2.9.4c-1.8 1.1-2.4 3.4-1.4 5.2.3.5.8 1 1.3 1.3l1.4 2.4-.9-.2c-1.8-.5-3.6.6-4.1 2.4-.2.9-.1 1.8.3 2.5s1.2 1.3 2 1.6l7.4 2 2.8 4.9H34l-5.4-5.4c-1.2-1.2-3.5-1.2-4.7 0-.6.6-1 1.5-1 2.4s.3 1.7 1 2.4l.7.7h-2.8c-.6-.3-1.2-.5-1.8-.5-2.1 0-3.8 1.7-3.8 3.8s1.7 3.8 3.8 3.8c.6 0 1.3-.2 1.8-.5h2.7l-.7.7c-.6.6-1 1.5-1 2.4s.3 1.7 1 2.4c1.3 1.3 3.5 1.3 4.7 0l5.4-5.4h5.7l-2.8 4.9-7.4 2c-.9.2-1.6.8-2 1.6s-.6 1.7-.3 2.5c.5 1.8 2.3 2.8 4.1 2.4l.9-.2-1.4 2.4c-.5.3-1 .8-1.3 1.3-1 1.8-.4 4.2 1.4 5.2.6.3 1.2.5 1.9.5.3 0 .7 0 1-.1 1-.3 1.8-.9 2.3-1.8.3-.5.5-1.2.5-1.8l1.4-2.3.2.9c.5 1.8 2.3 2.8 4.1 2.4.9-.2 1.6-.8 2-1.6.4-.8.6-1.7.3-2.5l-2-7.4 2.9-4.9 2.9 4.9-2 7.4c-.2.9-.1 1.8.3 2.5.4.8 1.2 1.3 2 1.6 1.8.5 3.6-.6 4.1-2.4l.2-.9 1.4 2.3c0 .6.2 1.2.5 1.8.5.9 1.3 1.5 2.3 1.8s2 .1 2.9-.4 1.5-1.3 1.8-2.3.1-2-.4-2.9c-.3-.5-.8-1-1.3-1.3l-1.4-2.4.9.2c1.8.5 3.6-.6 4.1-2.4.5-1.8-.6-3.6-2.4-4.1l-7.4-2-2.8-4.9h5.7l5.4 5.4c1.3 1.3 3.4 1.3 4.7 0 1.3-1.3 1.3-3.4 0-4.7l-.7-.7H69c.6.3 1.2.5 1.8.5 2.1 0 3.8-1.7 3.8-3.8.1-2.3-1.6-4-3.7-4zM30.4 67.7v-.6.6zm.1-.6zm40.4-20c-.3 0-.7-.1-.9-.3l-.3-.2h-8.5l4.3 4.3c.5.5.5 1.3 0 1.7-.5.5-1.3.5-1.7 0l-6-6H47.5l5.1 8.9 8.2 2.2c.7.2 1 .9.9 1.5-.2.7-.8 1.1-1.5.9l-5.9-1.6 4.2 7.4.3.1c.3.1.5.4.7.7.2.4.3.8.2 1.3-.1.4-.4.8-.8 1-.4.2-.8.3-1.3.2-.4-.1-.8-.4-1-.8-.2-.3-.2-.6-.2-.9v-.3l-4.2-7.3-1.6 5.9c-.1.3-.3.6-.6.7-.3.2-.6.2-.9.1-.3-.1-.6-.3-.7-.6-.2-.3-.2-.6-.1-.9l2.2-8.2-5.1-8.9-5.1 8.9 2.2 8.2c.1.3 0 .6-.1.9-.2.3-.4.5-.7.6-.6.2-1.3-.2-1.5-.9l-1.6-5.9-4.2 7.3v.3c0 .3-.1.7-.2.9-.2.4-.6.7-1 .8-.4.1-.9.1-1.3-.2-.8-.5-1.1-1.5-.6-2.3.2-.3.4-.5.7-.7l.3-.1 4.2-7.4-5.9 1.6c-.7.2-1.3-.2-1.5-.9-.1-.3 0-.6.1-.9s.4-.5.7-.6l8.2-2.2 5.1-8.9H33l-6 6c-.5.5-1.3.5-1.7 0-.5-.5-.5-1.3 0-1.7l4.3-4.3H21l-.3.2c-.3.2-.6.3-.9.3-.9 0-1.7-.8-1.7-1.7s.8-1.7 1.7-1.7c.3 0 .7.1.9.3l.3.2h8.5l-4.3-4.3c-.2-.2-.4-.5-.4-.9 0-.3.1-.6.4-.9.5-.5 1.3-.5 1.7 0l6 6h10.2L38 35.1l-8.2-2.2c-.3-.1-.6-.3-.7-.6-.2-.3-.2-.6-.1-.9s.3-.6.6-.7.6-.2.9-.1l5.9 1.6-4.3-7.2-.3-.1c-.3-.1-.5-.4-.7-.7-.5-.8-.2-1.8.6-2.3.4-.2.8-.3 1.3-.2.4.1.8.4 1 .8.2.3.2.6.2.9v.3l4.2 7.3 1.6-5.9c.1-.3.3-.6.6-.8.3-.2.6-.2.9-.1.3.1.6.3.7.6.2.3.2.6.1.9l-2.2 8.2 5.1 8.9 5.1-8.9-2.2-8.2c-.1-.3 0-.6.1-.9.2-.3.4-.5.8-.6.3-.1.6 0 .9.1.3.2.5.4.6.7l1.6 5.9 4.2-7.3v-.3c0-.3.1-.7.2-.9.2-.4.6-.7 1-.8.4-.1.9-.1 1.3.2.8.5 1.1 1.5.6 2.3-.2.3-.4.5-.7.7l-.1.2-4.2 7.4 5.9-1.6c.7-.2 1.3.2 1.5.9.1.3 0 .6-.1.9-.2.3-.4.5-.7.6l-8.2 2.2-5.1 8.9H58l6-6c.2-.2.5-.4.9-.4.3 0 .6.1.9.4.2.2.4.5.4.9s-.1.6-.4.9l-4.3 4.3H70V44c.3-.2.6-.3.9-.3.9 0 1.7.8 1.7 1.7s-.8 1.7-1.7 1.7z"/></g></svg>